<?xml version="1.0" encoding="UTF-8"?>
<svg xmlns="http://www.w3.org/2000/svg" xmlns:xlink="http://www.w3.org/1999/xlink" width="291.077" height="196.821" viewBox="0 0 194.051 131.214">
<defs>
<g>
<g id="glyph-0-0">
<path d="M 4.578125 -2.15625 C 4.796875 -2.15625 4.890625 -2.15625 4.890625 -2.421875 C 4.890625 -2.734375 4.828125 -3.453125 4.34375 -3.953125 C 3.96875 -4.3125 3.453125 -4.484375 2.765625 -4.484375 C 1.171875 -4.484375 0.3125 -3.46875 0.3125 -2.234375 C 0.3125 -0.90625 1.3125 0.0625 2.90625 0.0625 C 4.46875 0.0625 4.890625 -0.984375 4.890625 -1.15625 C 4.890625 -1.34375 4.703125 -1.34375 4.65625 -1.34375 C 4.484375 -1.34375 4.46875 -1.28125 4.40625 -1.125 C 4.203125 -0.65625 3.640625 -0.34375 2.984375 -0.34375 C 1.59375 -0.34375 1.578125 -1.65625 1.578125 -2.15625 Z M 1.578125 -2.484375 C 1.609375 -2.875 1.609375 -3.28125 1.828125 -3.609375 C 2.078125 -4.015625 2.484375 -4.125 2.765625 -4.125 C 3.921875 -4.125 3.9375 -2.828125 3.953125 -2.484375 Z M 1.578125 -2.484375 "/>
</g>
<g id="glyph-1-0">
<path d="M 3.5 -1.265625 L 3.265625 -1.265625 C 3.25 -1.109375 3.171875 -0.703125 3.09375 -0.625 C 3.03125 -0.59375 2.5 -0.59375 2.40625 -0.59375 L 1.125 -0.59375 C 1.859375 -1.234375 2.09375 -1.421875 2.515625 -1.75 C 3.03125 -2.171875 3.5 -2.59375 3.5 -3.25 C 3.5 -4.09375 2.765625 -4.609375 1.875 -4.609375 C 1.015625 -4.609375 0.4375 -4 0.4375 -3.359375 C 0.4375 -3.015625 0.734375 -2.96875 0.8125 -2.96875 C 0.96875 -2.96875 1.171875 -3.09375 1.171875 -3.34375 C 1.171875 -3.46875 1.125 -3.71875 0.765625 -3.71875 C 0.984375 -4.203125 1.453125 -4.359375 1.78125 -4.359375 C 2.46875 -4.359375 2.828125 -3.8125 2.828125 -3.25 C 2.828125 -2.65625 2.40625 -2.171875 2.171875 -1.921875 L 0.5 -0.265625 C 0.4375 -0.203125 0.4375 -0.1875 0.4375 0 L 3.296875 0 Z M 3.5 -1.265625 "/>
</g>
<g id="glyph-1-1">
<path d="M 2.328125 -4.40625 C 2.328125 -4.59375 2.3125 -4.609375 2.109375 -4.609375 C 1.671875 -4.171875 1.046875 -4.15625 0.75 -4.15625 L 0.75 -3.90625 C 0.921875 -3.90625 1.375 -3.90625 1.765625 -4.109375 L 1.765625 -0.5625 C 1.765625 -0.34375 1.765625 -0.25 1.0625 -0.25 L 0.8125 -0.25 L 0.8125 0 C 0.921875 0 1.78125 -0.03125 2.046875 -0.03125 C 2.25 -0.03125 3.125 0 3.28125 0 L 3.28125 -0.25 L 3.015625 -0.25 C 2.328125 -0.25 2.328125 -0.34375 2.328125 -0.5625 Z M 2.328125 -4.40625 "/>
</g>
<g id="glyph-1-2">
<path d="M 1.890625 -2.3125 C 2.4375 -2.3125 2.828125 -1.9375 2.828125 -1.203125 C 2.828125 -0.34375 2.328125 -0.078125 1.921875 -0.078125 C 1.640625 -0.078125 1.03125 -0.15625 0.75 -0.5625 C 1.0625 -0.578125 1.140625 -0.8125 1.140625 -0.953125 C 1.140625 -1.171875 0.984375 -1.34375 0.765625 -1.34375 C 0.5625 -1.34375 0.375 -1.21875 0.375 -0.9375 C 0.375 -0.28125 1.09375 0.140625 1.9375 0.140625 C 2.90625 0.140625 3.5625 -0.5 3.5625 -1.203125 C 3.5625 -1.734375 3.125 -2.28125 2.359375 -2.4375 C 3.09375 -2.703125 3.34375 -3.21875 3.34375 -3.65625 C 3.34375 -4.203125 2.71875 -4.609375 1.953125 -4.609375 C 1.171875 -4.609375 0.59375 -4.234375 0.59375 -3.671875 C 0.59375 -3.4375 0.75 -3.3125 0.953125 -3.3125 C 1.171875 -3.3125 1.296875 -3.46875 1.296875 -3.65625 C 1.296875 -3.859375 1.171875 -4.015625 0.953125 -4.03125 C 1.1875 -4.328125 1.671875 -4.40625 1.921875 -4.40625 C 2.234375 -4.40625 2.671875 -4.25 2.671875 -3.65625 C 2.671875 -3.359375 2.578125 -3.03125 2.40625 -2.828125 C 2.171875 -2.5625 1.984375 -2.546875 1.625 -2.53125 C 1.453125 -2.515625 1.4375 -2.515625 1.40625 -2.5 C 1.390625 -2.5 1.34375 -2.484375 1.34375 -2.421875 C 1.34375 -2.3125 1.40625 -2.3125 1.515625 -2.3125 Z M 1.890625 -2.3125 "/>
</g>
<g id="glyph-2-0">
<path d="M 6.8125 -3.234375 C 6.953125 -3.234375 7.140625 -3.234375 7.140625 -3.4375 C 7.140625 -3.640625 6.953125 -3.640625 6.8125 -3.640625 L 0.875 -3.640625 C 0.75 -3.640625 0.5625 -3.640625 0.5625 -3.4375 C 0.5625 -3.234375 0.75 -3.234375 0.890625 -3.234375 Z M 6.8125 -1.3125 C 6.953125 -1.3125 7.140625 -1.3125 7.140625 -1.515625 C 7.140625 -1.71875 6.953125 -1.71875 6.8125 -1.71875 L 0.890625 -1.71875 C 0.75 -1.71875 0.5625 -1.71875 0.5625 -1.515625 C 0.5625 -1.3125 0.75 -1.3125 0.875 -1.3125 Z M 6.8125 -1.3125 "/>
</g>
<g id="glyph-3-0">
<path d="M 3.859375 -2.75 L 1.875 -4.71875 C 1.75 -4.84375 1.734375 -4.859375 1.65625 -4.859375 C 1.5625 -4.859375 1.453125 -4.78125 1.453125 -4.671875 C 1.453125 -4.59375 1.46875 -4.578125 1.578125 -4.46875 L 3.5625 -2.484375 L 1.578125 -0.484375 C 1.46875 -0.375 1.453125 -0.359375 1.453125 -0.28125 C 1.453125 -0.171875 1.5625 -0.09375 1.65625 -0.09375 C 1.734375 -0.09375 1.75 -0.109375 1.875 -0.234375 L 3.84375 -2.203125 L 5.890625 -0.15625 C 5.90625 -0.140625 5.984375 -0.09375 6.046875 -0.09375 C 6.15625 -0.09375 6.234375 -0.171875 6.234375 -0.28125 C 6.234375 -0.3125 6.234375 -0.34375 6.21875 -0.390625 C 6.203125 -0.421875 4.625 -1.96875 4.125 -2.484375 L 5.9375 -4.296875 C 6 -4.34375 6.140625 -4.484375 6.1875 -4.53125 C 6.203125 -4.5625 6.234375 -4.59375 6.234375 -4.671875 C 6.234375 -4.78125 6.15625 -4.859375 6.046875 -4.859375 C 5.96875 -4.859375 5.921875 -4.828125 5.8125 -4.71875 Z M 3.859375 -2.75 "/>
</g>
<g id="glyph-4-0">
<path d="M 2.96875 -3.859375 C 2.828125 -3.859375 2.8125 -3.84375 2.8125 -3.84375 C 2.78125 -3.84375 2.765625 -3.84375 2.640625 -3.84375 L 1.5625 -3.84375 L 1.5625 -4.8125 C 1.5625 -5.75 2.390625 -6.0625 2.90625 -6.0625 C 3.109375 -6.0625 3.453125 -6 3.671875 -5.796875 C 3.328125 -5.75 3.265625 -5.484375 3.265625 -5.375 C 3.265625 -5.109375 3.484375 -4.953125 3.6875 -4.953125 C 3.921875 -4.953125 4.109375 -5.125 4.109375 -5.375 C 4.109375 -5.875 3.625 -6.28125 2.90625 -6.28125 C 2.015625 -6.28125 0.953125 -5.796875 0.953125 -4.84375 L 0.953125 -3.84375 L 0.25 -3.84375 L 0.25 -3.5625 L 0.953125 -3.5625 L 0.953125 -0.6875 C 0.953125 -0.28125 0.859375 -0.28125 0.265625 -0.28125 L 0.265625 0 C 0.6875 -0.015625 0.859375 -0.03125 1.265625 -0.03125 C 1.6875 -0.03125 1.828125 -0.015625 2.265625 0 L 2.265625 -0.28125 C 1.6875 -0.28125 1.578125 -0.28125 1.578125 -0.6875 L 1.578125 -3.5625 L 3.015625 -3.5625 C 3.4375 -3.5625 3.484375 -3.453125 3.484375 -3.078125 L 3.484375 -0.6875 C 3.484375 -0.28125 3.390625 -0.28125 2.8125 -0.28125 L 2.8125 0 C 3.21875 -0.015625 3.390625 -0.03125 3.796875 -0.03125 C 4.21875 -0.03125 4.375 -0.015625 4.8125 0 L 4.8125 -0.28125 C 4.21875 -0.28125 4.125 -0.28125 4.125 -0.6875 L 4.125 -3.953125 Z M 2.96875 -3.859375 "/>
</g>
<g id="glyph-4-1">
<path d="M 1.65625 -2.3125 C 1.65625 -3.25 2.328125 -3.71875 2.890625 -3.71875 C 3.40625 -3.71875 3.53125 -3.28125 3.53125 -2.75 L 3.53125 -0.6875 C 3.53125 -0.28125 3.421875 -0.28125 2.84375 -0.28125 L 2.84375 0 C 3.265625 -0.015625 3.421875 -0.03125 3.859375 -0.03125 C 4.28125 -0.03125 4.40625 -0.015625 4.875 0 L 4.875 -0.28125 C 4.421875 -0.28125 4.1875 -0.28125 4.1875 -0.546875 L 4.1875 -2.265625 C 4.1875 -3 4.1875 -3.265625 3.9375 -3.578125 C 3.734375 -3.828125 3.390625 -3.9375 2.953125 -3.9375 C 2.125 -3.9375 1.734375 -3.328125 1.609375 -3.078125 L 1.609375 -3.9375 L 0.3125 -3.84375 L 0.3125 -3.5625 C 0.921875 -3.5625 1 -3.5 1 -3.0625 L 1 -0.6875 C 1 -0.28125 0.90625 -0.28125 0.3125 -0.28125 L 0.3125 0 C 0.734375 -0.015625 0.90625 -0.03125 1.328125 -0.03125 C 1.75 -0.03125 1.875 -0.015625 2.34375 0 L 2.34375 -0.28125 C 1.75 -0.28125 1.65625 -0.28125 1.65625 -0.6875 Z M 1.65625 -2.3125 "/>
</g>
<g id="glyph-4-2">
<path d="M 1.109375 -1.59375 C 1.34375 -1.453125 1.609375 -1.3125 2.015625 -1.3125 C 2.875 -1.3125 3.515625 -1.921875 3.515625 -2.625 C 3.515625 -3.0625 3.265625 -3.359375 3.140625 -3.484375 C 3.5 -3.8125 3.921875 -3.8125 4.03125 -3.8125 C 3.984375 -3.78125 3.90625 -3.734375 3.90625 -3.578125 C 3.90625 -3.484375 3.96875 -3.3125 4.171875 -3.3125 C 4.296875 -3.3125 4.4375 -3.40625 4.4375 -3.59375 C 4.4375 -3.765625 4.3125 -4.03125 3.96875 -4.03125 C 3.703125 -4.03125 3.296875 -3.9375 3 -3.609375 C 2.75 -3.8125 2.40625 -3.9375 2.03125 -3.9375 C 1.1875 -3.9375 0.546875 -3.328125 0.546875 -2.625 C 0.546875 -2.171875 0.8125 -1.859375 0.953125 -1.71875 C 0.9375 -1.703125 0.6875 -1.390625 0.6875 -0.984375 C 0.6875 -0.671875 0.828125 -0.359375 1.0625 -0.203125 C 0.609375 -0.046875 0.265625 0.28125 0.265625 0.6875 C 0.265625 1.328125 1.140625 1.828125 2.28125 1.828125 C 3.375 1.828125 4.3125 1.359375 4.3125 0.671875 C 4.3125 0.3125 4.140625 -0.078125 3.8125 -0.296875 C 3.3125 -0.609375 2.796875 -0.609375 1.953125 -0.609375 C 1.765625 -0.609375 1.484375 -0.609375 1.421875 -0.625 C 1.15625 -0.671875 0.984375 -0.921875 0.984375 -1.203125 C 0.984375 -1.34375 1.03125 -1.484375 1.109375 -1.59375 Z M 2.015625 -1.5625 C 1.234375 -1.5625 1.234375 -2.4375 1.234375 -2.625 C 1.234375 -2.875 1.25 -3.171875 1.390625 -3.390625 C 1.53125 -3.5625 1.765625 -3.703125 2.015625 -3.703125 C 2.828125 -3.703125 2.828125 -2.828125 2.828125 -2.625 C 2.828125 -2.421875 2.828125 -1.5625 2.015625 -1.5625 Z M 2.4375 -0.046875 C 2.71875 -0.046875 3.8125 -0.03125 3.8125 0.6875 C 3.8125 1.1875 3.125 1.59375 2.28125 1.59375 C 1.421875 1.59375 0.75 1.171875 0.75 0.6875 C 0.75 0.546875 0.84375 -0.046875 1.609375 -0.046875 Z M 2.4375 -0.046875 "/>
</g>
<g id="glyph-4-3">
<path d="M 3.5625 -2.046875 C 3.765625 -2.046875 3.796875 -2.046875 3.796875 -2.234375 C 3.796875 -3.140625 3.296875 -3.984375 2.171875 -3.984375 C 1.09375 -3.984375 0.265625 -3.0625 0.265625 -1.953125 C 0.265625 -0.796875 1.1875 0.09375 2.28125 0.09375 C 3.359375 0.09375 3.796875 -0.859375 3.796875 -1.0625 C 3.796875 -1.125 3.765625 -1.171875 3.671875 -1.171875 C 3.59375 -1.171875 3.5625 -1.109375 3.546875 -1.078125 C 3.25 -0.171875 2.453125 -0.15625 2.328125 -0.15625 C 1.890625 -0.15625 1.53125 -0.390625 1.328125 -0.6875 C 1.03125 -1.125 1.03125 -1.671875 1.03125 -2.046875 Z M 1.03125 -2.25 C 1.109375 -3.625 1.921875 -3.765625 2.171875 -3.765625 C 2.65625 -3.765625 3.1875 -3.390625 3.203125 -2.25 Z M 1.03125 -2.25 "/>
</g>
<g id="glyph-4-4">
<path d="M 1.578125 -2.046875 C 1.578125 -2.40625 1.6875 -3.71875 2.703125 -3.71875 L 2.703125 -3.703125 C 2.6875 -3.703125 2.53125 -3.59375 2.53125 -3.375 C 2.53125 -3.140625 2.71875 -2.984375 2.9375 -2.984375 C 3.125 -2.984375 3.328125 -3.125 3.328125 -3.390625 C 3.328125 -3.671875 3.0625 -3.9375 2.65625 -3.9375 C 2.125 -3.9375 1.75 -3.5625 1.546875 -3.015625 L 1.53125 -3.015625 L 1.53125 -3.9375 L 0.265625 -3.84375 L 0.265625 -3.5625 C 0.875 -3.5625 0.953125 -3.5 0.953125 -3.0625 L 0.953125 -0.6875 C 0.953125 -0.28125 0.859375 -0.28125 0.265625 -0.28125 L 0.265625 0 C 0.734375 -0.015625 0.859375 -0.03125 1.3125 -0.03125 C 1.671875 -0.03125 1.875 -0.015625 2.4375 0 L 2.4375 -0.28125 L 2.265625 -0.28125 C 1.609375 -0.28125 1.578125 -0.375 1.578125 -0.703125 Z M 1.578125 -2.046875 "/>
</g>
<g id="glyph-4-5">
<path d="M 3.0625 -3.765625 C 3.0625 -3.90625 3.0625 -3.984375 2.953125 -3.984375 C 2.90625 -3.984375 2.890625 -3.984375 2.78125 -3.890625 C 2.765625 -3.859375 2.6875 -3.78125 2.625 -3.734375 C 2.34375 -3.9375 2.078125 -3.984375 1.765625 -3.984375 C 0.59375 -3.984375 0.296875 -3.34375 0.296875 -2.890625 C 0.296875 -2.59375 0.421875 -2.375 0.625 -2.171875 C 0.9375 -1.890625 1.28125 -1.828125 1.734375 -1.75 C 2.1875 -1.671875 2.328125 -1.640625 2.53125 -1.484375 C 2.625 -1.421875 2.84375 -1.25 2.84375 -0.90625 C 2.84375 -0.125 1.9375 -0.125 1.8125 -0.125 C 0.90625 -0.125 0.671875 -0.875 0.5625 -1.359375 C 0.546875 -1.453125 0.53125 -1.5 0.421875 -1.5 C 0.296875 -1.5 0.296875 -1.4375 0.296875 -1.28125 L 0.296875 -0.140625 C 0.296875 0.015625 0.296875 0.09375 0.40625 0.09375 C 0.46875 0.09375 0.46875 0.09375 0.625 -0.078125 C 0.671875 -0.140625 0.765625 -0.25 0.8125 -0.296875 C 1.1875 0.078125 1.59375 0.09375 1.8125 0.09375 C 2.90625 0.09375 3.296875 -0.546875 3.296875 -1.140625 C 3.296875 -1.546875 3.125 -1.78125 2.921875 -1.984375 C 2.625 -2.28125 2.296875 -2.34375 1.640625 -2.46875 C 1.40625 -2.515625 0.75 -2.625 0.75 -3.140625 C 0.75 -3.421875 0.96875 -3.796875 1.765625 -3.796875 C 2.734375 -3.796875 2.796875 -3.0625 2.8125 -2.828125 C 2.828125 -2.71875 2.828125 -2.671875 2.9375 -2.671875 C 3.0625 -2.671875 3.0625 -2.734375 3.0625 -2.90625 Z M 3.0625 -3.765625 "/>
</g>
<g id="glyph-4-6">
<path d="M 3.234375 -3.5 C 3.0625 -3.46875 2.875 -3.34375 2.875 -3.078125 C 2.875 -2.84375 3.0625 -2.671875 3.28125 -2.671875 C 3.515625 -2.671875 3.703125 -2.828125 3.703125 -3.09375 C 3.703125 -3.65625 3.078125 -3.984375 2.296875 -3.984375 C 1.15625 -3.984375 0.296875 -3.03125 0.296875 -1.921875 C 0.296875 -0.78125 1.234375 0.09375 2.28125 0.09375 C 3.515625 0.09375 3.796875 -0.984375 3.796875 -1.0625 C 3.796875 -1.171875 3.703125 -1.171875 3.671875 -1.171875 C 3.578125 -1.171875 3.578125 -1.15625 3.53125 -1 C 3.328125 -0.390625 2.828125 -0.15625 2.375 -0.15625 C 1.796875 -0.15625 1.0625 -0.609375 1.0625 -1.9375 C 1.0625 -3.328125 1.78125 -3.734375 2.3125 -3.734375 C 2.4375 -3.734375 2.90625 -3.71875 3.234375 -3.5 Z M 3.234375 -3.5 "/>
</g>
<g id="glyph-4-7">
<path d="M 3.53125 -1.484375 C 3.53125 -0.6875 3.078125 -0.125 2.4375 -0.125 C 1.703125 -0.125 1.65625 -0.5 1.65625 -0.984375 L 1.65625 -3.9375 L 0.3125 -3.84375 L 0.3125 -3.5625 C 1 -3.5625 1 -3.53125 1 -2.75 L 1 -1.40625 C 1 -0.828125 1 -0.453125 1.40625 -0.140625 C 1.671875 0.03125 2.03125 0.09375 2.390625 0.09375 C 2.84375 0.09375 3.28125 -0.109375 3.546875 -0.640625 L 3.546875 0.09375 L 4.875 0 L 4.875 -0.28125 C 4.265625 -0.28125 4.1875 -0.34375 4.1875 -0.78125 L 4.1875 -3.9375 L 2.84375 -3.84375 L 2.84375 -3.5625 C 3.453125 -3.5625 3.53125 -3.5 3.53125 -3.0625 Z M 3.53125 -1.484375 "/>
</g>
<g id="glyph-4-8">
<path d="M 1.640625 -6.1875 L 0.328125 -6.078125 L 0.328125 -5.8125 C 0.921875 -5.8125 1 -5.75 1 -5.3125 L 1 -0.6875 C 1 -0.28125 0.90625 -0.28125 0.328125 -0.28125 L 0.328125 0 C 0.734375 -0.015625 0.90625 -0.03125 1.3125 -0.03125 C 1.734375 -0.03125 1.890625 -0.015625 2.328125 0 L 2.328125 -0.28125 C 1.734375 -0.28125 1.640625 -0.28125 1.640625 -0.6875 Z M 1.640625 -6.1875 "/>
</g>
<g id="glyph-4-9">
<path d="M 2.671875 -3.5625 L 2.671875 -3.84375 L 1.609375 -3.84375 L 1.609375 -4.84375 C 1.609375 -5.65625 2.046875 -6.0625 2.4375 -6.0625 C 2.515625 -6.0625 2.609375 -6.03125 2.703125 -6 C 2.609375 -5.96875 2.46875 -5.859375 2.46875 -5.640625 C 2.46875 -5.40625 2.640625 -5.25 2.859375 -5.25 C 3.09375 -5.25 3.265625 -5.421875 3.265625 -5.640625 C 3.265625 -5.984375 2.921875 -6.28125 2.4375 -6.28125 C 1.734375 -6.28125 1 -5.75 1 -4.859375 L 1 -3.84375 L 0.296875 -3.84375 L 0.296875 -3.5625 L 1 -3.5625 L 1 -0.6875 C 1 -0.28125 0.90625 -0.28125 0.328125 -0.28125 L 0.328125 0 C 0.796875 -0.015625 0.90625 -0.03125 1.359375 -0.03125 C 1.71875 -0.03125 1.9375 -0.015625 2.5 0 L 2.5 -0.28125 L 2.3125 -0.28125 C 1.671875 -0.28125 1.640625 -0.375 1.640625 -0.703125 L 1.640625 -3.5625 Z M 2.671875 -3.5625 "/>
</g>
<g id="glyph-4-10">
<path d="M 4.3125 -1.890625 C 4.3125 -3.0625 3.390625 -3.984375 2.28125 -3.984375 C 1.15625 -3.984375 0.265625 -3.03125 0.265625 -1.890625 C 0.265625 -0.78125 1.1875 0.09375 2.28125 0.09375 C 3.40625 0.09375 4.3125 -0.796875 4.3125 -1.890625 Z M 2.28125 -0.15625 C 1.84375 -0.15625 1.46875 -0.375 1.265625 -0.71875 C 1.03125 -1.09375 1.03125 -1.5625 1.03125 -1.984375 C 1.03125 -2.3125 1.03125 -2.8125 1.25 -3.171875 C 1.515625 -3.640625 1.953125 -3.765625 2.28125 -3.765625 C 2.78125 -3.765625 3.15625 -3.484375 3.328125 -3.171875 C 3.53125 -2.8125 3.546875 -2.34375 3.546875 -1.984375 C 3.546875 -1.640625 3.546875 -1.125 3.328125 -0.734375 C 3.078125 -0.328125 2.65625 -0.15625 2.28125 -0.15625 Z M 2.28125 -0.15625 "/>
</g>
<g id="glyph-4-11">
<path d="M 1.65625 -2.3125 C 1.65625 -3.265625 2.34375 -3.71875 2.890625 -3.71875 C 3.375 -3.71875 3.53125 -3.359375 3.53125 -2.75 L 3.53125 -0.6875 C 3.53125 -0.28125 3.4375 -0.28125 2.84375 -0.28125 L 2.84375 0 C 3.265625 -0.015625 3.4375 -0.03125 3.859375 -0.03125 C 4.296875 -0.03125 4.40625 -0.015625 4.875 0 L 4.875 -0.28125 C 4.296875 -0.28125 4.1875 -0.28125 4.1875 -0.6875 L 4.1875 -2.3125 C 4.1875 -3.265625 4.890625 -3.71875 5.421875 -3.71875 C 5.90625 -3.71875 6.078125 -3.359375 6.078125 -2.75 L 6.078125 -0.6875 C 6.078125 -0.28125 5.96875 -0.28125 5.390625 -0.28125 L 5.390625 0 C 5.8125 -0.015625 5.96875 -0.03125 6.40625 -0.03125 C 6.828125 -0.03125 6.953125 -0.015625 7.421875 0 L 7.421875 -0.28125 C 6.96875 -0.28125 6.734375 -0.28125 6.734375 -0.546875 L 6.734375 -2.265625 C 6.734375 -3.03125 6.734375 -3.28125 6.4375 -3.609375 C 6.25 -3.828125 5.890625 -3.9375 5.484375 -3.9375 C 4.84375 -3.9375 4.40625 -3.5625 4.15625 -3.09375 C 4.046875 -3.609375 3.703125 -3.9375 2.953125 -3.9375 C 2.234375 -3.9375 1.796875 -3.46875 1.609375 -3.0625 L 1.609375 -3.9375 L 0.3125 -3.84375 L 0.3125 -3.5625 C 0.921875 -3.5625 1 -3.5 1 -3.0625 L 1 -0.6875 C 1 -0.28125 0.90625 -0.28125 0.3125 -0.28125 L 0.3125 0 C 0.734375 -0.015625 0.90625 -0.03125 1.328125 -0.03125 C 1.75 -0.03125 1.875 -0.015625 2.34375 0 L 2.34375 -0.28125 C 1.75 -0.28125 1.65625 -0.28125 1.65625 -0.6875 Z M 1.65625 -2.3125 "/>
</g>
<g id="glyph-4-12">
<path d="M 2.890625 -3.5625 L 2.890625 -3.84375 L 1.609375 -3.84375 L 1.609375 -5.484375 L 1.359375 -5.484375 C 1.34375 -4.734375 1.03125 -3.8125 0.171875 -3.78125 L 0.171875 -3.5625 L 0.9375 -3.5625 L 0.9375 -1.109375 C 0.9375 -0.109375 1.671875 0.09375 2.140625 0.09375 C 2.734375 0.09375 3.046875 -0.46875 3.046875 -1.109375 L 3.046875 -1.609375 L 2.796875 -1.609375 L 2.796875 -1.125 C 2.796875 -0.46875 2.515625 -0.15625 2.203125 -0.15625 C 1.609375 -0.15625 1.609375 -0.9375 1.609375 -1.09375 L 1.609375 -3.5625 Z M 2.890625 -3.5625 "/>
</g>
<g id="glyph-4-13">
<path d="M 1.625 -6.1875 L 0.3125 -6.078125 L 0.3125 -5.8125 C 0.921875 -5.8125 1 -5.75 1 -5.3125 L 1 -0.6875 C 1 -0.28125 0.90625 -0.28125 0.3125 -0.28125 L 0.3125 0 C 0.734375 -0.015625 0.90625 -0.03125 1.328125 -0.03125 C 1.75 -0.03125 1.875 -0.015625 2.34375 0 L 2.34375 -0.28125 C 1.75 -0.28125 1.65625 -0.28125 1.65625 -0.6875 L 1.65625 -2.3125 C 1.65625 -3.25 2.328125 -3.71875 2.890625 -3.71875 C 3.40625 -3.71875 3.53125 -3.28125 3.53125 -2.75 L 3.53125 -0.6875 C 3.53125 -0.28125 3.421875 -0.28125 2.84375 -0.28125 L 2.84375 0 C 3.265625 -0.015625 3.421875 -0.03125 3.859375 -0.03125 C 4.28125 -0.03125 4.40625 -0.015625 4.875 0 L 4.875 -0.28125 C 4.421875 -0.28125 4.1875 -0.28125 4.1875 -0.546875 L 4.1875 -2.265625 C 4.1875 -3 4.1875 -3.265625 3.9375 -3.578125 C 3.734375 -3.828125 3.390625 -3.9375 2.953125 -3.9375 C 2.34375 -3.9375 1.921875 -3.625 1.640625 -3.125 L 1.625 -3.125 Z M 1.625 -6.1875 "/>
</g>
<g id="glyph-4-14">
<path d="M 1.609375 -2.84375 C 1.609375 -3.015625 1.609375 -3.015625 1.703125 -3.15625 C 2.015625 -3.578125 2.453125 -3.71875 2.78125 -3.71875 C 3.171875 -3.71875 3.53125 -3.5 3.765625 -3.125 C 3.984375 -2.75 4.015625 -2.21875 4.015625 -1.9375 C 4.015625 -1.515625 3.953125 -1.046875 3.71875 -0.6875 C 3.53125 -0.40625 3.15625 -0.125 2.6875 -0.125 C 2.28125 -0.125 1.953125 -0.34375 1.734375 -0.671875 C 1.609375 -0.859375 1.609375 -0.859375 1.609375 -1.03125 Z M 1.53125 -0.546875 C 1.8125 -0.15625 2.25 0.09375 2.734375 0.09375 C 3.796875 0.09375 4.78125 -0.75 4.78125 -1.921875 C 4.78125 -3.03125 3.890625 -3.9375 2.828125 -3.9375 C 2.21875 -3.9375 1.796875 -3.625 1.578125 -3.390625 L 1.578125 -6.1875 L 0.265625 -6.078125 L 0.265625 -5.8125 C 0.875 -5.8125 0.953125 -5.75 0.953125 -5.3125 L 0.953125 0 L 1.203125 0 Z M 1.53125 -0.546875 "/>
</g>
<g id="glyph-4-15">
<path d="M 3.046875 -0.640625 C 3.09375 -0.265625 3.34375 0.046875 3.734375 0.046875 C 3.953125 0.046875 4.515625 -0.078125 4.515625 -0.796875 L 4.515625 -1.296875 L 4.265625 -1.296875 L 4.265625 -0.796875 C 4.265625 -0.703125 4.265625 -0.265625 3.953125 -0.265625 C 3.625 -0.265625 3.625 -0.6875 3.625 -0.828125 L 3.625 -2.390625 C 3.625 -2.890625 3.625 -3.203125 3.21875 -3.5625 C 2.890625 -3.859375 2.46875 -3.984375 2.015625 -3.984375 C 1.28125 -3.984375 0.65625 -3.609375 0.65625 -3.046875 C 0.65625 -2.765625 0.84375 -2.625 1.0625 -2.625 C 1.3125 -2.625 1.484375 -2.796875 1.484375 -3.03125 C 1.484375 -3.40625 1.09375 -3.453125 1.078125 -3.453125 C 1.3125 -3.6875 1.75 -3.765625 2 -3.765625 C 2.453125 -3.765625 2.96875 -3.421875 2.96875 -2.640625 L 2.96875 -2.34375 C 2.484375 -2.328125 1.8125 -2.28125 1.21875 -2 C 0.578125 -1.6875 0.390625 -1.234375 0.390625 -0.875 C 0.390625 -0.140625 1.25 0.09375 1.84375 0.09375 C 2.578125 0.09375 2.921875 -0.390625 3.046875 -0.640625 Z M 2.96875 -1.25 C 2.96875 -0.390625 2.296875 -0.125 1.90625 -0.125 C 1.484375 -0.125 1.09375 -0.421875 1.09375 -0.875 C 1.09375 -1.453125 1.609375 -2.078125 2.96875 -2.140625 Z M 2.96875 -1.25 "/>
</g>
<g id="glyph-5-0">
<path d="M 4.234375 -1.921875 C 4.421875 -1.921875 4.53125 -1.921875 4.53125 -2.171875 C 4.53125 -2.359375 4.515625 -3.140625 3.9375 -3.625 C 3.53125 -3.953125 3 -4.03125 2.5625 -4.03125 C 1.046875 -4.03125 0.296875 -3.078125 0.296875 -2 C 0.296875 -0.84375 1.171875 0.046875 2.6875 0.046875 C 4.15625 0.046875 4.53125 -0.890625 4.53125 -1.03125 C 4.53125 -1.21875 4.359375 -1.21875 4.296875 -1.21875 C 4.140625 -1.21875 4.125 -1.15625 4.0625 -1.03125 C 3.859375 -0.5625 3.328125 -0.328125 2.765625 -0.328125 C 1.5 -0.328125 1.484375 -1.484375 1.484375 -1.921875 Z M 1.484375 -2.234375 C 1.5 -2.640625 1.546875 -3.671875 2.5625 -3.671875 C 3.609375 -3.671875 3.640625 -2.59375 3.65625 -2.234375 Z M 1.484375 -2.234375 "/>
</g>
<g id="glyph-6-0">
<path d="M 2.125 -3.765625 C 2.125 -3.953125 2.109375 -3.953125 1.9375 -3.953125 C 1.53125 -3.5625 0.9375 -3.5625 0.71875 -3.5625 L 0.71875 -3.34375 C 0.875 -3.34375 1.265625 -3.34375 1.625 -3.5 L 1.625 -0.5 C 1.625 -0.3125 1.625 -0.234375 1.015625 -0.234375 L 0.75 -0.234375 L 0.75 0 C 1.078125 -0.03125 1.546875 -0.03125 1.875 -0.03125 C 2.203125 -0.03125 2.671875 -0.03125 3 0 L 3 -0.234375 L 2.75 -0.234375 C 2.125 -0.234375 2.125 -0.3125 2.125 -0.5 Z M 2.125 -3.765625 "/>
</g>
<g id="glyph-6-1">
<path d="M 3.1875 -1.109375 L 2.96875 -1.109375 C 2.96875 -1.03125 2.90625 -0.640625 2.8125 -0.5625 C 2.765625 -0.53125 2.296875 -0.53125 2.203125 -0.53125 L 1.09375 -0.53125 L 1.859375 -1.15625 C 2.0625 -1.3125 2.59375 -1.6875 2.765625 -1.875 C 2.953125 -2.046875 3.1875 -2.34375 3.1875 -2.765625 C 3.1875 -3.515625 2.53125 -3.953125 1.734375 -3.953125 C 0.96875 -3.953125 0.421875 -3.4375 0.421875 -2.890625 C 0.421875 -2.578125 0.6875 -2.546875 0.75 -2.546875 C 0.890625 -2.546875 1.0625 -2.65625 1.0625 -2.875 C 1.0625 -3 0.984375 -3.1875 0.734375 -3.1875 C 0.859375 -3.484375 1.234375 -3.71875 1.640625 -3.71875 C 2.265625 -3.71875 2.59375 -3.25 2.59375 -2.765625 C 2.59375 -2.34375 2.3125 -1.921875 1.90625 -1.53125 L 0.5 -0.25 C 0.4375 -0.1875 0.421875 -0.1875 0.421875 0 L 3.015625 0 Z M 3.1875 -1.109375 "/>
</g>
<g id="glyph-6-2">
<path d="M 1.75 -1.96875 C 2.25 -1.96875 2.59375 -1.640625 2.59375 -1.03125 C 2.59375 -0.375 2.203125 -0.09375 1.765625 -0.09375 C 1.609375 -0.09375 0.984375 -0.125 0.71875 -0.46875 C 0.953125 -0.5 1.046875 -0.640625 1.046875 -0.8125 C 1.046875 -1.015625 0.90625 -1.140625 0.71875 -1.140625 C 0.546875 -1.140625 0.375 -1.046875 0.375 -0.796875 C 0.375 -0.203125 1.03125 0.125 1.78125 0.125 C 2.65625 0.125 3.25 -0.4375 3.25 -1.03125 C 3.25 -1.453125 2.921875 -1.921875 2.203125 -2.09375 C 2.671875 -2.25 3.0625 -2.625 3.0625 -3.125 C 3.0625 -3.59375 2.5 -3.953125 1.78125 -3.953125 C 1.09375 -3.953125 0.5625 -3.625 0.5625 -3.140625 C 0.5625 -2.890625 0.765625 -2.8125 0.875 -2.8125 C 1.03125 -2.8125 1.1875 -2.921875 1.1875 -3.125 C 1.1875 -3.3125 1.0625 -3.421875 0.90625 -3.4375 C 1.1875 -3.75 1.71875 -3.75 1.78125 -3.75 C 2.078125 -3.75 2.453125 -3.609375 2.453125 -3.125 C 2.453125 -2.796875 2.28125 -2.21875 1.6875 -2.1875 C 1.578125 -2.171875 1.40625 -2.171875 1.359375 -2.171875 C 1.296875 -2.15625 1.234375 -2.15625 1.234375 -2.0625 C 1.234375 -1.96875 1.296875 -1.96875 1.40625 -1.96875 Z M 1.75 -1.96875 "/>
</g>
</g>
</defs>
<path fill="none" stroke-width="0.79701" stroke-linecap="butt" stroke-linejoin="miter" stroke="rgb(0%, 0%, 0%)" stroke-opacity="1" stroke-miterlimit="10" d="M -0.00139204 0.000430061 L 67.234907 0.000430061 " transform="matrix(0.994045, 0, 0, -0.994045, 56.78654, 83.867615)"/>
<path fill="none" stroke-width="0.79701" stroke-linecap="round" stroke-linejoin="round" stroke="rgb(0%, 0%, 0%)" stroke-opacity="1" stroke-miterlimit="10" d="M -2.548671 3.112712 C -2.084972 1.246129 -1.047545 0.361958 0.00167129 0.000430061 C -1.047545 -0.361098 -2.084972 -1.245269 -2.548671 -3.111852 " transform="matrix(0.994045, 0, 0, -0.994045, 124.01787, 83.867615)"/>
<g fill="rgb(0%, 0%, 0%)" fill-opacity="1">
<use xlink:href="#glyph-0-0" x="128.110295" y="85.32588"/>
</g>
<g fill="rgb(0%, 0%, 0%)" fill-opacity="1">
<use xlink:href="#glyph-1-0" x="133.330028" y="86.810984"/>
</g>
<path fill="none" stroke-width="0.79701" stroke-linecap="butt" stroke-linejoin="miter" stroke="rgb(0%, 0%, 0%)" stroke-opacity="1" stroke-miterlimit="10" d="M -0.00139204 0.000430061 L -37.655291 -31.381749 " transform="matrix(0.994045, 0, 0, -0.994045, 56.78654, 83.867615)"/>
<path fill="none" stroke-width="0.79701" stroke-linecap="round" stroke-linejoin="round" stroke="rgb(0%, 0%, 0%)" stroke-opacity="1" stroke-miterlimit="10" d="M -2.549671 3.109729 C -2.084249 1.243465 -1.04722 0.363916 -0.00112972 -0.00139319 C -1.045212 -0.364173 -2.084265 -1.242703 -2.550717 -3.109967 " transform="matrix(-0.763596, 0.636338, 0.636338, 0.763596, 19.050805, 115.314283)"/>
<g fill="rgb(0%, 0%, 0%)" fill-opacity="1">
<use xlink:href="#glyph-0-0" x="5.387432" y="123.666213"/>
</g>
<g fill="rgb(0%, 0%, 0%)" fill-opacity="1">
<use xlink:href="#glyph-1-1" x="10.607164" y="125.151317"/>
</g>
<path fill="none" stroke-width="0.79701" stroke-linecap="butt" stroke-linejoin="miter" stroke="rgb(0%, 0%, 0%)" stroke-opacity="1" stroke-miterlimit="10" d="M -0.00139204 0.000430061 L -0.00139204 67.236729 " transform="matrix(0.994045, 0, 0, -0.994045, 56.78654, 83.867615)"/>
<path fill="none" stroke-width="0.79701" stroke-linecap="round" stroke-linejoin="round" stroke="rgb(0%, 0%, 0%)" stroke-opacity="1" stroke-miterlimit="10" d="M -2.550779 3.109745 C -2.08315 1.243161 -1.045723 0.36292 -0.000436263 0.00139204 C -1.045723 -0.364065 -2.08315 -1.244307 -2.550779 -3.11089 " transform="matrix(0, -0.994045, -0.994045, 0, 56.78654, 16.636285)"/>
<g fill="rgb(0%, 0%, 0%)" fill-opacity="1">
<use xlink:href="#glyph-0-0" x="29.638165" y="11.058756"/>
</g>
<g fill="rgb(0%, 0%, 0%)" fill-opacity="1">
<use xlink:href="#glyph-1-2" x="34.857897" y="12.54386"/>
</g>
<g fill="rgb(0%, 0%, 0%)" fill-opacity="1">
<use xlink:href="#glyph-2-0" x="42.051804" y="11.058756"/>
</g>
<g fill="rgb(0%, 0%, 0%)" fill-opacity="1">
<use xlink:href="#glyph-0-0" x="52.505186" y="11.058756"/>
</g>
<g fill="rgb(0%, 0%, 0%)" fill-opacity="1">
<use xlink:href="#glyph-1-1" x="57.724919" y="12.54386"/>
</g>
<g fill="rgb(0%, 0%, 0%)" fill-opacity="1">
<use xlink:href="#glyph-3-0" x="64.368125" y="11.058756"/>
</g>
<g fill="rgb(0%, 0%, 0%)" fill-opacity="1">
<use xlink:href="#glyph-0-0" x="74.2718" y="11.058756"/>
</g>
<g fill="rgb(0%, 0%, 0%)" fill-opacity="1">
<use xlink:href="#glyph-1-0" x="79.491532" y="12.54386"/>
</g>
<path fill="none" stroke-width="0.3985" stroke-linecap="butt" stroke-linejoin="miter" stroke="rgb(0%, 0%, 0%)" stroke-opacity="1" stroke-dasharray="2.98883 2.98883" stroke-miterlimit="10" d="M -23.386735 -19.561364 C -8.505153 -31.888674 21.26194 -19.133032 29.584937 -2.483108 " transform="matrix(0.994045, 0, 0, -0.994045, 56.78654, 83.867615)"/>
<path fill="none" stroke-width="0.3985" stroke-linecap="round" stroke-linejoin="round" stroke="rgb(0%, 0%, 0%)" stroke-opacity="1" stroke-miterlimit="10" d="M -2.071912 2.390771 C -1.694056 0.958379 -0.848689 0.278206 -0.00156039 -0.00124899 C -0.850451 -0.280689 -1.694073 -0.957332 -2.071955 -2.389717 " transform="matrix(0.444507, -0.889034, -0.889034, -0.444507, 86.284739, 86.158214)"/>
<g fill="rgb(0%, 0%, 0%)" fill-opacity="1">
<use xlink:href="#glyph-4-0" x="86.464761" y="115.68204"/>
<use xlink:href="#glyph-4-1" x="91.554089" y="115.68204"/>
<use xlink:href="#glyph-4-2" x="96.643418" y="115.68204"/>
<use xlink:href="#glyph-4-3" x="101.223813" y="115.68204"/>
<use xlink:href="#glyph-4-4" x="105.298841" y="115.68204"/>
<use xlink:href="#glyph-4-5" x="108.88187" y="115.68204"/>
</g>
<g fill="rgb(0%, 0%, 0%)" fill-opacity="1">
<use xlink:href="#glyph-4-6" x="115.543453" y="115.68204"/>
<use xlink:href="#glyph-4-7" x="119.614916" y="115.68204"/>
<use xlink:href="#glyph-4-4" x="124.704244" y="115.68204"/>
<use xlink:href="#glyph-4-8" x="128.287274" y="115.68204"/>
</g>
<g fill="rgb(0%, 0%, 0%)" fill-opacity="1">
<use xlink:href="#glyph-4-9" x="133.8891" y="115.68204"/>
<use xlink:href="#glyph-4-4" x="136.687785" y="115.68204"/>
<use xlink:href="#glyph-4-10" x="140.270815" y="115.68204"/>
<use xlink:href="#glyph-4-11" x="144.85121" y="115.68204"/>
</g>
<g fill="rgb(0%, 0%, 0%)" fill-opacity="1">
<use xlink:href="#glyph-5-0" x="155.538992" y="115.68204"/>
</g>
<g fill="rgb(0%, 0%, 0%)" fill-opacity="1">
<use xlink:href="#glyph-6-0" x="160.378999" y="116.672109"/>
</g>
<g fill="rgb(0%, 0%, 0%)" fill-opacity="1">
<use xlink:href="#glyph-4-12" x="167.557995" y="115.68204"/>
<use xlink:href="#glyph-4-10" x="171.120525" y="115.68204"/>
</g>
<g fill="rgb(0%, 0%, 0%)" fill-opacity="1">
<use xlink:href="#glyph-5-0" x="178.754923" y="115.68204"/>
</g>
<g fill="rgb(0%, 0%, 0%)" fill-opacity="1">
<use xlink:href="#glyph-6-1" x="183.593936" y="116.672109"/>
</g>
<g fill="rgb(0%, 0%, 0%)" fill-opacity="1">
<use xlink:href="#glyph-4-12" x="78.418957" y="39.602771"/>
<use xlink:href="#glyph-4-13" x="81.981487" y="39.602771"/>
</g>
<g fill="rgb(0%, 0%, 0%)" fill-opacity="1">
<use xlink:href="#glyph-4-7" x="86.812338" y="39.602771"/>
<use xlink:href="#glyph-4-11" x="91.901666" y="39.602771"/>
</g>
<g fill="rgb(0%, 0%, 0%)" fill-opacity="1">
<use xlink:href="#glyph-4-14" x="99.286094" y="39.602771"/>
</g>
<g fill="rgb(0%, 0%, 0%)" fill-opacity="1">
<use xlink:href="#glyph-4-15" x="107.423672" y="39.602771"/>
<use xlink:href="#glyph-4-8" x="112.004067" y="39.602771"/>
<use xlink:href="#glyph-4-10" x="114.548731" y="39.602771"/>
<use xlink:href="#glyph-4-1" x="119.129127" y="39.602771"/>
<use xlink:href="#glyph-4-2" x="124.218455" y="39.602771"/>
</g>
<g fill="rgb(0%, 0%, 0%)" fill-opacity="1">
<use xlink:href="#glyph-5-0" x="131.854865" y="39.602771"/>
</g>
<g fill="rgb(0%, 0%, 0%)" fill-opacity="1">
<use xlink:href="#glyph-6-2" x="136.693878" y="40.59284"/>
</g>
</svg>
