<?xml version="1.0" encoding="UTF-8"?>
<svg xmlns="http://www.w3.org/2000/svg" xmlns:xlink="http://www.w3.org/1999/xlink" width="265.095" height="226.302" viewBox="0 0 176.73 150.868">
<defs>
<g>
<g id="glyph-0-0">
<path d="M 2.921875 -6.375 C 2.921875 -6.609375 2.921875 -6.625 2.703125 -6.625 C 2.078125 -5.984375 1.203125 -5.984375 0.890625 -5.984375 L 0.890625 -5.6875 C 1.078125 -5.6875 1.671875 -5.6875 2.1875 -5.9375 L 2.1875 -0.78125 C 2.1875 -0.421875 2.15625 -0.3125 1.265625 -0.3125 L 0.953125 -0.3125 L 0.953125 0 C 1.296875 -0.03125 2.15625 -0.03125 2.5625 -0.03125 C 2.953125 -0.03125 3.828125 -0.03125 4.171875 0 L 4.171875 -0.3125 L 3.859375 -0.3125 C 2.953125 -0.3125 2.921875 -0.421875 2.921875 -0.78125 Z M 2.921875 -6.375 "/>
</g>
<g id="glyph-0-1">
<path d="M 1.265625 -0.765625 L 2.3125 -1.796875 C 3.875 -3.171875 4.46875 -3.703125 4.46875 -4.703125 C 4.46875 -5.828125 3.578125 -6.625 2.359375 -6.625 C 1.234375 -6.625 0.5 -5.71875 0.5 -4.828125 C 0.5 -4.265625 1 -4.265625 1.03125 -4.265625 C 1.1875 -4.265625 1.546875 -4.390625 1.546875 -4.796875 C 1.546875 -5.0625 1.359375 -5.3125 1.015625 -5.3125 C 0.9375 -5.3125 0.921875 -5.3125 0.890625 -5.3125 C 1.109375 -5.953125 1.65625 -6.3125 2.234375 -6.3125 C 3.140625 -6.3125 3.5625 -5.515625 3.5625 -4.703125 C 3.5625 -3.90625 3.0625 -3.109375 2.515625 -2.5 L 0.609375 -0.375 C 0.5 -0.265625 0.5 -0.234375 0.5 0 L 4.1875 0 L 4.46875 -1.734375 L 4.21875 -1.734375 C 4.171875 -1.4375 4.09375 -1 4 -0.84375 C 3.9375 -0.765625 3.28125 -0.765625 3.0625 -0.765625 Z M 1.265625 -0.765625 "/>
</g>
<g id="glyph-0-2">
<path d="M 2.890625 -3.5 C 3.703125 -3.765625 4.28125 -4.46875 4.28125 -5.25 C 4.28125 -6.078125 3.40625 -6.625 2.453125 -6.625 C 1.4375 -6.625 0.6875 -6.03125 0.6875 -5.28125 C 0.6875 -4.953125 0.90625 -4.75 1.1875 -4.75 C 1.5 -4.75 1.703125 -4.96875 1.703125 -5.265625 C 1.703125 -5.765625 1.234375 -5.765625 1.078125 -5.765625 C 1.390625 -6.25 2.046875 -6.375 2.40625 -6.375 C 2.8125 -6.375 3.359375 -6.15625 3.359375 -5.265625 C 3.359375 -5.140625 3.34375 -4.5625 3.078125 -4.125 C 2.78125 -3.65625 2.453125 -3.625 2.203125 -3.609375 C 2.125 -3.609375 1.875 -3.578125 1.8125 -3.578125 C 1.734375 -3.578125 1.65625 -3.5625 1.65625 -3.46875 C 1.65625 -3.359375 1.734375 -3.359375 1.90625 -3.359375 L 2.34375 -3.359375 C 3.15625 -3.359375 3.515625 -2.671875 3.515625 -1.703125 C 3.515625 -0.34375 2.84375 -0.0625 2.40625 -0.0625 C 1.96875 -0.0625 1.21875 -0.234375 0.875 -0.8125 C 1.21875 -0.765625 1.53125 -0.984375 1.53125 -1.359375 C 1.53125 -1.71875 1.265625 -1.921875 0.96875 -1.921875 C 0.734375 -1.921875 0.421875 -1.78125 0.421875 -1.34375 C 0.421875 -0.4375 1.34375 0.21875 2.421875 0.21875 C 3.640625 0.21875 4.546875 -0.6875 4.546875 -1.703125 C 4.546875 -2.515625 3.921875 -3.296875 2.890625 -3.5 Z M 2.890625 -3.5 "/>
</g>
<g id="glyph-0-3">
<path d="M 2.921875 -1.640625 L 2.921875 -0.78125 C 2.921875 -0.421875 2.90625 -0.3125 2.171875 -0.3125 L 1.953125 -0.3125 L 1.953125 0 C 2.375 -0.03125 2.890625 -0.03125 3.296875 -0.03125 C 3.71875 -0.03125 4.25 -0.03125 4.65625 0 L 4.65625 -0.3125 L 4.453125 -0.3125 C 3.71875 -0.3125 3.6875 -0.421875 3.6875 -0.78125 L 3.6875 -1.640625 L 4.6875 -1.640625 L 4.6875 -1.953125 L 3.6875 -1.953125 L 3.6875 -6.484375 C 3.6875 -6.671875 3.6875 -6.734375 3.53125 -6.734375 C 3.4375 -6.734375 3.40625 -6.734375 3.328125 -6.625 L 0.28125 -1.953125 L 0.28125 -1.640625 Z M 2.984375 -1.953125 L 0.5625 -1.953125 L 2.984375 -5.65625 Z M 2.984375 -1.953125 "/>
</g>
<g id="glyph-0-4">
<path d="M 4.578125 -3.1875 C 4.578125 -3.984375 4.53125 -4.78125 4.1875 -5.515625 C 3.71875 -6.46875 2.90625 -6.625 2.484375 -6.625 C 1.890625 -6.625 1.171875 -6.375 0.75 -5.4375 C 0.4375 -4.75 0.390625 -3.984375 0.390625 -3.1875 C 0.390625 -2.4375 0.421875 -1.546875 0.84375 -0.78125 C 1.265625 0.015625 1.984375 0.21875 2.484375 0.21875 C 3.015625 0.21875 3.765625 0.015625 4.203125 -0.9375 C 4.53125 -1.625 4.578125 -2.40625 4.578125 -3.1875 Z M 2.484375 0 C 2.09375 0 1.5 -0.25 1.328125 -1.203125 C 1.21875 -1.796875 1.21875 -2.71875 1.21875 -3.296875 C 1.21875 -3.9375 1.21875 -4.59375 1.296875 -5.140625 C 1.484375 -6.3125 2.234375 -6.40625 2.484375 -6.40625 C 2.8125 -6.40625 3.46875 -6.234375 3.65625 -5.25 C 3.75 -4.6875 3.75 -3.9375 3.75 -3.296875 C 3.75 -2.5625 3.75 -1.875 3.640625 -1.25 C 3.5 -0.296875 2.921875 0 2.484375 0 Z M 2.484375 0 "/>
</g>
<g id="glyph-0-5">
<path d="M 4.46875 -2 C 4.46875 -3.1875 3.65625 -4.1875 2.578125 -4.1875 C 2.09375 -4.1875 1.671875 -4.015625 1.3125 -3.671875 L 1.3125 -5.609375 C 1.515625 -5.546875 1.84375 -5.484375 2.15625 -5.484375 C 3.390625 -5.484375 4.078125 -6.390625 4.078125 -6.515625 C 4.078125 -6.578125 4.046875 -6.625 3.984375 -6.625 C 3.96875 -6.625 3.953125 -6.625 3.90625 -6.59375 C 3.703125 -6.515625 3.21875 -6.3125 2.546875 -6.3125 C 2.15625 -6.3125 1.6875 -6.375 1.21875 -6.59375 C 1.140625 -6.625 1.125 -6.625 1.109375 -6.625 C 1 -6.625 1 -6.546875 1 -6.375 L 1 -3.4375 C 1 -3.25 1 -3.171875 1.140625 -3.171875 C 1.21875 -3.171875 1.234375 -3.203125 1.28125 -3.265625 C 1.390625 -3.421875 1.75 -3.96875 2.5625 -3.96875 C 3.078125 -3.96875 3.328125 -3.5 3.40625 -3.328125 C 3.5625 -2.953125 3.578125 -2.5625 3.578125 -2.0625 C 3.578125 -1.71875 3.578125 -1.125 3.34375 -0.703125 C 3.109375 -0.3125 2.734375 -0.0625 2.28125 -0.0625 C 1.546875 -0.0625 0.984375 -0.59375 0.8125 -1.171875 C 0.84375 -1.171875 0.875 -1.15625 0.984375 -1.15625 C 1.3125 -1.15625 1.484375 -1.40625 1.484375 -1.640625 C 1.484375 -1.875 1.3125 -2.125 0.984375 -2.125 C 0.84375 -2.125 0.5 -2.0625 0.5 -1.609375 C 0.5 -0.75 1.1875 0.21875 2.296875 0.21875 C 3.453125 0.21875 4.46875 -0.734375 4.46875 -2 Z M 4.46875 -2 "/>
</g>
<g id="glyph-1-0">
<path d="M 3.65625 -3.984375 L 4.515625 -3.984375 C 4.703125 -3.984375 4.8125 -3.984375 4.8125 -4.1875 C 4.8125 -4.296875 4.703125 -4.296875 4.53125 -4.296875 L 3.71875 -4.296875 L 3.921875 -5.421875 C 3.96875 -5.640625 4.09375 -6.34375 4.15625 -6.453125 C 4.25 -6.65625 4.421875 -6.796875 4.625 -6.796875 C 4.671875 -6.796875 4.921875 -6.796875 5.109375 -6.625 C 4.671875 -6.578125 4.578125 -6.234375 4.578125 -6.078125 C 4.578125 -5.859375 4.75 -5.734375 4.953125 -5.734375 C 5.203125 -5.734375 5.5 -5.953125 5.5 -6.328125 C 5.5 -6.78125 5.03125 -7.015625 4.625 -7.015625 C 4.296875 -7.015625 3.65625 -6.84375 3.359375 -5.859375 C 3.296875 -5.640625 3.28125 -5.546875 3.03125 -4.296875 L 2.34375 -4.296875 C 2.15625 -4.296875 2.046875 -4.296875 2.046875 -4.09375 C 2.046875 -3.984375 2.140625 -3.984375 2.328125 -3.984375 L 2.984375 -3.984375 L 2.234375 -0.046875 C 2.0625 0.921875 1.890625 1.828125 1.375 1.828125 C 1.328125 1.828125 1.078125 1.828125 0.890625 1.640625 C 1.359375 1.609375 1.4375 1.25 1.4375 1.109375 C 1.4375 0.875 1.265625 0.75 1.078125 0.75 C 0.8125 0.75 0.53125 0.96875 0.53125 1.359375 C 0.53125 1.796875 0.96875 2.046875 1.375 2.046875 C 1.921875 2.046875 2.3125 1.453125 2.5 1.078125 C 2.8125 0.453125 3.046875 -0.75 3.0625 -0.828125 Z M 3.65625 -3.984375 "/>
</g>
<g id="glyph-2-0">
<path d="M 2.328125 -4.4375 C 2.328125 -4.625 2.328125 -4.625 2.125 -4.625 C 1.671875 -4.1875 1.046875 -4.1875 0.765625 -4.1875 L 0.765625 -3.9375 C 0.921875 -3.9375 1.390625 -3.9375 1.765625 -4.125 L 1.765625 -0.578125 C 1.765625 -0.34375 1.765625 -0.25 1.078125 -0.25 L 0.8125 -0.25 L 0.8125 0 C 0.9375 0 1.796875 -0.03125 2.046875 -0.03125 C 2.265625 -0.03125 3.140625 0 3.296875 0 L 3.296875 -0.25 L 3.03125 -0.25 C 2.328125 -0.25 2.328125 -0.34375 2.328125 -0.578125 Z M 2.328125 -4.4375 "/>
</g>
<g id="glyph-2-1">
<path d="M 3.515625 -1.265625 L 3.28125 -1.265625 C 3.265625 -1.109375 3.1875 -0.703125 3.09375 -0.640625 C 3.046875 -0.59375 2.515625 -0.59375 2.40625 -0.59375 L 1.125 -0.59375 C 1.859375 -1.234375 2.109375 -1.4375 2.515625 -1.765625 C 3.03125 -2.171875 3.515625 -2.609375 3.515625 -3.265625 C 3.515625 -4.109375 2.78125 -4.625 1.890625 -4.625 C 1.03125 -4.625 0.4375 -4.015625 0.4375 -3.375 C 0.4375 -3.03125 0.734375 -2.984375 0.8125 -2.984375 C 0.96875 -2.984375 1.171875 -3.109375 1.171875 -3.359375 C 1.171875 -3.484375 1.125 -3.734375 0.765625 -3.734375 C 0.984375 -4.21875 1.453125 -4.375 1.78125 -4.375 C 2.484375 -4.375 2.84375 -3.828125 2.84375 -3.265625 C 2.84375 -2.65625 2.40625 -2.1875 2.1875 -1.9375 L 0.515625 -0.265625 C 0.4375 -0.203125 0.4375 -0.1875 0.4375 0 L 3.3125 0 Z M 3.515625 -1.265625 "/>
</g>
<g id="glyph-2-2">
<path d="M 1.90625 -2.328125 C 2.453125 -2.328125 2.84375 -1.953125 2.84375 -1.203125 C 2.84375 -0.34375 2.328125 -0.078125 1.9375 -0.078125 C 1.65625 -0.078125 1.03125 -0.15625 0.75 -0.578125 C 1.078125 -0.578125 1.15625 -0.8125 1.15625 -0.96875 C 1.15625 -1.1875 0.984375 -1.34375 0.765625 -1.34375 C 0.578125 -1.34375 0.375 -1.21875 0.375 -0.9375 C 0.375 -0.28125 1.09375 0.140625 1.9375 0.140625 C 2.90625 0.140625 3.578125 -0.515625 3.578125 -1.203125 C 3.578125 -1.75 3.140625 -2.296875 2.375 -2.453125 C 3.09375 -2.71875 3.359375 -3.234375 3.359375 -3.671875 C 3.359375 -4.21875 2.734375 -4.625 1.953125 -4.625 C 1.1875 -4.625 0.59375 -4.25 0.59375 -3.6875 C 0.59375 -3.453125 0.75 -3.328125 0.953125 -3.328125 C 1.171875 -3.328125 1.3125 -3.484375 1.3125 -3.671875 C 1.3125 -3.875 1.171875 -4.03125 0.953125 -4.046875 C 1.203125 -4.34375 1.671875 -4.421875 1.9375 -4.421875 C 2.25 -4.421875 2.6875 -4.265625 2.6875 -3.671875 C 2.6875 -3.375 2.59375 -3.046875 2.40625 -2.84375 C 2.1875 -2.578125 1.984375 -2.5625 1.640625 -2.53125 C 1.46875 -2.515625 1.453125 -2.515625 1.421875 -2.515625 C 1.40625 -2.515625 1.34375 -2.5 1.34375 -2.421875 C 1.34375 -2.328125 1.40625 -2.328125 1.53125 -2.328125 Z M 1.90625 -2.328125 "/>
</g>
<g id="glyph-2-3">
<path d="M 3.6875 -1.140625 L 3.6875 -1.390625 L 2.90625 -1.390625 L 2.90625 -4.5 C 2.90625 -4.640625 2.90625 -4.703125 2.765625 -4.703125 C 2.671875 -4.703125 2.640625 -4.703125 2.578125 -4.59375 L 0.265625 -1.390625 L 0.265625 -1.140625 L 2.328125 -1.140625 L 2.328125 -0.578125 C 2.328125 -0.328125 2.328125 -0.25 1.75 -0.25 L 1.5625 -0.25 L 1.5625 0 C 1.921875 -0.015625 2.359375 -0.03125 2.609375 -0.03125 C 2.875 -0.03125 3.3125 -0.015625 3.671875 0 L 3.671875 -0.25 L 3.484375 -0.25 C 2.90625 -0.25 2.90625 -0.328125 2.90625 -0.578125 L 2.90625 -1.140625 Z M 2.375 -3.9375 L 2.375 -1.390625 L 0.53125 -1.390625 Z M 2.375 -3.9375 "/>
</g>
<g id="glyph-2-4">
<path d="M 1.078125 -3.890625 C 1.4375 -3.796875 1.640625 -3.796875 1.75 -3.796875 C 2.671875 -3.796875 3.21875 -4.421875 3.21875 -4.53125 C 3.21875 -4.609375 3.171875 -4.625 3.140625 -4.625 C 3.125 -4.625 3.109375 -4.625 3.078125 -4.609375 C 2.90625 -4.546875 2.546875 -4.40625 2.03125 -4.40625 C 1.828125 -4.40625 1.46875 -4.421875 1.015625 -4.59375 C 0.9375 -4.625 0.921875 -4.625 0.921875 -4.625 C 0.828125 -4.625 0.828125 -4.546875 0.828125 -4.4375 L 0.828125 -2.390625 C 0.828125 -2.265625 0.828125 -2.1875 0.9375 -2.1875 C 1 -2.1875 1.015625 -2.1875 1.078125 -2.28125 C 1.375 -2.65625 1.8125 -2.71875 2.046875 -2.71875 C 2.46875 -2.71875 2.65625 -2.390625 2.6875 -2.328125 C 2.8125 -2.09375 2.859375 -1.828125 2.859375 -1.421875 C 2.859375 -1.21875 2.859375 -0.8125 2.640625 -0.5 C 2.46875 -0.25 2.171875 -0.078125 1.828125 -0.078125 C 1.375 -0.078125 0.90625 -0.328125 0.734375 -0.796875 C 1 -0.78125 1.140625 -0.953125 1.140625 -1.140625 C 1.140625 -1.4375 0.875 -1.484375 0.78125 -1.484375 C 0.78125 -1.484375 0.4375 -1.484375 0.4375 -1.109375 C 0.4375 -0.484375 1.015625 0.140625 1.84375 0.140625 C 2.734375 0.140625 3.515625 -0.515625 3.515625 -1.40625 C 3.515625 -2.1875 2.921875 -2.90625 2.0625 -2.90625 C 1.75 -2.90625 1.390625 -2.84375 1.078125 -2.578125 Z M 1.078125 -3.890625 "/>
</g>
</g>
<clipPath id="clip-0">
<path clip-rule="nonzero" d="M 0 0.0507812 L 44 0.0507812 L 44 34 L 0 34 Z M 0 0.0507812 "/>
</clipPath>
<clipPath id="clip-1">
<path clip-rule="nonzero" d="M 132 0.0507812 L 176.460938 0.0507812 L 176.460938 34 L 132 34 Z M 132 0.0507812 "/>
</clipPath>
<clipPath id="clip-2">
<path clip-rule="nonzero" d="M 132 117 L 176.460938 117 L 176.460938 150.6875 L 132 150.6875 Z M 132 117 "/>
</clipPath>
<clipPath id="clip-3">
<path clip-rule="nonzero" d="M 0 117 L 45 117 L 45 150.6875 L 0 150.6875 Z M 0 117 "/>
</clipPath>
</defs>
<path fill-rule="nonzero" fill="rgb(0%, 0%, 0%)" fill-opacity="1" d="M 46.128906 29.996094 C 46.128906 28.238281 44.703125 26.8125 42.945312 26.8125 C 41.1875 26.8125 39.761719 28.238281 39.761719 29.996094 C 39.761719 31.753906 41.1875 33.179688 42.945312 33.179688 C 44.703125 33.179688 46.128906 31.753906 46.128906 29.996094 Z M 46.128906 29.996094 "/>
<g fill="rgb(0%, 0%, 0%)" fill-opacity="1">
<use xlink:href="#glyph-0-0" x="34.456359" y="26.481787"/>
</g>
<path fill-rule="nonzero" fill="rgb(0%, 0%, 0%)" fill-opacity="1" d="M 136.699219 29.996094 C 136.699219 28.238281 135.273438 26.8125 133.515625 26.8125 C 131.757812 26.8125 130.332031 28.238281 130.332031 29.996094 C 130.332031 31.753906 131.757812 33.179688 133.515625 33.179688 C 135.273438 33.179688 136.699219 31.753906 136.699219 29.996094 Z M 136.699219 29.996094 "/>
<g fill="rgb(0%, 0%, 0%)" fill-opacity="1">
<use xlink:href="#glyph-0-1" x="137.029652" y="26.481787"/>
</g>
<path fill-rule="nonzero" fill="rgb(0%, 0%, 0%)" fill-opacity="1" d="M 136.699219 120.566406 C 136.699219 118.808594 135.273438 117.382812 133.515625 117.382812 C 131.757812 117.382812 130.332031 118.808594 130.332031 120.566406 C 130.332031 122.324219 131.757812 123.75 133.515625 123.75 C 135.273438 123.75 136.699219 122.324219 136.699219 120.566406 Z M 136.699219 120.566406 "/>
<g fill="rgb(0%, 0%, 0%)" fill-opacity="1">
<use xlink:href="#glyph-0-2" x="137.029652" y="130.491885"/>
</g>
<path fill-rule="nonzero" fill="rgb(0%, 0%, 0%)" fill-opacity="1" d="M 46.128906 120.566406 C 46.128906 118.808594 44.703125 117.382812 42.945312 117.382812 C 41.1875 117.382812 39.761719 118.808594 39.761719 120.566406 C 39.761719 122.324219 41.1875 123.75 42.945312 123.75 C 44.703125 123.75 46.128906 122.324219 46.128906 120.566406 Z M 46.128906 120.566406 "/>
<g fill="rgb(0%, 0%, 0%)" fill-opacity="1">
<use xlink:href="#glyph-0-3" x="34.456359" y="130.491885"/>
</g>
<path fill="none" stroke-width="0.79701" stroke-linecap="butt" stroke-linejoin="miter" stroke="rgb(0%, 0%, 0%)" stroke-opacity="1" stroke-miterlimit="10" d="M 3.98356 90.709324 L 85.928874 90.709324 " transform="matrix(0.998475, 0, 0, -0.998475, 42.944392, 120.567048)"/>
<path fill="none" stroke-width="0.79701" stroke-linecap="round" stroke-linejoin="round" stroke="rgb(0%, 0%, 0%)" stroke-opacity="1" stroke-miterlimit="10" d="M -2.549346 3.109407 C -2.083792 1.243279 -1.047054 0.36303 0.00142013 -0.000805798 C -1.047054 -0.364642 -2.083792 -1.244891 -2.549346 -3.111019 " transform="matrix(0.998475, 0, 0, -0.998475, 129.139207, 29.995289)"/>
<g fill="rgb(0%, 0%, 0%)" fill-opacity="1">
<use xlink:href="#glyph-1-0" x="83.563336" y="24.349045"/>
</g>
<g fill="rgb(0%, 0%, 0%)" fill-opacity="1">
<use xlink:href="#glyph-2-0" x="88.433895" y="25.840766"/>
</g>
<path fill="none" stroke-width="0.79701" stroke-linecap="butt" stroke-linejoin="miter" stroke="rgb(0%, 0%, 0%)" stroke-opacity="1" stroke-miterlimit="10" d="M 90.709604 86.726686 L 90.709604 4.781373 " transform="matrix(0.998475, 0, 0, -0.998475, 42.944392, 120.567048)"/>
<path fill="none" stroke-width="0.79701" stroke-linecap="round" stroke-linejoin="round" stroke="rgb(0%, 0%, 0%)" stroke-opacity="1" stroke-miterlimit="10" d="M -2.549492 3.109687 C -2.083939 1.243559 -1.047201 0.36331 0.00127355 -0.000525943 C -1.047201 -0.364362 -2.083939 -1.244611 -2.549492 -3.110739 " transform="matrix(0, 0.998475, 0.998475, 0, 133.51615, 116.190135)"/>
<g fill="rgb(0%, 0%, 0%)" fill-opacity="1">
<use xlink:href="#glyph-1-0" x="137.228349" y="77.768434"/>
</g>
<g fill="rgb(0%, 0%, 0%)" fill-opacity="1">
<use xlink:href="#glyph-2-1" x="142.098908" y="79.261153"/>
</g>
<path fill="none" stroke-width="0.79701" stroke-linecap="butt" stroke-linejoin="miter" stroke="rgb(0%, 0%, 0%)" stroke-opacity="1" stroke-miterlimit="10" d="M 86.726966 0.000642527 L 4.781653 0.000642527 " transform="matrix(0.998475, 0, 0, -0.998475, 42.944392, 120.567048)"/>
<path fill="none" stroke-width="0.79701" stroke-linecap="round" stroke-linejoin="round" stroke="rgb(0%, 0%, 0%)" stroke-opacity="1" stroke-miterlimit="10" d="M -2.549772 3.109571 C -2.084218 1.243443 -1.047481 0.363194 0.000993694 -0.000642527 C -1.047481 -0.364479 -2.084218 -1.244728 -2.549772 -3.110856 " transform="matrix(-0.998475, 0, 0, 0.998475, 47.321305, 120.567048)"/>
<g fill="rgb(0%, 0%, 0%)" fill-opacity="1">
<use xlink:href="#glyph-1-0" x="83.563336" y="131.18882"/>
</g>
<g fill="rgb(0%, 0%, 0%)" fill-opacity="1">
<use xlink:href="#glyph-2-2" x="88.433895" y="132.680541"/>
</g>
<path fill="none" stroke-width="0.79701" stroke-linecap="butt" stroke-linejoin="miter" stroke="rgb(0%, 0%, 0%)" stroke-opacity="1" stroke-miterlimit="10" d="M 0.000922382 3.98328 L 0.000922382 85.928594 " transform="matrix(0.998475, 0, 0, -0.998475, 42.944392, 120.567048)"/>
<path fill="none" stroke-width="0.79701" stroke-linecap="round" stroke-linejoin="round" stroke="rgb(0%, 0%, 0%)" stroke-opacity="1" stroke-miterlimit="10" d="M -2.549626 3.109291 C -2.084072 1.243163 -1.047334 0.362914 0.00114028 -0.000922382 C -1.047334 -0.364759 -2.084072 -1.245008 -2.549626 -3.111136 " transform="matrix(0, -0.998475, -0.998475, 0, 42.944392, 34.372232)"/>
<g fill="rgb(0%, 0%, 0%)" fill-opacity="1">
<use xlink:href="#glyph-1-0" x="29.898323" y="77.768434"/>
</g>
<g fill="rgb(0%, 0%, 0%)" fill-opacity="1">
<use xlink:href="#glyph-2-3" x="34.768882" y="79.261153"/>
</g>
<path fill="none" stroke-width="0.79701" stroke-linecap="butt" stroke-linejoin="miter" stroke="rgb(0%, 0%, 0%)" stroke-opacity="1" stroke-miterlimit="10" d="M 2.817719 87.892527 L 87.329448 3.380799 " transform="matrix(0.998475, 0, 0, -0.998475, 42.944392, 120.567048)"/>
<path fill="none" stroke-width="0.79701" stroke-linecap="round" stroke-linejoin="round" stroke="rgb(0%, 0%, 0%)" stroke-opacity="1" stroke-miterlimit="10" d="M -2.549707 3.109503 C -2.084955 1.244962 -1.047562 0.362486 0.00089701 0.0000895091 C -1.047562 -0.362307 -2.084955 -1.244783 -2.549707 -3.109324 " transform="matrix(0.706021, 0.706021, 0.706021, -0.706021, 130.421178, 117.472086)"/>
<g fill="rgb(0%, 0%, 0%)" fill-opacity="1">
<use xlink:href="#glyph-1-0" x="91.943533" y="69.633861"/>
</g>
<g fill="rgb(0%, 0%, 0%)" fill-opacity="1">
<use xlink:href="#glyph-2-4" x="96.813093" y="71.126581"/>
</g>
<g clip-path="url(#clip-0)">
<path fill="none" stroke-width="0.3985" stroke-linecap="butt" stroke-linejoin="miter" stroke="rgb(0%, 0%, 0%)" stroke-opacity="1" stroke-dasharray="2.98883 2.98883" stroke-miterlimit="10" d="M -40.819158 117.922711 L -4.865877 93.205319 " transform="matrix(0.998475, 0, 0, -0.998475, 42.944392, 120.567048)"/>
</g>
<path fill="none" stroke-width="0.3985" stroke-linecap="round" stroke-linejoin="round" stroke="rgb(0%, 0%, 0%)" stroke-opacity="1" stroke-miterlimit="10" d="M -2.071939 2.389292 C -1.693309 0.954604 -0.850224 0.280788 -0.00190147 -0.0000999339 C -0.849818 -0.279184 -1.695314 -0.955428 -2.070904 -2.391127 " transform="matrix(0.822733, 0.565636, 0.565636, -0.822733, 38.251621, 27.618181)"/>
<g fill="rgb(0%, 0%, 0%)" fill-opacity="1">
<use xlink:href="#glyph-0-3" x="6.840549" y="11.764272"/>
<use xlink:href="#glyph-0-4" x="11.814251" y="11.764272"/>
</g>
<g clip-path="url(#clip-1)">
<path fill="none" stroke-width="0.3985" stroke-linecap="butt" stroke-linejoin="miter" stroke="rgb(0%, 0%, 0%)" stroke-opacity="1" stroke-dasharray="2.98883 2.98883" stroke-miterlimit="10" d="M 131.529684 117.922711 L 95.572491 93.205319 " transform="matrix(0.998475, 0, 0, -0.998475, 42.944392, 120.567048)"/>
</g>
<path fill="none" stroke-width="0.3985" stroke-linecap="round" stroke-linejoin="round" stroke="rgb(0%, 0%, 0%)" stroke-opacity="1" stroke-miterlimit="10" d="M -2.071223 2.391346 C -1.695632 0.955647 -0.850136 0.279403 0.00100408 -0.00189766 C -0.850542 -0.280569 -1.693628 -0.954385 -2.072257 -2.389073 " transform="matrix(-0.822733, 0.565636, 0.565636, 0.822733, 138.208931, 27.618181)"/>
<g fill="rgb(0%, 0%, 0%)" fill-opacity="1">
<use xlink:href="#glyph-0-1" x="159.67206" y="11.764272"/>
<use xlink:href="#glyph-0-4" x="164.645762" y="11.764272"/>
</g>
<g clip-path="url(#clip-2)">
<path fill="none" stroke-width="0.3985" stroke-linecap="butt" stroke-linejoin="miter" stroke="rgb(0%, 0%, 0%)" stroke-opacity="1" stroke-dasharray="2.98883 2.98883" stroke-miterlimit="10" d="M 95.247777 -2.268444 L 131.201058 -26.985836 " transform="matrix(0.998475, 0, 0, -0.998475, 42.944392, 120.567048)"/>
</g>
<path fill="none" stroke-width="0.3985" stroke-linecap="round" stroke-linejoin="round" stroke="rgb(0%, 0%, 0%)" stroke-opacity="1" stroke-miterlimit="10" d="M -2.070541 2.390392 C -1.691912 0.955704 -0.852051 0.279672 -0.000504122 0.00100039 C -0.84842 -0.278084 -1.693916 -0.954327 -2.072731 -2.392243 " transform="matrix(0.822733, 0.565636, 0.565636, -0.822733, 174.109224, 147.626108)"/>
<g fill="rgb(0%, 0%, 0%)" fill-opacity="1">
<use xlink:href="#glyph-0-2" x="159.67206" y="145.210399"/>
<use xlink:href="#glyph-0-5" x="164.645762" y="145.210399"/>
</g>
<g clip-path="url(#clip-3)">
<path fill="none" stroke-width="0.3985" stroke-linecap="butt" stroke-linejoin="miter" stroke="rgb(0%, 0%, 0%)" stroke-opacity="1" stroke-dasharray="2.98883 2.98883" stroke-miterlimit="10" d="M -4.53725 -2.268444 L -40.490532 -26.985836 " transform="matrix(0.998475, 0, 0, -0.998475, 42.944392, 120.567048)"/>
</g>
<path fill="none" stroke-width="0.3985" stroke-linecap="round" stroke-linejoin="round" stroke="rgb(0%, 0%, 0%)" stroke-opacity="1" stroke-miterlimit="10" d="M -2.073049 2.392462 C -1.694235 0.954546 -0.848739 0.278303 -0.000822581 -0.000781446 C -0.852369 -0.279453 -1.692231 -0.955485 -2.07086 -2.390173 " transform="matrix(-0.822733, 0.565636, 0.565636, 0.822733, 2.351328, 147.626108)"/>
<g fill="rgb(0%, 0%, 0%)" fill-opacity="1">
<use xlink:href="#glyph-0-1" x="6.840549" y="145.210399"/>
<use xlink:href="#glyph-0-5" x="11.814251" y="145.210399"/>
</g>
</svg>
