<?xml version="1.0" encoding="UTF-8"?>
<svg xmlns="http://www.w3.org/2000/svg" xmlns:xlink="http://www.w3.org/1999/xlink" width="408.870" height="308.687" viewBox="0 0 272.58 205.791">
<defs>
<g>
<g id="glyph-0-0">
<path d="M 4.328125 -2.671875 C 4.328125 -3.453125 3.6875 -4.0625 2.3125 -4.0625 C 1.796875 -4.0625 0.65625 -4.03125 0.65625 -3.21875 C 0.65625 -2.8125 0.953125 -2.625 1.234375 -2.625 C 1.546875 -2.625 1.8125 -2.84375 1.8125 -3.203125 C 1.8125 -3.46875 1.671875 -3.609375 1.640625 -3.640625 C 1.734375 -3.65625 1.9375 -3.703125 2.28125 -3.703125 C 2.921875 -3.703125 3.28125 -3.375 3.28125 -2.671875 L 3.28125 -2.375 C 1.796875 -2.375 0.296875 -2 0.296875 -1 C 0.296875 -0.109375 1.421875 0.046875 2.0625 0.046875 C 2.734375 0.046875 3.203125 -0.234375 3.453125 -0.65625 C 3.453125 -0.4375 3.453125 0 4.40625 0 L 4.84375 0 C 5.015625 0 5.140625 0 5.140625 -0.21875 C 5.140625 -0.4375 5 -0.4375 4.90625 -0.4375 C 4.328125 -0.453125 4.328125 -0.53125 4.328125 -0.75 Z M 3.28125 -1.25 C 3.28125 -0.296875 2.25 -0.296875 2.21875 -0.296875 C 1.75 -0.296875 1.375 -0.59375 1.375 -1 C 1.375 -1.296875 1.546875 -2 3.28125 -2.078125 Z M 3.28125 -1.25 "/>
</g>
<g id="glyph-0-1">
<path d="M 1.96875 -6.21875 L 0.359375 -6.140625 L 0.359375 -5.703125 C 0.90625 -5.703125 0.96875 -5.703125 0.96875 -5.359375 L 0.96875 0 L 1.4375 0 L 1.859375 -0.515625 C 2.140625 -0.21875 2.578125 0.046875 3.21875 0.046875 C 4.609375 0.046875 5.53125 -0.78125 5.53125 -1.984375 C 5.53125 -3.203125 4.65625 -4.03125 3.328125 -4.03125 C 2.609375 -4.03125 2.140625 -3.71875 1.96875 -3.59375 Z M 2.015625 -3.09375 C 2.25 -3.390625 2.671875 -3.671875 3.21875 -3.671875 C 4.328125 -3.671875 4.328125 -2.59375 4.328125 -2 C 4.328125 -1.625 4.328125 -1.15625 4.140625 -0.84375 C 3.84375 -0.34375 3.296875 -0.296875 3.125 -0.296875 C 2.5625 -0.296875 2.21875 -0.640625 2.015625 -0.9375 Z M 2.015625 -3.09375 "/>
</g>
<g id="glyph-0-2">
<path d="M 2.625 1.296875 L 2.015625 1.296875 L 2.015625 -0.34375 C 2.546875 0.046875 3.046875 0.046875 3.21875 0.046875 C 4.625 0.046875 5.53125 -0.796875 5.53125 -1.984375 C 5.53125 -3.171875 4.703125 -4.03125 3.359375 -4.03125 C 2.625 -4.03125 2.140625 -3.71875 1.96875 -3.59375 L 1.96875 -4.03125 L 0.359375 -3.953125 L 0.359375 -3.515625 C 0.546875 -3.515625 0.6875 -3.515625 0.8125 -3.484375 C 0.96875 -3.46875 0.96875 -3.359375 0.96875 -3.171875 L 0.96875 1.296875 L 0.359375 1.296875 L 0.359375 1.734375 C 1.03125 1.703125 1.140625 1.703125 1.5 1.703125 C 1.859375 1.703125 1.953125 1.703125 2.625 1.734375 Z M 2.015625 -3.09375 C 2.1875 -3.28125 2.609375 -3.640625 3.21875 -3.640625 C 3.84375 -3.640625 4.328125 -3.09375 4.328125 -2 C 4.328125 -0.75 3.703125 -0.296875 3.109375 -0.296875 C 2.65625 -0.296875 2.265625 -0.5625 2.015625 -0.9375 Z M 2.015625 -3.09375 "/>
</g>
<g id="glyph-0-3">
<path d="M 4.671875 -3.34375 C 4.734375 -3.46875 4.765625 -3.53125 5.34375 -3.53125 L 5.34375 -3.96875 C 5.078125 -3.953125 4.859375 -3.953125 4.609375 -3.953125 C 4.34375 -3.953125 4.0625 -3.953125 3.8125 -3.96875 L 3.8125 -3.53125 C 3.8125 -3.53125 4.203125 -3.53125 4.203125 -3.421875 C 4.203125 -3.421875 4.203125 -3.40625 4.15625 -3.328125 L 3.09375 -1.140625 L 1.921875 -3.53125 L 2.375 -3.53125 L 2.375 -3.96875 C 1.890625 -3.953125 1.5625 -3.953125 1.28125 -3.953125 C 0.953125 -3.953125 0.78125 -3.953125 0.25 -3.96875 L 0.25 -3.53125 L 0.8125 -3.53125 L 2.53125 0 C 2.21875 0.734375 1.875 1.4375 1.1875 1.4375 C 1.140625 1.4375 1.078125 1.4375 1.015625 1.40625 C 1.171875 1.328125 1.28125 1.15625 1.28125 0.9375 C 1.28125 0.59375 1.03125 0.40625 0.75 0.40625 C 0.453125 0.40625 0.203125 0.59375 0.203125 0.9375 C 0.203125 1.421875 0.65625 1.796875 1.1875 1.796875 C 1.875 1.796875 2.4375 1.265625 2.71875 0.6875 Z M 4.671875 -3.34375 "/>
</g>
<g id="glyph-0-4">
<path d="M 4.125 -3.546875 C 4.21875 -3.65625 4.21875 -3.6875 4.21875 -3.765625 C 4.21875 -3.96875 4.078125 -3.96875 3.921875 -3.96875 L 0.5625 -3.96875 L 0.4375 -2.375 L 0.890625 -2.375 C 0.953125 -3.25 1.1875 -3.609375 2.171875 -3.609375 L 2.921875 -3.609375 L 0.390625 -0.453125 C 0.296875 -0.328125 0.296875 -0.296875 0.296875 -0.21875 C 0.296875 0 0.4375 0 0.59375 0 L 4.09375 0 L 4.265625 -1.828125 L 3.8125 -1.828125 C 3.71875 -0.90625 3.546875 -0.390625 2.375 -0.390625 L 1.609375 -0.390625 Z M 4.125 -3.546875 "/>
</g>
<g id="glyph-0-5">
<path d="M 4.875 -2.859375 C 4.875 -3.765625 4.859375 -5.875 2.65625 -5.875 C 0.46875 -5.875 0.40625 -3.84375 0.40625 -2.859375 C 0.40625 -1.921875 0.4375 0.109375 2.640625 0.109375 C 4.828125 0.109375 4.875 -1.859375 4.875 -2.859375 Z M 2.65625 -0.25 C 2.40625 -0.25 1.796875 -0.359375 1.671875 -1.1875 C 1.609375 -1.65625 1.609375 -2.46875 1.609375 -2.96875 C 1.609375 -3.53125 1.609375 -4.28125 1.671875 -4.703125 C 1.8125 -5.421875 2.40625 -5.515625 2.640625 -5.515625 C 2.9375 -5.515625 3.5 -5.375 3.609375 -4.671875 C 3.6875 -4.25 3.6875 -3.46875 3.6875 -2.96875 C 3.6875 -2.265625 3.6875 -1.203125 3.546875 -0.84375 C 3.34375 -0.40625 2.953125 -0.25 2.65625 -0.25 Z M 2.65625 -0.25 "/>
</g>
<g id="glyph-1-0">
<path d="M 2.140625 -3.796875 C 2.140625 -3.96875 2.125 -3.96875 1.9375 -3.96875 C 1.546875 -3.59375 0.9375 -3.59375 0.71875 -3.59375 L 0.71875 -3.359375 C 0.875 -3.359375 1.265625 -3.359375 1.625 -3.515625 L 1.625 -0.5 C 1.625 -0.3125 1.625 -0.234375 1.015625 -0.234375 L 0.765625 -0.234375 L 0.765625 0 C 1.09375 -0.03125 1.546875 -0.03125 1.890625 -0.03125 C 2.21875 -0.03125 2.6875 -0.03125 3.015625 0 L 3.015625 -0.234375 L 2.75 -0.234375 C 2.140625 -0.234375 2.140625 -0.3125 2.140625 -0.5 Z M 2.140625 -3.796875 "/>
</g>
<g id="glyph-1-1">
<path d="M 3.21875 -1.109375 L 2.984375 -1.109375 C 2.984375 -1.03125 2.921875 -0.640625 2.828125 -0.578125 C 2.78125 -0.53125 2.296875 -0.53125 2.21875 -0.53125 L 1.109375 -0.53125 L 1.875 -1.15625 C 2.078125 -1.3125 2.609375 -1.703125 2.78125 -1.875 C 2.96875 -2.0625 3.21875 -2.359375 3.21875 -2.78125 C 3.21875 -3.53125 2.53125 -3.96875 1.734375 -3.96875 C 0.96875 -3.96875 0.4375 -3.46875 0.4375 -2.90625 C 0.4375 -2.59375 0.6875 -2.5625 0.75 -2.5625 C 0.90625 -2.5625 1.078125 -2.671875 1.078125 -2.890625 C 1.078125 -3.015625 1 -3.203125 0.734375 -3.203125 C 0.875 -3.515625 1.234375 -3.734375 1.640625 -3.734375 C 2.28125 -3.734375 2.609375 -3.265625 2.609375 -2.78125 C 2.609375 -2.359375 2.328125 -1.921875 1.90625 -1.546875 L 0.5 -0.25 C 0.4375 -0.1875 0.4375 -0.1875 0.4375 0 L 3.03125 0 Z M 3.21875 -1.109375 "/>
</g>
<g id="glyph-2-0">
<path d="M 4.625 -3.734375 L 6.4375 -5.109375 L 6.546875 -5.171875 C 7.09375 -5.546875 7.4375 -5.78125 7.96875 -5.84375 C 8.03125 -5.84375 8.125 -5.859375 8.125 -6 C 8.125 -6.046875 8.109375 -6.109375 8.015625 -6.109375 C 7.953125 -6.109375 7.890625 -6.09375 7.359375 -6.09375 C 7.03125 -6.09375 6.703125 -6.109375 6.390625 -6.109375 C 6.34375 -6.109375 6.21875 -6.109375 6.21875 -5.953125 C 6.21875 -5.84375 6.328125 -5.84375 6.34375 -5.84375 C 6.421875 -5.828125 6.59375 -5.8125 6.59375 -5.671875 C 6.59375 -5.609375 6.546875 -5.484375 6.421875 -5.375 C 6.390625 -5.34375 6.375 -5.34375 6.34375 -5.3125 C 6.328125 -5.28125 6.296875 -5.265625 6.265625 -5.234375 L 2.6875 -2.5625 L 3.40625 -5.421875 C 3.484375 -5.765625 3.515625 -5.84375 4.21875 -5.84375 C 4.359375 -5.84375 4.453125 -5.84375 4.453125 -6 C 4.453125 -6.078125 4.390625 -6.109375 4.328125 -6.109375 C 4.15625 -6.109375 3.9375 -6.09375 3.765625 -6.09375 C 3.578125 -6.09375 3.359375 -6.09375 3.1875 -6.09375 C 2.90625 -6.09375 2.890625 -6.09375 2.609375 -6.09375 C 2.4375 -6.109375 2.203125 -6.109375 2.03125 -6.109375 C 1.984375 -6.109375 1.859375 -6.109375 1.859375 -5.953125 C 1.859375 -5.84375 1.9375 -5.84375 2.125 -5.84375 C 2.15625 -5.84375 2.3125 -5.84375 2.46875 -5.8125 C 2.609375 -5.796875 2.671875 -5.78125 2.671875 -5.6875 C 2.671875 -5.640625 2.671875 -5.609375 2.640625 -5.5 L 1.4375 -0.6875 C 1.359375 -0.359375 1.328125 -0.28125 0.65625 -0.28125 C 0.5 -0.28125 0.390625 -0.28125 0.390625 -0.109375 C 0.390625 -0.015625 0.46875 0 0.53125 0 C 0.703125 0 0.921875 -0.015625 1.09375 -0.015625 C 1.359375 -0.03125 1.375 -0.03125 1.671875 -0.03125 C 1.953125 -0.03125 1.96875 -0.03125 2.234375 -0.015625 C 2.421875 -0.015625 2.65625 0 2.8125 0 C 2.890625 0 3 0 3 -0.15625 C 3 -0.28125 2.90625 -0.28125 2.71875 -0.28125 C 2.6875 -0.28125 2.53125 -0.28125 2.375 -0.296875 C 2.1875 -0.328125 2.171875 -0.359375 2.171875 -0.4375 C 2.171875 -0.515625 2.25 -0.8125 2.609375 -2.234375 L 3.984375 -3.265625 L 5.125 -0.75 C 5.171875 -0.640625 5.1875 -0.609375 5.1875 -0.546875 C 5.1875 -0.28125 4.8125 -0.28125 4.75 -0.28125 C 4.640625 -0.28125 4.53125 -0.28125 4.53125 -0.109375 C 4.53125 -0.03125 4.609375 0 4.671875 0 C 4.84375 0 5.015625 -0.015625 5.1875 -0.015625 C 5.375 -0.015625 5.5625 -0.03125 5.734375 -0.03125 C 5.890625 -0.03125 6.140625 -0.03125 6.203125 -0.015625 L 6.640625 0 C 6.671875 0 6.796875 0 6.796875 -0.15625 C 6.796875 -0.28125 6.6875 -0.28125 6.640625 -0.28125 C 6.328125 -0.28125 6.171875 -0.328125 6.015625 -0.65625 Z M 4.625 -3.734375 "/>
</g>
<g id="glyph-2-1">
<path d="M 1.625 -0.140625 C 1.625 0.15625 1.625 0.890625 0.96875 1.515625 C 0.90625 1.578125 0.90625 1.578125 0.90625 1.625 C 0.90625 1.6875 0.96875 1.734375 1.03125 1.734375 C 1.125 1.734375 1.859375 1.03125 1.859375 -0.015625 C 1.859375 -0.578125 1.65625 -0.96875 1.265625 -0.96875 C 0.96875 -0.96875 0.78125 -0.734375 0.78125 -0.484375 C 0.78125 -0.234375 0.96875 0 1.265625 0 C 1.40625 0 1.546875 -0.046875 1.625 -0.140625 Z M 1.625 -0.140625 "/>
</g>
<g id="glyph-3-0">
<path d="M 1.640625 -6.21875 L 0.328125 -6.109375 L 0.328125 -5.84375 C 0.9375 -5.84375 1.015625 -5.78125 1.015625 -5.34375 L 1.015625 -0.6875 C 1.015625 -0.28125 0.90625 -0.28125 0.328125 -0.28125 L 0.328125 0 C 0.75 -0.015625 0.90625 -0.03125 1.328125 -0.03125 C 1.75 -0.03125 1.890625 -0.015625 2.34375 0 L 2.34375 -0.28125 C 1.75 -0.28125 1.640625 -0.28125 1.640625 -0.6875 Z M 1.640625 -6.21875 "/>
</g>
<g id="glyph-3-1">
<path d="M 1.640625 -3.953125 L 0.359375 -3.859375 L 0.359375 -3.578125 C 0.9375 -3.578125 1.015625 -3.53125 1.015625 -3.09375 L 1.015625 -0.6875 C 1.015625 -0.28125 0.90625 -0.28125 0.328125 -0.28125 L 0.328125 0 C 0.71875 -0.015625 0.90625 -0.03125 1.3125 -0.03125 C 1.453125 -0.03125 1.828125 -0.03125 2.265625 0 L 2.265625 -0.28125 C 1.6875 -0.28125 1.640625 -0.328125 1.640625 -0.671875 Z M 1.671875 -5.515625 C 1.671875 -5.78125 1.453125 -6 1.1875 -6 C 0.90625 -6 0.703125 -5.78125 0.703125 -5.515625 C 0.703125 -5.25 0.90625 -5.03125 1.1875 -5.03125 C 1.453125 -5.03125 1.671875 -5.25 1.671875 -5.515625 Z M 1.671875 -5.515625 "/>
</g>
<g id="glyph-3-2">
<path d="M 3.578125 -2.046875 C 3.78125 -2.046875 3.828125 -2.046875 3.828125 -2.234375 C 3.828125 -3.15625 3.328125 -4.015625 2.171875 -4.015625 C 1.09375 -4.015625 0.265625 -3.078125 0.265625 -1.96875 C 0.265625 -0.796875 1.203125 0.09375 2.296875 0.09375 C 3.390625 0.09375 3.828125 -0.859375 3.828125 -1.0625 C 3.828125 -1.125 3.78125 -1.1875 3.703125 -1.1875 C 3.609375 -1.1875 3.578125 -1.125 3.578125 -1.078125 C 3.265625 -0.171875 2.46875 -0.15625 2.34375 -0.15625 C 1.90625 -0.15625 1.546875 -0.390625 1.328125 -0.703125 C 1.03125 -1.140625 1.03125 -1.671875 1.03125 -2.046875 Z M 1.03125 -2.265625 C 1.125 -3.640625 1.921875 -3.78125 2.171875 -3.78125 C 2.671875 -3.78125 3.203125 -3.40625 3.21875 -2.265625 Z M 1.03125 -2.265625 "/>
</g>
<g id="glyph-3-3">
<path d="M 3.078125 -3.78125 C 3.078125 -3.9375 3.078125 -4.015625 2.96875 -4.015625 C 2.921875 -4.015625 2.90625 -4.015625 2.796875 -3.90625 C 2.78125 -3.890625 2.6875 -3.8125 2.640625 -3.765625 C 2.359375 -3.953125 2.09375 -4.015625 1.78125 -4.015625 C 0.59375 -4.015625 0.296875 -3.359375 0.296875 -2.90625 C 0.296875 -2.609375 0.4375 -2.375 0.640625 -2.1875 C 0.9375 -1.90625 1.28125 -1.84375 1.734375 -1.765625 C 2.1875 -1.671875 2.34375 -1.640625 2.546875 -1.5 C 2.625 -1.421875 2.859375 -1.25 2.859375 -0.90625 C 2.859375 -0.125 1.953125 -0.125 1.828125 -0.125 C 0.90625 -0.125 0.6875 -0.890625 0.578125 -1.375 C 0.546875 -1.453125 0.53125 -1.515625 0.4375 -1.515625 C 0.296875 -1.515625 0.296875 -1.4375 0.296875 -1.28125 L 0.296875 -0.140625 C 0.296875 0.015625 0.296875 0.09375 0.40625 0.09375 C 0.46875 0.09375 0.46875 0.09375 0.640625 -0.078125 C 0.671875 -0.140625 0.765625 -0.25 0.8125 -0.296875 C 1.1875 0.078125 1.609375 0.09375 1.828125 0.09375 C 2.921875 0.09375 3.3125 -0.546875 3.3125 -1.140625 C 3.3125 -1.546875 3.140625 -1.796875 2.9375 -2 C 2.625 -2.296875 2.3125 -2.359375 1.640625 -2.484375 C 1.421875 -2.53125 0.765625 -2.640625 0.765625 -3.15625 C 0.765625 -3.4375 0.96875 -3.8125 1.78125 -3.8125 C 2.75 -3.8125 2.8125 -3.078125 2.828125 -2.84375 C 2.84375 -2.734375 2.84375 -2.6875 2.953125 -2.6875 C 3.078125 -2.6875 3.078125 -2.75 3.078125 -2.921875 Z M 3.078125 -3.78125 "/>
</g>
<g id="glyph-3-4">
<path d="M 4.328125 -1.90625 C 4.328125 -3.078125 3.40625 -4.015625 2.296875 -4.015625 C 1.15625 -4.015625 0.265625 -3.046875 0.265625 -1.90625 C 0.265625 -0.78125 1.1875 0.09375 2.296875 0.09375 C 3.421875 0.09375 4.328125 -0.8125 4.328125 -1.90625 Z M 2.296875 -0.15625 C 1.859375 -0.15625 1.484375 -0.375 1.265625 -0.71875 C 1.03125 -1.09375 1.03125 -1.578125 1.03125 -1.984375 C 1.03125 -2.3125 1.03125 -2.828125 1.25 -3.203125 C 1.515625 -3.65625 1.96875 -3.78125 2.296875 -3.78125 C 2.796875 -3.78125 3.171875 -3.5 3.34375 -3.203125 C 3.546875 -2.8125 3.5625 -2.359375 3.5625 -1.984375 C 3.5625 -1.65625 3.5625 -1.140625 3.34375 -0.75 C 3.09375 -0.328125 2.671875 -0.15625 2.296875 -0.15625 Z M 2.296875 -0.15625 "/>
</g>
<g id="glyph-3-5">
<path d="M 3.546875 -1.5 C 3.546875 -0.703125 3.09375 -0.125 2.453125 -0.125 C 1.703125 -0.125 1.671875 -0.515625 1.671875 -1 L 1.671875 -3.953125 L 0.3125 -3.859375 L 0.3125 -3.578125 C 1 -3.578125 1 -3.546875 1 -2.75 L 1 -1.421875 C 1 -0.828125 1 -0.453125 1.421875 -0.140625 C 1.671875 0.03125 2.046875 0.09375 2.40625 0.09375 C 2.859375 0.09375 3.296875 -0.109375 3.5625 -0.640625 L 3.578125 -0.640625 L 3.578125 0.09375 L 4.890625 0 L 4.890625 -0.28125 C 4.28125 -0.28125 4.203125 -0.34375 4.203125 -0.78125 L 4.203125 -3.953125 L 2.859375 -3.859375 L 2.859375 -3.578125 C 3.46875 -3.578125 3.546875 -3.515625 3.546875 -3.078125 Z M 3.546875 -1.5 "/>
</g>
<g id="glyph-3-6">
<path d="M 2.90625 -3.578125 L 2.90625 -3.859375 L 1.609375 -3.859375 L 1.609375 -5.5 L 1.359375 -5.5 C 1.359375 -4.75 1.03125 -3.828125 0.171875 -3.8125 L 0.171875 -3.578125 L 0.953125 -3.578125 L 0.953125 -1.109375 C 0.953125 -0.109375 1.671875 0.09375 2.15625 0.09375 C 2.75 0.09375 3.0625 -0.46875 3.0625 -1.109375 L 3.0625 -1.625 L 2.8125 -1.625 L 2.8125 -1.140625 C 2.8125 -0.46875 2.53125 -0.15625 2.21875 -0.15625 C 1.609375 -0.15625 1.609375 -0.9375 1.609375 -1.09375 L 1.609375 -3.578125 Z M 2.90625 -3.578125 "/>
</g>
<g id="glyph-3-7">
<path d="M 3.484375 -1.078125 C 3.484375 -0.90625 3.484375 -0.890625 3.34375 -0.703125 C 3.078125 -0.296875 2.65625 -0.125 2.296875 -0.125 C 1.921875 -0.125 1.5625 -0.34375 1.328125 -0.71875 C 1.09375 -1.09375 1.078125 -1.625 1.078125 -1.921875 C 1.078125 -2.34375 1.125 -2.8125 1.359375 -3.171875 C 1.5625 -3.453125 1.921875 -3.734375 2.40625 -3.734375 C 2.78125 -3.734375 3.140625 -3.546875 3.375 -3.203125 C 3.484375 -3.0625 3.484375 -3.046875 3.484375 -2.890625 Z M 3.515625 -3.421875 C 3.46875 -3.484375 3.0625 -3.953125 2.359375 -3.953125 C 1.265625 -3.953125 0.296875 -3.078125 0.296875 -1.921875 C 0.296875 -0.8125 1.203125 0.09375 2.265625 0.09375 C 2.921875 0.09375 3.328125 -0.28125 3.484375 -0.46875 L 3.484375 0.09375 L 4.828125 0 L 4.828125 -0.28125 C 4.21875 -0.28125 4.140625 -0.34375 4.140625 -0.78125 L 4.140625 -6.21875 L 2.8125 -6.109375 L 2.8125 -5.84375 C 3.421875 -5.84375 3.515625 -5.78125 3.515625 -5.34375 Z M 3.515625 -3.421875 "/>
</g>
<g id="glyph-3-8">
<path d="M 6.34375 -2.96875 C 6.46875 -2.96875 6.640625 -2.96875 6.640625 -3.15625 C 6.640625 -3.34375 6.4375 -3.34375 6.296875 -3.34375 L 0.84375 -3.34375 C 0.703125 -3.34375 0.515625 -3.34375 0.515625 -3.15625 C 0.515625 -2.96875 0.6875 -2.96875 0.8125 -2.96875 Z M 6.296875 -1.140625 C 6.4375 -1.140625 6.640625 -1.140625 6.640625 -1.328125 C 6.640625 -1.515625 6.46875 -1.515625 6.34375 -1.515625 L 0.8125 -1.515625 C 0.6875 -1.515625 0.515625 -1.515625 0.515625 -1.328125 C 0.515625 -1.140625 0.703125 -1.140625 0.84375 -1.140625 Z M 6.296875 -1.140625 "/>
</g>
<g id="glyph-3-9">
<path d="M 3.265625 -3.515625 C 3.078125 -3.484375 2.890625 -3.359375 2.890625 -3.09375 C 2.890625 -2.859375 3.078125 -2.6875 3.296875 -2.6875 C 3.53125 -2.6875 3.71875 -2.84375 3.71875 -3.109375 C 3.71875 -3.671875 3.09375 -4.015625 2.3125 -4.015625 C 1.15625 -4.015625 0.296875 -3.046875 0.296875 -1.9375 C 0.296875 -0.78125 1.234375 0.09375 2.296875 0.09375 C 3.53125 0.09375 3.828125 -0.984375 3.828125 -1.0625 C 3.828125 -1.171875 3.71875 -1.171875 3.703125 -1.171875 C 3.59375 -1.171875 3.59375 -1.15625 3.546875 -1 C 3.34375 -0.390625 2.84375 -0.15625 2.375 -0.15625 C 1.8125 -0.15625 1.078125 -0.625 1.078125 -1.9375 C 1.078125 -3.34375 1.796875 -3.765625 2.328125 -3.765625 C 2.4375 -3.765625 2.921875 -3.75 3.265625 -3.515625 Z M 3.265625 -3.515625 "/>
</g>
<g id="glyph-3-10">
<path d="M 1.671875 -2.3125 C 1.671875 -3.265625 2.34375 -3.734375 2.90625 -3.734375 C 3.421875 -3.734375 3.546875 -3.296875 3.546875 -2.75 L 3.546875 -0.6875 C 3.546875 -0.28125 3.453125 -0.28125 2.859375 -0.28125 L 2.859375 0 C 3.28125 -0.015625 3.453125 -0.03125 3.875 -0.03125 C 4.3125 -0.03125 4.421875 -0.015625 4.890625 0 L 4.890625 -0.28125 C 4.4375 -0.28125 4.21875 -0.28125 4.203125 -0.5625 L 4.203125 -2.28125 C 4.203125 -3.015625 4.203125 -3.28125 3.953125 -3.59375 C 3.75 -3.84375 3.40625 -3.953125 2.96875 -3.953125 C 2.125 -3.953125 1.75 -3.34375 1.625 -3.09375 L 1.609375 -3.09375 L 1.609375 -3.953125 L 0.3125 -3.859375 L 0.3125 -3.578125 C 0.921875 -3.578125 1 -3.515625 1 -3.078125 L 1 -0.6875 C 1 -0.28125 0.90625 -0.28125 0.3125 -0.28125 L 0.3125 0 C 0.734375 -0.015625 0.90625 -0.03125 1.328125 -0.03125 C 1.765625 -0.03125 1.875 -0.015625 2.359375 0 L 2.359375 -0.28125 C 1.765625 -0.28125 1.671875 -0.28125 1.671875 -0.6875 Z M 1.671875 -2.3125 "/>
</g>
<g id="glyph-3-11">
<path d="M 3.046875 2.125 C 3.046875 2.09375 3.03125 2.0625 2.96875 2 C 1.8125 0.9375 1.46875 -0.671875 1.46875 -2.234375 C 1.46875 -3.625 1.734375 -5.3125 3 -6.515625 C 3.03125 -6.546875 3.046875 -6.578125 3.046875 -6.609375 C 3.046875 -6.671875 3.015625 -6.71875 2.953125 -6.71875 C 2.84375 -6.71875 2.03125 -6.0625 1.546875 -5.09375 C 1.125 -4.234375 0.90625 -3.3125 0.90625 -2.25 C 0.90625 -1.609375 0.984375 -0.578125 1.484375 0.46875 C 2 1.578125 2.84375 2.234375 2.953125 2.234375 C 3.015625 2.234375 3.046875 2.1875 3.046875 2.125 Z M 3.046875 2.125 "/>
</g>
<g id="glyph-3-12">
<path d="M 2.671875 -2.25 C 2.671875 -2.984375 2.5625 -3.96875 2.09375 -4.953125 C 1.5625 -6.0625 0.734375 -6.71875 0.625 -6.71875 C 0.53125 -6.71875 0.515625 -6.640625 0.515625 -6.609375 C 0.515625 -6.578125 0.53125 -6.546875 0.59375 -6.484375 C 1.125 -6.015625 2.109375 -4.796875 2.109375 -2.25 C 2.109375 -0.96875 1.875 0.8125 0.578125 2.015625 C 0.5625 2.046875 0.515625 2.09375 0.515625 2.125 C 0.515625 2.15625 0.53125 2.234375 0.625 2.234375 C 0.734375 2.234375 1.546875 1.578125 2.015625 0.609375 C 2.453125 -0.25 2.671875 -1.171875 2.671875 -2.25 Z M 2.671875 -2.25 "/>
</g>
<g id="glyph-3-13">
<path d="M 1.625 -0.140625 C 1.625 0.15625 1.625 0.890625 0.953125 1.53125 C 0.90625 1.578125 0.90625 1.609375 0.90625 1.625 C 0.90625 1.671875 0.96875 1.734375 1.03125 1.734375 C 1.125 1.734375 1.859375 1.03125 1.859375 -0.015625 C 1.859375 -0.640625 1.625 -0.96875 1.265625 -0.96875 C 0.953125 -0.96875 0.78125 -0.71875 0.78125 -0.484375 C 0.78125 -0.234375 0.953125 0 1.265625 0 C 1.5 0 1.625 -0.140625 1.625 -0.140625 Z M 1.625 -0.140625 "/>
</g>
<g id="glyph-3-14">
<path d="M 3.0625 -0.640625 C 3.109375 -0.265625 3.359375 0.046875 3.75 0.046875 C 3.96875 0.046875 4.546875 -0.078125 4.546875 -0.796875 L 4.546875 -1.296875 L 4.28125 -1.296875 L 4.28125 -0.8125 C 4.28125 -0.703125 4.28125 -0.265625 3.96875 -0.265625 C 3.640625 -0.265625 3.640625 -0.6875 3.640625 -0.828125 L 3.640625 -2.40625 C 3.640625 -2.90625 3.640625 -3.21875 3.234375 -3.578125 C 2.90625 -3.875 2.484375 -4.015625 2.03125 -4.015625 C 1.28125 -4.015625 0.65625 -3.640625 0.65625 -3.0625 C 0.65625 -2.78125 0.84375 -2.625 1.078125 -2.625 C 1.3125 -2.625 1.484375 -2.8125 1.484375 -3.046875 C 1.484375 -3.421875 1.09375 -3.46875 1.078125 -3.46875 C 1.328125 -3.703125 1.75 -3.78125 2.015625 -3.78125 C 2.46875 -3.78125 2.984375 -3.453125 2.984375 -2.65625 L 2.984375 -2.359375 C 2.5 -2.34375 1.828125 -2.296875 1.234375 -2.015625 C 0.578125 -1.703125 0.390625 -1.234375 0.390625 -0.875 C 0.390625 -0.140625 1.25 0.09375 1.859375 0.09375 C 2.59375 0.09375 2.9375 -0.390625 3.0625 -0.640625 Z M 2.984375 -1.265625 C 2.984375 -0.390625 2.3125 -0.125 1.921875 -0.125 C 1.5 -0.125 1.09375 -0.4375 1.09375 -0.875 C 1.09375 -1.46875 1.609375 -2.09375 2.984375 -2.15625 Z M 2.984375 -1.265625 "/>
</g>
<g id="glyph-3-15">
<path d="M 1.640625 -6.21875 L 0.3125 -6.109375 L 0.3125 -5.84375 C 0.921875 -5.84375 1 -5.78125 1 -5.34375 L 1 -0.6875 C 1 -0.28125 0.90625 -0.28125 0.3125 -0.28125 L 0.3125 0 C 0.734375 -0.015625 0.90625 -0.03125 1.328125 -0.03125 C 1.765625 -0.03125 1.875 -0.015625 2.359375 0 L 2.359375 -0.28125 C 1.765625 -0.28125 1.671875 -0.28125 1.671875 -0.6875 L 1.671875 -2.3125 C 1.671875 -3.265625 2.34375 -3.734375 2.90625 -3.734375 C 3.421875 -3.734375 3.546875 -3.296875 3.546875 -2.75 L 3.546875 -0.6875 C 3.546875 -0.28125 3.453125 -0.28125 2.859375 -0.28125 L 2.859375 0 C 3.28125 -0.015625 3.453125 -0.03125 3.875 -0.03125 C 4.3125 -0.03125 4.421875 -0.015625 4.890625 0 L 4.890625 -0.28125 C 4.4375 -0.28125 4.21875 -0.28125 4.203125 -0.5625 L 4.203125 -2.28125 C 4.203125 -3.015625 4.203125 -3.28125 3.953125 -3.59375 C 3.75 -3.84375 3.40625 -3.953125 2.96875 -3.953125 C 2.359375 -3.953125 1.921875 -3.640625 1.640625 -3.140625 Z M 1.640625 -6.21875 "/>
</g>
<g id="glyph-3-16">
<path d="M 1.625 -3.015625 C 1.921875 -3.53125 2.421875 -3.703125 2.796875 -3.703125 C 3.484375 -3.703125 4.03125 -2.90625 4.03125 -1.9375 C 4.03125 -0.90625 3.421875 -0.125 2.6875 -0.125 C 2.296875 -0.125 1.953125 -0.359375 1.734375 -0.671875 C 1.625 -0.84375 1.625 -0.875 1.625 -1.03125 Z M 1.625 -0.4375 C 1.859375 -0.203125 2.15625 0.09375 2.75 0.09375 C 3.8125 0.09375 4.796875 -0.765625 4.796875 -1.9375 C 4.796875 -3.0625 3.921875 -3.953125 2.859375 -3.953125 C 2.375 -3.953125 1.9375 -3.765625 1.59375 -3.390625 L 1.59375 -3.953125 L 0.265625 -3.859375 L 0.265625 -3.578125 C 0.90625 -3.578125 0.953125 -3.53125 0.953125 -3.140625 L 0.953125 1.046875 C 0.953125 1.453125 0.859375 1.453125 0.265625 1.453125 L 0.265625 1.734375 C 0.6875 1.71875 0.859375 1.703125 1.296875 1.703125 C 1.71875 1.703125 1.828125 1.71875 2.3125 1.734375 L 2.3125 1.453125 C 1.71875 1.453125 1.625 1.453125 1.625 1.046875 Z M 1.625 -0.4375 "/>
</g>
<g id="glyph-3-17">
<path d="M 2.6875 -3.578125 L 2.6875 -3.859375 L 1.625 -3.859375 L 1.625 -4.875 C 1.625 -5.6875 2.0625 -6.09375 2.4375 -6.09375 C 2.53125 -6.09375 2.625 -6.0625 2.71875 -6.03125 C 2.625 -6 2.484375 -5.890625 2.484375 -5.671875 C 2.484375 -5.4375 2.65625 -5.265625 2.875 -5.265625 C 3.109375 -5.265625 3.28125 -5.4375 3.28125 -5.671875 C 3.28125 -6.015625 2.9375 -6.3125 2.4375 -6.3125 C 1.75 -6.3125 1.015625 -5.78125 1.015625 -4.890625 L 1.015625 -3.859375 L 0.296875 -3.859375 L 0.296875 -3.578125 L 1.015625 -3.578125 L 1.015625 -0.6875 C 1.015625 -0.28125 0.90625 -0.28125 0.328125 -0.28125 L 0.328125 0 C 0.796875 -0.015625 0.90625 -0.03125 1.375 -0.03125 C 1.734375 -0.03125 1.9375 -0.015625 2.5 0 L 2.5 -0.28125 L 2.328125 -0.28125 C 1.671875 -0.28125 1.640625 -0.375 1.640625 -0.703125 L 1.640625 -3.578125 Z M 2.6875 -3.578125 "/>
</g>
<g id="glyph-3-18">
<path d="M 1.59375 -2.046875 C 1.59375 -2.421875 1.6875 -3.734375 2.71875 -3.734375 L 2.71875 -3.71875 C 2.6875 -3.71875 2.546875 -3.609375 2.546875 -3.390625 C 2.546875 -3.15625 2.734375 -3 2.953125 -3 C 3.140625 -3 3.34375 -3.140625 3.34375 -3.40625 C 3.34375 -3.6875 3.078125 -3.953125 2.671875 -3.953125 C 2.125 -3.953125 1.75 -3.578125 1.546875 -3.03125 L 1.546875 -3.953125 L 0.265625 -3.859375 L 0.265625 -3.578125 C 0.875 -3.578125 0.953125 -3.515625 0.953125 -3.078125 L 0.953125 -0.6875 C 0.953125 -0.28125 0.859375 -0.28125 0.265625 -0.28125 L 0.265625 0 C 0.75 -0.015625 0.859375 -0.03125 1.3125 -0.03125 C 1.671875 -0.03125 1.890625 -0.015625 2.453125 0 L 2.453125 -0.28125 L 2.28125 -0.28125 C 1.625 -0.28125 1.59375 -0.375 1.59375 -0.703125 Z M 1.59375 -2.046875 "/>
</g>
<g id="glyph-3-19">
<path d="M 1.75 -0.484375 C 1.75 -0.75 1.546875 -0.96875 1.265625 -0.96875 C 1 -0.96875 0.78125 -0.75 0.78125 -0.484375 C 0.78125 -0.21875 1 0 1.265625 0 C 1.546875 0 1.75 -0.21875 1.75 -0.484375 Z M 1.75 -0.484375 "/>
</g>
<g id="glyph-3-20">
<path d="M 6.125 -6.0625 L 0.515625 -6.0625 L 0.328125 -4.046875 L 0.578125 -4.046875 C 0.703125 -5.53125 0.890625 -5.78125 2.234375 -5.78125 C 2.40625 -5.78125 2.65625 -5.78125 2.75 -5.765625 C 2.90625 -5.734375 2.921875 -5.640625 2.921875 -5.421875 L 2.921875 -0.71875 C 2.921875 -0.40625 2.921875 -0.28125 1.984375 -0.28125 L 1.625 -0.28125 L 1.625 0 C 1.953125 -0.03125 2.9375 -0.03125 3.328125 -0.03125 C 3.703125 -0.03125 4.6875 -0.03125 5.015625 0 L 5.015625 -0.28125 L 4.671875 -0.28125 C 3.71875 -0.28125 3.71875 -0.40625 3.71875 -0.71875 L 3.71875 -5.421875 C 3.71875 -5.65625 3.734375 -5.734375 3.90625 -5.765625 C 4 -5.78125 4.25 -5.78125 4.40625 -5.78125 C 5.75 -5.78125 5.921875 -5.53125 6.046875 -4.046875 L 6.296875 -4.046875 Z M 6.125 -6.0625 "/>
</g>
<g id="glyph-3-21">
<path d="M 1.609375 -3.171875 C 1.578125 -3.234375 1.5625 -3.28125 1.5625 -3.34375 C 1.5625 -3.578125 1.890625 -3.578125 2.0625 -3.578125 L 2.0625 -3.859375 C 1.671875 -3.84375 1.46875 -3.828125 1.078125 -3.828125 C 0.765625 -3.828125 0.5 -3.828125 0.171875 -3.859375 L 0.171875 -3.578125 C 0.59375 -3.578125 0.765625 -3.578125 0.90625 -3.25 L 2.21875 -0.078125 C 2.265625 0.078125 2.34375 0.09375 2.421875 0.09375 C 2.5 0.09375 2.5625 0.078125 2.625 -0.078125 L 3.84375 -3.015625 C 4.03125 -3.46875 4.34375 -3.578125 4.671875 -3.578125 L 4.671875 -3.859375 C 4.390625 -3.828125 4 -3.828125 3.96875 -3.828125 C 3.71875 -3.828125 3.453125 -3.84375 3.203125 -3.859375 L 3.203125 -3.578125 C 3.453125 -3.5625 3.609375 -3.421875 3.609375 -3.203125 C 3.609375 -3.109375 3.59375 -3.09375 3.5625 -2.984375 L 2.625 -0.734375 Z M 1.609375 -3.171875 "/>
</g>
<g id="glyph-3-22">
<path d="M 1.125 -1.609375 C 1.34375 -1.453125 1.625 -1.328125 2.03125 -1.328125 C 2.890625 -1.328125 3.53125 -1.9375 3.53125 -2.640625 C 3.53125 -3.078125 3.28125 -3.390625 3.15625 -3.515625 C 3.515625 -3.828125 3.9375 -3.828125 4.046875 -3.828125 C 4 -3.8125 3.9375 -3.765625 3.9375 -3.59375 C 3.9375 -3.5 4 -3.328125 4.203125 -3.328125 C 4.328125 -3.328125 4.46875 -3.421875 4.46875 -3.609375 C 4.46875 -3.78125 4.34375 -4.0625 3.984375 -4.0625 C 3.71875 -4.0625 3.328125 -3.953125 3.015625 -3.640625 C 2.765625 -3.828125 2.421875 -3.953125 2.046875 -3.953125 C 1.1875 -3.953125 0.546875 -3.34375 0.546875 -2.640625 C 0.546875 -2.1875 0.8125 -1.859375 0.953125 -1.734375 C 0.9375 -1.703125 0.6875 -1.390625 0.6875 -0.984375 C 0.6875 -0.6875 0.828125 -0.359375 1.078125 -0.203125 C 0.625 -0.046875 0.265625 0.28125 0.265625 0.703125 C 0.265625 1.328125 1.140625 1.84375 2.296875 1.84375 C 3.390625 1.84375 4.328125 1.375 4.328125 0.6875 C 4.328125 0.3125 4.15625 -0.078125 3.828125 -0.296875 C 3.328125 -0.609375 2.8125 -0.609375 1.953125 -0.609375 C 1.78125 -0.609375 1.5 -0.609375 1.421875 -0.625 C 1.15625 -0.6875 1 -0.921875 1 -1.203125 C 1 -1.359375 1.03125 -1.484375 1.125 -1.609375 Z M 2.03125 -1.5625 C 1.234375 -1.5625 1.234375 -2.4375 1.234375 -2.640625 C 1.234375 -2.890625 1.25 -3.1875 1.40625 -3.40625 C 1.546875 -3.578125 1.78125 -3.71875 2.03125 -3.71875 C 2.84375 -3.71875 2.84375 -2.84375 2.84375 -2.640625 C 2.84375 -2.4375 2.84375 -1.5625 2.03125 -1.5625 Z M 2.4375 -0.046875 C 2.734375 -0.046875 3.828125 -0.03125 3.828125 0.6875 C 3.828125 1.203125 3.140625 1.609375 2.296875 1.609375 C 1.421875 1.609375 0.765625 1.1875 0.765625 0.6875 C 0.765625 0.546875 0.84375 -0.046875 1.625 -0.046875 Z M 2.4375 -0.046875 "/>
</g>
<g id="glyph-3-23">
<path d="M 4.234375 -2.859375 C 4.234375 -3.46875 4.203125 -4.234375 3.890625 -4.90625 C 3.5 -5.75 2.8125 -5.96875 2.296875 -5.96875 C 1.765625 -5.96875 1.078125 -5.75 0.6875 -4.890625 C 0.40625 -4.265625 0.359375 -3.546875 0.359375 -2.859375 C 0.359375 -2.28125 0.375 -1.421875 0.765625 -0.703125 C 1.1875 0.046875 1.875 0.203125 2.296875 0.203125 C 2.875 0.203125 3.53125 -0.046875 3.90625 -0.875 C 4.1875 -1.484375 4.234375 -2.15625 4.234375 -2.859375 Z M 2.296875 -0.03125 C 2.03125 -0.03125 1.390625 -0.15625 1.21875 -1.15625 C 1.125 -1.6875 1.125 -2.46875 1.125 -2.96875 C 1.125 -3.578125 1.125 -4.28125 1.234375 -4.78125 C 1.421875 -5.578125 1.984375 -5.734375 2.296875 -5.734375 C 2.625 -5.734375 3.203125 -5.5625 3.359375 -4.734375 C 3.46875 -4.234375 3.46875 -3.53125 3.46875 -2.96875 C 3.46875 -2.421875 3.46875 -1.671875 3.375 -1.140625 C 3.1875 -0.109375 2.53125 -0.03125 2.296875 -0.03125 Z M 2.296875 -0.03125 "/>
</g>
<g id="glyph-3-24">
<path d="M 5.703125 -2.984375 C 5.90625 -3.53125 6.265625 -3.578125 6.453125 -3.578125 L 6.453125 -3.859375 C 6.09375 -3.828125 6.078125 -3.828125 5.78125 -3.828125 C 5.4375 -3.828125 5.3125 -3.828125 4.953125 -3.859375 L 4.953125 -3.578125 C 5.34375 -3.578125 5.46875 -3.328125 5.46875 -3.15625 C 5.46875 -3.0625 5.453125 -3.015625 5.421875 -2.953125 L 4.609375 -0.703125 L 3.703125 -3.15625 C 3.65625 -3.28125 3.65625 -3.296875 3.65625 -3.328125 C 3.65625 -3.5625 3.9375 -3.578125 4.15625 -3.578125 L 4.15625 -3.859375 C 3.75 -3.828125 3.390625 -3.828125 3.234375 -3.828125 C 2.96875 -3.828125 2.703125 -3.828125 2.421875 -3.859375 L 2.421875 -3.578125 C 2.703125 -3.578125 2.890625 -3.578125 2.984375 -3.453125 C 3.0625 -3.34375 3.171875 -2.984375 3.171875 -2.96875 C 3.171875 -2.953125 3.140625 -2.84375 3.140625 -2.84375 L 2.40625 -0.828125 L 1.546875 -3.15625 C 1.5 -3.28125 1.5 -3.296875 1.5 -3.34375 C 1.5 -3.578125 1.84375 -3.578125 2.015625 -3.578125 L 2.015625 -3.859375 C 1.609375 -3.84375 1.390625 -3.828125 1.03125 -3.828125 C 0.75 -3.828125 0.484375 -3.828125 0.171875 -3.859375 L 0.171875 -3.578125 C 0.609375 -3.578125 0.71875 -3.5625 0.828125 -3.265625 L 1.984375 -0.09375 C 2.03125 0.015625 2.0625 0.09375 2.1875 0.09375 C 2.328125 0.09375 2.359375 0 2.40625 -0.09375 L 3.3125 -2.59375 L 4.234375 -0.09375 C 4.265625 0 4.3125 0.09375 4.4375 0.09375 C 4.578125 0.09375 4.609375 0.015625 4.640625 -0.078125 Z M 5.703125 -2.984375 "/>
</g>
<g id="glyph-3-25">
<path d="M 1.625 -3.15625 C 1.578125 -3.28125 1.578125 -3.328125 1.578125 -3.34375 C 1.578125 -3.578125 1.875 -3.578125 2.0625 -3.578125 L 2.0625 -3.859375 C 1.625 -3.84375 1.453125 -3.828125 1.078125 -3.828125 C 1.046875 -3.828125 0.53125 -3.828125 0.1875 -3.859375 L 0.1875 -3.578125 C 0.59375 -3.578125 0.765625 -3.5625 0.875 -3.328125 L 2.28125 0 L 2.0625 0.53125 C 1.859375 1 1.609375 1.609375 1.015625 1.609375 C 0.796875 1.609375 0.640625 1.5 0.625 1.484375 C 0.6875 1.46875 0.9375 1.390625 0.9375 1.09375 C 0.9375 0.859375 0.765625 0.71875 0.5625 0.71875 C 0.34375 0.71875 0.171875 0.859375 0.171875 1.09375 C 0.171875 1.5 0.5625 1.828125 1.015625 1.828125 C 1.609375 1.828125 1.984375 1.3125 2.203125 0.828125 L 3.828125 -2.96875 C 3.921875 -3.203125 4.078125 -3.5625 4.65625 -3.578125 L 4.65625 -3.859375 C 4.375 -3.828125 4.09375 -3.828125 3.96875 -3.828125 C 3.71875 -3.828125 3.453125 -3.84375 3.203125 -3.859375 L 3.203125 -3.578125 C 3.609375 -3.5625 3.609375 -3.234375 3.609375 -3.203125 C 3.609375 -3.109375 3.578125 -3.015625 3.53125 -2.953125 L 2.625 -0.8125 Z M 1.625 -3.15625 "/>
</g>
<g id="glyph-4-0">
<path d="M 6.046875 -2.046875 C 6.203125 -2.046875 6.375 -2.046875 6.375 -2.25 C 6.375 -2.4375 6.203125 -2.4375 6.046875 -2.4375 L 1.09375 -2.4375 C 0.953125 -2.4375 0.765625 -2.4375 0.765625 -2.25 C 0.765625 -2.046875 0.9375 -2.046875 1.09375 -2.046875 Z M 6.046875 -2.046875 "/>
</g>
<g id="glyph-4-1">
<path d="M 3.015625 -6.359375 C 3.0625 -6.484375 3.0625 -6.5 3.0625 -6.515625 C 3.0625 -6.640625 2.96875 -6.71875 2.875 -6.71875 C 2.75 -6.71875 2.71875 -6.640625 2.703125 -6.625 L 1.0625 -2.40625 C 1.015625 -2.28125 1.015625 -2.265625 1.015625 -2.25 C 1.015625 -2.21875 1.015625 -2.203125 1.0625 -2.078125 L 2.65625 2 C 2.6875 2.109375 2.734375 2.234375 2.875 2.234375 C 2.96875 2.234375 3.0625 2.15625 3.0625 2.03125 C 3.0625 2.015625 3.0625 2 3.015625 1.875 L 1.421875 -2.234375 Z M 3.015625 -6.359375 "/>
</g>
<g id="glyph-4-2">
<path d="M 2.5 -2.078125 C 2.5625 -2.203125 2.5625 -2.21875 2.5625 -2.234375 C 2.5625 -2.265625 2.5625 -2.28125 2.5 -2.40625 L 0.921875 -6.5 C 0.859375 -6.65625 0.8125 -6.71875 0.703125 -6.71875 C 0.59375 -6.71875 0.515625 -6.640625 0.515625 -6.515625 C 0.515625 -6.5 0.515625 -6.484375 0.5625 -6.359375 L 2.15625 -2.25 L 0.5625 1.875 C 0.515625 2 0.515625 2.015625 0.515625 2.03125 C 0.515625 2.15625 0.59375 2.234375 0.703125 2.234375 C 0.8125 2.234375 0.859375 2.171875 0.921875 2.015625 Z M 2.5 -2.078125 "/>
</g>
<g id="glyph-4-3">
<path d="M 6.203125 -2.921875 C 6.28125 -2.96875 6.375 -3.015625 6.375 -3.140625 C 6.375 -3.25 6.3125 -3.28125 6.21875 -3.328125 L 1.140625 -5.78125 C 1.015625 -5.84375 0.96875 -5.84375 0.953125 -5.84375 C 0.859375 -5.84375 0.765625 -5.75 0.765625 -5.640625 C 0.765625 -5.53125 0.875 -5.46875 0.953125 -5.4375 L 5.734375 -3.140625 L 0.984375 -0.84375 C 0.84375 -0.78125 0.765625 -0.75 0.765625 -0.625 C 0.765625 -0.5625 0.828125 -0.4375 0.96875 -0.4375 C 0.96875 -0.4375 1.015625 -0.4375 1.125 -0.5 Z M 6.046875 1.375 C 6.203125 1.375 6.375 1.375 6.375 1.1875 C 6.375 1 6.171875 1 6.046875 1 L 1.09375 1 C 0.96875 1 0.765625 1 0.765625 1.1875 C 0.765625 1.375 0.953125 1.375 1.09375 1.375 Z M 6.046875 1.375 "/>
</g>
</g>
<clipPath id="clip-0">
<path clip-rule="nonzero" d="M 82 0.0546875 L 170 0.0546875 L 170 159 L 82 159 Z M 82 0.0546875 "/>
</clipPath>
</defs>
<path fill-rule="nonzero" fill="rgb(89.99939%, 89.99939%, 89.99939%)" fill-opacity="1" d="M 107.777344 115.652344 L 220.988281 93.011719 L 154.832031 9.515625 Z M 107.777344 115.652344 "/>
<path fill="none" stroke-width="0.3985" stroke-linecap="butt" stroke-linejoin="miter" stroke="rgb(50%, 50%, 50%)" stroke-opacity="1" stroke-miterlimit="10" d="M -67.321912 0.000500096 L 120.075767 0.000500096 " transform="matrix(0.998462, 0, 0, -0.998462, 107.776934, 115.652843)"/>
<path fill="none" stroke-width="0.3985" stroke-linecap="round" stroke-linejoin="round" stroke="rgb(50%, 50%, 50%)" stroke-opacity="1" stroke-miterlimit="10" d="M -2.07267 2.390896 C -1.69318 0.955094 -0.84813 0.278271 0.000832565 0.000500096 C -0.84813 -0.277271 -1.69318 -0.958006 -2.07267 -2.389896 " transform="matrix(0.998462, 0, 0, -0.998462, 227.866356, 115.652843)"/>
<path fill="none" stroke-width="0.3985" stroke-linecap="butt" stroke-linejoin="miter" stroke="rgb(50%, 50%, 50%)" stroke-opacity="1" stroke-miterlimit="10" d="M 0.000410535 -31.888404 L 0.000410535 112.986825 " transform="matrix(0.998462, 0, 0, -0.998462, 107.776934, 115.652843)"/>
<path fill="none" stroke-width="0.3985" stroke-linecap="round" stroke-linejoin="round" stroke="rgb(50%, 50%, 50%)" stroke-opacity="1" stroke-miterlimit="10" d="M -2.071089 2.389986 C -1.695511 0.958095 -0.850461 0.277361 -0.00149908 -0.000410535 C -0.850461 -0.278182 -1.695511 -0.955004 -2.071089 -2.390807 " transform="matrix(0, -0.998462, -0.998462, 0, 107.776934, 2.639128)"/>
<path fill="none" stroke-width="1.19553" stroke-linecap="butt" stroke-linejoin="miter" stroke="rgb(0%, 0%, 0%)" stroke-opacity="1" stroke-miterlimit="10" d="M 0.000410535 0.000500096 L 69.693568 13.939914 " transform="matrix(0.998462, 0, 0, -0.998462, 107.776934, 115.652843)"/>
<path fill="none" stroke-width="1.19553" stroke-linecap="round" stroke-linejoin="round" stroke="rgb(0%, 0%, 0%)" stroke-opacity="1" stroke-miterlimit="10" d="M -3.028711 3.830886 C -2.474709 1.533642 -1.243974 0.445644 -0.000200998 0.00139879 C -1.243198 -0.448242 -2.473144 -1.530893 -3.028636 -3.829683 " transform="matrix(0.979041, -0.195798, -0.195798, -0.979041, 177.949689, 101.618518)"/>
<g fill="rgb(0%, 0%, 0%)" fill-opacity="1">
<use xlink:href="#glyph-0-0" x="182.44688" y="109.392489"/>
</g>
<g fill="rgb(0%, 0%, 0%)" fill-opacity="1">
<use xlink:href="#glyph-1-0" x="187.596945" y="110.386957"/>
</g>
<path fill="none" stroke-width="1.19553" stroke-linecap="butt" stroke-linejoin="miter" stroke="rgb(0%, 0%, 0%)" stroke-opacity="1" stroke-miterlimit="10" d="M 0.000410535 0.000500096 L 27.859677 62.686784 " transform="matrix(0.998462, 0, 0, -0.998462, 107.776934, 115.652843)"/>
<path fill="none" stroke-width="1.19553" stroke-linecap="round" stroke-linejoin="round" stroke="rgb(0%, 0%, 0%)" stroke-opacity="1" stroke-miterlimit="10" d="M -3.029822 3.831628 C -2.474081 1.531213 -1.243033 0.447146 -0.000466179 0.00184157 C -1.243429 -0.447835 -2.474872 -1.530315 -3.027828 -3.831129 " transform="matrix(0.405505, -0.912384, -0.912384, -0.405505, 135.837807, 52.515946)"/>
<g fill="rgb(0%, 0%, 0%)" fill-opacity="1">
<use xlink:href="#glyph-0-0" x="139.992295" y="53.463666"/>
</g>
<g fill="rgb(0%, 0%, 0%)" fill-opacity="1">
<use xlink:href="#glyph-1-1" x="145.14236" y="54.458134"/>
</g>
<g clip-path="url(#clip-0)">
<path fill="none" stroke-width="0.79701" stroke-linecap="butt" stroke-linejoin="miter" stroke="rgb(0%, 0%, 0%)" stroke-opacity="1" stroke-dasharray="2.98883 2.98883" stroke-miterlimit="10" d="M -14.17374 -31.888404 L 50.316101 113.385877 " transform="matrix(0.998462, 0, 0, -0.998462, 107.776934, 115.652843)"/>
</g>
<path fill-rule="nonzero" fill="rgb(0%, 0%, 0%)" fill-opacity="1" d="M 74.167969 62.585938 C 74.167969 61.605469 73.375 60.816406 72.398438 60.816406 C 71.421875 60.816406 70.628906 61.605469 70.628906 62.585938 C 70.628906 63.5625 71.421875 64.351562 72.398438 64.351562 C 73.375 64.351562 74.167969 63.5625 74.167969 62.585938 Z M 74.167969 62.585938 "/>
<g fill="rgb(0%, 0%, 0%)" fill-opacity="1">
<use xlink:href="#glyph-0-1" x="62.998929" y="65.693822"/>
</g>
<path fill-rule="nonzero" fill="rgb(0%, 0%, 0%)" fill-opacity="1" d="M 122.988281 84.519531 C 122.988281 83.738281 122.355469 83.105469 121.574219 83.105469 C 120.792969 83.105469 120.160156 83.738281 120.160156 84.519531 C 120.160156 85.300781 120.792969 85.933594 121.574219 85.933594 C 122.355469 85.933594 122.988281 85.300781 122.988281 84.519531 Z M 122.988281 84.519531 "/>
<g fill="rgb(0%, 0%, 0%)" fill-opacity="1">
<use xlink:href="#glyph-0-2" x="125.089258" y="85.638091"/>
</g>
<path fill="none" stroke-width="0.79701" stroke-linecap="butt" stroke-linejoin="miter" stroke="rgb(0%, 0%, 0%)" stroke-opacity="1" stroke-dasharray="0.79701 1.99255" stroke-miterlimit="10" d="M -35.433009 53.148673 L 13.818544 31.181283 " transform="matrix(0.998462, 0, 0, -0.998462, 107.776934, 115.652843)"/>
<path fill="none" stroke-width="0.79701" stroke-linecap="butt" stroke-linejoin="miter" stroke="rgb(0%, 0%, 0%)" stroke-opacity="1" stroke-miterlimit="10" d="M 0.000410535 0.000500096 L 31.161632 -13.848932 " transform="matrix(0.998462, 0, 0, -0.998462, 107.776934, 115.652843)"/>
<path fill="none" stroke-width="0.79701" stroke-linecap="round" stroke-linejoin="round" stroke="rgb(0%, 0%, 0%)" stroke-opacity="1" stroke-miterlimit="10" d="M -2.551757 3.11091 C -2.086587 1.245472 -1.047804 0.362806 0.000512382 -0.0018592 C -1.045817 -0.364143 -2.084201 -1.245222 -2.552545 -3.110264 " transform="matrix(0.912384, 0.405505, 0.405505, -0.912384, 139.254193, 129.642627)"/>
<g fill="rgb(0%, 0%, 0%)" fill-opacity="1">
<use xlink:href="#glyph-0-3" x="136.748294" y="137.496186"/>
</g>
<g fill="rgb(0%, 0%, 0%)" fill-opacity="1">
<use xlink:href="#glyph-2-0" x="177.857951" y="65.643898"/>
</g>
<g fill="rgb(0%, 0%, 0%)" fill-opacity="1">
<use xlink:href="#glyph-0-1" x="34.303145" y="165.159562"/>
</g>
<g fill="rgb(0%, 0%, 0%)" fill-opacity="1">
<use xlink:href="#glyph-3-0" x="43.255351" y="165.159562"/>
<use xlink:href="#glyph-3-1" x="45.81132" y="165.159562"/>
<use xlink:href="#glyph-3-2" x="48.367289" y="165.159562"/>
<use xlink:href="#glyph-3-3" x="52.46042" y="165.159562"/>
</g>
<g fill="rgb(0%, 0%, 0%)" fill-opacity="1">
<use xlink:href="#glyph-3-4" x="59.16055" y="165.159562"/>
<use xlink:href="#glyph-3-5" x="63.761294" y="165.159562"/>
<use xlink:href="#glyph-3-6" x="68.873232" y="165.159562"/>
</g>
<g fill="rgb(0%, 0%, 0%)" fill-opacity="1">
<use xlink:href="#glyph-3-3" x="72.442635" y="165.159562"/>
<use xlink:href="#glyph-3-1" x="76.072022" y="165.159562"/>
<use xlink:href="#glyph-3-7" x="78.627991" y="165.159562"/>
<use xlink:href="#glyph-3-2" x="83.739928" y="165.159562"/>
</g>
<g fill="rgb(0%, 0%, 0%)" fill-opacity="1">
<use xlink:href="#glyph-2-0" x="90.903932" y="165.159562"/>
</g>
<g fill="rgb(0%, 0%, 0%)" fill-opacity="1">
<use xlink:href="#glyph-3-8" x="101.889006" y="165.159562"/>
</g>
<g fill="rgb(0%, 0%, 0%)" fill-opacity="1">
<use xlink:href="#glyph-3-9" x="111.597212" y="165.159562"/>
<use xlink:href="#glyph-3-4" x="115.686762" y="165.159562"/>
<use xlink:href="#glyph-3-10" x="120.287506" y="165.159562"/>
<use xlink:href="#glyph-3-2" x="125.399444" y="165.159562"/>
<use xlink:href="#glyph-3-11" x="129.492575" y="165.159562"/>
</g>
<g fill="rgb(0%, 0%, 0%)" fill-opacity="1">
<use xlink:href="#glyph-0-0" x="133.073955" y="165.159562"/>
</g>
<g fill="rgb(0%, 0%, 0%)" fill-opacity="1">
<use xlink:href="#glyph-1-0" x="138.22402" y="166.154029"/>
</g>
<g fill="rgb(0%, 0%, 0%)" fill-opacity="1">
<use xlink:href="#glyph-2-1" x="142.368634" y="165.159562"/>
</g>
<g fill="rgb(0%, 0%, 0%)" fill-opacity="1">
<use xlink:href="#glyph-0-0" x="146.458332" y="165.159562"/>
</g>
<g fill="rgb(0%, 0%, 0%)" fill-opacity="1">
<use xlink:href="#glyph-1-1" x="151.607398" y="166.154029"/>
</g>
<g fill="rgb(0%, 0%, 0%)" fill-opacity="1">
<use xlink:href="#glyph-3-12" x="155.752012" y="165.159562"/>
<use xlink:href="#glyph-3-13" x="159.330369" y="165.159562"/>
</g>
<g fill="rgb(0%, 0%, 0%)" fill-opacity="1">
<use xlink:href="#glyph-3-14" x="164.957081" y="165.159562"/>
<use xlink:href="#glyph-3-10" x="169.557825" y="165.159562"/>
<use xlink:href="#glyph-3-7" x="174.669763" y="165.159562"/>
</g>
<g fill="rgb(0%, 0%, 0%)" fill-opacity="1">
<use xlink:href="#glyph-0-2" x="182.844268" y="165.159562"/>
</g>
<g fill="rgb(0%, 0%, 0%)" fill-opacity="1">
<use xlink:href="#glyph-3-1" x="191.797472" y="165.159562"/>
<use xlink:href="#glyph-3-3" x="194.353441" y="165.159562"/>
</g>
<g fill="rgb(0%, 0%, 0%)" fill-opacity="1">
<use xlink:href="#glyph-3-6" x="201.053571" y="165.159562"/>
<use xlink:href="#glyph-3-15" x="204.631928" y="165.159562"/>
<use xlink:href="#glyph-3-2" x="209.743865" y="165.159562"/>
</g>
<g fill="rgb(0%, 0%, 0%)" fill-opacity="1">
<use xlink:href="#glyph-3-16" x="216.898788" y="165.159562"/>
</g>
<g fill="rgb(0%, 0%, 0%)" fill-opacity="1">
<use xlink:href="#glyph-3-4" x="222.270351" y="165.159562"/>
<use xlink:href="#glyph-3-1" x="226.871095" y="165.159562"/>
<use xlink:href="#glyph-3-10" x="229.427064" y="165.159562"/>
</g>
<g fill="rgb(0%, 0%, 0%)" fill-opacity="1">
<use xlink:href="#glyph-3-6" x="234.279376" y="165.159562"/>
</g>
<g fill="rgb(0%, 0%, 0%)" fill-opacity="1">
<use xlink:href="#glyph-3-4" x="5.304826" y="176.101702"/>
<use xlink:href="#glyph-3-17" x="9.90557" y="176.101702"/>
</g>
<g fill="rgb(0%, 0%, 0%)" fill-opacity="1">
<use xlink:href="#glyph-2-0" x="15.78368" y="176.101702"/>
</g>
<g fill="rgb(0%, 0%, 0%)" fill-opacity="1">
<use xlink:href="#glyph-3-10" x="27.279966" y="176.101702"/>
<use xlink:href="#glyph-3-2" x="32.391904" y="176.101702"/>
<use xlink:href="#glyph-3-14" x="36.485035" y="176.101702"/>
<use xlink:href="#glyph-3-18" x="41.085779" y="176.101702"/>
<use xlink:href="#glyph-3-2" x="44.684727" y="176.101702"/>
<use xlink:href="#glyph-3-3" x="48.777858" y="176.101702"/>
<use xlink:href="#glyph-3-6" x="52.407244" y="176.101702"/>
</g>
<g fill="rgb(0%, 0%, 0%)" fill-opacity="1">
<use xlink:href="#glyph-3-6" x="59.047392" y="176.101702"/>
<use xlink:href="#glyph-3-4" x="62.625748" y="176.101702"/>
</g>
<g fill="rgb(0%, 0%, 0%)" fill-opacity="1">
<use xlink:href="#glyph-3-1" x="70.297236" y="176.101702"/>
<use xlink:href="#glyph-3-6" x="72.853205" y="176.101702"/>
<use xlink:href="#glyph-3-19" x="76.431561" y="176.101702"/>
</g>
<g fill="rgb(0%, 0%, 0%)" fill-opacity="1">
<use xlink:href="#glyph-3-20" x="83.078871" y="176.101702"/>
<use xlink:href="#glyph-3-15" x="89.72439" y="176.101702"/>
<use xlink:href="#glyph-3-2" x="94.836328" y="176.101702"/>
</g>
<g fill="rgb(0%, 0%, 0%)" fill-opacity="1">
<use xlink:href="#glyph-3-21" x="101.99125" y="176.101702"/>
</g>
<g fill="rgb(0%, 0%, 0%)" fill-opacity="1">
<use xlink:href="#glyph-3-2" x="106.59647" y="176.101702"/>
<use xlink:href="#glyph-3-9" x="110.689601" y="176.101702"/>
<use xlink:href="#glyph-3-6" x="114.779152" y="176.101702"/>
<use xlink:href="#glyph-3-4" x="118.357508" y="176.101702"/>
<use xlink:href="#glyph-3-18" x="122.958252" y="176.101702"/>
</g>
<g fill="rgb(0%, 0%, 0%)" fill-opacity="1">
<use xlink:href="#glyph-0-3" x="129.622274" y="176.101702"/>
</g>
<g fill="rgb(0%, 0%, 0%)" fill-opacity="1">
<use xlink:href="#glyph-3-16" x="138.427706" y="176.101702"/>
</g>
<g fill="rgb(0%, 0%, 0%)" fill-opacity="1">
<use xlink:href="#glyph-3-4" x="143.790317" y="176.101702"/>
<use xlink:href="#glyph-3-1" x="148.391061" y="176.101702"/>
<use xlink:href="#glyph-3-10" x="150.94703" y="176.101702"/>
</g>
<g fill="rgb(0%, 0%, 0%)" fill-opacity="1">
<use xlink:href="#glyph-3-6" x="155.808295" y="176.101702"/>
<use xlink:href="#glyph-3-3" x="159.386651" y="176.101702"/>
</g>
<g fill="rgb(0%, 0%, 0%)" fill-opacity="1">
<use xlink:href="#glyph-3-14" x="166.077828" y="176.101702"/>
<use xlink:href="#glyph-3-0" x="170.678572" y="176.101702"/>
<use xlink:href="#glyph-3-4" x="173.234541" y="176.101702"/>
<use xlink:href="#glyph-3-10" x="177.835285" y="176.101702"/>
<use xlink:href="#glyph-3-22" x="182.947223" y="176.101702"/>
</g>
<g fill="rgb(0%, 0%, 0%)" fill-opacity="1">
<use xlink:href="#glyph-0-2" x="190.618289" y="176.101702"/>
</g>
<g fill="rgb(0%, 0%, 0%)" fill-opacity="1">
<use xlink:href="#glyph-4-0" x="198.549069" y="176.101702"/>
</g>
<g fill="rgb(0%, 0%, 0%)" fill-opacity="1">
<use xlink:href="#glyph-0-1" x="207.749892" y="176.101702"/>
</g>
<g fill="rgb(0%, 0%, 0%)" fill-opacity="1">
<use xlink:href="#glyph-3-19" x="213.634825" y="176.101702"/>
</g>
<g fill="rgb(0%, 0%, 0%)" fill-opacity="1">
<use xlink:href="#glyph-3-20" x="220.282134" y="176.101702"/>
<use xlink:href="#glyph-3-15" x="226.927653" y="176.101702"/>
<use xlink:href="#glyph-3-2" x="232.039591" y="176.101702"/>
</g>
<g fill="rgb(0%, 0%, 0%)" fill-opacity="1">
<use xlink:href="#glyph-3-7" x="239.194513" y="176.101702"/>
<use xlink:href="#glyph-3-14" x="244.306451" y="176.101702"/>
<use xlink:href="#glyph-3-3" x="248.907195" y="176.101702"/>
<use xlink:href="#glyph-3-15" x="252.536581" y="176.101702"/>
<use xlink:href="#glyph-3-2" x="257.648519" y="176.101702"/>
<use xlink:href="#glyph-3-7" x="261.74165" y="176.101702"/>
</g>
<g fill="rgb(0%, 0%, 0%)" fill-opacity="1">
<use xlink:href="#glyph-3-0" x="31.607298" y="187.043842"/>
<use xlink:href="#glyph-3-1" x="34.163267" y="187.043842"/>
<use xlink:href="#glyph-3-10" x="36.719236" y="187.043842"/>
<use xlink:href="#glyph-3-2" x="41.831174" y="187.043842"/>
</g>
<g fill="rgb(0%, 0%, 0%)" fill-opacity="1">
<use xlink:href="#glyph-4-1" x="48.990514" y="187.043842"/>
</g>
<g fill="rgb(0%, 0%, 0%)" fill-opacity="1">
<use xlink:href="#glyph-0-4" x="52.569" y="187.043842"/>
</g>
<g fill="rgb(0%, 0%, 0%)" fill-opacity="1">
<use xlink:href="#glyph-2-1" x="57.276746" y="187.043842"/>
</g>
<g fill="rgb(0%, 0%, 0%)" fill-opacity="1">
<use xlink:href="#glyph-0-3" x="61.366445" y="187.043842"/>
</g>
<g fill="rgb(0%, 0%, 0%)" fill-opacity="1">
<use xlink:href="#glyph-4-2" x="67.104603" y="187.043842"/>
</g>
<g fill="rgb(0%, 0%, 0%)" fill-opacity="1">
<use xlink:href="#glyph-3-8" x="73.239151" y="187.043842"/>
</g>
<g fill="rgb(0%, 0%, 0%)" fill-opacity="1">
<use xlink:href="#glyph-3-23" x="82.947356" y="187.043842"/>
</g>
<g fill="rgb(0%, 0%, 0%)" fill-opacity="1">
<use xlink:href="#glyph-3-16" x="90.618844" y="187.043842"/>
<use xlink:href="#glyph-3-14" x="95.730782" y="187.043842"/>
<use xlink:href="#glyph-3-3" x="100.331526" y="187.043842"/>
<use xlink:href="#glyph-3-3" x="103.960912" y="187.043842"/>
<use xlink:href="#glyph-3-2" x="107.590298" y="187.043842"/>
<use xlink:href="#glyph-3-3" x="111.683429" y="187.043842"/>
</g>
<g fill="rgb(0%, 0%, 0%)" fill-opacity="1">
<use xlink:href="#glyph-3-6" x="118.383559" y="187.043842"/>
<use xlink:href="#glyph-3-15" x="121.961916" y="187.043842"/>
<use xlink:href="#glyph-3-18" x="127.073854" y="187.043842"/>
<use xlink:href="#glyph-3-4" x="130.672801" y="187.043842"/>
</g>
<g fill="rgb(0%, 0%, 0%)" fill-opacity="1">
<use xlink:href="#glyph-3-5" x="135.264592" y="187.043842"/>
<use xlink:href="#glyph-3-22" x="140.37653" y="187.043842"/>
<use xlink:href="#glyph-3-15" x="144.977274" y="187.043842"/>
</g>
<g fill="rgb(0%, 0%, 0%)" fill-opacity="1">
<use xlink:href="#glyph-0-5" x="153.160006" y="187.043842"/>
</g>
<g fill="rgb(0%, 0%, 0%)" fill-opacity="1">
<use xlink:href="#glyph-3-13" x="158.456845" y="187.043842"/>
</g>
<g fill="rgb(0%, 0%, 0%)" fill-opacity="1">
<use xlink:href="#glyph-3-24" x="164.083557" y="187.043842"/>
<use xlink:href="#glyph-3-1" x="170.729076" y="187.043842"/>
<use xlink:href="#glyph-3-6" x="173.285045" y="187.043842"/>
<use xlink:href="#glyph-3-15" x="176.863402" y="187.043842"/>
</g>
<g fill="rgb(0%, 0%, 0%)" fill-opacity="1">
<use xlink:href="#glyph-2-0" x="185.037888" y="187.043842"/>
</g>
<g fill="rgb(0%, 0%, 0%)" fill-opacity="1">
<use xlink:href="#glyph-3-4" x="196.534174" y="187.043842"/>
<use xlink:href="#glyph-3-10" x="201.134918" y="187.043842"/>
</g>
<g fill="rgb(0%, 0%, 0%)" fill-opacity="1">
<use xlink:href="#glyph-3-6" x="209.317599" y="187.043842"/>
<use xlink:href="#glyph-3-15" x="212.895956" y="187.043842"/>
<use xlink:href="#glyph-3-2" x="218.007893" y="187.043842"/>
</g>
<g fill="rgb(0%, 0%, 0%)" fill-opacity="1">
<use xlink:href="#glyph-3-3" x="225.162816" y="187.043842"/>
<use xlink:href="#glyph-3-1" x="228.792202" y="187.043842"/>
<use xlink:href="#glyph-3-7" x="231.348171" y="187.043842"/>
<use xlink:href="#glyph-3-2" x="236.460109" y="187.043842"/>
</g>
<g fill="rgb(0%, 0%, 0%)" fill-opacity="1">
<use xlink:href="#glyph-4-1" x="61.283572" y="197.984983"/>
</g>
<g fill="rgb(0%, 0%, 0%)" fill-opacity="1">
<use xlink:href="#glyph-0-4" x="64.862058" y="197.984983"/>
</g>
<g fill="rgb(0%, 0%, 0%)" fill-opacity="1">
<use xlink:href="#glyph-2-1" x="69.569805" y="197.984983"/>
</g>
<g fill="rgb(0%, 0%, 0%)" fill-opacity="1">
<use xlink:href="#glyph-0-3" x="73.659503" y="197.984983"/>
</g>
<g fill="rgb(0%, 0%, 0%)" fill-opacity="1">
<use xlink:href="#glyph-4-2" x="79.397662" y="197.984983"/>
</g>
<g fill="rgb(0%, 0%, 0%)" fill-opacity="1">
<use xlink:href="#glyph-4-3" x="85.536463" y="197.984983"/>
</g>
<g fill="rgb(0%, 0%, 0%)" fill-opacity="1">
<use xlink:href="#glyph-3-23" x="95.244245" y="197.984983"/>
</g>
<g fill="rgb(0%, 0%, 0%)" fill-opacity="1">
<use xlink:href="#glyph-3-14" x="102.915732" y="197.984983"/>
<use xlink:href="#glyph-3-10" x="107.516476" y="197.984983"/>
<use xlink:href="#glyph-3-7" x="112.628414" y="197.984983"/>
</g>
<g fill="rgb(0%, 0%, 0%)" fill-opacity="1">
<use xlink:href="#glyph-0-1" x="120.802863" y="197.984983"/>
</g>
<g fill="rgb(0%, 0%, 0%)" fill-opacity="1">
<use xlink:href="#glyph-3-3" x="129.756068" y="197.984983"/>
<use xlink:href="#glyph-3-6" x="133.385454" y="197.984983"/>
<use xlink:href="#glyph-3-18" x="136.96381" y="197.984983"/>
<use xlink:href="#glyph-3-1" x="140.562758" y="197.984983"/>
<use xlink:href="#glyph-3-9" x="143.118727" y="197.984983"/>
<use xlink:href="#glyph-3-6" x="147.208277" y="197.984983"/>
<use xlink:href="#glyph-3-0" x="150.786633" y="197.984983"/>
<use xlink:href="#glyph-3-25" x="153.342602" y="197.984983"/>
</g>
<g fill="rgb(0%, 0%, 0%)" fill-opacity="1">
<use xlink:href="#glyph-3-4" x="161.269239" y="197.984983"/>
<use xlink:href="#glyph-3-10" x="165.869983" y="197.984983"/>
</g>
<g fill="rgb(0%, 0%, 0%)" fill-opacity="1">
<use xlink:href="#glyph-3-6" x="174.043712" y="197.984983"/>
<use xlink:href="#glyph-3-15" x="177.622068" y="197.984983"/>
<use xlink:href="#glyph-3-2" x="182.734006" y="197.984983"/>
</g>
<g fill="rgb(0%, 0%, 0%)" fill-opacity="1">
<use xlink:href="#glyph-3-4" x="189.897881" y="197.984983"/>
<use xlink:href="#glyph-3-6" x="194.498625" y="197.984983"/>
<use xlink:href="#glyph-3-15" x="198.076982" y="197.984983"/>
<use xlink:href="#glyph-3-2" x="203.188919" y="197.984983"/>
<use xlink:href="#glyph-3-18" x="207.282051" y="197.984983"/>
</g>
</svg>
