<?xml version="1.0" encoding="UTF-8"?>
<svg xmlns="http://www.w3.org/2000/svg" xmlns:xlink="http://www.w3.org/1999/xlink" width="275.171" height="180.641" viewBox="0 0 183.447 120.427">
<defs>
<g>
<g id="glyph-0-0">
<path d="M 3.3125 -3 C 3.375 -3.25 3.609375 -4.171875 4.296875 -4.171875 C 4.34375 -4.171875 4.578125 -4.171875 4.796875 -4.03125 C 4.515625 -3.984375 4.3125 -3.734375 4.3125 -3.5 C 4.3125 -3.34375 4.421875 -3.15625 4.6875 -3.15625 C 4.90625 -3.15625 5.234375 -3.328125 5.234375 -3.734375 C 5.234375 -4.25 4.640625 -4.390625 4.3125 -4.390625 C 3.734375 -4.390625 3.390625 -3.859375 3.265625 -3.625 C 3.015625 -4.28125 2.484375 -4.390625 2.1875 -4.390625 C 1.15625 -4.390625 0.59375 -3.109375 0.59375 -2.859375 C 0.59375 -2.765625 0.6875 -2.765625 0.71875 -2.765625 C 0.796875 -2.765625 0.828125 -2.78125 0.84375 -2.875 C 1.1875 -3.921875 1.828125 -4.171875 2.171875 -4.171875 C 2.359375 -4.171875 2.703125 -4.078125 2.703125 -3.5 C 2.703125 -3.1875 2.546875 -2.53125 2.171875 -1.140625 C 2.015625 -0.53125 1.671875 -0.109375 1.234375 -0.109375 C 1.171875 -0.109375 0.9375 -0.109375 0.734375 -0.234375 C 0.984375 -0.28125 1.203125 -0.5 1.203125 -0.78125 C 1.203125 -1.046875 0.984375 -1.125 0.828125 -1.125 C 0.53125 -1.125 0.28125 -0.859375 0.28125 -0.546875 C 0.28125 -0.09375 0.78125 0.109375 1.21875 0.109375 C 1.875 0.109375 2.234375 -0.578125 2.265625 -0.640625 C 2.375 -0.28125 2.734375 0.109375 3.328125 0.109375 C 4.359375 0.109375 4.921875 -1.171875 4.921875 -1.421875 C 4.921875 -1.515625 4.828125 -1.515625 4.796875 -1.515625 C 4.71875 -1.515625 4.6875 -1.484375 4.671875 -1.40625 C 4.34375 -0.34375 3.671875 -0.109375 3.359375 -0.109375 C 2.96875 -0.109375 2.8125 -0.421875 2.8125 -0.765625 C 2.8125 -0.984375 2.875 -1.203125 2.96875 -1.640625 Z M 3.3125 -3 "/>
</g>
<g id="glyph-0-1">
<path d="M 4.828125 -3.78125 C 4.859375 -3.921875 4.859375 -3.9375 4.859375 -4.015625 C 4.859375 -4.1875 4.71875 -4.28125 4.578125 -4.28125 C 4.46875 -4.28125 4.3125 -4.21875 4.234375 -4.0625 C 4.203125 -4.015625 4.125 -3.703125 4.09375 -3.53125 C 4.015625 -3.28125 3.953125 -3 3.890625 -2.734375 L 3.4375 -0.953125 C 3.40625 -0.796875 2.96875 -0.109375 2.328125 -0.109375 C 1.8125 -0.109375 1.703125 -0.546875 1.703125 -0.90625 C 1.703125 -1.375 1.875 -1.984375 2.21875 -2.859375 C 2.375 -3.265625 2.40625 -3.375 2.40625 -3.578125 C 2.40625 -4.015625 2.09375 -4.390625 1.59375 -4.390625 C 0.65625 -4.390625 0.28125 -2.953125 0.28125 -2.859375 C 0.28125 -2.765625 0.390625 -2.765625 0.40625 -2.765625 C 0.5 -2.765625 0.515625 -2.78125 0.5625 -2.9375 C 0.828125 -3.875 1.234375 -4.171875 1.5625 -4.171875 C 1.640625 -4.171875 1.8125 -4.171875 1.8125 -3.84375 C 1.8125 -3.609375 1.71875 -3.34375 1.640625 -3.15625 C 1.25 -2.109375 1.078125 -1.53125 1.078125 -1.078125 C 1.078125 -0.1875 1.703125 0.109375 2.28125 0.109375 C 2.671875 0.109375 3 -0.0625 3.28125 -0.34375 C 3.15625 0.171875 3.03125 0.671875 2.640625 1.1875 C 2.375 1.53125 2 1.8125 1.546875 1.8125 C 1.40625 1.8125 0.96875 1.78125 0.796875 1.40625 C 0.953125 1.40625 1.078125 1.40625 1.21875 1.28125 C 1.3125 1.1875 1.421875 1.0625 1.421875 0.875 C 1.421875 0.5625 1.15625 0.53125 1.046875 0.53125 C 0.828125 0.53125 0.5 0.6875 0.5 1.171875 C 0.5 1.671875 0.9375 2.03125 1.546875 2.03125 C 2.5625 2.03125 3.59375 1.125 3.875 0.015625 Z M 4.828125 -3.78125 "/>
</g>
<g id="glyph-0-2">
<path d="M 2.015625 -0.015625 C 2.015625 -0.671875 1.765625 -1.046875 1.375 -1.046875 C 1.046875 -1.046875 0.859375 -0.796875 0.859375 -0.53125 C 0.859375 -0.265625 1.046875 0 1.375 0 C 1.5 0 1.625 -0.046875 1.71875 -0.125 C 1.75 -0.15625 1.765625 -0.15625 1.78125 -0.15625 C 1.78125 -0.15625 1.796875 -0.15625 1.796875 -0.015625 C 1.796875 0.71875 1.453125 1.3125 1.125 1.640625 C 1.015625 1.75 1.015625 1.78125 1.015625 1.8125 C 1.015625 1.875 1.0625 1.921875 1.109375 1.921875 C 1.21875 1.921875 2.015625 1.15625 2.015625 -0.015625 Z M 2.015625 -0.015625 "/>
</g>
<g id="glyph-1-0">
<path d="M 4.703125 -6.671875 C 4.59375 -6.921875 4.46875 -6.921875 4.3125 -6.921875 C 4.03125 -6.921875 3.984375 -6.84375 3.921875 -6.671875 L 1.453125 -0.6875 C 1.40625 -0.546875 1.375 -0.46875 0.609375 -0.46875 L 0.40625 -0.46875 L 0.40625 0 C 0.78125 -0.015625 1.265625 -0.03125 1.5625 -0.03125 C 1.953125 -0.03125 2.515625 -0.03125 2.875 0 L 2.875 -0.46875 C 2.859375 -0.46875 2 -0.46875 2 -0.59375 C 2 -0.609375 2.03125 -0.703125 2.03125 -0.71875 L 2.53125 -1.921875 L 5.1875 -1.921875 L 5.78125 -0.46875 L 4.84375 -0.46875 L 4.84375 0 C 5.21875 -0.03125 6.15625 -0.03125 6.59375 -0.03125 C 6.984375 -0.03125 7.859375 -0.03125 8.203125 0 L 8.203125 -0.46875 L 7.25 -0.46875 Z M 3.859375 -5.140625 L 4.984375 -2.375 L 2.734375 -2.375 Z M 3.859375 -5.140625 "/>
</g>
<g id="glyph-1-1">
<path d="M 4.578125 -2.15625 C 4.796875 -2.15625 4.90625 -2.15625 4.90625 -2.4375 C 4.90625 -2.734375 4.84375 -3.46875 4.34375 -3.953125 C 3.984375 -4.3125 3.453125 -4.5 2.765625 -4.5 C 1.1875 -4.5 0.3125 -3.46875 0.3125 -2.234375 C 0.3125 -0.90625 1.3125 0.0625 2.90625 0.0625 C 4.46875 0.0625 4.90625 -0.984375 4.90625 -1.15625 C 4.90625 -1.34375 4.71875 -1.34375 4.65625 -1.34375 C 4.5 -1.34375 4.46875 -1.296875 4.421875 -1.125 C 4.203125 -0.65625 3.640625 -0.34375 3 -0.34375 C 1.59375 -0.34375 1.59375 -1.65625 1.59375 -2.15625 Z M 1.59375 -2.484375 C 1.609375 -2.875 1.625 -3.296875 1.828125 -3.625 C 2.078125 -4.015625 2.484375 -4.140625 2.765625 -4.140625 C 3.921875 -4.140625 3.953125 -2.84375 3.953125 -2.484375 Z M 1.59375 -2.484375 "/>
</g>
<g id="glyph-2-0">
<path d="M 2.328125 -4.40625 C 2.328125 -4.59375 2.3125 -4.609375 2.109375 -4.609375 C 1.671875 -4.171875 1.046875 -4.15625 0.75 -4.15625 L 0.75 -3.90625 C 0.921875 -3.90625 1.375 -3.90625 1.765625 -4.109375 L 1.765625 -0.5625 C 1.765625 -0.34375 1.765625 -0.25 1.0625 -0.25 L 0.8125 -0.25 L 0.8125 0 C 0.921875 0 1.78125 -0.03125 2.046875 -0.03125 C 2.25 -0.03125 3.125 0 3.28125 0 L 3.28125 -0.25 L 3.015625 -0.25 C 2.328125 -0.25 2.328125 -0.34375 2.328125 -0.5625 Z M 2.328125 -4.40625 "/>
</g>
<g id="glyph-2-1">
<path d="M 3.5 -1.265625 L 3.265625 -1.265625 C 3.25 -1.109375 3.171875 -0.703125 3.09375 -0.625 C 3.03125 -0.59375 2.5 -0.59375 2.40625 -0.59375 L 1.125 -0.59375 C 1.859375 -1.234375 2.09375 -1.421875 2.515625 -1.75 C 3.03125 -2.171875 3.5 -2.59375 3.5 -3.25 C 3.5 -4.09375 2.765625 -4.609375 1.875 -4.609375 C 1.015625 -4.609375 0.4375 -4 0.4375 -3.359375 C 0.4375 -3.015625 0.734375 -2.96875 0.8125 -2.96875 C 0.96875 -2.96875 1.171875 -3.09375 1.171875 -3.34375 C 1.171875 -3.46875 1.125 -3.71875 0.765625 -3.71875 C 0.984375 -4.203125 1.453125 -4.359375 1.78125 -4.359375 C 2.46875 -4.359375 2.828125 -3.8125 2.828125 -3.25 C 2.828125 -2.65625 2.40625 -2.171875 2.171875 -1.921875 L 0.5 -0.265625 C 0.4375 -0.203125 0.4375 -0.1875 0.4375 0 L 3.296875 0 Z M 3.5 -1.265625 "/>
</g>
<g id="glyph-3-0">
<path d="M 6.8125 -3.25 C 6.96875 -3.25 7.15625 -3.25 7.15625 -3.4375 C 7.15625 -3.640625 6.96875 -3.640625 6.828125 -3.640625 L 0.890625 -3.640625 C 0.75 -3.640625 0.5625 -3.640625 0.5625 -3.4375 C 0.5625 -3.25 0.75 -3.25 0.890625 -3.25 Z M 6.828125 -1.3125 C 6.96875 -1.3125 7.15625 -1.3125 7.15625 -1.515625 C 7.15625 -1.71875 6.96875 -1.71875 6.8125 -1.71875 L 0.890625 -1.71875 C 0.75 -1.71875 0.5625 -1.71875 0.5625 -1.515625 C 0.5625 -1.3125 0.75 -1.3125 0.890625 -1.3125 Z M 6.828125 -1.3125 "/>
</g>
<g id="glyph-3-1">
<path d="M 3.28125 2.375 C 3.28125 2.34375 3.28125 2.328125 3.109375 2.15625 C 1.875 0.90625 1.5625 -0.96875 1.5625 -2.484375 C 1.5625 -4.203125 1.9375 -5.9375 3.15625 -7.171875 C 3.28125 -7.296875 3.28125 -7.3125 3.28125 -7.34375 C 3.28125 -7.40625 3.25 -7.4375 3.1875 -7.4375 C 3.078125 -7.4375 2.1875 -6.765625 1.609375 -5.5 C 1.09375 -4.421875 0.984375 -3.3125 0.984375 -2.484375 C 0.984375 -1.703125 1.09375 -0.5 1.640625 0.609375 C 2.234375 1.828125 3.078125 2.484375 3.1875 2.484375 C 3.25 2.484375 3.28125 2.453125 3.28125 2.375 Z M 3.28125 2.375 "/>
</g>
<g id="glyph-3-2">
<path d="M 1.265625 -0.765625 L 2.3125 -1.78125 C 3.859375 -3.15625 4.453125 -3.6875 4.453125 -4.6875 C 4.453125 -5.8125 3.5625 -6.609375 2.34375 -6.609375 C 1.234375 -6.609375 0.5 -5.6875 0.5 -4.8125 C 0.5 -4.25 0.984375 -4.25 1.015625 -4.25 C 1.1875 -4.25 1.53125 -4.375 1.53125 -4.78125 C 1.53125 -5.046875 1.359375 -5.296875 1.015625 -5.296875 C 0.9375 -5.296875 0.90625 -5.296875 0.890625 -5.28125 C 1.109375 -5.9375 1.640625 -6.296875 2.21875 -6.296875 C 3.125 -6.296875 3.546875 -5.5 3.546875 -4.6875 C 3.546875 -3.890625 3.0625 -3.109375 2.515625 -2.484375 L 0.609375 -0.359375 C 0.5 -0.265625 0.5 -0.234375 0.5 0 L 4.171875 0 L 4.453125 -1.71875 L 4.203125 -1.71875 C 4.15625 -1.421875 4.09375 -0.984375 3.984375 -0.84375 C 3.921875 -0.765625 3.265625 -0.765625 3.046875 -0.765625 Z M 1.265625 -0.765625 "/>
</g>
<g id="glyph-3-3">
<path d="M 4.5625 -3.171875 C 4.5625 -3.96875 4.515625 -4.765625 4.171875 -5.5 C 3.703125 -6.453125 2.890625 -6.609375 2.484375 -6.609375 C 1.890625 -6.609375 1.15625 -6.34375 0.75 -5.421875 C 0.4375 -4.75 0.390625 -3.96875 0.390625 -3.171875 C 0.390625 -2.4375 0.421875 -1.53125 0.828125 -0.78125 C 1.265625 0.015625 1.984375 0.21875 2.46875 0.21875 C 3 0.21875 3.765625 0.015625 4.203125 -0.9375 C 4.515625 -1.625 4.5625 -2.390625 4.5625 -3.171875 Z M 2.46875 0 C 2.078125 0 1.5 -0.25 1.3125 -1.203125 C 1.203125 -1.796875 1.203125 -2.703125 1.203125 -3.296875 C 1.203125 -3.921875 1.203125 -4.578125 1.296875 -5.125 C 1.484375 -6.296875 2.21875 -6.390625 2.46875 -6.390625 C 2.796875 -6.390625 3.453125 -6.21875 3.640625 -5.234375 C 3.734375 -4.671875 3.734375 -3.921875 3.734375 -3.296875 C 3.734375 -2.546875 3.734375 -1.875 3.625 -1.234375 C 3.484375 -0.296875 2.921875 0 2.46875 0 Z M 2.46875 0 "/>
</g>
<g id="glyph-3-4">
<path d="M 2.875 -2.484375 C 2.875 -3.25 2.765625 -4.453125 2.21875 -5.578125 C 1.625 -6.796875 0.765625 -7.4375 0.671875 -7.4375 C 0.609375 -7.4375 0.5625 -7.40625 0.5625 -7.34375 C 0.5625 -7.3125 0.5625 -7.296875 0.75 -7.109375 C 1.71875 -6.125 2.296875 -4.546875 2.296875 -2.484375 C 2.296875 -0.78125 1.921875 0.96875 0.6875 2.21875 C 0.5625 2.328125 0.5625 2.34375 0.5625 2.375 C 0.5625 2.4375 0.609375 2.484375 0.671875 2.484375 C 0.765625 2.484375 1.65625 1.8125 2.25 0.546875 C 2.75 -0.546875 2.875 -1.640625 2.875 -2.484375 Z M 2.875 -2.484375 "/>
</g>
<g id="glyph-3-5">
<path d="M 2.921875 -6.34375 C 2.921875 -6.59375 2.921875 -6.609375 2.6875 -6.609375 C 2.078125 -5.96875 1.203125 -5.96875 0.890625 -5.96875 L 0.890625 -5.671875 C 1.078125 -5.671875 1.671875 -5.671875 2.1875 -5.921875 L 2.1875 -0.78125 C 2.1875 -0.421875 2.15625 -0.3125 1.265625 -0.3125 L 0.9375 -0.3125 L 0.9375 0 C 1.296875 -0.03125 2.15625 -0.03125 2.546875 -0.03125 C 2.953125 -0.03125 3.8125 -0.03125 4.15625 0 L 4.15625 -0.3125 L 3.84375 -0.3125 C 2.953125 -0.3125 2.921875 -0.421875 2.921875 -0.78125 Z M 2.921875 -6.34375 "/>
</g>
<g id="glyph-3-6">
<path d="M 2.875 -3.5 C 3.6875 -3.765625 4.265625 -4.453125 4.265625 -5.234375 C 4.265625 -6.046875 3.390625 -6.609375 2.4375 -6.609375 C 1.4375 -6.609375 0.6875 -6.015625 0.6875 -5.265625 C 0.6875 -4.9375 0.90625 -4.75 1.1875 -4.75 C 1.5 -4.75 1.703125 -4.953125 1.703125 -5.25 C 1.703125 -5.75 1.234375 -5.75 1.078125 -5.75 C 1.390625 -6.234375 2.046875 -6.359375 2.40625 -6.359375 C 2.8125 -6.359375 3.359375 -6.140625 3.359375 -5.25 C 3.359375 -5.125 3.328125 -4.546875 3.078125 -4.125 C 2.78125 -3.640625 2.4375 -3.609375 2.1875 -3.609375 C 2.109375 -3.59375 1.875 -3.578125 1.8125 -3.578125 C 1.71875 -3.5625 1.65625 -3.546875 1.65625 -3.453125 C 1.65625 -3.34375 1.71875 -3.34375 1.890625 -3.34375 L 2.328125 -3.34375 C 3.140625 -3.34375 3.515625 -2.671875 3.515625 -1.703125 C 3.515625 -0.34375 2.828125 -0.0625 2.390625 -0.0625 C 1.96875 -0.0625 1.21875 -0.234375 0.875 -0.8125 C 1.21875 -0.765625 1.53125 -0.984375 1.53125 -1.359375 C 1.53125 -1.71875 1.265625 -1.921875 0.96875 -1.921875 C 0.734375 -1.921875 0.421875 -1.78125 0.421875 -1.34375 C 0.421875 -0.4375 1.34375 0.21875 2.421875 0.21875 C 3.625 0.21875 4.53125 -0.6875 4.53125 -1.703125 C 4.53125 -2.515625 3.90625 -3.28125 2.875 -3.5 Z M 2.875 -3.5 "/>
</g>
</g>
</defs>
<path fill="none" stroke-width="0.3985" stroke-linecap="butt" stroke-linejoin="miter" stroke="rgb(0%, 0%, 0%)" stroke-opacity="1" stroke-miterlimit="10" d="M -11.33777 -0.000300308 L 85.774453 -0.000300308 " transform="matrix(0.995264, 0, 0, -0.995264, 40.327048, 100.753607)"/>
<path fill="none" stroke-width="0.3985" stroke-linecap="round" stroke-linejoin="round" stroke="rgb(0%, 0%, 0%)" stroke-opacity="1" stroke-miterlimit="10" d="M -2.073114 2.389925 C -1.692405 0.95736 -0.848565 0.278363 -0.000800619 -0.000300308 C -0.848565 -0.278964 -1.692405 -0.95796 -2.073114 -2.390526 " transform="matrix(0.995264, 0, 0, -0.995264, 125.895328, 100.753607)"/>
<g fill="rgb(0%, 0%, 0%)" fill-opacity="1">
<use xlink:href="#glyph-0-0" x="129.595303" y="102.88845"/>
</g>
<path fill="none" stroke-width="0.3985" stroke-linecap="butt" stroke-linejoin="miter" stroke="rgb(0%, 0%, 0%)" stroke-opacity="1" stroke-miterlimit="10" d="M 0.00108225 -11.339152 L 0.00108225 85.776995 " transform="matrix(0.995264, 0, 0, -0.995264, 40.327048, 100.753607)"/>
<path fill="none" stroke-width="0.3985" stroke-linecap="round" stroke-linejoin="round" stroke="rgb(0%, 0%, 0%)" stroke-opacity="1" stroke-miterlimit="10" d="M -2.070572 2.389143 C -1.693788 0.956578 -0.849948 0.277581 0.00174166 -0.00108225 C -0.849948 -0.279746 -1.693788 -0.954817 -2.070572 -2.391307 " transform="matrix(0, -0.995264, -0.995264, 0, 40.327048, 15.185327)"/>
<g fill="rgb(0%, 0%, 0%)" fill-opacity="1">
<use xlink:href="#glyph-0-1" x="37.71846" y="9.557525"/>
</g>
<path fill="none" stroke-width="0.3985" stroke-linecap="butt" stroke-linejoin="miter" stroke="rgb(0%, 0%, 0%)" stroke-opacity="1" stroke-dasharray="0.3985 1.99255" stroke-miterlimit="10" d="M -11.33777 -11.339152 L 81.637675 81.640218 " transform="matrix(0.995264, 0, 0, -0.995264, 40.327048, 100.753607)"/>
<path fill="none" stroke-width="0.3985" stroke-linecap="butt" stroke-linejoin="miter" stroke="rgb(0%, 0%, 0%)" stroke-opacity="1" stroke-dasharray="2.98883 2.98883" stroke-miterlimit="10" d="M 0.00108225 -0.000300308 L 0.00108225 22.677403 L 22.678786 22.677403 L 22.678786 -0.000300308 Z M 0.00108225 -0.000300308 " transform="matrix(0.995264, 0, 0, -0.995264, 40.327048, 100.753607)"/>
<path fill-rule="nonzero" fill="rgb(87.5%, 87.5%, 87.5%)" fill-opacity="1" stroke-width="0.3985" stroke-linecap="butt" stroke-linejoin="miter" stroke="rgb(0%, 0%, 0%)" stroke-opacity="1" stroke-miterlimit="10" d="M 0.00108225 -0.000300308 L 45.356489 -0.000300308 L 68.034193 68.032811 L 22.678786 68.032811 Z M 0.00108225 -0.000300308 " transform="matrix(0.995264, 0, 0, -0.995264, 40.327048, 100.753607)"/>
<path fill="none" stroke-width="1.19553" stroke-linecap="butt" stroke-linejoin="miter" stroke="rgb(0%, 0%, 0%)" stroke-opacity="1" stroke-miterlimit="10" d="M 0.00108225 -0.000300308 L 44.159414 -0.000300308 " transform="matrix(0.995264, 0, 0, -0.995264, 40.327048, 100.753607)"/>
<path fill="none" stroke-width="1.19553" stroke-linecap="round" stroke-linejoin="round" stroke="rgb(0%, 0%, 0%)" stroke-opacity="1" stroke-miterlimit="10" d="M -3.027359 3.83034 C -2.473957 1.530386 -1.241559 0.447131 -0.00131047 -0.000300308 C -1.241559 -0.447732 -2.473957 -1.530986 -3.027359 -3.83094 " transform="matrix(0.995264, 0, 0, -0.995264, 84.872398, 100.753607)"/>
<g fill="rgb(0%, 0%, 0%)" fill-opacity="1">
<use xlink:href="#glyph-1-0" x="58.691668" y="112.08967"/>
<use xlink:href="#glyph-1-1" x="67.312135" y="112.08967"/>
</g>
<g fill="rgb(0%, 0%, 0%)" fill-opacity="1">
<use xlink:href="#glyph-2-0" x="72.538782" y="113.57759"/>
</g>
<g fill="rgb(0%, 0%, 0%)" fill-opacity="1">
<use xlink:href="#glyph-3-0" x="79.741511" y="112.08967"/>
</g>
<g fill="rgb(0%, 0%, 0%)" fill-opacity="1">
<use xlink:href="#glyph-3-1" x="90.210213" y="112.08967"/>
<use xlink:href="#glyph-3-2" x="94.066321" y="112.08967"/>
</g>
<g fill="rgb(0%, 0%, 0%)" fill-opacity="1">
<use xlink:href="#glyph-0-2" x="99.021774" y="112.08967"/>
</g>
<g fill="rgb(0%, 0%, 0%)" fill-opacity="1">
<use xlink:href="#glyph-3-3" x="103.42781" y="112.08967"/>
<use xlink:href="#glyph-3-4" x="108.385521" y="112.08967"/>
</g>
<path fill="none" stroke-width="1.19553" stroke-linecap="butt" stroke-linejoin="miter" stroke="rgb(0%, 0%, 0%)" stroke-opacity="1" stroke-miterlimit="10" d="M 0.00108225 -0.000300308 L 22.298077 66.898533 " transform="matrix(0.995264, 0, 0, -0.995264, 40.327048, 100.753607)"/>
<path fill="none" stroke-width="1.19553" stroke-linecap="round" stroke-linejoin="round" stroke="rgb(0%, 0%, 0%)" stroke-opacity="1" stroke-miterlimit="10" d="M -3.028394 3.829225 C -2.473585 1.531762 -1.243559 0.44819 -0.00111902 -0.00236925 C -1.243562 -0.445474 -2.474836 -1.530279 -3.028418 -3.82898 " transform="matrix(0.314713, -0.944148, -0.944148, -0.314713, 62.709053, 33.607573)"/>
<g fill="rgb(0%, 0%, 0%)" fill-opacity="1">
<use xlink:href="#glyph-1-0" x="5.44701" y="35.522979"/>
<use xlink:href="#glyph-1-1" x="14.067477" y="35.522979"/>
</g>
<g fill="rgb(0%, 0%, 0%)" fill-opacity="1">
<use xlink:href="#glyph-2-1" x="19.294124" y="37.009904"/>
</g>
<g fill="rgb(0%, 0%, 0%)" fill-opacity="1">
<use xlink:href="#glyph-3-0" x="26.496853" y="35.522979"/>
</g>
<g fill="rgb(0%, 0%, 0%)" fill-opacity="1">
<use xlink:href="#glyph-3-1" x="36.965555" y="35.522979"/>
<use xlink:href="#glyph-3-5" x="40.821663" y="35.522979"/>
</g>
<g fill="rgb(0%, 0%, 0%)" fill-opacity="1">
<use xlink:href="#glyph-0-2" x="45.777116" y="35.522979"/>
</g>
<g fill="rgb(0%, 0%, 0%)" fill-opacity="1">
<use xlink:href="#glyph-3-6" x="50.183152" y="35.522979"/>
<use xlink:href="#glyph-3-4" x="55.140863" y="35.522979"/>
</g>
<path fill-rule="nonzero" fill="rgb(0%, 0%, 0%)" fill-opacity="1" d="M 109.226562 33.042969 C 109.226562 32.386719 108.695312 31.851562 108.039062 31.851562 C 107.378906 31.851562 106.847656 32.386719 106.847656 33.042969 C 106.847656 33.699219 107.378906 34.234375 108.039062 34.234375 C 108.695312 34.234375 109.226562 33.699219 109.226562 33.042969 Z M 109.226562 33.042969 "/>
<g fill="rgb(0%, 0%, 0%)" fill-opacity="1">
<use xlink:href="#glyph-1-0" x="111.540211" y="35.522979"/>
</g>
<g fill="rgb(0%, 0%, 0%)" fill-opacity="1">
<use xlink:href="#glyph-3-1" x="120.161191" y="35.522979"/>
<use xlink:href="#glyph-3-5" x="124.017299" y="35.522979"/>
</g>
<g fill="rgb(0%, 0%, 0%)" fill-opacity="1">
<use xlink:href="#glyph-0-2" x="128.974258" y="35.522979"/>
</g>
<g fill="rgb(0%, 0%, 0%)" fill-opacity="1">
<use xlink:href="#glyph-3-5" x="133.381289" y="35.522979"/>
<use xlink:href="#glyph-3-4" x="138.339" y="35.522979"/>
</g>
<g fill="rgb(0%, 0%, 0%)" fill-opacity="1">
<use xlink:href="#glyph-3-0" x="144.951595" y="35.522979"/>
</g>
<g fill="rgb(0%, 0%, 0%)" fill-opacity="1">
<use xlink:href="#glyph-3-1" x="155.420297" y="35.522979"/>
<use xlink:href="#glyph-3-6" x="159.276405" y="35.522979"/>
</g>
<g fill="rgb(0%, 0%, 0%)" fill-opacity="1">
<use xlink:href="#glyph-0-2" x="164.229511" y="35.522979"/>
</g>
<g fill="rgb(0%, 0%, 0%)" fill-opacity="1">
<use xlink:href="#glyph-3-6" x="168.636542" y="35.522979"/>
<use xlink:href="#glyph-3-4" x="173.594253" y="35.522979"/>
</g>
</svg>
