<?xml version="1.0" encoding="UTF-8"?>
<svg xmlns="http://www.w3.org/2000/svg" xmlns:xlink="http://www.w3.org/1999/xlink" width="291.907" height="209.858" viewBox="0 0 194.605 139.905">
<defs>
<g>
<g id="glyph-0-0">
<path d="M 2.640625 1.984375 C 2.71875 1.984375 2.8125 1.984375 2.8125 1.890625 C 2.8125 1.859375 2.796875 1.859375 2.703125 1.75 C 1.609375 0.71875 1.34375 -0.75 1.34375 -1.984375 C 1.34375 -4.28125 2.28125 -5.359375 2.6875 -5.71875 C 2.796875 -5.828125 2.8125 -5.828125 2.8125 -5.875 C 2.8125 -5.90625 2.78125 -5.96875 2.703125 -5.96875 C 2.5625 -5.96875 2.171875 -5.5625 2.109375 -5.484375 C 1.046875 -4.375 0.8125 -2.9375 0.8125 -1.984375 C 0.8125 -0.203125 1.5625 1.21875 2.640625 1.984375 Z M 2.640625 1.984375 "/>
</g>
<g id="glyph-0-1">
<path d="M 2.015625 -2.65625 C 2.640625 -2.65625 3.03125 -2.1875 3.03125 -1.359375 C 3.03125 -0.359375 2.46875 -0.078125 2.046875 -0.078125 C 1.609375 -0.078125 1.015625 -0.234375 0.734375 -0.65625 C 1.03125 -0.65625 1.21875 -0.828125 1.21875 -1.09375 C 1.21875 -1.359375 1.046875 -1.53125 0.78125 -1.53125 C 0.578125 -1.53125 0.34375 -1.40625 0.34375 -1.078125 C 0.34375 -0.328125 1.15625 0.171875 2.0625 0.171875 C 3.125 0.171875 3.859375 -0.5625 3.859375 -1.359375 C 3.859375 -2.015625 3.34375 -2.625 2.53125 -2.796875 C 3.15625 -3.015625 3.625 -3.5625 3.625 -4.203125 C 3.625 -4.828125 2.90625 -5.28125 2.078125 -5.28125 C 1.234375 -5.28125 0.59375 -4.828125 0.59375 -4.21875 C 0.59375 -3.921875 0.78125 -3.796875 1 -3.796875 C 1.234375 -3.796875 1.40625 -3.984375 1.40625 -4.203125 C 1.40625 -4.5 1.140625 -4.609375 0.96875 -4.625 C 1.296875 -5.0625 1.921875 -5.078125 2.0625 -5.078125 C 2.265625 -5.078125 2.875 -5.015625 2.875 -4.203125 C 2.875 -3.640625 2.640625 -3.3125 2.53125 -3.1875 C 2.296875 -2.9375 2.109375 -2.921875 1.625 -2.890625 C 1.46875 -2.875 1.40625 -2.875 1.40625 -2.765625 C 1.40625 -2.65625 1.484375 -2.65625 1.609375 -2.65625 Z M 2.015625 -2.65625 "/>
</g>
<g id="glyph-0-2">
<path d="M 2.5 -5.0625 C 2.5 -5.28125 2.484375 -5.28125 2.265625 -5.28125 C 1.9375 -4.96875 1.515625 -4.78125 0.765625 -4.78125 L 0.765625 -4.515625 C 0.984375 -4.515625 1.40625 -4.515625 1.875 -4.734375 L 1.875 -0.65625 C 1.875 -0.359375 1.84375 -0.265625 1.09375 -0.265625 L 0.8125 -0.265625 L 0.8125 0 C 1.140625 -0.03125 1.828125 -0.03125 2.171875 -0.03125 C 2.53125 -0.03125 3.234375 -0.03125 3.5625 0 L 3.5625 -0.265625 L 3.28125 -0.265625 C 2.515625 -0.265625 2.5 -0.359375 2.5 -0.65625 Z M 2.5 -5.0625 "/>
</g>
<g id="glyph-0-3">
<path d="M 2.25 -1.625 C 2.375 -1.734375 2.703125 -2 2.828125 -2.109375 C 3.328125 -2.5625 3.796875 -3 3.796875 -3.734375 C 3.796875 -4.671875 3 -5.28125 2 -5.28125 C 1.046875 -5.28125 0.421875 -4.5625 0.421875 -3.859375 C 0.421875 -3.46875 0.734375 -3.40625 0.84375 -3.40625 C 1.015625 -3.40625 1.25 -3.53125 1.25 -3.828125 C 1.25 -4.25 0.859375 -4.25 0.765625 -4.25 C 1 -4.828125 1.53125 -5.03125 1.921875 -5.03125 C 2.65625 -5.03125 3.03125 -4.390625 3.03125 -3.734375 C 3.03125 -2.90625 2.453125 -2.296875 1.515625 -1.34375 L 0.515625 -0.296875 C 0.421875 -0.21875 0.421875 -0.203125 0.421875 0 L 3.5625 0 L 3.796875 -1.421875 L 3.546875 -1.421875 C 3.515625 -1.265625 3.453125 -0.859375 3.359375 -0.71875 C 3.3125 -0.65625 2.71875 -0.65625 2.578125 -0.65625 L 1.171875 -0.65625 Z M 2.25 -1.625 "/>
</g>
<g id="glyph-0-4">
<path d="M 2.453125 -1.984375 C 2.453125 -2.75 2.328125 -3.65625 1.84375 -4.59375 C 1.453125 -5.328125 0.71875 -5.96875 0.578125 -5.96875 C 0.5 -5.96875 0.484375 -5.90625 0.484375 -5.875 C 0.484375 -5.84375 0.484375 -5.828125 0.578125 -5.71875 C 1.6875 -4.671875 1.9375 -3.21875 1.9375 -1.984375 C 1.9375 0.296875 1 1.375 0.59375 1.734375 C 0.484375 1.84375 0.484375 1.859375 0.484375 1.890625 C 0.484375 1.9375 0.5 1.984375 0.578125 1.984375 C 0.703125 1.984375 1.109375 1.578125 1.171875 1.515625 C 2.234375 0.390625 2.453125 -1.03125 2.453125 -1.984375 Z M 2.453125 -1.984375 "/>
</g>
<g id="glyph-1-0">
<path d="M 1.484375 -0.125 C 1.484375 0.390625 1.375 0.84375 0.875 1.34375 C 0.84375 1.375 0.828125 1.390625 0.828125 1.421875 C 0.828125 1.484375 0.90625 1.53125 0.953125 1.53125 C 1.046875 1.53125 1.703125 0.90625 1.703125 -0.03125 C 1.703125 -0.53125 1.515625 -0.875 1.171875 -0.875 C 0.890625 -0.875 0.734375 -0.65625 0.734375 -0.453125 C 0.734375 -0.21875 0.875 0 1.171875 0 C 1.375 0 1.484375 -0.109375 1.484375 -0.125 Z M 1.484375 -0.125 "/>
</g>
</g>
</defs>
<path fill-rule="nonzero" fill="rgb(92.999268%, 92.999268%, 92.999268%)" fill-opacity="1" stroke-width="1.19553" stroke-linecap="butt" stroke-linejoin="miter" stroke="rgb(0%, 0%, 0%)" stroke-opacity="1" stroke-miterlimit="10" d="M 60.129182 -0.00165612 L 30.064376 52.080406 L -30.065238 52.080406 L -60.130045 -0.00165612 L -30.065238 -52.079804 L 30.064376 -52.079804 Z M 60.129182 -0.00165612 " transform="matrix(0.997974, 0, 0, -0.997974, 97.105899, 69.904597)"/>
<path fill="none" stroke-width="0.79701" stroke-linecap="butt" stroke-linejoin="miter" stroke="rgb(0%, 0%, 0%)" stroke-opacity="1" stroke-dasharray="2.98883 2.98883" stroke-miterlimit="10" d="M 15.030015 26.039375 L -15.030877 26.039375 L -30.061324 -0.00165612 L -15.030877 -26.038773 L 15.030015 -26.038773 L 30.060461 -0.00165612 Z M 15.030015 26.039375 " transform="matrix(0.997974, 0, 0, -0.997974, 97.105899, 69.904597)"/>
<path fill-rule="nonzero" fill="rgb(0%, 0%, 0%)" fill-opacity="1" d="M 158.800781 69.90625 C 158.800781 68.972656 158.046875 68.21875 157.113281 68.21875 C 156.183594 68.21875 155.429688 68.972656 155.429688 69.90625 C 155.429688 70.835938 156.183594 71.59375 157.113281 71.59375 C 158.046875 71.59375 158.800781 70.835938 158.800781 69.90625 Z M 158.800781 69.90625 "/>
<path fill-rule="nonzero" fill="rgb(0%, 0%, 0%)" fill-opacity="1" d="M 128.796875 17.929688 C 128.796875 16.996094 128.042969 16.242188 127.109375 16.242188 C 126.179688 16.242188 125.421875 16.996094 125.421875 17.929688 C 125.421875 18.859375 126.179688 19.617188 127.109375 19.617188 C 128.042969 19.617188 128.796875 18.859375 128.796875 17.929688 Z M 128.796875 17.929688 "/>
<path fill-rule="nonzero" fill="rgb(0%, 0%, 0%)" fill-opacity="1" d="M 68.789062 17.929688 C 68.789062 16.996094 68.035156 16.242188 67.101562 16.242188 C 66.167969 16.242188 65.414062 16.996094 65.414062 17.929688 C 65.414062 18.859375 66.167969 19.617188 67.101562 19.617188 C 68.035156 19.617188 68.789062 18.859375 68.789062 17.929688 Z M 68.789062 17.929688 "/>
<path fill-rule="nonzero" fill="rgb(0%, 0%, 0%)" fill-opacity="1" d="M 38.785156 69.90625 C 38.785156 68.972656 38.027344 68.21875 37.097656 68.21875 C 36.164062 68.21875 35.410156 68.972656 35.410156 69.90625 C 35.410156 70.835938 36.164062 71.59375 37.097656 71.59375 C 38.027344 71.59375 38.785156 70.835938 38.785156 69.90625 Z M 38.785156 69.90625 "/>
<path fill-rule="nonzero" fill="rgb(0%, 0%, 0%)" fill-opacity="1" d="M 68.789062 121.878906 C 68.789062 120.949219 68.035156 120.191406 67.101562 120.191406 C 66.167969 120.191406 65.414062 120.949219 65.414062 121.878906 C 65.414062 122.8125 66.167969 123.566406 67.101562 123.566406 C 68.035156 123.566406 68.789062 122.8125 68.789062 121.878906 Z M 68.789062 121.878906 "/>
<path fill-rule="nonzero" fill="rgb(0%, 0%, 0%)" fill-opacity="1" d="M 128.796875 121.878906 C 128.796875 120.949219 128.042969 120.191406 127.109375 120.191406 C 126.179688 120.191406 125.421875 120.949219 125.421875 121.878906 C 125.421875 122.8125 126.179688 123.566406 127.109375 123.566406 C 128.042969 123.566406 128.796875 122.8125 128.796875 121.878906 Z M 128.796875 121.878906 "/>
<path fill-rule="nonzero" fill="rgb(0%, 0%, 0%)" fill-opacity="1" d="M 98.792969 69.90625 C 98.792969 68.972656 98.039062 68.21875 97.105469 68.21875 C 96.175781 68.21875 95.417969 68.972656 95.417969 69.90625 C 95.417969 70.835938 96.175781 71.59375 97.105469 71.59375 C 98.039062 71.59375 98.792969 70.835938 98.792969 69.90625 Z M 98.792969 69.90625 "/>
<g fill="rgb(0%, 0%, 0%)" fill-opacity="1">
<use xlink:href="#glyph-0-0" x="162.146882" y="71.89356"/>
<use xlink:href="#glyph-0-1" x="165.433456" y="71.89356"/>
</g>
<g fill="rgb(0%, 0%, 0%)" fill-opacity="1">
<use xlink:href="#glyph-1-0" x="169.658635" y="71.89356"/>
</g>
<g fill="rgb(0%, 0%, 0%)" fill-opacity="1">
<use xlink:href="#glyph-0-2" x="173.41501" y="71.89356"/>
</g>
<g fill="rgb(0%, 0%, 0%)" fill-opacity="1">
<use xlink:href="#glyph-1-0" x="177.640434" y="71.89356"/>
</g>
<g fill="rgb(0%, 0%, 0%)" fill-opacity="1">
<use xlink:href="#glyph-0-3" x="181.396809" y="71.89356"/>
<use xlink:href="#glyph-0-4" x="185.622746" y="71.89356"/>
</g>
<g fill="rgb(0%, 0%, 0%)" fill-opacity="1">
<use xlink:href="#glyph-0-0" x="131.170756" y="11.362423"/>
<use xlink:href="#glyph-0-3" x="134.45733" y="11.362423"/>
</g>
<g fill="rgb(0%, 0%, 0%)" fill-opacity="1">
<use xlink:href="#glyph-1-0" x="138.682509" y="11.362423"/>
</g>
<g fill="rgb(0%, 0%, 0%)" fill-opacity="1">
<use xlink:href="#glyph-0-2" x="142.438884" y="11.362423"/>
</g>
<g fill="rgb(0%, 0%, 0%)" fill-opacity="1">
<use xlink:href="#glyph-1-0" x="146.664308" y="11.362423"/>
</g>
<g fill="rgb(0%, 0%, 0%)" fill-opacity="1">
<use xlink:href="#glyph-0-1" x="150.420683" y="11.362423"/>
<use xlink:href="#glyph-0-4" x="154.64662" y="11.362423"/>
</g>
<g fill="rgb(0%, 0%, 0%)" fill-opacity="1">
<use xlink:href="#glyph-0-0" x="36.278364" y="11.362423"/>
<use xlink:href="#glyph-0-2" x="39.564938" y="11.362423"/>
</g>
<g fill="rgb(0%, 0%, 0%)" fill-opacity="1">
<use xlink:href="#glyph-1-0" x="43.791115" y="11.362423"/>
</g>
<g fill="rgb(0%, 0%, 0%)" fill-opacity="1">
<use xlink:href="#glyph-0-3" x="47.546492" y="11.362423"/>
</g>
<g fill="rgb(0%, 0%, 0%)" fill-opacity="1">
<use xlink:href="#glyph-1-0" x="51.772914" y="11.362423"/>
</g>
<g fill="rgb(0%, 0%, 0%)" fill-opacity="1">
<use xlink:href="#glyph-0-1" x="55.528291" y="11.362423"/>
<use xlink:href="#glyph-0-4" x="59.754228" y="11.362423"/>
</g>
<g fill="rgb(0%, 0%, 0%)" fill-opacity="1">
<use xlink:href="#glyph-0-0" x="5.302238" y="71.89356"/>
<use xlink:href="#glyph-0-2" x="8.588812" y="71.89356"/>
</g>
<g fill="rgb(0%, 0%, 0%)" fill-opacity="1">
<use xlink:href="#glyph-1-0" x="12.814989" y="71.89356"/>
</g>
<g fill="rgb(0%, 0%, 0%)" fill-opacity="1">
<use xlink:href="#glyph-0-1" x="16.570366" y="71.89356"/>
</g>
<g fill="rgb(0%, 0%, 0%)" fill-opacity="1">
<use xlink:href="#glyph-1-0" x="20.79579" y="71.89356"/>
</g>
<g fill="rgb(0%, 0%, 0%)" fill-opacity="1">
<use xlink:href="#glyph-0-3" x="24.552165" y="71.89356"/>
<use xlink:href="#glyph-0-4" x="28.778102" y="71.89356"/>
</g>
<g fill="rgb(0%, 0%, 0%)" fill-opacity="1">
<use xlink:href="#glyph-0-0" x="36.278364" y="132.424697"/>
<use xlink:href="#glyph-0-3" x="39.564938" y="132.424697"/>
</g>
<g fill="rgb(0%, 0%, 0%)" fill-opacity="1">
<use xlink:href="#glyph-1-0" x="43.791115" y="132.424697"/>
</g>
<g fill="rgb(0%, 0%, 0%)" fill-opacity="1">
<use xlink:href="#glyph-0-1" x="47.546492" y="132.424697"/>
</g>
<g fill="rgb(0%, 0%, 0%)" fill-opacity="1">
<use xlink:href="#glyph-1-0" x="51.772914" y="132.424697"/>
</g>
<g fill="rgb(0%, 0%, 0%)" fill-opacity="1">
<use xlink:href="#glyph-0-2" x="55.528291" y="132.424697"/>
<use xlink:href="#glyph-0-4" x="59.754228" y="132.424697"/>
</g>
<g fill="rgb(0%, 0%, 0%)" fill-opacity="1">
<use xlink:href="#glyph-0-0" x="131.170756" y="132.424697"/>
<use xlink:href="#glyph-0-1" x="134.45733" y="132.424697"/>
</g>
<g fill="rgb(0%, 0%, 0%)" fill-opacity="1">
<use xlink:href="#glyph-1-0" x="138.682509" y="132.424697"/>
</g>
<g fill="rgb(0%, 0%, 0%)" fill-opacity="1">
<use xlink:href="#glyph-0-3" x="142.438884" y="132.424697"/>
</g>
<g fill="rgb(0%, 0%, 0%)" fill-opacity="1">
<use xlink:href="#glyph-1-0" x="146.664308" y="132.424697"/>
</g>
<g fill="rgb(0%, 0%, 0%)" fill-opacity="1">
<use xlink:href="#glyph-0-2" x="150.420683" y="132.424697"/>
<use xlink:href="#glyph-0-4" x="154.64662" y="132.424697"/>
</g>
<g fill="rgb(0%, 0%, 0%)" fill-opacity="1">
<use xlink:href="#glyph-0-0" x="101.891186" y="80.655775"/>
<use xlink:href="#glyph-0-3" x="105.17776" y="80.655775"/>
</g>
<g fill="rgb(0%, 0%, 0%)" fill-opacity="1">
<use xlink:href="#glyph-1-0" x="109.402939" y="80.655775"/>
</g>
<g fill="rgb(0%, 0%, 0%)" fill-opacity="1">
<use xlink:href="#glyph-0-3" x="113.159315" y="80.655775"/>
</g>
<g fill="rgb(0%, 0%, 0%)" fill-opacity="1">
<use xlink:href="#glyph-1-0" x="117.384738" y="80.655775"/>
</g>
<g fill="rgb(0%, 0%, 0%)" fill-opacity="1">
<use xlink:href="#glyph-0-3" x="121.141114" y="80.655775"/>
<use xlink:href="#glyph-0-4" x="125.36705" y="80.655775"/>
</g>
</svg>
