<?xml version="1.0" encoding="UTF-8"?>
<svg xmlns="http://www.w3.org/2000/svg" xmlns:xlink="http://www.w3.org/1999/xlink" width="442.728" height="224.823" viewBox="0 0 295.152 149.882">
<defs>
<g>
<g id="glyph-0-0">
<path d="M 2.5625 -5.90625 C 2.59375 -6.03125 2.59375 -6.046875 2.59375 -6.078125 C 2.59375 -6.15625 2.546875 -6.203125 2.46875 -6.203125 C 2.34375 -6.203125 1.5625 -6.125 1.375 -6.109375 C 1.28125 -6.109375 1.1875 -6.09375 1.1875 -5.9375 C 1.1875 -5.828125 1.28125 -5.828125 1.4375 -5.828125 C 1.84375 -5.828125 1.84375 -5.765625 1.84375 -5.6875 C 1.84375 -5.65625 1.84375 -5.625 1.8125 -5.46875 L 0.53125 -0.328125 C 0.484375 -0.203125 0.484375 -0.1875 0.484375 -0.15625 C 0.484375 -0.015625 0.609375 0.09375 0.765625 0.09375 C 1.0625 0.09375 1.125 -0.15625 1.171875 -0.34375 L 1.59375 -2.03125 C 2.203125 -1.96875 2.65625 -1.734375 2.65625 -1.28125 C 2.65625 -1.234375 2.65625 -1.203125 2.625 -1.0625 C 2.625 -1.03125 2.59375 -0.90625 2.59375 -0.796875 C 2.59375 -0.28125 2.953125 0.09375 3.453125 0.09375 C 3.796875 0.09375 4 -0.109375 4.171875 -0.359375 C 4.390625 -0.703125 4.515625 -1.25 4.515625 -1.28125 C 4.515625 -1.328125 4.484375 -1.390625 4.390625 -1.390625 C 4.296875 -1.390625 4.28125 -1.34375 4.234375 -1.1875 C 4.125 -0.71875 3.890625 -0.125 3.484375 -0.125 C 3.21875 -0.125 3.1875 -0.359375 3.1875 -0.546875 C 3.1875 -0.78125 3.25 -1.015625 3.25 -1.03125 C 3.265625 -1.078125 3.28125 -1.1875 3.28125 -1.296875 C 3.28125 -1.921875 2.640625 -2.15625 1.953125 -2.25 C 2.21875 -2.40625 2.40625 -2.59375 2.703125 -2.890625 C 3.15625 -3.34375 3.53125 -3.734375 4 -3.734375 C 4.109375 -3.734375 4.234375 -3.703125 4.296875 -3.625 C 3.890625 -3.578125 3.796875 -3.25 3.796875 -3.125 C 3.796875 -2.953125 3.921875 -2.8125 4.140625 -2.8125 C 4.359375 -2.8125 4.640625 -2.96875 4.640625 -3.359375 C 4.640625 -3.65625 4.421875 -3.953125 4 -3.953125 C 3.453125 -3.953125 3.015625 -3.515625 2.640625 -3.125 C 2.21875 -2.703125 2 -2.5 1.671875 -2.34375 Z M 2.5625 -5.90625 "/>
</g>
<g id="glyph-0-1">
<path d="M 1.625 -0.140625 C 1.625 0.15625 1.625 0.890625 0.96875 1.515625 C 0.90625 1.578125 0.90625 1.578125 0.90625 1.625 C 0.90625 1.6875 0.96875 1.71875 1.03125 1.71875 C 1.125 1.71875 1.84375 1.03125 1.84375 -0.015625 C 1.84375 -0.578125 1.65625 -0.96875 1.265625 -0.96875 C 0.96875 -0.96875 0.78125 -0.734375 0.78125 -0.484375 C 0.78125 -0.234375 0.96875 0 1.265625 0 C 1.40625 0 1.53125 -0.046875 1.625 -0.140625 Z M 1.625 -0.140625 "/>
</g>
<g id="glyph-1-0">
<path d="M 2.71875 -5.71875 C 2.71875 -5.9375 2.703125 -5.953125 2.484375 -5.953125 C 1.9375 -5.375 1.109375 -5.375 0.828125 -5.375 L 0.828125 -5.109375 C 1 -5.109375 1.546875 -5.109375 2.03125 -5.328125 L 2.03125 -0.71875 C 2.03125 -0.390625 2 -0.28125 1.171875 -0.28125 L 0.890625 -0.28125 L 0.890625 0 C 1.203125 -0.03125 2 -0.03125 2.375 -0.03125 C 2.734375 -0.03125 3.546875 -0.03125 3.859375 0 L 3.859375 -0.28125 L 3.578125 -0.28125 C 2.75 -0.28125 2.71875 -0.390625 2.71875 -0.71875 Z M 2.71875 -5.71875 "/>
</g>
<g id="glyph-1-1">
<path d="M 4.125 -1.578125 L 3.875 -1.578125 C 3.859375 -1.46875 3.796875 -0.9375 3.671875 -0.796875 C 3.625 -0.71875 3 -0.71875 2.828125 -0.71875 L 1.234375 -0.71875 L 2.125 -1.5625 C 3.578125 -2.828125 4.125 -3.296875 4.125 -4.203125 C 4.125 -5.234375 3.28125 -5.953125 2.1875 -5.953125 C 1.15625 -5.953125 0.453125 -5.140625 0.453125 -4.328125 C 0.453125 -3.875 0.84375 -3.828125 0.921875 -3.828125 C 1.125 -3.828125 1.390625 -3.984375 1.390625 -4.296875 C 1.390625 -4.5625 1.203125 -4.765625 0.921875 -4.765625 C 0.875 -4.765625 0.84375 -4.765625 0.8125 -4.75 C 1.03125 -5.390625 1.59375 -5.671875 2.078125 -5.671875 C 3 -5.671875 3.3125 -4.828125 3.3125 -4.203125 C 3.3125 -3.296875 2.625 -2.5625 2.1875 -2.09375 L 0.546875 -0.328125 C 0.453125 -0.21875 0.453125 -0.203125 0.453125 0 L 3.875 0 Z M 4.125 -1.578125 "/>
</g>
<g id="glyph-1-2">
<path d="M 2.71875 -3.140625 C 3.5625 -3.453125 3.953125 -4.109375 3.953125 -4.734375 C 3.953125 -5.421875 3.1875 -5.953125 2.265625 -5.953125 C 1.328125 -5.953125 0.640625 -5.421875 0.640625 -4.75 C 0.640625 -4.453125 0.828125 -4.28125 1.09375 -4.28125 C 1.34375 -4.28125 1.53125 -4.46875 1.53125 -4.734375 C 1.53125 -5.046875 1.328125 -5.171875 1.015625 -5.171875 C 1.25 -5.546875 1.796875 -5.734375 2.234375 -5.734375 C 2.96875 -5.734375 3.125 -5.140625 3.125 -4.71875 C 3.125 -4.453125 3.0625 -4.015625 2.84375 -3.6875 C 2.5625 -3.28125 2.25 -3.265625 2 -3.25 C 1.765625 -3.21875 1.75 -3.21875 1.6875 -3.21875 C 1.59375 -3.21875 1.53125 -3.203125 1.53125 -3.109375 C 1.53125 -3 1.59375 -3 1.75 -3 L 2.171875 -3 C 2.953125 -3 3.28125 -2.375 3.28125 -1.515625 C 3.28125 -0.375 2.6875 -0.046875 2.21875 -0.046875 C 2.0625 -0.046875 1.1875 -0.09375 0.78125 -0.765625 C 1.109375 -0.71875 1.359375 -0.9375 1.359375 -1.25 C 1.359375 -1.53125 1.140625 -1.71875 0.875 -1.71875 C 0.65625 -1.71875 0.390625 -1.59375 0.390625 -1.21875 C 0.390625 -0.421875 1.21875 0.203125 2.25 0.203125 C 3.375 0.203125 4.203125 -0.609375 4.203125 -1.515625 C 4.203125 -2.296875 3.578125 -2.953125 2.71875 -3.140625 Z M 2.71875 -3.140625 "/>
</g>
<g id="glyph-1-3">
<path d="M 3.078125 -3.765625 C 3.078125 -3.921875 3.078125 -4 2.96875 -4 C 2.921875 -4 2.90625 -4 2.78125 -3.890625 C 2.765625 -3.875 2.6875 -3.796875 2.640625 -3.75 C 2.359375 -3.953125 2.078125 -4 1.78125 -4 C 0.59375 -4 0.296875 -3.359375 0.296875 -2.890625 C 0.296875 -2.609375 0.421875 -2.375 0.640625 -2.1875 C 0.9375 -1.90625 1.28125 -1.84375 1.734375 -1.765625 C 2.1875 -1.671875 2.34375 -1.640625 2.53125 -1.5 C 2.625 -1.421875 2.84375 -1.25 2.84375 -0.90625 C 2.84375 -0.125 1.953125 -0.125 1.828125 -0.125 C 0.90625 -0.125 0.671875 -0.890625 0.578125 -1.375 C 0.546875 -1.453125 0.53125 -1.515625 0.421875 -1.515625 C 0.296875 -1.515625 0.296875 -1.4375 0.296875 -1.28125 L 0.296875 -0.140625 C 0.296875 0.015625 0.296875 0.09375 0.40625 0.09375 C 0.46875 0.09375 0.46875 0.09375 0.640625 -0.078125 C 0.671875 -0.140625 0.765625 -0.25 0.8125 -0.296875 C 1.1875 0.078125 1.59375 0.09375 1.828125 0.09375 C 2.921875 0.09375 3.3125 -0.546875 3.3125 -1.140625 C 3.3125 -1.546875 3.125 -1.78125 2.9375 -2 C 2.625 -2.28125 2.3125 -2.34375 1.640625 -2.46875 C 1.40625 -2.515625 0.765625 -2.640625 0.765625 -3.140625 C 0.765625 -3.4375 0.96875 -3.8125 1.78125 -3.8125 C 2.75 -3.8125 2.8125 -3.0625 2.828125 -2.84375 C 2.828125 -2.734375 2.828125 -2.6875 2.953125 -2.6875 C 3.078125 -2.6875 3.078125 -2.75 3.078125 -2.90625 Z M 3.078125 -3.765625 "/>
</g>
<g id="glyph-1-4">
<path d="M 4.328125 -1.90625 C 4.328125 -3.078125 3.390625 -4 2.296875 -4 C 1.15625 -4 0.265625 -3.046875 0.265625 -1.90625 C 0.265625 -0.78125 1.1875 0.09375 2.28125 0.09375 C 3.421875 0.09375 4.328125 -0.796875 4.328125 -1.90625 Z M 2.296875 -0.15625 C 1.84375 -0.15625 1.46875 -0.375 1.265625 -0.71875 C 1.03125 -1.09375 1.03125 -1.578125 1.03125 -1.984375 C 1.03125 -2.3125 1.03125 -2.828125 1.25 -3.1875 C 1.515625 -3.640625 1.96875 -3.78125 2.28125 -3.78125 C 2.796875 -3.78125 3.15625 -3.5 3.34375 -3.1875 C 3.546875 -2.8125 3.5625 -2.359375 3.5625 -1.984375 C 3.5625 -1.65625 3.5625 -1.140625 3.328125 -0.734375 C 3.078125 -0.328125 2.671875 -0.15625 2.296875 -0.15625 Z M 2.296875 -0.15625 "/>
</g>
<g id="glyph-1-5">
<path d="M 1.640625 -6.203125 L 0.328125 -6.109375 L 0.328125 -5.828125 C 0.921875 -5.828125 1.015625 -5.765625 1.015625 -5.328125 L 1.015625 -0.6875 C 1.015625 -0.28125 0.90625 -0.28125 0.328125 -0.28125 L 0.328125 0 C 0.734375 -0.015625 0.90625 -0.03125 1.328125 -0.03125 C 1.75 -0.03125 1.890625 -0.015625 2.328125 0 L 2.328125 -0.28125 C 1.75 -0.28125 1.640625 -0.28125 1.640625 -0.6875 Z M 1.640625 -6.203125 "/>
</g>
<g id="glyph-1-6">
<path d="M 1.640625 -3.953125 L 0.359375 -3.859375 L 0.359375 -3.578125 C 0.921875 -3.578125 1.015625 -3.515625 1.015625 -3.078125 L 1.015625 -0.6875 C 1.015625 -0.28125 0.90625 -0.28125 0.328125 -0.28125 L 0.328125 0 C 0.71875 -0.015625 0.90625 -0.03125 1.3125 -0.03125 C 1.453125 -0.03125 1.828125 -0.03125 2.265625 0 L 2.265625 -0.28125 C 1.6875 -0.28125 1.640625 -0.328125 1.640625 -0.671875 Z M 1.671875 -5.5 C 1.671875 -5.78125 1.453125 -5.984375 1.1875 -5.984375 C 0.90625 -5.984375 0.703125 -5.765625 0.703125 -5.5 C 0.703125 -5.25 0.90625 -5.015625 1.1875 -5.015625 C 1.453125 -5.015625 1.671875 -5.234375 1.671875 -5.5 Z M 1.671875 -5.5 "/>
</g>
<g id="glyph-1-7">
<path d="M 3.484375 -1.078125 C 3.484375 -0.90625 3.484375 -0.890625 3.34375 -0.703125 C 3.0625 -0.296875 2.65625 -0.125 2.296875 -0.125 C 1.90625 -0.125 1.5625 -0.34375 1.328125 -0.71875 C 1.09375 -1.09375 1.078125 -1.625 1.078125 -1.90625 C 1.078125 -2.328125 1.125 -2.8125 1.359375 -3.15625 C 1.5625 -3.453125 1.921875 -3.734375 2.390625 -3.734375 C 2.765625 -3.734375 3.125 -3.546875 3.375 -3.203125 C 3.484375 -3.0625 3.484375 -3.046875 3.484375 -2.875 Z M 3.5 -3.421875 C 3.453125 -3.484375 3.0625 -3.953125 2.359375 -3.953125 C 1.265625 -3.953125 0.296875 -3.078125 0.296875 -1.921875 C 0.296875 -0.796875 1.203125 0.09375 2.265625 0.09375 C 2.90625 0.09375 3.3125 -0.28125 3.484375 -0.46875 L 3.484375 0.09375 L 4.828125 0 L 4.828125 -0.28125 C 4.21875 -0.28125 4.140625 -0.34375 4.140625 -0.78125 L 4.140625 -6.203125 L 2.8125 -6.109375 L 2.8125 -5.828125 C 3.421875 -5.828125 3.5 -5.765625 3.5 -5.328125 Z M 3.5 -3.421875 "/>
</g>
<g id="glyph-1-8">
<path d="M 1.75 -3.375 C 1.75 -3.640625 1.53125 -3.859375 1.265625 -3.859375 C 1 -3.859375 0.78125 -3.640625 0.78125 -3.375 C 0.78125 -3.109375 1 -2.890625 1.265625 -2.890625 C 1.53125 -2.890625 1.75 -3.109375 1.75 -3.375 Z M 1.75 -0.484375 C 1.75 -0.734375 1.53125 -0.96875 1.265625 -0.96875 C 1 -0.96875 0.78125 -0.734375 0.78125 -0.484375 C 0.78125 -0.21875 1 0 1.265625 0 C 1.53125 0 1.75 -0.21875 1.75 -0.484375 Z M 1.75 -0.484375 "/>
</g>
<g id="glyph-1-9">
<path d="M 3.046875 2.125 C 3.046875 2.078125 3.015625 2.0625 2.96875 2 C 1.8125 0.9375 1.46875 -0.671875 1.46875 -2.234375 C 1.46875 -3.625 1.734375 -5.296875 3 -6.5 C 3.03125 -6.53125 3.046875 -6.5625 3.046875 -6.609375 C 3.046875 -6.671875 3 -6.703125 2.9375 -6.703125 C 2.828125 -6.703125 2.03125 -6.0625 1.546875 -5.078125 C 1.125 -4.234375 0.90625 -3.3125 0.90625 -2.25 C 0.90625 -1.59375 0.984375 -0.578125 1.46875 0.46875 C 2 1.578125 2.828125 2.21875 2.9375 2.21875 C 3 2.21875 3.046875 2.1875 3.046875 2.125 Z M 3.046875 2.125 "/>
</g>
<g id="glyph-1-10">
<path d="M 4.234375 -2.859375 C 4.234375 -3.453125 4.203125 -4.234375 3.890625 -4.890625 C 3.5 -5.734375 2.8125 -5.953125 2.296875 -5.953125 C 1.765625 -5.953125 1.078125 -5.734375 0.6875 -4.875 C 0.40625 -4.265625 0.359375 -3.546875 0.359375 -2.859375 C 0.359375 -2.28125 0.375 -1.40625 0.765625 -0.703125 C 1.1875 0.046875 1.875 0.203125 2.28125 0.203125 C 2.875 0.203125 3.53125 -0.046875 3.90625 -0.875 C 4.171875 -1.46875 4.234375 -2.140625 4.234375 -2.859375 Z M 2.296875 -0.03125 C 2.03125 -0.03125 1.390625 -0.15625 1.21875 -1.15625 C 1.125 -1.6875 1.125 -2.453125 1.125 -2.96875 C 1.125 -3.578125 1.125 -4.28125 1.234375 -4.765625 C 1.40625 -5.5625 1.984375 -5.734375 2.28125 -5.734375 C 2.625 -5.734375 3.1875 -5.546875 3.359375 -4.71875 C 3.453125 -4.234375 3.453125 -3.53125 3.453125 -2.96875 C 3.453125 -2.40625 3.453125 -1.65625 3.375 -1.140625 C 3.1875 -0.109375 2.515625 -0.03125 2.296875 -0.03125 Z M 2.296875 -0.03125 "/>
</g>
<g id="glyph-1-11">
<path d="M 2.65625 -2.25 C 2.65625 -2.96875 2.5625 -3.953125 2.09375 -4.953125 C 1.5625 -6.046875 0.734375 -6.703125 0.625 -6.703125 C 0.53125 -6.703125 0.515625 -6.625 0.515625 -6.609375 C 0.515625 -6.5625 0.53125 -6.53125 0.59375 -6.46875 C 1.125 -6 2.09375 -4.796875 2.09375 -2.25 C 2.09375 -0.96875 1.875 0.8125 0.578125 2.015625 C 0.546875 2.046875 0.515625 2.078125 0.515625 2.125 C 0.515625 2.15625 0.53125 2.21875 0.625 2.21875 C 0.734375 2.21875 1.53125 1.578125 2.015625 0.609375 C 2.453125 -0.25 2.65625 -1.171875 2.65625 -2.25 Z M 2.65625 -2.25 "/>
</g>
<g id="glyph-1-12">
<path d="M 3.0625 -0.640625 C 3.09375 -0.265625 3.359375 0.046875 3.75 0.046875 C 3.96875 0.046875 4.53125 -0.078125 4.53125 -0.796875 L 4.53125 -1.296875 L 4.28125 -1.296875 L 4.28125 -0.796875 C 4.28125 -0.703125 4.28125 -0.265625 3.953125 -0.265625 C 3.640625 -0.265625 3.640625 -0.6875 3.640625 -0.828125 L 3.640625 -2.390625 C 3.640625 -2.90625 3.640625 -3.203125 3.234375 -3.578125 C 2.90625 -3.875 2.46875 -4 2.03125 -4 C 1.28125 -4 0.65625 -3.625 0.65625 -3.0625 C 0.65625 -2.78125 0.84375 -2.625 1.078125 -2.625 C 1.3125 -2.625 1.484375 -2.8125 1.484375 -3.03125 C 1.484375 -3.421875 1.09375 -3.46875 1.078125 -3.46875 C 1.328125 -3.703125 1.75 -3.78125 2.015625 -3.78125 C 2.46875 -3.78125 2.96875 -3.4375 2.96875 -2.65625 L 2.96875 -2.359375 C 2.5 -2.34375 1.828125 -2.296875 1.21875 -2.015625 C 0.578125 -1.703125 0.390625 -1.234375 0.390625 -0.875 C 0.390625 -0.140625 1.25 0.09375 1.84375 0.09375 C 2.59375 0.09375 2.9375 -0.390625 3.0625 -0.640625 Z M 2.96875 -1.265625 C 2.96875 -0.390625 2.3125 -0.125 1.90625 -0.125 C 1.5 -0.125 1.09375 -0.421875 1.09375 -0.875 C 1.09375 -1.46875 1.609375 -2.09375 2.96875 -2.140625 Z M 2.96875 -1.265625 "/>
</g>
<g id="glyph-1-13">
<path d="M 1.640625 -6.203125 L 0.3125 -6.109375 L 0.3125 -5.828125 C 0.921875 -5.828125 1 -5.765625 1 -5.328125 L 1 -0.6875 C 1 -0.28125 0.90625 -0.28125 0.3125 -0.28125 L 0.3125 0 C 0.734375 -0.015625 0.90625 -0.03125 1.328125 -0.03125 C 1.765625 -0.03125 1.875 -0.015625 2.34375 0 L 2.34375 -0.28125 C 1.765625 -0.28125 1.65625 -0.28125 1.65625 -0.6875 L 1.65625 -2.3125 C 1.65625 -3.265625 2.328125 -3.734375 2.890625 -3.734375 C 3.421875 -3.734375 3.546875 -3.28125 3.546875 -2.75 L 3.546875 -0.6875 C 3.546875 -0.28125 3.4375 -0.28125 2.84375 -0.28125 L 2.84375 0 C 3.265625 -0.015625 3.4375 -0.03125 3.875 -0.03125 C 4.296875 -0.03125 4.421875 -0.015625 4.890625 0 L 4.890625 -0.28125 C 4.4375 -0.28125 4.203125 -0.28125 4.203125 -0.546875 L 4.203125 -2.265625 C 4.203125 -3.015625 4.203125 -3.265625 3.953125 -3.578125 C 3.75 -3.828125 3.40625 -3.953125 2.953125 -3.953125 C 2.359375 -3.953125 1.921875 -3.640625 1.640625 -3.140625 Z M 1.640625 -6.203125 "/>
</g>
<g id="glyph-1-14">
<path d="M 3.578125 -2.046875 C 3.765625 -2.046875 3.8125 -2.046875 3.8125 -2.234375 C 3.8125 -3.15625 3.3125 -4 2.171875 -4 C 1.09375 -4 0.265625 -3.078125 0.265625 -1.96875 C 0.265625 -0.796875 1.203125 0.09375 2.28125 0.09375 C 3.375 0.09375 3.8125 -0.859375 3.8125 -1.0625 C 3.8125 -1.125 3.765625 -1.1875 3.6875 -1.1875 C 3.609375 -1.1875 3.578125 -1.125 3.5625 -1.078125 C 3.265625 -0.171875 2.46875 -0.15625 2.328125 -0.15625 C 1.90625 -0.15625 1.53125 -0.390625 1.328125 -0.703125 C 1.03125 -1.140625 1.03125 -1.671875 1.03125 -2.046875 Z M 1.03125 -2.265625 C 1.125 -3.640625 1.921875 -3.78125 2.171875 -3.78125 C 2.65625 -3.78125 3.203125 -3.40625 3.203125 -2.265625 Z M 1.03125 -2.265625 "/>
</g>
<g id="glyph-1-15">
<path d="M 2.90625 -3.578125 L 2.90625 -3.859375 L 1.609375 -3.859375 L 1.609375 -5.5 L 1.359375 -5.5 C 1.34375 -4.75 1.03125 -3.828125 0.171875 -3.796875 L 0.171875 -3.578125 L 0.953125 -3.578125 L 0.953125 -1.109375 C 0.953125 -0.109375 1.671875 0.09375 2.140625 0.09375 C 2.75 0.09375 3.0625 -0.46875 3.0625 -1.109375 L 3.0625 -1.625 L 2.8125 -1.625 L 2.8125 -1.140625 C 2.8125 -0.46875 2.53125 -0.15625 2.203125 -0.15625 C 1.609375 -0.15625 1.609375 -0.9375 1.609375 -1.09375 L 1.609375 -3.578125 Z M 2.90625 -3.578125 "/>
</g>
<g id="glyph-1-16">
<path d="M 1.65625 -2.3125 C 1.65625 -3.265625 2.328125 -3.734375 2.890625 -3.734375 C 3.421875 -3.734375 3.546875 -3.28125 3.546875 -2.75 L 3.546875 -0.6875 C 3.546875 -0.28125 3.4375 -0.28125 2.84375 -0.28125 L 2.84375 0 C 3.265625 -0.015625 3.4375 -0.03125 3.875 -0.03125 C 4.296875 -0.03125 4.421875 -0.015625 4.890625 0 L 4.890625 -0.28125 C 4.4375 -0.28125 4.203125 -0.28125 4.203125 -0.546875 L 4.203125 -2.265625 C 4.203125 -3.015625 4.203125 -3.265625 3.953125 -3.578125 C 3.75 -3.828125 3.40625 -3.953125 2.953125 -3.953125 C 2.125 -3.953125 1.75 -3.328125 1.625 -3.078125 L 1.609375 -3.078125 L 1.609375 -3.953125 L 0.3125 -3.859375 L 0.3125 -3.578125 C 0.921875 -3.578125 1 -3.515625 1 -3.078125 L 1 -0.6875 C 1 -0.28125 0.90625 -0.28125 0.3125 -0.28125 L 0.3125 0 C 0.734375 -0.015625 0.90625 -0.03125 1.328125 -0.03125 C 1.765625 -0.03125 1.875 -0.015625 2.34375 0 L 2.34375 -0.28125 C 1.765625 -0.28125 1.65625 -0.28125 1.65625 -0.6875 Z M 1.65625 -2.3125 "/>
</g>
<g id="glyph-1-17">
<path d="M 1.625 -0.140625 C 1.625 0.15625 1.625 0.890625 0.953125 1.53125 C 0.90625 1.578125 0.90625 1.609375 0.90625 1.625 C 0.90625 1.65625 0.96875 1.71875 1.03125 1.71875 C 1.125 1.71875 1.84375 1.03125 1.84375 -0.015625 C 1.84375 -0.640625 1.625 -0.96875 1.265625 -0.96875 C 0.953125 -0.96875 0.78125 -0.71875 0.78125 -0.484375 C 0.78125 -0.234375 0.953125 0 1.265625 0 C 1.5 0 1.625 -0.140625 1.625 -0.140625 Z M 1.625 -0.140625 "/>
</g>
<g id="glyph-1-18">
<path d="M 1.65625 -2.3125 C 1.65625 -3.28125 2.359375 -3.734375 2.890625 -3.734375 C 3.390625 -3.734375 3.546875 -3.375 3.546875 -2.75 L 3.546875 -0.6875 C 3.546875 -0.28125 3.453125 -0.28125 2.859375 -0.28125 L 2.859375 0 C 3.28125 -0.015625 3.453125 -0.03125 3.875 -0.03125 C 4.3125 -0.03125 4.421875 -0.015625 4.890625 0 L 4.890625 -0.28125 C 4.3125 -0.28125 4.203125 -0.28125 4.203125 -0.6875 L 4.203125 -2.3125 C 4.203125 -3.28125 4.90625 -3.734375 5.4375 -3.734375 C 5.9375 -3.734375 6.09375 -3.375 6.09375 -2.75 L 6.09375 -0.6875 C 6.09375 -0.28125 6 -0.28125 5.40625 -0.28125 L 5.40625 0 C 5.828125 -0.015625 6 -0.03125 6.421875 -0.03125 C 6.859375 -0.03125 6.96875 -0.015625 7.4375 0 L 7.4375 -0.28125 C 6.984375 -0.28125 6.765625 -0.28125 6.75 -0.546875 L 6.75 -2.265625 C 6.75 -3.046875 6.75 -3.296875 6.46875 -3.625 C 6.28125 -3.84375 5.921875 -3.953125 5.5 -3.953125 C 4.859375 -3.953125 4.421875 -3.578125 4.171875 -3.09375 C 4.0625 -3.625 3.703125 -3.953125 2.953125 -3.953125 C 2.25 -3.953125 1.8125 -3.484375 1.625 -3.078125 L 1.609375 -3.078125 L 1.609375 -3.953125 L 0.3125 -3.859375 L 0.3125 -3.578125 C 0.921875 -3.578125 1 -3.515625 1 -3.078125 L 1 -0.6875 C 1 -0.28125 0.90625 -0.28125 0.3125 -0.28125 L 0.3125 0 C 0.734375 -0.015625 0.90625 -0.03125 1.328125 -0.03125 C 1.765625 -0.03125 1.875 -0.015625 2.34375 0 L 2.34375 -0.28125 C 1.765625 -0.28125 1.65625 -0.28125 1.65625 -0.6875 Z M 1.65625 -2.3125 "/>
</g>
<g id="glyph-1-19">
<path d="M 1.625 -3 C 1.921875 -3.515625 2.40625 -3.703125 2.78125 -3.703125 C 3.484375 -3.703125 4.015625 -2.890625 4.015625 -1.9375 C 4.015625 -0.90625 3.421875 -0.125 2.6875 -0.125 C 2.28125 -0.125 1.953125 -0.359375 1.734375 -0.671875 C 1.625 -0.84375 1.625 -0.859375 1.625 -1.03125 Z M 1.625 -0.421875 C 1.84375 -0.203125 2.15625 0.09375 2.75 0.09375 C 3.8125 0.09375 4.796875 -0.765625 4.796875 -1.9375 C 4.796875 -3.0625 3.921875 -3.953125 2.859375 -3.953125 C 2.375 -3.953125 1.9375 -3.75 1.59375 -3.390625 L 1.59375 -3.953125 L 0.265625 -3.859375 L 0.265625 -3.578125 C 0.90625 -3.578125 0.953125 -3.515625 0.953125 -3.140625 L 0.953125 1.046875 C 0.953125 1.453125 0.859375 1.453125 0.265625 1.453125 L 0.265625 1.734375 C 0.6875 1.71875 0.859375 1.703125 1.28125 1.703125 C 1.71875 1.703125 1.828125 1.71875 2.3125 1.734375 L 2.3125 1.453125 C 1.71875 1.453125 1.625 1.453125 1.625 1.046875 Z M 1.625 -0.421875 "/>
</g>
<g id="glyph-1-20">
<path d="M 0.265625 -1.75 L 0.265625 -1.46875 L 2.703125 -1.46875 L 2.703125 -0.703125 C 2.703125 -0.375 2.671875 -0.28125 2 -0.28125 L 1.8125 -0.28125 L 1.8125 0 C 2.375 -0.03125 3 -0.03125 3.0625 -0.03125 C 3.09375 -0.03125 3.75 -0.03125 4.3125 0 L 4.3125 -0.28125 L 4.109375 -0.28125 C 3.4375 -0.28125 3.421875 -0.375 3.421875 -0.703125 L 3.421875 -1.46875 L 4.328125 -1.46875 L 4.328125 -1.75 L 3.421875 -1.75 L 3.421875 -5.8125 C 3.421875 -5.984375 3.421875 -6.046875 3.25 -6.046875 C 3.140625 -6.046875 3.125 -6.046875 3.046875 -5.921875 Z M 0.546875 -1.75 L 2.75 -5.0625 L 2.75 -1.75 Z M 0.546875 -1.75 "/>
</g>
<g id="glyph-1-21">
<path d="M 1.203125 -2.953125 C 1.203125 -3.875 1.296875 -4.375 1.53125 -4.84375 C 1.71875 -5.203125 2.15625 -5.734375 2.8125 -5.734375 C 3 -5.734375 3.40625 -5.6875 3.609375 -5.375 C 3.28125 -5.375 3.140625 -5.203125 3.140625 -4.953125 C 3.140625 -4.734375 3.296875 -4.546875 3.546875 -4.546875 C 3.796875 -4.546875 3.96875 -4.703125 3.96875 -4.984375 C 3.96875 -5.484375 3.609375 -5.953125 2.796875 -5.953125 C 1.640625 -5.953125 0.390625 -4.8125 0.390625 -2.828125 C 0.390625 -0.40625 1.46875 0.203125 2.3125 0.203125 C 3.3125 0.203125 4.203125 -0.640625 4.203125 -1.8125 C 4.203125 -2.953125 3.375 -3.8125 2.375 -3.8125 C 1.828125 -3.8125 1.453125 -3.5 1.203125 -2.953125 Z M 2.3125 -0.046875 C 1.796875 -0.046875 1.5 -0.46875 1.390625 -0.734375 C 1.21875 -1.140625 1.21875 -1.875 1.21875 -2.015625 C 1.21875 -2.625 1.5 -3.578125 2.34375 -3.578125 C 2.5 -3.578125 2.9375 -3.578125 3.21875 -3.03125 C 3.390625 -2.6875 3.390625 -2.25 3.390625 -1.828125 C 3.390625 -1.390625 3.390625 -0.953125 3.21875 -0.625 C 2.9375 -0.109375 2.546875 -0.046875 2.3125 -0.046875 Z M 2.3125 -0.046875 "/>
</g>
<g id="glyph-1-22">
<path d="M 3.25 -3.515625 C 3.0625 -3.484375 2.890625 -3.359375 2.890625 -3.09375 C 2.890625 -2.859375 3.0625 -2.6875 3.296875 -2.6875 C 3.53125 -2.6875 3.71875 -2.828125 3.71875 -3.109375 C 3.71875 -3.671875 3.09375 -4 2.3125 -4 C 1.15625 -4 0.296875 -3.046875 0.296875 -1.9375 C 0.296875 -0.78125 1.234375 0.09375 2.28125 0.09375 C 3.53125 0.09375 3.8125 -0.984375 3.8125 -1.0625 C 3.8125 -1.171875 3.71875 -1.171875 3.6875 -1.171875 C 3.59375 -1.171875 3.59375 -1.15625 3.546875 -1 C 3.328125 -0.390625 2.828125 -0.15625 2.375 -0.15625 C 1.8125 -0.15625 1.078125 -0.609375 1.078125 -1.9375 C 1.078125 -3.328125 1.78125 -3.75 2.328125 -3.75 C 2.4375 -3.75 2.921875 -3.734375 3.25 -3.515625 Z M 3.25 -3.515625 "/>
</g>
<g id="glyph-1-23">
<path d="M 3.546875 -1.5 C 3.546875 -0.703125 3.09375 -0.125 2.453125 -0.125 C 1.703125 -0.125 1.65625 -0.515625 1.65625 -0.984375 L 1.65625 -3.953125 L 0.3125 -3.859375 L 0.3125 -3.578125 C 1 -3.578125 1 -3.546875 1 -2.75 L 1 -1.40625 C 1 -0.828125 1 -0.453125 1.40625 -0.140625 C 1.671875 0.03125 2.03125 0.09375 2.390625 0.09375 C 2.859375 0.09375 3.296875 -0.109375 3.5625 -0.640625 L 3.5625 0.09375 L 4.890625 0 L 4.890625 -0.28125 C 4.28125 -0.28125 4.203125 -0.34375 4.203125 -0.78125 L 4.203125 -3.953125 L 2.84375 -3.859375 L 2.84375 -3.578125 C 3.453125 -3.578125 3.546875 -3.515625 3.546875 -3.078125 Z M 3.546875 -1.5 "/>
</g>
<g id="glyph-1-24">
<path d="M 1.59375 -2.046875 C 1.59375 -2.40625 1.6875 -3.734375 2.703125 -3.734375 L 2.703125 -3.71875 C 2.6875 -3.703125 2.546875 -3.609375 2.546875 -3.390625 C 2.546875 -3.140625 2.734375 -3 2.9375 -3 C 3.125 -3 3.328125 -3.125 3.328125 -3.390625 C 3.328125 -3.6875 3.0625 -3.953125 2.65625 -3.953125 C 2.125 -3.953125 1.75 -3.578125 1.546875 -3.015625 L 1.53125 -3.015625 L 1.53125 -3.953125 L 0.265625 -3.859375 L 0.265625 -3.578125 C 0.875 -3.578125 0.953125 -3.515625 0.953125 -3.078125 L 0.953125 -0.6875 C 0.953125 -0.28125 0.859375 -0.28125 0.265625 -0.28125 L 0.265625 0 C 0.734375 -0.015625 0.859375 -0.03125 1.3125 -0.03125 C 1.671875 -0.03125 1.890625 -0.015625 2.453125 0 L 2.453125 -0.28125 L 2.265625 -0.28125 C 1.625 -0.28125 1.59375 -0.375 1.59375 -0.703125 Z M 1.59375 -2.046875 "/>
</g>
<g id="glyph-1-25">
<path d="M 1.609375 -3.171875 C 1.578125 -3.21875 1.5625 -3.28125 1.5625 -3.34375 C 1.5625 -3.578125 1.890625 -3.578125 2.0625 -3.578125 L 2.0625 -3.859375 C 1.671875 -3.828125 1.46875 -3.828125 1.078125 -3.828125 C 0.765625 -3.828125 0.5 -3.828125 0.171875 -3.859375 L 0.171875 -3.578125 C 0.59375 -3.578125 0.765625 -3.578125 0.90625 -3.25 L 2.203125 -0.078125 C 2.265625 0.078125 2.328125 0.09375 2.40625 0.09375 C 2.5 0.09375 2.5625 0.078125 2.625 -0.078125 L 3.84375 -3 C 4.03125 -3.453125 4.34375 -3.5625 4.65625 -3.578125 L 4.65625 -3.859375 C 4.390625 -3.828125 3.984375 -3.828125 3.96875 -3.828125 C 3.71875 -3.828125 3.4375 -3.828125 3.1875 -3.859375 L 3.1875 -3.578125 C 3.453125 -3.5625 3.609375 -3.421875 3.609375 -3.1875 C 3.609375 -3.09375 3.59375 -3.078125 3.5625 -2.984375 L 2.625 -0.734375 Z M 1.609375 -3.171875 "/>
</g>
<g id="glyph-1-26">
<path d="M 1.625 -2.84375 C 1.625 -3.015625 1.625 -3.03125 1.71875 -3.171875 C 2.015625 -3.578125 2.453125 -3.734375 2.796875 -3.734375 C 3.1875 -3.734375 3.546875 -3.515625 3.765625 -3.140625 C 4 -2.75 4.015625 -2.21875 4.015625 -1.9375 C 4.015625 -1.515625 3.96875 -1.046875 3.734375 -0.6875 C 3.546875 -0.40625 3.171875 -0.125 2.703125 -0.125 C 2.296875 -0.125 1.953125 -0.34375 1.75 -0.671875 C 1.625 -0.859375 1.625 -0.859375 1.625 -1.03125 Z M 1.53125 -0.546875 C 1.8125 -0.15625 2.265625 0.09375 2.75 0.09375 C 3.8125 0.09375 4.796875 -0.765625 4.796875 -1.9375 C 4.796875 -3.046875 3.90625 -3.953125 2.828125 -3.953125 C 2.21875 -3.953125 1.8125 -3.640625 1.59375 -3.390625 L 1.59375 -6.203125 L 0.265625 -6.109375 L 0.265625 -5.828125 C 0.875 -5.828125 0.953125 -5.765625 0.953125 -5.328125 L 0.953125 0 L 1.203125 0 Z M 1.53125 -0.546875 "/>
</g>
</g>
<clipPath id="clip-0">
<path clip-rule="nonzero" d="M 0 0.15625 L 127 0.15625 L 127 101 L 0 101 Z M 0 0.15625 "/>
</clipPath>
<clipPath id="clip-1">
<path clip-rule="nonzero" d="M 151 0.15625 L 279 0.15625 L 279 101 L 151 101 Z M 151 0.15625 "/>
</clipPath>
</defs>
<path fill="none" stroke-width="0.3985" stroke-linecap="butt" stroke-linejoin="miter" stroke="rgb(50%, 50%, 50%)" stroke-opacity="1" stroke-miterlimit="10" d="M 0.00128029 -0.000391629 L 111.856888 -0.000391629 " transform="matrix(0.997135, 0, 0, -0.997135, 15.889348, 83.745703)"/>
<path fill="none" stroke-width="0.3985" stroke-linecap="round" stroke-linejoin="round" stroke="rgb(50%, 50%, 50%)" stroke-opacity="1" stroke-miterlimit="10" d="M -2.070564 2.389267 C -1.694487 0.955472 -0.848313 0.277749 0.00177886 -0.000391629 C -0.848313 -0.278532 -1.694487 -0.956255 -2.070564 -2.39005 " transform="matrix(0.997135, 0, 0, -0.997135, 127.623226, 83.745703)"/>
<g fill="rgb(0%, 0%, 0%)" fill-opacity="1">
<use xlink:href="#glyph-0-0" x="131.330674" y="86.850782"/>
</g>
<path fill="none" stroke-width="0.3985" stroke-linecap="butt" stroke-linejoin="miter" stroke="rgb(50%, 50%, 50%)" stroke-opacity="1" stroke-miterlimit="10" d="M 0.00128029 -0.000391629 L 0.00128029 81.240164 " transform="matrix(0.997135, 0, 0, -0.997135, 15.889348, 83.745703)"/>
<path fill="none" stroke-width="0.3985" stroke-linecap="round" stroke-linejoin="round" stroke="rgb(50%, 50%, 50%)" stroke-opacity="1" stroke-miterlimit="10" d="M -2.072378 2.392296 C -1.692383 0.954583 -0.850126 0.280778 -0.0000347905 -0.00128029 C -0.850126 -0.279421 -1.692383 -0.957144 -2.072378 -2.390939 " transform="matrix(0, -0.997135, -0.997135, 0, 15.889348, 2.539028)"/>
<path fill="none" stroke-width="0.3985" stroke-linecap="butt" stroke-linejoin="miter" stroke="rgb(50%, 50%, 50%)" stroke-opacity="1" stroke-miterlimit="10" d="M 31.180448 1.813398 L 31.180448 -1.814182 " transform="matrix(0.997135, 0, 0, -0.997135, 15.889348, 83.745703)"/>
<g fill="rgb(0%, 0%, 0%)" fill-opacity="1">
<use xlink:href="#glyph-1-0" x="44.68362" y="94.826866"/>
</g>
<path fill="none" stroke-width="0.3985" stroke-linecap="butt" stroke-linejoin="miter" stroke="rgb(50%, 50%, 50%)" stroke-opacity="1" stroke-miterlimit="10" d="M 2.492793 22.67786 L -2.49415 22.67786 " transform="matrix(0.997135, 0, 0, -0.997135, 15.889348, 83.745703)"/>
<g fill="rgb(0%, 0%, 0%)" fill-opacity="1">
<use xlink:href="#glyph-1-0" x="5.297779" y="64.014393"/>
</g>
<path fill="none" stroke-width="0.3985" stroke-linecap="butt" stroke-linejoin="miter" stroke="rgb(50%, 50%, 50%)" stroke-opacity="1" stroke-miterlimit="10" d="M 62.363533 1.813398 L 62.363533 -1.814182 " transform="matrix(0.997135, 0, 0, -0.997135, 15.889348, 83.745703)"/>
<g fill="rgb(0%, 0%, 0%)" fill-opacity="1">
<use xlink:href="#glyph-1-1" x="75.776287" y="94.826866"/>
</g>
<path fill="none" stroke-width="0.3985" stroke-linecap="butt" stroke-linejoin="miter" stroke="rgb(50%, 50%, 50%)" stroke-opacity="1" stroke-miterlimit="10" d="M 2.492793 45.356111 L -2.49415 45.356111 " transform="matrix(0.997135, 0, 0, -0.997135, 15.889348, 83.745703)"/>
<g fill="rgb(0%, 0%, 0%)" fill-opacity="1">
<use xlink:href="#glyph-1-1" x="5.297779" y="41.40236"/>
</g>
<path fill="none" stroke-width="0.3985" stroke-linecap="butt" stroke-linejoin="miter" stroke="rgb(50%, 50%, 50%)" stroke-opacity="1" stroke-miterlimit="10" d="M 93.546619 1.813398 L 93.546619 -1.814182 " transform="matrix(0.997135, 0, 0, -0.997135, 15.889348, 83.745703)"/>
<g fill="rgb(0%, 0%, 0%)" fill-opacity="1">
<use xlink:href="#glyph-1-2" x="106.867958" y="94.826866"/>
</g>
<path fill="none" stroke-width="0.3985" stroke-linecap="butt" stroke-linejoin="miter" stroke="rgb(50%, 50%, 50%)" stroke-opacity="1" stroke-miterlimit="10" d="M 2.492793 68.034362 L -2.49415 68.034362 " transform="matrix(0.997135, 0, 0, -0.997135, 15.889348, 83.745703)"/>
<g fill="rgb(0%, 0%, 0%)" fill-opacity="1">
<use xlink:href="#glyph-1-2" x="5.297779" y="18.790326"/>
</g>
<path fill="none" stroke-width="0.79701" stroke-linecap="butt" stroke-linejoin="miter" stroke="rgb(0%, 0%, 0%)" stroke-opacity="1" stroke-dasharray="0.79701 1.99255" stroke-miterlimit="10" d="M 0.00128029 -0.000391629 L 31.180448 22.67786 L 93.546619 68.034362 " transform="matrix(0.997135, 0, 0, -0.997135, 15.889348, 83.745703)"/>
<path fill="none" stroke-width="0.79701" stroke-linecap="butt" stroke-linejoin="miter" stroke="rgb(0%, 0%, 0%)" stroke-opacity="1" stroke-dasharray="2.98883 2.98883" stroke-miterlimit="10" d="M 0.00128029 -0.000391629 L 31.180448 45.356111 L 62.363533 68.034362 L 93.546619 68.034362 " transform="matrix(0.997135, 0, 0, -0.997135, 15.889348, 83.745703)"/>
<g clip-path="url(#clip-0)">
<path fill="none" stroke-width="1.19553" stroke-linecap="butt" stroke-linejoin="miter" stroke="rgb(0%, 0%, 0%)" stroke-opacity="1" stroke-miterlimit="10" d="M 0.00128029 -0.000391629 L 31.180448 68.034362 L 93.546619 68.034362 " transform="matrix(0.997135, 0, 0, -0.997135, 15.889348, 83.745703)"/>
</g>
<path fill-rule="nonzero" fill="rgb(0%, 0%, 0%)" fill-opacity="1" d="M 48.527344 61.132812 C 48.527344 60.28125 47.835938 59.585938 46.980469 59.585938 C 46.128906 59.585938 45.4375 60.28125 45.4375 61.132812 C 45.4375 61.988281 46.128906 62.679688 46.980469 62.679688 C 47.835938 62.679688 48.527344 61.988281 48.527344 61.132812 Z M 48.527344 61.132812 "/>
<path fill-rule="nonzero" fill="rgb(0%, 0%, 0%)" fill-opacity="1" d="M 79.621094 38.519531 C 79.621094 37.667969 78.925781 36.976562 78.074219 36.976562 C 77.21875 36.976562 76.527344 37.667969 76.527344 38.519531 C 76.527344 39.375 77.21875 40.066406 78.074219 40.066406 C 78.925781 40.066406 79.621094 39.375 79.621094 38.519531 Z M 79.621094 38.519531 "/>
<path fill-rule="nonzero" fill="rgb(0%, 0%, 0%)" fill-opacity="1" d="M 48.527344 38.519531 C 48.527344 37.667969 47.835938 36.976562 46.980469 36.976562 C 46.128906 36.976562 45.4375 37.667969 45.4375 38.519531 C 45.4375 39.375 46.128906 40.066406 46.980469 40.066406 C 47.835938 40.066406 48.527344 39.375 48.527344 38.519531 Z M 48.527344 38.519531 "/>
<path fill-rule="nonzero" fill="rgb(0%, 0%, 0%)" fill-opacity="1" d="M 79.621094 15.90625 C 79.621094 15.054688 78.925781 14.363281 78.074219 14.363281 C 77.21875 14.363281 76.527344 15.054688 76.527344 15.90625 C 76.527344 16.761719 77.21875 17.453125 78.074219 17.453125 C 78.925781 17.453125 79.621094 16.761719 79.621094 15.90625 Z M 79.621094 15.90625 "/>
<path fill-rule="nonzero" fill="rgb(0%, 0%, 0%)" fill-opacity="1" d="M 48.527344 15.90625 C 48.527344 15.054688 47.835938 14.363281 46.980469 14.363281 C 46.128906 14.363281 45.4375 15.054688 45.4375 15.90625 C 45.4375 16.761719 46.128906 17.453125 46.980469 17.453125 C 47.835938 17.453125 48.527344 16.761719 48.527344 15.90625 Z M 48.527344 15.90625 "/>
<path fill-rule="nonzero" fill="rgb(0%, 0%, 0%)" fill-opacity="1" d="M 110.710938 15.90625 C 110.710938 15.054688 110.019531 14.363281 109.167969 14.363281 C 108.3125 14.363281 107.621094 15.054688 107.621094 15.90625 C 107.621094 16.761719 108.3125 17.453125 109.167969 17.453125 C 110.019531 17.453125 110.710938 16.761719 110.710938 15.90625 Z M 110.710938 15.90625 "/>
<g fill="rgb(0%, 0%, 0%)" fill-opacity="1">
<use xlink:href="#glyph-1-3" x="10.071065" y="109.789876"/>
<use xlink:href="#glyph-1-4" x="13.69563" y="109.789876"/>
<use xlink:href="#glyph-1-5" x="18.290262" y="109.789876"/>
<use xlink:href="#glyph-1-6" x="20.842835" y="109.789876"/>
<use xlink:href="#glyph-1-7" x="23.395409" y="109.789876"/>
<use xlink:href="#glyph-1-8" x="28.500555" y="109.789876"/>
</g>
<g fill="rgb(0%, 0%, 0%)" fill-opacity="1">
<use xlink:href="#glyph-1-9" x="35.139035" y="109.789876"/>
<use xlink:href="#glyph-1-2" x="38.712637" y="109.789876"/>
</g>
<g fill="rgb(0%, 0%, 0%)" fill-opacity="1">
<use xlink:href="#glyph-0-1" x="43.304582" y="109.789876"/>
</g>
<g fill="rgb(0%, 0%, 0%)" fill-opacity="1">
<use xlink:href="#glyph-1-10" x="47.388847" y="109.789876"/>
</g>
<g fill="rgb(0%, 0%, 0%)" fill-opacity="1">
<use xlink:href="#glyph-0-1" x="51.983646" y="109.789876"/>
</g>
<g fill="rgb(0%, 0%, 0%)" fill-opacity="1">
<use xlink:href="#glyph-1-10" x="56.066914" y="109.789876"/>
<use xlink:href="#glyph-1-11" x="60.661547" y="109.789876"/>
</g>
<g fill="rgb(0%, 0%, 0%)" fill-opacity="1">
<use xlink:href="#glyph-1-7" x="10.071065" y="120.71748"/>
<use xlink:href="#glyph-1-12" x="15.176212" y="120.71748"/>
<use xlink:href="#glyph-1-3" x="19.770844" y="120.71748"/>
<use xlink:href="#glyph-1-13" x="23.395409" y="120.71748"/>
<use xlink:href="#glyph-1-14" x="28.500555" y="120.71748"/>
<use xlink:href="#glyph-1-7" x="32.588249" y="120.71748"/>
<use xlink:href="#glyph-1-8" x="37.693396" y="120.71748"/>
</g>
<g fill="rgb(0%, 0%, 0%)" fill-opacity="1">
<use xlink:href="#glyph-1-9" x="44.331875" y="120.71748"/>
<use xlink:href="#glyph-1-1" x="47.905478" y="120.71748"/>
</g>
<g fill="rgb(0%, 0%, 0%)" fill-opacity="1">
<use xlink:href="#glyph-0-1" x="52.497171" y="120.71748"/>
</g>
<g fill="rgb(0%, 0%, 0%)" fill-opacity="1">
<use xlink:href="#glyph-1-0" x="56.581436" y="120.71748"/>
</g>
<g fill="rgb(0%, 0%, 0%)" fill-opacity="1">
<use xlink:href="#glyph-0-1" x="61.175238" y="120.71748"/>
</g>
<g fill="rgb(0%, 0%, 0%)" fill-opacity="1">
<use xlink:href="#glyph-1-10" x="65.259503" y="120.71748"/>
<use xlink:href="#glyph-1-11" x="69.854135" y="120.71748"/>
</g>
<g fill="rgb(0%, 0%, 0%)" fill-opacity="1">
<use xlink:href="#glyph-1-7" x="10.071065" y="131.645084"/>
<use xlink:href="#glyph-1-4" x="15.176212" y="131.645084"/>
<use xlink:href="#glyph-1-15" x="19.770844" y="131.645084"/>
<use xlink:href="#glyph-1-15" x="23.344447" y="131.645084"/>
<use xlink:href="#glyph-1-14" x="26.918049" y="131.645084"/>
<use xlink:href="#glyph-1-7" x="31.005743" y="131.645084"/>
<use xlink:href="#glyph-1-8" x="36.11089" y="131.645084"/>
</g>
<g fill="rgb(0%, 0%, 0%)" fill-opacity="1">
<use xlink:href="#glyph-1-9" x="42.749369" y="131.645084"/>
<use xlink:href="#glyph-1-0" x="46.322972" y="131.645084"/>
</g>
<g fill="rgb(0%, 0%, 0%)" fill-opacity="1">
<use xlink:href="#glyph-0-1" x="50.914717" y="131.645084"/>
</g>
<g fill="rgb(0%, 0%, 0%)" fill-opacity="1">
<use xlink:href="#glyph-1-0" x="54.998983" y="131.645084"/>
</g>
<g fill="rgb(0%, 0%, 0%)" fill-opacity="1">
<use xlink:href="#glyph-0-1" x="59.592784" y="131.645084"/>
</g>
<g fill="rgb(0%, 0%, 0%)" fill-opacity="1">
<use xlink:href="#glyph-1-0" x="63.67705" y="131.645084"/>
<use xlink:href="#glyph-1-11" x="68.271682" y="131.645084"/>
</g>
<g fill="rgb(0%, 0%, 0%)" fill-opacity="1">
<use xlink:href="#glyph-1-16" x="10.071065" y="142.571691"/>
<use xlink:href="#glyph-1-14" x="15.176212" y="142.571691"/>
<use xlink:href="#glyph-1-3" x="19.263905" y="142.571691"/>
<use xlink:href="#glyph-1-15" x="22.88847" y="142.571691"/>
<use xlink:href="#glyph-1-14" x="26.462073" y="142.571691"/>
<use xlink:href="#glyph-1-7" x="30.549767" y="142.571691"/>
<use xlink:href="#glyph-1-17" x="35.654914" y="142.571691"/>
</g>
<g fill="rgb(0%, 0%, 0%)" fill-opacity="1">
<use xlink:href="#glyph-1-3" x="41.274151" y="142.571691"/>
<use xlink:href="#glyph-1-12" x="44.898716" y="142.571691"/>
</g>
<g fill="rgb(0%, 0%, 0%)" fill-opacity="1">
<use xlink:href="#glyph-1-18" x="49.484408" y="142.571691"/>
<use xlink:href="#glyph-1-14" x="57.142128" y="142.571691"/>
</g>
<g fill="rgb(0%, 0%, 0%)" fill-opacity="1">
<use xlink:href="#glyph-1-14" x="64.296486" y="142.571691"/>
<use xlink:href="#glyph-1-16" x="68.38418" y="142.571691"/>
<use xlink:href="#glyph-1-7" x="73.489327" y="142.571691"/>
<use xlink:href="#glyph-1-19" x="78.594473" y="142.571691"/>
</g>
<g fill="rgb(0%, 0%, 0%)" fill-opacity="1">
<use xlink:href="#glyph-1-4" x="83.94996" y="142.571691"/>
<use xlink:href="#glyph-1-6" x="88.544592" y="142.571691"/>
<use xlink:href="#glyph-1-16" x="91.097166" y="142.571691"/>
</g>
<g fill="rgb(0%, 0%, 0%)" fill-opacity="1">
<use xlink:href="#glyph-1-15" x="95.951973" y="142.571691"/>
</g>
<path fill="none" stroke-width="0.3985" stroke-linecap="butt" stroke-linejoin="miter" stroke="rgb(50%, 50%, 50%)" stroke-opacity="1" stroke-miterlimit="10" d="M 153.072621 -0.000391629 L 264.928229 -0.000391629 " transform="matrix(0.997135, 0, 0, -0.997135, 15.889348, 83.745703)"/>
<path fill="none" stroke-width="0.3985" stroke-linecap="round" stroke-linejoin="round" stroke="rgb(50%, 50%, 50%)" stroke-opacity="1" stroke-miterlimit="10" d="M -2.071883 2.389267 C -1.691888 0.955472 -0.849632 0.277749 0.000460071 -0.000391629 C -0.849632 -0.278532 -1.691888 -0.956255 -2.071883 -2.39005 " transform="matrix(0.997135, 0, 0, -0.997135, 280.257354, 83.745703)"/>
<g fill="rgb(0%, 0%, 0%)" fill-opacity="1">
<use xlink:href="#glyph-0-0" x="283.96215" y="86.849785"/>
</g>
<path fill="none" stroke-width="0.3985" stroke-linecap="butt" stroke-linejoin="miter" stroke="rgb(50%, 50%, 50%)" stroke-opacity="1" stroke-miterlimit="10" d="M 153.072621 -0.000391629 L 153.072621 81.240164 " transform="matrix(0.997135, 0, 0, -0.997135, 15.889348, 83.745703)"/>
<path fill="none" stroke-width="0.3985" stroke-linecap="round" stroke-linejoin="round" stroke="rgb(50%, 50%, 50%)" stroke-opacity="1" stroke-miterlimit="10" d="M -2.070648 2.389687 C -1.694571 0.955892 -0.848396 0.278169 0.00169521 0.0000285033 C -0.848396 -0.278112 -1.694571 -0.955835 -2.070648 -2.38963 " transform="matrix(0, -0.997135, -0.997135, 0, 168.523466, 2.540753)"/>
<path fill="none" stroke-width="0.3985" stroke-linecap="butt" stroke-linejoin="miter" stroke="rgb(50%, 50%, 50%)" stroke-opacity="1" stroke-miterlimit="10" d="M 184.255707 1.813398 L 184.255707 -1.814182 " transform="matrix(0.997135, 0, 0, -0.997135, 15.889348, 83.745703)"/>
<g fill="rgb(0%, 0%, 0%)" fill-opacity="1">
<use xlink:href="#glyph-1-0" x="197.316092" y="94.825869"/>
</g>
<path fill="none" stroke-width="0.3985" stroke-linecap="butt" stroke-linejoin="miter" stroke="rgb(50%, 50%, 50%)" stroke-opacity="1" stroke-miterlimit="10" d="M 215.434875 1.813398 L 215.434875 -1.814182 " transform="matrix(0.997135, 0, 0, -0.997135, 15.889348, 83.745703)"/>
<g fill="rgb(0%, 0%, 0%)" fill-opacity="1">
<use xlink:href="#glyph-1-1" x="228.407763" y="94.825869"/>
</g>
<path fill="none" stroke-width="0.3985" stroke-linecap="butt" stroke-linejoin="miter" stroke="rgb(50%, 50%, 50%)" stroke-opacity="1" stroke-miterlimit="10" d="M 246.61796 1.813398 L 246.61796 -1.814182 " transform="matrix(0.997135, 0, 0, -0.997135, 15.889348, 83.745703)"/>
<g fill="rgb(0%, 0%, 0%)" fill-opacity="1">
<use xlink:href="#glyph-1-2" x="259.50043" y="94.825869"/>
</g>
<path fill="none" stroke-width="0.3985" stroke-linecap="butt" stroke-linejoin="miter" stroke="rgb(50%, 50%, 50%)" stroke-opacity="1" stroke-miterlimit="10" d="M 155.568052 22.67786 L 150.577191 22.67786 " transform="matrix(0.997135, 0, 0, -0.997135, 15.889348, 83.745703)"/>
<g fill="rgb(0%, 0%, 0%)" fill-opacity="1">
<use xlink:href="#glyph-1-1" x="157.930251" y="64.014393"/>
</g>
<path fill="none" stroke-width="0.3985" stroke-linecap="butt" stroke-linejoin="miter" stroke="rgb(50%, 50%, 50%)" stroke-opacity="1" stroke-miterlimit="10" d="M 155.568052 45.356111 L 150.577191 45.356111 " transform="matrix(0.997135, 0, 0, -0.997135, 15.889348, 83.745703)"/>
<g fill="rgb(0%, 0%, 0%)" fill-opacity="1">
<use xlink:href="#glyph-1-20" x="157.930251" y="41.403357"/>
</g>
<path fill="none" stroke-width="0.3985" stroke-linecap="butt" stroke-linejoin="miter" stroke="rgb(50%, 50%, 50%)" stroke-opacity="1" stroke-miterlimit="10" d="M 155.568052 68.030445 L 150.577191 68.030445 " transform="matrix(0.997135, 0, 0, -0.997135, 15.889348, 83.745703)"/>
<g fill="rgb(0%, 0%, 0%)" fill-opacity="1">
<use xlink:href="#glyph-1-21" x="157.930251" y="18.791323"/>
</g>
<g clip-path="url(#clip-1)">
<path fill="none" stroke-width="1.19553" stroke-linecap="butt" stroke-linejoin="miter" stroke="rgb(0%, 0%, 0%)" stroke-opacity="1" stroke-miterlimit="10" d="M 153.072621 -0.000391629 L 184.255707 45.356111 L 215.434875 56.693278 L 246.61796 68.030445 " transform="matrix(0.997135, 0, 0, -0.997135, 15.889348, 83.745703)"/>
</g>
<path fill="none" stroke-width="0.79701" stroke-linecap="butt" stroke-linejoin="miter" stroke="rgb(0%, 0%, 0%)" stroke-opacity="1" stroke-dasharray="2.98883 2.98883" stroke-miterlimit="10" d="M 153.072621 -0.000391629 L 184.255707 34.015027 L 215.434875 68.030445 L 246.61796 68.030445 " transform="matrix(0.997135, 0, 0, -0.997135, 15.889348, 83.745703)"/>
<path fill-rule="nonzero" fill="rgb(0%, 0%, 0%)" fill-opacity="1" d="M 201.160156 38.519531 C 201.160156 37.667969 200.46875 36.976562 199.617188 36.976562 C 198.761719 36.976562 198.070312 37.667969 198.070312 38.519531 C 198.070312 39.375 198.761719 40.066406 199.617188 40.066406 C 200.46875 40.066406 201.160156 39.375 201.160156 38.519531 Z M 201.160156 38.519531 "/>
<path fill-rule="nonzero" fill="rgb(0%, 0%, 0%)" fill-opacity="1" d="M 232.253906 27.214844 C 232.253906 26.363281 231.5625 25.671875 230.707031 25.671875 C 229.855469 25.671875 229.164062 26.363281 229.164062 27.214844 C 229.164062 28.070312 229.855469 28.761719 230.707031 28.761719 C 231.5625 28.761719 232.253906 28.070312 232.253906 27.214844 Z M 232.253906 27.214844 "/>
<path fill-rule="nonzero" fill="rgb(0%, 0%, 0%)" fill-opacity="1" d="M 263.347656 15.910156 C 263.347656 15.054688 262.652344 14.363281 261.800781 14.363281 C 260.945312 14.363281 260.253906 15.054688 260.253906 15.910156 C 260.253906 16.761719 260.945312 17.453125 261.800781 17.453125 C 262.652344 17.453125 263.347656 16.761719 263.347656 15.910156 Z M 263.347656 15.910156 "/>
<path fill-rule="nonzero" fill="rgb(0%, 0%, 0%)" fill-opacity="1" d="M 201.160156 49.828125 C 201.160156 48.972656 200.46875 48.28125 199.617188 48.28125 C 198.761719 48.28125 198.070312 48.972656 198.070312 49.828125 C 198.070312 50.679688 198.761719 51.371094 199.617188 51.371094 C 200.46875 51.371094 201.160156 50.679688 201.160156 49.828125 Z M 201.160156 49.828125 "/>
<path fill-rule="nonzero" fill="rgb(0%, 0%, 0%)" fill-opacity="1" d="M 232.253906 15.910156 C 232.253906 15.054688 231.5625 14.363281 230.707031 14.363281 C 229.855469 14.363281 229.164062 15.054688 229.164062 15.910156 C 229.164062 16.761719 229.855469 17.453125 230.707031 17.453125 C 231.5625 17.453125 232.253906 16.761719 232.253906 15.910156 Z M 232.253906 15.910156 "/>
<g fill="rgb(0%, 0%, 0%)" fill-opacity="1">
<use xlink:href="#glyph-1-3" x="162.703537" y="109.788879"/>
<use xlink:href="#glyph-1-4" x="166.328102" y="109.788879"/>
<use xlink:href="#glyph-1-5" x="170.922734" y="109.788879"/>
<use xlink:href="#glyph-1-6" x="173.475308" y="109.788879"/>
<use xlink:href="#glyph-1-7" x="176.027881" y="109.788879"/>
<use xlink:href="#glyph-1-8" x="181.133028" y="109.788879"/>
</g>
<g fill="rgb(0%, 0%, 0%)" fill-opacity="1">
<use xlink:href="#glyph-1-9" x="187.771507" y="109.788879"/>
<use xlink:href="#glyph-1-20" x="191.34511" y="109.788879"/>
</g>
<g fill="rgb(0%, 0%, 0%)" fill-opacity="1">
<use xlink:href="#glyph-0-1" x="195.937054" y="109.788879"/>
</g>
<g fill="rgb(0%, 0%, 0%)" fill-opacity="1">
<use xlink:href="#glyph-1-0" x="200.02132" y="109.788879"/>
</g>
<g fill="rgb(0%, 0%, 0%)" fill-opacity="1">
<use xlink:href="#glyph-0-1" x="204.615121" y="109.788879"/>
</g>
<g fill="rgb(0%, 0%, 0%)" fill-opacity="1">
<use xlink:href="#glyph-1-0" x="208.699387" y="109.788879"/>
<use xlink:href="#glyph-1-11" x="213.294019" y="109.788879"/>
</g>
<g fill="rgb(0%, 0%, 0%)" fill-opacity="1">
<use xlink:href="#glyph-1-7" x="162.703537" y="120.716483"/>
<use xlink:href="#glyph-1-12" x="167.808684" y="120.716483"/>
<use xlink:href="#glyph-1-3" x="172.403316" y="120.716483"/>
<use xlink:href="#glyph-1-13" x="176.027881" y="120.716483"/>
<use xlink:href="#glyph-1-14" x="181.133028" y="120.716483"/>
<use xlink:href="#glyph-1-7" x="185.220722" y="120.716483"/>
<use xlink:href="#glyph-1-8" x="190.325868" y="120.716483"/>
</g>
<g fill="rgb(0%, 0%, 0%)" fill-opacity="1">
<use xlink:href="#glyph-1-9" x="196.964347" y="120.716483"/>
<use xlink:href="#glyph-1-2" x="200.53795" y="120.716483"/>
</g>
<g fill="rgb(0%, 0%, 0%)" fill-opacity="1">
<use xlink:href="#glyph-0-1" x="205.129643" y="120.716483"/>
</g>
<g fill="rgb(0%, 0%, 0%)" fill-opacity="1">
<use xlink:href="#glyph-1-2" x="209.213908" y="120.716483"/>
</g>
<g fill="rgb(0%, 0%, 0%)" fill-opacity="1">
<use xlink:href="#glyph-0-1" x="213.80771" y="120.716483"/>
</g>
<g fill="rgb(0%, 0%, 0%)" fill-opacity="1">
<use xlink:href="#glyph-1-10" x="217.891975" y="120.716483"/>
<use xlink:href="#glyph-1-11" x="222.486608" y="120.716483"/>
</g>
<g fill="rgb(0%, 0%, 0%)" fill-opacity="1">
<use xlink:href="#glyph-1-15" x="162.703537" y="131.644087"/>
<use xlink:href="#glyph-1-13" x="166.27714" y="131.644087"/>
<use xlink:href="#glyph-1-14" x="171.382287" y="131.644087"/>
</g>
<g fill="rgb(0%, 0%, 0%)" fill-opacity="1">
<use xlink:href="#glyph-1-22" x="178.536645" y="131.644087"/>
<use xlink:href="#glyph-1-23" x="182.620762" y="131.644087"/>
<use xlink:href="#glyph-1-24" x="187.725909" y="131.644087"/>
<use xlink:href="#glyph-1-25" x="191.320076" y="131.644087"/>
</g>
<g fill="rgb(0%, 0%, 0%)" fill-opacity="1">
<use xlink:href="#glyph-1-14" x="195.910237" y="131.644087"/>
<use xlink:href="#glyph-1-3" x="199.997931" y="131.644087"/>
</g>
<g fill="rgb(0%, 0%, 0%)" fill-opacity="1">
<use xlink:href="#glyph-1-22" x="206.68916" y="131.644087"/>
<use xlink:href="#glyph-1-24" x="210.773278" y="131.644087"/>
<use xlink:href="#glyph-1-4" x="214.367444" y="131.644087"/>
<use xlink:href="#glyph-1-3" x="218.962076" y="131.644087"/>
<use xlink:href="#glyph-1-3" x="222.586641" y="131.644087"/>
<use xlink:href="#glyph-1-8" x="226.211206" y="131.644087"/>
</g>
<g fill="rgb(0%, 0%, 0%)" fill-opacity="1">
<use xlink:href="#glyph-1-6" x="162.703537" y="142.571691"/>
<use xlink:href="#glyph-1-16" x="165.256111" y="142.571691"/>
<use xlink:href="#glyph-1-22" x="170.361257" y="142.571691"/>
<use xlink:href="#glyph-1-4" x="174.445375" y="142.571691"/>
<use xlink:href="#glyph-1-18" x="179.040007" y="142.571691"/>
<use xlink:href="#glyph-1-19" x="186.697727" y="142.571691"/>
<use xlink:href="#glyph-1-12" x="191.802874" y="142.571691"/>
<use xlink:href="#glyph-1-24" x="196.397506" y="142.571691"/>
<use xlink:href="#glyph-1-12" x="199.991673" y="142.571691"/>
<use xlink:href="#glyph-1-26" x="204.586305" y="142.571691"/>
<use xlink:href="#glyph-1-5" x="209.691452" y="142.571691"/>
<use xlink:href="#glyph-1-14" x="212.244025" y="142.571691"/>
</g>
</svg>
