<?xml version="1.0" encoding="UTF-8"?>
<svg xmlns="http://www.w3.org/2000/svg" xmlns:xlink="http://www.w3.org/1999/xlink" width="393.245" height="274.755" viewBox="0 0 262.163 183.17">
<defs>
<g>
<g id="glyph-0-0">
<path d="M 4.390625 -3.609375 C 4.0625 -3.546875 3.96875 -3.25 3.96875 -3.125 C 3.96875 -2.953125 4.09375 -2.796875 4.3125 -2.796875 C 4.5625 -2.796875 4.796875 -3.015625 4.796875 -3.328125 C 4.796875 -3.734375 4.359375 -3.9375 3.9375 -3.9375 C 3.40625 -3.9375 3.09375 -3.46875 2.984375 -3.28125 C 2.8125 -3.71875 2.421875 -3.9375 1.984375 -3.9375 C 1.03125 -3.9375 0.515625 -2.796875 0.515625 -2.5625 C 0.515625 -2.484375 0.578125 -2.46875 0.640625 -2.46875 C 0.71875 -2.46875 0.75 -2.5 0.765625 -2.5625 C 1.046875 -3.4375 1.625 -3.71875 1.96875 -3.71875 C 2.234375 -3.71875 2.46875 -3.546875 2.46875 -3.125 C 2.46875 -2.8125 2.078125 -1.390625 1.96875 -0.953125 C 1.890625 -0.671875 1.625 -0.125 1.140625 -0.125 C 0.953125 -0.125 0.765625 -0.1875 0.671875 -0.234375 C 0.921875 -0.28125 1.09375 -0.484375 1.09375 -0.71875 C 1.09375 -0.953125 0.921875 -1.046875 0.765625 -1.046875 C 0.5 -1.046875 0.265625 -0.828125 0.265625 -0.515625 C 0.265625 -0.078125 0.75 0.09375 1.125 0.09375 C 1.640625 0.09375 1.9375 -0.328125 2.078125 -0.578125 C 2.296875 0.015625 2.828125 0.09375 3.0625 0.09375 C 4.03125 0.09375 4.546875 -1.0625 4.546875 -1.28125 C 4.546875 -1.328125 4.515625 -1.390625 4.421875 -1.390625 C 4.328125 -1.390625 4.3125 -1.34375 4.28125 -1.21875 C 4.078125 -0.578125 3.5625 -0.125 3.09375 -0.125 C 2.84375 -0.125 2.59375 -0.28125 2.59375 -0.71875 C 2.59375 -0.90625 2.71875 -1.40625 2.796875 -1.734375 C 2.84375 -1.90625 3.078125 -2.859375 3.09375 -2.921875 C 3.203125 -3.25 3.46875 -3.71875 3.921875 -3.71875 C 4.09375 -3.71875 4.25 -3.6875 4.390625 -3.609375 Z M 4.390625 -3.609375 "/>
</g>
<g id="glyph-0-1">
<path d="M 1.625 -0.140625 C 1.625 0.15625 1.625 0.890625 0.96875 1.515625 C 0.90625 1.5625 0.90625 1.578125 0.90625 1.609375 C 0.90625 1.671875 0.96875 1.71875 1.03125 1.71875 C 1.125 1.71875 1.84375 1.03125 1.84375 -0.015625 C 1.84375 -0.578125 1.65625 -0.96875 1.265625 -0.96875 C 0.96875 -0.96875 0.78125 -0.734375 0.78125 -0.484375 C 0.78125 -0.234375 0.96875 0 1.265625 0 C 1.40625 0 1.53125 -0.046875 1.625 -0.140625 Z M 1.625 -0.140625 "/>
</g>
<g id="glyph-0-2">
<path d="M 1.453125 -0.671875 C 1.375 -0.359375 1.359375 -0.28125 0.6875 -0.28125 C 0.515625 -0.28125 0.421875 -0.28125 0.421875 -0.109375 C 0.421875 0 0.515625 0 0.671875 0 L 3.921875 0 C 5.359375 0 6.421875 -1.046875 6.421875 -1.921875 C 6.421875 -2.546875 5.890625 -3.09375 5.015625 -3.1875 C 6.03125 -3.375 6.890625 -4.0625 6.890625 -4.859375 C 6.890625 -5.546875 6.25 -6.09375 5.1875 -6.09375 L 2.140625 -6.09375 C 1.984375 -6.09375 1.875 -6.09375 1.875 -5.9375 C 1.875 -5.8125 1.953125 -5.8125 2.140625 -5.8125 C 2.171875 -5.8125 2.34375 -5.8125 2.484375 -5.796875 C 2.625 -5.78125 2.6875 -5.765625 2.6875 -5.671875 C 2.6875 -5.625 2.6875 -5.578125 2.65625 -5.484375 Z M 2.84375 -3.28125 L 3.390625 -5.46875 C 3.46875 -5.796875 3.484375 -5.8125 3.859375 -5.8125 L 5.0625 -5.8125 C 6 -5.8125 6.078125 -5.109375 6.078125 -4.890625 C 6.078125 -4.09375 5.25 -3.28125 4.234375 -3.28125 Z M 2.421875 -0.28125 C 2.296875 -0.28125 2.28125 -0.28125 2.234375 -0.28125 C 2.15625 -0.296875 2.125 -0.296875 2.125 -0.359375 C 2.125 -0.390625 2.125 -0.40625 2.171875 -0.578125 L 2.78125 -3.0625 L 4.453125 -3.0625 C 5.015625 -3.0625 5.578125 -2.8125 5.578125 -2 C 5.578125 -1.125 4.765625 -0.28125 3.6875 -0.28125 Z M 2.421875 -0.28125 "/>
</g>
<g id="glyph-1-0">
<path d="M 2.140625 -3.78125 C 2.140625 -3.953125 2.109375 -3.953125 1.9375 -3.953125 C 1.546875 -3.578125 0.9375 -3.578125 0.71875 -3.578125 L 0.71875 -3.34375 C 0.875 -3.34375 1.265625 -3.34375 1.625 -3.515625 L 1.625 -0.5 C 1.625 -0.3125 1.625 -0.234375 1.015625 -0.234375 L 0.75 -0.234375 L 0.75 0 C 1.078125 -0.03125 1.546875 -0.03125 1.875 -0.03125 C 2.21875 -0.03125 2.671875 -0.03125 3 0 L 3 -0.234375 L 2.75 -0.234375 C 2.140625 -0.234375 2.140625 -0.3125 2.140625 -0.5 Z M 2.140625 -3.78125 "/>
</g>
<g id="glyph-1-1">
<path d="M 3.203125 -1.109375 L 2.984375 -1.109375 C 2.96875 -1.03125 2.90625 -0.640625 2.828125 -0.578125 C 2.78125 -0.53125 2.296875 -0.53125 2.21875 -0.53125 L 1.09375 -0.53125 L 1.859375 -1.15625 C 2.0625 -1.3125 2.59375 -1.703125 2.78125 -1.875 C 2.953125 -2.046875 3.203125 -2.359375 3.203125 -2.78125 C 3.203125 -3.53125 2.53125 -3.953125 1.734375 -3.953125 C 0.96875 -3.953125 0.421875 -3.453125 0.421875 -2.890625 C 0.421875 -2.59375 0.6875 -2.546875 0.75 -2.546875 C 0.90625 -2.546875 1.078125 -2.65625 1.078125 -2.875 C 1.078125 -3 1 -3.203125 0.734375 -3.203125 C 0.875 -3.5 1.234375 -3.734375 1.640625 -3.734375 C 2.265625 -3.734375 2.59375 -3.265625 2.59375 -2.78125 C 2.59375 -2.359375 2.328125 -1.921875 1.90625 -1.546875 L 0.5 -0.25 C 0.4375 -0.1875 0.421875 -0.1875 0.421875 0 L 3.015625 0 Z M 3.203125 -1.109375 "/>
</g>
<g id="glyph-2-0">
<path d="M 4.25 -1.921875 C 4.4375 -1.921875 4.546875 -1.921875 4.546875 -2.171875 C 4.546875 -2.359375 4.515625 -3.15625 3.9375 -3.625 C 3.546875 -3.96875 3 -4.046875 2.5625 -4.046875 C 1.046875 -4.046875 0.296875 -3.078125 0.296875 -2 C 0.296875 -0.84375 1.171875 0.046875 2.6875 0.046875 C 4.171875 0.046875 4.546875 -0.890625 4.546875 -1.03125 C 4.546875 -1.21875 4.359375 -1.21875 4.3125 -1.21875 C 4.15625 -1.21875 4.125 -1.15625 4.078125 -1.03125 C 3.875 -0.578125 3.328125 -0.328125 2.765625 -0.328125 C 1.5 -0.328125 1.484375 -1.484375 1.484375 -1.921875 Z M 1.484375 -2.234375 C 1.5 -2.65625 1.546875 -3.6875 2.5625 -3.6875 C 3.609375 -3.6875 3.65625 -2.59375 3.671875 -2.234375 Z M 1.484375 -2.234375 "/>
</g>
<g id="glyph-2-1">
<path d="M 3.1875 -2.1875 L 4.28125 -3.359375 C 4.375 -3.46875 4.4375 -3.53125 5.15625 -3.53125 L 5.15625 -3.96875 C 4.859375 -3.9375 4.625 -3.9375 4.328125 -3.9375 C 4.171875 -3.9375 3.8125 -3.9375 3.421875 -3.96875 L 3.421875 -3.53125 C 3.609375 -3.53125 3.65625 -3.484375 3.71875 -3.421875 L 2.890625 -2.53125 L 2 -3.53125 L 2.328125 -3.53125 L 2.328125 -3.96875 C 1.796875 -3.9375 1.5625 -3.9375 1.265625 -3.9375 C 1.078125 -3.9375 0.734375 -3.9375 0.28125 -3.96875 L 0.28125 -3.53125 L 0.90625 -3.53125 L 2.3125 -1.90625 L 1.109375 -0.609375 C 0.953125 -0.4375 0.640625 -0.4375 0.234375 -0.4375 L 0.234375 0 C 0.53125 -0.03125 0.765625 -0.03125 1.0625 -0.03125 C 1.21875 -0.03125 1.5625 -0.03125 1.96875 0 L 1.96875 -0.4375 C 1.84375 -0.4375 1.6875 -0.46875 1.6875 -0.53125 C 1.6875 -0.578125 1.734375 -0.625 1.75 -0.640625 L 2.625 -1.5625 L 3.609375 -0.4375 L 3.296875 -0.4375 L 3.296875 0 C 3.859375 -0.015625 4.0625 -0.03125 4.359375 -0.03125 C 4.5625 -0.03125 4.890625 -0.03125 5.359375 0 L 5.359375 -0.4375 L 4.734375 -0.4375 Z M 3.1875 -2.1875 "/>
</g>
<g id="glyph-3-0">
<path d="M 3.046875 2.125 C 3.046875 2.078125 3.015625 2.046875 2.96875 1.984375 C 1.8125 0.9375 1.46875 -0.671875 1.46875 -2.234375 C 1.46875 -3.609375 1.734375 -5.296875 2.984375 -6.484375 C 3.03125 -6.515625 3.046875 -6.546875 3.046875 -6.59375 C 3.046875 -6.65625 3 -6.6875 2.9375 -6.6875 C 2.828125 -6.6875 2.03125 -6.046875 1.546875 -5.078125 C 1.109375 -4.21875 0.90625 -3.296875 0.90625 -2.234375 C 0.90625 -1.59375 0.984375 -0.578125 1.46875 0.46875 C 2 1.5625 2.828125 2.21875 2.9375 2.21875 C 3 2.21875 3.046875 2.1875 3.046875 2.125 Z M 3.046875 2.125 "/>
</g>
<g id="glyph-3-1">
<path d="M 2.71875 -5.703125 C 2.71875 -5.921875 2.703125 -5.9375 2.484375 -5.9375 C 1.921875 -5.375 1.109375 -5.375 0.828125 -5.375 L 0.828125 -5.09375 C 1 -5.09375 1.546875 -5.09375 2.03125 -5.328125 L 2.03125 -0.71875 C 2.03125 -0.390625 2 -0.28125 1.171875 -0.28125 L 0.890625 -0.28125 L 0.890625 0 C 1.203125 -0.03125 2 -0.03125 2.359375 -0.03125 C 2.734375 -0.03125 3.53125 -0.03125 3.859375 0 L 3.859375 -0.28125 L 3.5625 -0.28125 C 2.734375 -0.28125 2.71875 -0.390625 2.71875 -0.71875 Z M 2.71875 -5.703125 "/>
</g>
<g id="glyph-3-2">
<path d="M 2.65625 -2.234375 C 2.65625 -2.96875 2.546875 -3.953125 2.09375 -4.9375 C 1.5625 -6.046875 0.734375 -6.6875 0.625 -6.6875 C 0.53125 -6.6875 0.515625 -6.625 0.515625 -6.59375 C 0.515625 -6.546875 0.53125 -6.515625 0.59375 -6.453125 C 1.109375 -6 2.09375 -4.78125 2.09375 -2.234375 C 2.09375 -0.96875 1.859375 0.8125 0.578125 2.015625 C 0.546875 2.046875 0.515625 2.078125 0.515625 2.125 C 0.515625 2.15625 0.53125 2.21875 0.625 2.21875 C 0.734375 2.21875 1.53125 1.578125 2.015625 0.609375 C 2.4375 -0.25 2.65625 -1.171875 2.65625 -2.234375 Z M 2.65625 -2.234375 "/>
</g>
<g id="glyph-3-3">
<path d="M 1.625 -0.140625 C 1.625 0.15625 1.625 0.890625 0.953125 1.53125 C 0.90625 1.5625 0.90625 1.609375 0.90625 1.609375 C 0.90625 1.65625 0.96875 1.71875 1.03125 1.71875 C 1.125 1.71875 1.84375 1.03125 1.84375 -0.015625 C 1.84375 -0.640625 1.609375 -0.96875 1.265625 -0.96875 C 0.953125 -0.96875 0.78125 -0.71875 0.78125 -0.484375 C 0.78125 -0.234375 0.953125 0 1.265625 0 C 1.484375 0 1.625 -0.140625 1.625 -0.140625 Z M 1.625 -0.140625 "/>
</g>
<g id="glyph-3-4">
<path d="M 2.90625 -3.5625 L 2.90625 -3.84375 L 1.609375 -3.84375 L 1.609375 -5.484375 L 1.359375 -5.484375 C 1.34375 -4.734375 1.03125 -3.8125 0.171875 -3.796875 L 0.171875 -3.5625 L 0.953125 -3.5625 L 0.953125 -1.109375 C 0.953125 -0.109375 1.671875 0.09375 2.140625 0.09375 C 2.734375 0.09375 3.046875 -0.46875 3.046875 -1.109375 L 3.046875 -1.609375 L 2.796875 -1.609375 L 2.796875 -1.140625 C 2.796875 -0.46875 2.53125 -0.15625 2.203125 -0.15625 C 1.609375 -0.15625 1.609375 -0.9375 1.609375 -1.09375 L 1.609375 -3.5625 Z M 2.90625 -3.5625 "/>
</g>
<g id="glyph-3-5">
<path d="M 1.625 -6.1875 L 0.3125 -6.09375 L 0.3125 -5.8125 C 0.921875 -5.8125 1 -5.75 1 -5.3125 L 1 -0.6875 C 1 -0.28125 0.90625 -0.28125 0.3125 -0.28125 L 0.3125 0 C 0.734375 -0.015625 0.90625 -0.03125 1.328125 -0.03125 C 1.75 -0.03125 1.875 -0.015625 2.34375 0 L 2.34375 -0.28125 C 1.75 -0.28125 1.65625 -0.28125 1.65625 -0.6875 L 1.65625 -2.3125 C 1.65625 -3.25 2.328125 -3.71875 2.890625 -3.71875 C 3.421875 -3.71875 3.53125 -3.28125 3.53125 -2.75 L 3.53125 -0.6875 C 3.53125 -0.28125 3.4375 -0.28125 2.84375 -0.28125 L 2.84375 0 C 3.265625 -0.015625 3.4375 -0.03125 3.859375 -0.03125 C 4.296875 -0.03125 4.40625 -0.015625 4.875 0 L 4.875 -0.28125 C 4.421875 -0.28125 4.203125 -0.28125 4.1875 -0.546875 L 4.1875 -2.265625 C 4.1875 -3 4.1875 -3.265625 3.9375 -3.578125 C 3.734375 -3.828125 3.40625 -3.9375 2.953125 -3.9375 C 2.359375 -3.9375 1.921875 -3.625 1.640625 -3.125 L 1.625 -3.125 Z M 1.625 -6.1875 "/>
</g>
<g id="glyph-3-6">
<path d="M 3.5625 -2.046875 C 3.765625 -2.046875 3.8125 -2.046875 3.8125 -2.234375 C 3.8125 -3.15625 3.3125 -4 2.171875 -4 C 1.09375 -4 0.265625 -3.0625 0.265625 -1.96875 C 0.265625 -0.796875 1.203125 0.09375 2.28125 0.09375 C 3.375 0.09375 3.8125 -0.859375 3.8125 -1.0625 C 3.8125 -1.125 3.765625 -1.171875 3.6875 -1.171875 C 3.59375 -1.171875 3.5625 -1.109375 3.5625 -1.078125 C 3.25 -0.171875 2.46875 -0.15625 2.328125 -0.15625 C 1.90625 -0.15625 1.53125 -0.390625 1.328125 -0.703125 C 1.03125 -1.140625 1.03125 -1.671875 1.03125 -2.046875 Z M 1.03125 -2.25 C 1.109375 -3.625 1.921875 -3.78125 2.171875 -3.78125 C 2.65625 -3.78125 3.1875 -3.40625 3.203125 -2.25 Z M 1.03125 -2.25 "/>
</g>
<g id="glyph-3-7">
<path d="M 3.0625 -3.765625 C 3.0625 -3.921875 3.0625 -4 2.96875 -4 C 2.921875 -4 2.90625 -4 2.78125 -3.890625 C 2.765625 -3.875 2.6875 -3.796875 2.625 -3.75 C 2.359375 -3.9375 2.078125 -4 1.78125 -4 C 0.59375 -4 0.296875 -3.34375 0.296875 -2.890625 C 0.296875 -2.609375 0.421875 -2.375 0.640625 -2.171875 C 0.9375 -1.90625 1.28125 -1.84375 1.734375 -1.75 C 2.1875 -1.671875 2.34375 -1.640625 2.53125 -1.484375 C 2.625 -1.421875 2.84375 -1.25 2.84375 -0.90625 C 2.84375 -0.125 1.9375 -0.125 1.8125 -0.125 C 0.90625 -0.125 0.671875 -0.890625 0.578125 -1.359375 C 0.546875 -1.453125 0.53125 -1.5 0.421875 -1.5 C 0.296875 -1.5 0.296875 -1.4375 0.296875 -1.28125 L 0.296875 -0.140625 C 0.296875 0.015625 0.296875 0.09375 0.40625 0.09375 C 0.46875 0.09375 0.46875 0.09375 0.640625 -0.078125 C 0.671875 -0.140625 0.765625 -0.25 0.8125 -0.296875 C 1.1875 0.078125 1.59375 0.09375 1.8125 0.09375 C 2.921875 0.09375 3.296875 -0.546875 3.296875 -1.140625 C 3.296875 -1.546875 3.125 -1.78125 2.921875 -1.984375 C 2.625 -2.28125 2.296875 -2.34375 1.640625 -2.46875 C 1.40625 -2.515625 0.765625 -2.625 0.765625 -3.140625 C 0.765625 -3.421875 0.96875 -3.796875 1.78125 -3.796875 C 2.734375 -3.796875 2.796875 -3.0625 2.8125 -2.84375 C 2.828125 -2.734375 2.828125 -2.671875 2.9375 -2.671875 C 3.0625 -2.671875 3.0625 -2.734375 3.0625 -2.90625 Z M 3.0625 -3.765625 "/>
</g>
<g id="glyph-3-8">
<path d="M 3.5625 -3.15625 C 3.15625 -3.859375 2.640625 -3.9375 2.328125 -3.9375 C 1.28125 -3.9375 0.296875 -3.09375 0.296875 -1.921875 C 0.296875 -0.78125 1.21875 0.09375 2.25 0.09375 C 2.625 0.09375 3.09375 -0.03125 3.46875 -0.53125 L 3.46875 1.046875 C 3.46875 1.453125 3.375 1.453125 2.78125 1.453125 L 2.78125 1.734375 C 3.203125 1.71875 3.375 1.703125 3.796875 1.703125 C 4.234375 1.703125 4.34375 1.71875 4.8125 1.734375 L 4.8125 1.453125 C 4.234375 1.453125 4.125 1.453125 4.125 1.046875 L 4.125 -3.9375 L 3.90625 -3.9375 Z M 3.5 -1.234375 C 3.5 -1.078125 3.5 -1.03125 3.359375 -0.796875 C 3.140625 -0.40625 2.765625 -0.125 2.296875 -0.125 C 1.625 -0.125 1.078125 -0.90625 1.078125 -1.921875 C 1.078125 -2.953125 1.703125 -3.6875 2.390625 -3.6875 C 3.09375 -3.6875 3.5 -2.953125 3.5 -2.46875 Z M 3.5 -1.234375 "/>
</g>
<g id="glyph-3-9">
<path d="M 3.53125 -1.484375 C 3.53125 -0.703125 3.09375 -0.125 2.4375 -0.125 C 1.703125 -0.125 1.65625 -0.515625 1.65625 -0.984375 L 1.65625 -3.9375 L 0.3125 -3.84375 L 0.3125 -3.5625 C 1 -3.5625 1 -3.546875 1 -2.75 L 1 -1.40625 C 1 -0.828125 1 -0.453125 1.40625 -0.140625 C 1.671875 0.03125 2.03125 0.09375 2.390625 0.09375 C 2.859375 0.09375 3.296875 -0.109375 3.546875 -0.640625 L 3.5625 -0.640625 L 3.5625 0.09375 L 4.875 0 L 4.875 -0.28125 C 4.28125 -0.28125 4.1875 -0.34375 4.1875 -0.78125 L 4.1875 -3.9375 L 2.84375 -3.84375 L 2.84375 -3.5625 C 3.453125 -3.5625 3.53125 -3.5 3.53125 -3.0625 Z M 3.53125 -1.484375 "/>
</g>
<g id="glyph-3-10">
<path d="M 3.046875 -0.640625 C 3.09375 -0.265625 3.359375 0.046875 3.734375 0.046875 C 3.96875 0.046875 4.515625 -0.078125 4.515625 -0.796875 L 4.515625 -1.296875 L 4.28125 -1.296875 L 4.28125 -0.796875 C 4.28125 -0.703125 4.28125 -0.265625 3.953125 -0.265625 C 3.625 -0.265625 3.625 -0.6875 3.625 -0.828125 L 3.625 -2.390625 C 3.625 -2.90625 3.625 -3.203125 3.234375 -3.5625 C 2.90625 -3.859375 2.46875 -4 2.03125 -4 C 1.28125 -4 0.65625 -3.625 0.65625 -3.046875 C 0.65625 -2.78125 0.84375 -2.625 1.078125 -2.625 C 1.3125 -2.625 1.484375 -2.796875 1.484375 -3.03125 C 1.484375 -3.421875 1.09375 -3.46875 1.078125 -3.46875 C 1.328125 -3.6875 1.75 -3.78125 2 -3.78125 C 2.46875 -3.78125 2.96875 -3.4375 2.96875 -2.65625 L 2.96875 -2.359375 C 2.484375 -2.34375 1.8125 -2.296875 1.21875 -2 C 0.578125 -1.6875 0.390625 -1.234375 0.390625 -0.875 C 0.390625 -0.140625 1.25 0.09375 1.84375 0.09375 C 2.59375 0.09375 2.921875 -0.390625 3.046875 -0.640625 Z M 2.96875 -1.265625 C 2.96875 -0.390625 2.296875 -0.125 1.90625 -0.125 C 1.484375 -0.125 1.09375 -0.421875 1.09375 -0.875 C 1.09375 -1.46875 1.609375 -2.09375 2.96875 -2.140625 Z M 2.96875 -1.265625 "/>
</g>
<g id="glyph-3-11">
<path d="M 1.59375 -2.046875 C 1.59375 -2.40625 1.6875 -3.71875 2.703125 -3.71875 C 2.6875 -3.703125 2.546875 -3.59375 2.546875 -3.375 C 2.546875 -3.140625 2.734375 -2.984375 2.9375 -2.984375 C 3.125 -2.984375 3.328125 -3.125 3.328125 -3.390625 C 3.328125 -3.671875 3.0625 -3.9375 2.65625 -3.9375 C 2.125 -3.9375 1.75 -3.5625 1.546875 -3.015625 L 1.53125 -3.015625 L 1.53125 -3.9375 L 0.265625 -3.84375 L 0.265625 -3.5625 C 0.875 -3.5625 0.953125 -3.5 0.953125 -3.0625 L 0.953125 -0.6875 C 0.953125 -0.28125 0.859375 -0.28125 0.265625 -0.28125 L 0.265625 0 C 0.734375 -0.015625 0.859375 -0.03125 1.3125 -0.03125 C 1.671875 -0.03125 1.875 -0.015625 2.4375 0 L 2.4375 -0.28125 L 2.265625 -0.28125 C 1.609375 -0.28125 1.59375 -0.375 1.59375 -0.703125 Z M 1.59375 -2.046875 "/>
</g>
<g id="glyph-3-12">
<path d="M 3.46875 -1.078125 C 3.46875 -0.90625 3.46875 -0.890625 3.34375 -0.703125 C 3.0625 -0.296875 2.65625 -0.125 2.296875 -0.125 C 1.90625 -0.125 1.546875 -0.34375 1.328125 -0.71875 C 1.09375 -1.09375 1.078125 -1.625 1.078125 -1.90625 C 1.078125 -2.328125 1.125 -2.796875 1.359375 -3.15625 C 1.546875 -3.4375 1.921875 -3.71875 2.390625 -3.71875 C 2.765625 -3.71875 3.125 -3.53125 3.359375 -3.1875 C 3.46875 -3.046875 3.46875 -3.046875 3.46875 -2.875 Z M 3.5 -3.421875 C 3.453125 -3.46875 3.046875 -3.9375 2.359375 -3.9375 C 1.265625 -3.9375 0.296875 -3.0625 0.296875 -1.921875 C 0.296875 -0.796875 1.203125 0.09375 2.25 0.09375 C 2.90625 0.09375 3.3125 -0.28125 3.46875 -0.46875 L 3.46875 0.09375 L 4.8125 0 L 4.8125 -0.28125 C 4.21875 -0.28125 4.125 -0.34375 4.125 -0.78125 L 4.125 -6.1875 L 2.8125 -6.09375 L 2.8125 -5.8125 C 3.421875 -5.8125 3.5 -5.75 3.5 -5.3125 Z M 3.5 -3.421875 "/>
</g>
<g id="glyph-3-13">
<path d="M 1.640625 -3.9375 L 0.359375 -3.84375 L 0.359375 -3.5625 C 0.921875 -3.5625 1.015625 -3.515625 1.015625 -3.078125 L 1.015625 -0.6875 C 1.015625 -0.28125 0.90625 -0.28125 0.328125 -0.28125 L 0.328125 0 C 0.71875 -0.015625 0.90625 -0.03125 1.296875 -0.03125 C 1.453125 -0.03125 1.8125 -0.03125 2.25 0 L 2.25 -0.28125 C 1.671875 -0.28125 1.640625 -0.328125 1.640625 -0.671875 Z M 1.671875 -5.5 C 1.671875 -5.765625 1.453125 -5.984375 1.1875 -5.984375 C 0.90625 -5.984375 0.703125 -5.75 0.703125 -5.5 C 0.703125 -5.234375 0.90625 -5.015625 1.1875 -5.015625 C 1.453125 -5.015625 1.671875 -5.234375 1.671875 -5.5 Z M 1.671875 -5.5 "/>
</g>
<g id="glyph-3-14">
<path d="M 3.25 -3.5 C 3.0625 -3.46875 2.875 -3.34375 2.875 -3.09375 C 2.875 -2.859375 3.0625 -2.671875 3.296875 -2.671875 C 3.53125 -2.671875 3.71875 -2.828125 3.71875 -3.109375 C 3.71875 -3.65625 3.09375 -4 2.296875 -4 C 1.15625 -4 0.296875 -3.046875 0.296875 -1.921875 C 0.296875 -0.78125 1.234375 0.09375 2.28125 0.09375 C 3.53125 0.09375 3.8125 -0.984375 3.8125 -1.0625 C 3.8125 -1.171875 3.71875 -1.171875 3.6875 -1.171875 C 3.59375 -1.171875 3.59375 -1.15625 3.53125 -1 C 3.328125 -0.390625 2.828125 -0.15625 2.375 -0.15625 C 1.796875 -0.15625 1.078125 -0.609375 1.078125 -1.9375 C 1.078125 -3.328125 1.78125 -3.75 2.3125 -3.75 C 2.4375 -3.75 2.921875 -3.734375 3.25 -3.5 Z M 3.25 -3.5 "/>
</g>
<g id="glyph-3-15">
<path d="M 1.65625 -2.3125 C 1.65625 -3.28125 2.359375 -3.71875 2.890625 -3.71875 C 3.375 -3.71875 3.546875 -3.375 3.546875 -2.75 L 3.546875 -0.6875 C 3.546875 -0.28125 3.4375 -0.28125 2.859375 -0.28125 L 2.859375 0 C 3.28125 -0.015625 3.4375 -0.03125 3.875 -0.03125 C 4.296875 -0.03125 4.421875 -0.015625 4.890625 0 L 4.890625 -0.28125 C 4.296875 -0.28125 4.203125 -0.28125 4.203125 -0.6875 L 4.203125 -2.3125 C 4.203125 -3.28125 4.890625 -3.71875 5.4375 -3.71875 C 5.921875 -3.71875 6.078125 -3.375 6.078125 -2.75 L 6.078125 -0.6875 C 6.078125 -0.28125 5.984375 -0.28125 5.390625 -0.28125 L 5.390625 0 C 5.8125 -0.015625 5.984375 -0.03125 6.421875 -0.03125 C 6.84375 -0.03125 6.953125 -0.015625 7.4375 0 L 7.4375 -0.28125 C 6.984375 -0.28125 6.75 -0.28125 6.75 -0.546875 L 6.75 -2.265625 C 6.75 -3.046875 6.75 -3.296875 6.453125 -3.625 C 6.265625 -3.84375 5.90625 -3.9375 5.5 -3.9375 C 4.859375 -3.9375 4.421875 -3.5625 4.171875 -3.09375 C 4.0625 -3.625 3.703125 -3.9375 2.953125 -3.9375 C 2.234375 -3.9375 1.796875 -3.484375 1.609375 -3.0625 L 1.609375 -3.9375 L 0.3125 -3.84375 L 0.3125 -3.5625 C 0.921875 -3.5625 1 -3.5 1 -3.0625 L 1 -0.6875 C 1 -0.28125 0.90625 -0.28125 0.3125 -0.28125 L 0.3125 0 C 0.734375 -0.015625 0.90625 -0.03125 1.328125 -0.03125 C 1.75 -0.03125 1.875 -0.015625 2.34375 0 L 2.34375 -0.28125 C 1.75 -0.28125 1.65625 -0.28125 1.65625 -0.6875 Z M 1.65625 -2.3125 "/>
</g>
<g id="glyph-3-16">
<path d="M 4.3125 -1.90625 C 4.3125 -3.0625 3.390625 -4 2.296875 -4 C 1.15625 -4 0.265625 -3.046875 0.265625 -1.90625 C 0.265625 -0.78125 1.1875 0.09375 2.28125 0.09375 C 3.421875 0.09375 4.3125 -0.796875 4.3125 -1.90625 Z M 2.296875 -0.15625 C 1.84375 -0.15625 1.46875 -0.375 1.265625 -0.71875 C 1.03125 -1.09375 1.03125 -1.5625 1.03125 -1.984375 C 1.03125 -2.3125 1.03125 -2.8125 1.25 -3.1875 C 1.515625 -3.640625 1.96875 -3.78125 2.28125 -3.78125 C 2.796875 -3.78125 3.15625 -3.484375 3.34375 -3.1875 C 3.546875 -2.8125 3.546875 -2.359375 3.546875 -1.984375 C 3.546875 -1.65625 3.546875 -1.140625 3.328125 -0.734375 C 3.078125 -0.328125 2.671875 -0.15625 2.296875 -0.15625 Z M 2.296875 -0.15625 "/>
</g>
<g id="glyph-3-17">
<path d="M 1.65625 -2.3125 C 1.65625 -3.25 2.328125 -3.71875 2.890625 -3.71875 C 3.421875 -3.71875 3.53125 -3.28125 3.53125 -2.75 L 3.53125 -0.6875 C 3.53125 -0.28125 3.4375 -0.28125 2.84375 -0.28125 L 2.84375 0 C 3.265625 -0.015625 3.4375 -0.03125 3.859375 -0.03125 C 4.296875 -0.03125 4.40625 -0.015625 4.875 0 L 4.875 -0.28125 C 4.421875 -0.28125 4.203125 -0.28125 4.1875 -0.546875 L 4.1875 -2.265625 C 4.1875 -3 4.1875 -3.265625 3.9375 -3.578125 C 3.734375 -3.828125 3.40625 -3.9375 2.953125 -3.9375 C 2.125 -3.9375 1.734375 -3.328125 1.609375 -3.078125 L 1.609375 -3.9375 L 0.3125 -3.84375 L 0.3125 -3.5625 C 0.921875 -3.5625 1 -3.5 1 -3.0625 L 1 -0.6875 C 1 -0.28125 0.90625 -0.28125 0.3125 -0.28125 L 0.3125 0 C 0.734375 -0.015625 0.90625 -0.03125 1.328125 -0.03125 C 1.75 -0.03125 1.875 -0.015625 2.34375 0 L 2.34375 -0.28125 C 1.75 -0.28125 1.65625 -0.28125 1.65625 -0.6875 Z M 1.65625 -2.3125 "/>
</g>
<g id="glyph-3-18">
<path d="M 6.109375 -6.046875 L 0.515625 -6.046875 L 0.328125 -4.03125 L 0.578125 -4.03125 C 0.703125 -5.5 0.890625 -5.765625 2.21875 -5.765625 C 2.390625 -5.765625 2.65625 -5.765625 2.734375 -5.75 C 2.90625 -5.703125 2.90625 -5.625 2.90625 -5.390625 L 2.90625 -0.71875 C 2.90625 -0.40625 2.90625 -0.28125 1.96875 -0.28125 L 1.625 -0.28125 L 1.625 0 C 1.9375 -0.03125 2.921875 -0.03125 3.3125 -0.03125 C 3.6875 -0.03125 4.671875 -0.03125 5 0 L 5 -0.28125 L 4.640625 -0.28125 C 3.71875 -0.28125 3.71875 -0.40625 3.71875 -0.71875 L 3.71875 -5.390625 C 3.71875 -5.625 3.71875 -5.703125 3.90625 -5.75 C 3.984375 -5.765625 4.234375 -5.765625 4.390625 -5.765625 C 5.734375 -5.765625 5.90625 -5.5 6.03125 -4.03125 L 6.28125 -4.03125 Z M 6.109375 -6.046875 "/>
</g>
<g id="glyph-3-19">
<path d="M 1.640625 -6.1875 L 0.328125 -6.09375 L 0.328125 -5.8125 C 0.921875 -5.8125 1.015625 -5.75 1.015625 -5.3125 L 1.015625 -0.6875 C 1.015625 -0.28125 0.90625 -0.28125 0.328125 -0.28125 L 0.328125 0 C 0.734375 -0.015625 0.90625 -0.03125 1.328125 -0.03125 C 1.734375 -0.03125 1.890625 -0.015625 2.328125 0 L 2.328125 -0.28125 C 1.734375 -0.28125 1.640625 -0.28125 1.640625 -0.6875 Z M 1.640625 -6.1875 "/>
</g>
<g id="glyph-3-20">
<path d="M 1.609375 -2.84375 C 1.609375 -3.015625 1.609375 -3.03125 1.71875 -3.171875 C 2.015625 -3.578125 2.453125 -3.71875 2.796875 -3.71875 C 3.171875 -3.71875 3.53125 -3.5 3.765625 -3.125 C 4 -2.75 4.015625 -2.21875 4.015625 -1.9375 C 4.015625 -1.515625 3.96875 -1.046875 3.734375 -0.6875 C 3.53125 -0.40625 3.171875 -0.125 2.6875 -0.125 C 2.296875 -0.125 1.953125 -0.34375 1.734375 -0.671875 C 1.609375 -0.859375 1.609375 -0.859375 1.609375 -1.03125 Z M 1.53125 -0.546875 C 1.8125 -0.15625 2.25 0.09375 2.734375 0.09375 C 3.796875 0.09375 4.78125 -0.765625 4.78125 -1.921875 C 4.78125 -3.046875 3.90625 -3.9375 2.828125 -3.9375 C 2.21875 -3.9375 1.796875 -3.625 1.59375 -3.390625 L 1.59375 -6.1875 L 0.265625 -6.09375 L 0.265625 -5.8125 C 0.875 -5.8125 0.953125 -5.75 0.953125 -5.3125 L 0.953125 0 L 1.203125 0 Z M 1.53125 -0.546875 "/>
</g>
<g id="glyph-3-21">
<path d="M 2.671875 -3.5625 L 2.671875 -3.84375 L 1.609375 -3.84375 L 1.609375 -4.859375 C 1.609375 -5.671875 2.046875 -6.0625 2.4375 -6.0625 C 2.53125 -6.0625 2.609375 -6.046875 2.703125 -6.015625 C 2.609375 -5.984375 2.46875 -5.875 2.46875 -5.640625 C 2.46875 -5.421875 2.640625 -5.25 2.859375 -5.25 C 3.109375 -5.25 3.265625 -5.421875 3.265625 -5.65625 C 3.265625 -6 2.921875 -6.296875 2.4375 -6.296875 C 1.734375 -6.296875 1.015625 -5.765625 1.015625 -4.875 L 1.015625 -3.84375 L 0.296875 -3.84375 L 0.296875 -3.5625 L 1.015625 -3.5625 L 1.015625 -0.6875 C 1.015625 -0.28125 0.90625 -0.28125 0.328125 -0.28125 L 0.328125 0 C 0.796875 -0.015625 0.90625 -0.03125 1.359375 -0.03125 C 1.71875 -0.03125 1.9375 -0.015625 2.5 0 L 2.5 -0.28125 L 2.3125 -0.28125 C 1.671875 -0.28125 1.640625 -0.375 1.640625 -0.703125 L 1.640625 -3.5625 Z M 2.671875 -3.5625 "/>
</g>
<g id="glyph-3-22">
<path d="M 1.75 -0.484375 C 1.75 -0.734375 1.53125 -0.96875 1.265625 -0.96875 C 1 -0.96875 0.78125 -0.734375 0.78125 -0.484375 C 0.78125 -0.21875 1 0 1.265625 0 C 1.53125 0 1.75 -0.21875 1.75 -0.484375 Z M 1.75 -0.484375 "/>
</g>
<g id="glyph-3-23">
<path d="M 3.65625 -6.203125 C 3.609375 -6.3125 3.578125 -6.390625 3.4375 -6.390625 C 3.296875 -6.390625 3.28125 -6.328125 3.21875 -6.1875 L 1.296875 -0.890625 C 1.203125 -0.59375 0.984375 -0.28125 0.296875 -0.28125 L 0.296875 0 C 0.640625 -0.03125 0.890625 -0.03125 1.21875 -0.03125 C 1.53125 -0.03125 1.71875 -0.015625 2.21875 0 L 2.21875 -0.28125 C 1.71875 -0.28125 1.5625 -0.5625 1.5625 -0.734375 C 1.5625 -0.8125 1.578125 -0.859375 1.59375 -0.90625 L 2.015625 -2.046875 L 4.328125 -2.046875 L 4.8125 -0.703125 C 4.84375 -0.609375 4.859375 -0.59375 4.859375 -0.546875 C 4.859375 -0.28125 4.359375 -0.28125 4.125 -0.28125 L 4.125 0 C 4.515625 -0.03125 4.984375 -0.03125 5.390625 -0.03125 C 5.796875 -0.03125 5.828125 -0.03125 6.5625 0 L 6.5625 -0.28125 L 6.421875 -0.28125 C 5.859375 -0.28125 5.765625 -0.359375 5.671875 -0.609375 Z M 4.21875 -2.328125 L 2.109375 -2.328125 L 3.171875 -5.25 Z M 4.21875 -2.328125 "/>
</g>
<g id="glyph-3-24">
<path d="M 1.109375 -1.59375 C 1.34375 -1.453125 1.609375 -1.328125 2.03125 -1.328125 C 2.875 -1.328125 3.515625 -1.921875 3.515625 -2.625 C 3.515625 -3.0625 3.265625 -3.375 3.15625 -3.5 C 3.5 -3.8125 3.921875 -3.8125 4.03125 -3.8125 C 3.984375 -3.796875 3.921875 -3.75 3.921875 -3.59375 C 3.921875 -3.484375 3.984375 -3.3125 4.1875 -3.3125 C 4.3125 -3.3125 4.453125 -3.40625 4.453125 -3.59375 C 4.453125 -3.765625 4.328125 -4.046875 3.96875 -4.046875 C 3.71875 -4.046875 3.3125 -3.9375 3 -3.625 C 2.75 -3.8125 2.40625 -3.9375 2.03125 -3.9375 C 1.1875 -3.9375 0.546875 -3.34375 0.546875 -2.625 C 0.546875 -2.171875 0.8125 -1.859375 0.953125 -1.71875 C 0.9375 -1.703125 0.6875 -1.390625 0.6875 -0.984375 C 0.6875 -0.671875 0.828125 -0.359375 1.078125 -0.203125 C 0.609375 -0.046875 0.265625 0.28125 0.265625 0.703125 C 0.265625 1.328125 1.140625 1.84375 2.28125 1.84375 C 3.375 1.84375 4.3125 1.359375 4.3125 0.671875 C 4.3125 0.3125 4.15625 -0.078125 3.8125 -0.296875 C 3.3125 -0.609375 2.796875 -0.609375 1.953125 -0.609375 C 1.78125 -0.609375 1.484375 -0.609375 1.421875 -0.625 C 1.15625 -0.671875 0.984375 -0.921875 0.984375 -1.203125 C 0.984375 -1.34375 1.03125 -1.484375 1.109375 -1.59375 Z M 2.03125 -1.5625 C 1.234375 -1.5625 1.234375 -2.4375 1.234375 -2.625 C 1.234375 -2.875 1.25 -3.171875 1.40625 -3.390625 C 1.53125 -3.5625 1.78125 -3.703125 2.03125 -3.703125 C 2.828125 -3.703125 2.828125 -2.84375 2.828125 -2.625 C 2.828125 -2.421875 2.828125 -1.5625 2.03125 -1.5625 Z M 2.4375 -0.046875 C 2.71875 -0.046875 3.8125 -0.03125 3.8125 0.6875 C 3.8125 1.203125 3.125 1.59375 2.296875 1.59375 C 1.421875 1.59375 0.765625 1.171875 0.765625 0.6875 C 0.765625 0.546875 0.84375 -0.046875 1.609375 -0.046875 Z M 2.4375 -0.046875 "/>
</g>
<g id="glyph-3-25">
<path d="M 1.75 -3.359375 C 1.75 -3.625 1.53125 -3.84375 1.265625 -3.84375 C 1 -3.84375 0.78125 -3.625 0.78125 -3.359375 C 0.78125 -3.109375 1 -2.875 1.265625 -2.875 C 1.53125 -2.875 1.75 -3.109375 1.75 -3.359375 Z M 1.75 -0.484375 C 1.75 -0.734375 1.53125 -0.96875 1.265625 -0.96875 C 1 -0.96875 0.78125 -0.734375 0.78125 -0.484375 C 0.78125 -0.21875 1 0 1.265625 0 C 1.53125 0 1.75 -0.21875 1.75 -0.484375 Z M 1.75 -0.484375 "/>
</g>
<g id="glyph-3-26">
<path d="M 1.625 -3.15625 C 1.5625 -3.28125 1.5625 -3.3125 1.5625 -3.34375 C 1.5625 -3.5625 1.875 -3.5625 2.0625 -3.5625 L 2.0625 -3.84375 C 1.625 -3.828125 1.453125 -3.8125 1.078125 -3.8125 C 1.046875 -3.8125 0.53125 -3.8125 0.1875 -3.84375 L 0.1875 -3.5625 C 0.59375 -3.5625 0.765625 -3.546875 0.859375 -3.3125 L 2.28125 0 L 2.046875 0.53125 C 1.859375 1 1.59375 1.609375 1.015625 1.609375 C 0.796875 1.609375 0.640625 1.484375 0.609375 1.46875 C 0.6875 1.46875 0.9375 1.390625 0.9375 1.09375 C 0.9375 0.859375 0.765625 0.71875 0.5625 0.71875 C 0.34375 0.71875 0.171875 0.859375 0.171875 1.09375 C 0.171875 1.5 0.546875 1.828125 1.015625 1.828125 C 1.59375 1.828125 1.984375 1.3125 2.1875 0.828125 L 3.8125 -2.953125 C 3.90625 -3.1875 4.0625 -3.546875 4.640625 -3.5625 L 4.640625 -3.84375 C 4.359375 -3.8125 4.078125 -3.8125 3.96875 -3.8125 C 3.71875 -3.8125 3.4375 -3.828125 3.1875 -3.84375 L 3.1875 -3.5625 C 3.59375 -3.546875 3.59375 -3.234375 3.59375 -3.1875 C 3.59375 -3.09375 3.5625 -3 3.53125 -2.9375 L 2.625 -0.8125 Z M 1.625 -3.15625 "/>
</g>
<g id="glyph-3-27">
<path d="M 2.71875 -2 C 2.65625 -2.09375 2.65625 -2.09375 2.65625 -2.109375 C 2.65625 -2.125 3.359375 -2.96875 3.421875 -3.046875 C 3.703125 -3.34375 4 -3.5625 4.546875 -3.5625 L 4.546875 -3.84375 C 4.296875 -3.8125 4.046875 -3.8125 3.796875 -3.8125 C 3.453125 -3.8125 3.296875 -3.8125 2.9375 -3.84375 L 2.9375 -3.5625 C 3.0625 -3.546875 3.1875 -3.484375 3.1875 -3.296875 C 3.1875 -3.15625 3.109375 -3.0625 3.0625 -3 L 2.484375 -2.296875 L 1.796875 -3.1875 C 1.734375 -3.265625 1.71875 -3.28125 1.71875 -3.34375 C 1.71875 -3.453125 1.8125 -3.5625 2.015625 -3.5625 L 2.015625 -3.84375 C 1.671875 -3.828125 1.453125 -3.8125 1.046875 -3.8125 C 1.03125 -3.8125 0.515625 -3.8125 0.171875 -3.84375 L 0.171875 -3.5625 C 0.78125 -3.5625 0.796875 -3.546875 1.21875 -3.03125 L 2.125 -1.875 C 1.9375 -1.640625 1.46875 -1.046875 1.265625 -0.828125 C 0.828125 -0.296875 0.3125 -0.28125 0.125 -0.28125 L 0.125 0 C 0.390625 -0.03125 0.625 -0.03125 0.890625 -0.03125 C 1.171875 -0.03125 1.453125 -0.015625 1.734375 0 L 1.734375 -0.28125 C 1.515625 -0.296875 1.484375 -0.453125 1.484375 -0.546875 C 1.484375 -0.578125 1.484375 -0.703125 1.625 -0.859375 C 1.84375 -1.140625 2.0625 -1.40625 2.296875 -1.671875 L 3 -0.765625 C 3.171875 -0.578125 3.171875 -0.546875 3.171875 -0.5 C 3.171875 -0.40625 3.078125 -0.28125 2.859375 -0.28125 L 2.859375 0 C 3.234375 -0.015625 3.453125 -0.03125 3.84375 -0.03125 C 3.859375 -0.03125 4.359375 -0.03125 4.703125 0 L 4.703125 -0.28125 C 4.359375 -0.28125 4.09375 -0.28125 3.890625 -0.53125 Z M 2.71875 -2 "/>
</g>
<g id="glyph-4-0">
<path d="M 3.46875 -1.875 C 2.84375 -2.546875 2.21875 -2.625 1.90625 -2.625 C 1.125 -2.625 0.546875 -2.015625 0.546875 -1.28125 C 0.546875 -0.578125 1.09375 0.0625 1.875 0.0625 C 2.609375 0.0625 3.21875 -0.421875 3.578125 -0.921875 L 3.796875 -0.6875 C 4.421875 -0.015625 5.046875 0.0625 5.375 0.0625 C 6.140625 0.0625 6.71875 -0.546875 6.71875 -1.28125 C 6.71875 -1.984375 6.171875 -2.625 5.390625 -2.625 C 4.65625 -2.625 4.046875 -2.140625 3.6875 -1.640625 Z M 3.890625 -1.40625 C 4.234375 -1.875 4.734375 -2.375 5.4375 -2.375 C 6.078125 -2.375 6.515625 -1.84375 6.515625 -1.28125 C 6.515625 -0.703125 6.015625 -0.296875 5.46875 -0.296875 C 5 -0.296875 4.59375 -0.578125 3.890625 -1.40625 Z M 3.375 -1.15625 C 3.03125 -0.6875 2.53125 -0.203125 1.828125 -0.203125 C 1.1875 -0.203125 0.75 -0.71875 0.75 -1.28125 C 0.75 -1.859375 1.25 -2.265625 1.796875 -2.265625 C 2.265625 -2.265625 2.671875 -1.984375 3.375 -1.15625 Z M 3.375 -1.15625 "/>
</g>
<g id="glyph-5-0">
<path d="M 2.390625 -2.796875 L 2.71875 -2.796875 L 4.046875 -0.734375 C 4.140625 -0.59375 4.359375 -0.234375 4.453125 -0.109375 C 4.515625 0 4.546875 0 4.75 0 L 5.984375 0 C 6.140625 0 6.265625 0 6.265625 -0.15625 C 6.265625 -0.234375 6.21875 -0.296875 6.140625 -0.3125 C 5.8125 -0.390625 5.375 -0.96875 5.15625 -1.265625 C 5.09375 -1.34375 4.640625 -1.9375 4.046875 -2.90625 C 4.84375 -3.046875 5.609375 -3.375 5.609375 -4.4375 C 5.609375 -5.6875 4.296875 -6.109375 3.25 -6.109375 L 0.453125 -6.109375 C 0.28125 -6.109375 0.140625 -6.109375 0.140625 -5.953125 C 0.140625 -5.796875 0.3125 -5.796875 0.390625 -5.796875 C 0.890625 -5.796875 0.9375 -5.734375 0.9375 -5.296875 L 0.9375 -0.828125 C 0.9375 -0.375 0.890625 -0.3125 0.390625 -0.3125 C 0.3125 -0.3125 0.140625 -0.3125 0.140625 -0.15625 C 0.140625 0 0.28125 0 0.453125 0 L 2.890625 0 C 3.046875 0 3.1875 0 3.1875 -0.15625 C 3.1875 -0.3125 3.03125 -0.3125 2.9375 -0.3125 C 2.421875 -0.3125 2.390625 -0.390625 2.390625 -0.828125 Z M 4.109375 -3.234375 C 4.359375 -3.5625 4.390625 -4.046875 4.390625 -4.4375 C 4.390625 -4.859375 4.34375 -5.328125 4.046875 -5.703125 C 4.421875 -5.625 5.296875 -5.34375 5.296875 -4.4375 C 5.296875 -3.859375 5.03125 -3.40625 4.109375 -3.234375 Z M 2.390625 -5.3125 C 2.390625 -5.5 2.390625 -5.796875 2.9375 -5.796875 C 3.703125 -5.796875 4.078125 -5.484375 4.078125 -4.4375 C 4.078125 -3.28125 3.796875 -3.109375 2.390625 -3.109375 Z M 1.171875 -0.3125 C 1.25 -0.46875 1.25 -0.71875 1.25 -0.796875 L 1.25 -5.3125 C 1.25 -5.390625 1.25 -5.640625 1.171875 -5.796875 L 2.1875 -5.796875 C 2.078125 -5.65625 2.078125 -5.484375 2.078125 -5.34375 L 2.078125 -0.796875 C 2.078125 -0.71875 2.078125 -0.46875 2.15625 -0.3125 Z M 3.078125 -2.796875 C 3.140625 -2.8125 3.171875 -2.8125 3.25 -2.8125 C 3.375 -2.8125 3.578125 -2.84375 3.71875 -2.859375 C 3.84375 -2.640625 4.8125 -1.046875 5.546875 -0.3125 L 4.6875 -0.3125 Z M 3.078125 -2.796875 "/>
</g>
<g id="glyph-6-0">
<path d="M 6.015625 -5.4375 C 6.1875 -5.4375 6.359375 -5.4375 6.359375 -5.625 C 6.359375 -5.8125 6.171875 -5.8125 6.015625 -5.8125 L 3.5625 -5.8125 C 2 -5.8125 0.765625 -4.578125 0.765625 -3.125 C 0.765625 -1.640625 2.015625 -0.4375 3.5625 -0.4375 L 6.015625 -0.4375 C 6.1875 -0.4375 6.359375 -0.4375 6.359375 -0.640625 C 6.359375 -0.828125 6.171875 -0.828125 6.015625 -0.828125 L 3.59375 -0.828125 C 2.15625 -0.828125 1.15625 -1.921875 1.15625 -3.125 C 1.15625 -4.359375 2.171875 -5.4375 3.59375 -5.4375 Z M 1.28125 0.984375 C 1.15625 0.984375 0.96875 0.984375 0.96875 1.171875 C 0.96875 1.375 1.140625 1.375 1.28125 1.375 L 6.015625 1.375 C 6.1875 1.375 6.359375 1.375 6.359375 1.171875 C 6.359375 0.984375 6.171875 0.984375 6.015625 0.984375 Z M 1.28125 0.984375 "/>
</g>
<g id="glyph-6-1">
<path d="M 1.5625 -6.375 C 1.5625 -6.515625 1.5625 -6.6875 1.390625 -6.6875 C 1.1875 -6.6875 1.1875 -6.484375 1.1875 -6.328125 L 1.1875 1.859375 C 1.1875 2.015625 1.1875 2.21875 1.390625 2.21875 C 1.5625 2.21875 1.5625 2.046875 1.5625 1.90625 Z M 3.390625 -6.328125 C 3.390625 -6.484375 3.390625 -6.6875 3.1875 -6.6875 C 3 -6.6875 3 -6.515625 3 -6.375 L 3 1.90625 C 3 2.046875 3 2.21875 3.1875 2.21875 C 3.390625 2.21875 3.390625 2.015625 3.390625 1.859375 Z M 3.390625 -6.328125 "/>
</g>
<g id="glyph-6-2">
<path d="M 6.171875 -5.421875 C 6.25 -5.453125 6.359375 -5.5 6.359375 -5.625 C 6.359375 -5.734375 6.265625 -5.8125 6.171875 -5.8125 C 6.140625 -5.8125 6.109375 -5.8125 6 -5.765625 L 0.953125 -3.34375 C 0.828125 -3.28125 0.765625 -3.234375 0.765625 -3.125 C 0.765625 -3 0.859375 -2.953125 0.953125 -2.921875 L 5.984375 -0.5 C 6.109375 -0.4375 6.140625 -0.4375 6.15625 -0.4375 C 6.296875 -0.4375 6.359375 -0.5625 6.359375 -0.625 C 6.359375 -0.734375 6.28125 -0.78125 6.1875 -0.828125 L 1.40625 -3.125 Z M 6.015625 1.375 C 6.171875 1.375 6.359375 1.375 6.359375 1.1875 C 6.359375 0.984375 6.15625 0.984375 6.015625 0.984375 L 1.09375 0.984375 C 0.96875 0.984375 0.765625 0.984375 0.765625 1.1875 C 0.765625 1.375 0.953125 1.375 1.09375 1.375 Z M 6.015625 1.375 "/>
</g>
</g>
</defs>
<path fill-rule="nonzero" fill="rgb(94.999695%, 94.999695%, 94.999695%)" fill-opacity="1" d="M 35.847656 118.324219 L 35.847656 28.023438 L 126.148438 28.023438 L 126.148438 118.324219 Z M 35.847656 118.324219 "/>
<path fill-rule="nonzero" fill="rgb(85.998535%, 85.998535%, 85.998535%)" fill-opacity="1" d="M 126.148438 73.175781 L 81 28.023438 L 35.847656 73.175781 L 81 118.324219 Z M 126.148438 73.175781 "/>
<path fill="none" stroke-width="0.3985" stroke-linecap="butt" stroke-linejoin="miter" stroke="rgb(50%, 50%, 50%)" stroke-opacity="1" stroke-miterlimit="10" d="M -63.496801 -0.00136338 L 73.076294 -0.00136338 " transform="matrix(0.995489, 0, 0, -0.995489, 80.999437, 73.174424)"/>
<path fill="none" stroke-width="0.3985" stroke-linecap="round" stroke-linejoin="round" stroke="rgb(50%, 50%, 50%)" stroke-opacity="1" stroke-miterlimit="10" d="M -2.07113 2.392246 C -1.694431 0.956081 -0.850782 0.277237 0.000715516 -0.00136338 C -0.850782 -0.279964 -1.694431 -0.954883 -2.07113 -2.391049 " transform="matrix(0.995489, 0, 0, -0.995489, 153.9446, 73.174424)"/>
<g fill="rgb(0%, 0%, 0%)" fill-opacity="1">
<use xlink:href="#glyph-0-0" x="149.476148" y="68.678795"/>
</g>
<g fill="rgb(0%, 0%, 0%)" fill-opacity="1">
<use xlink:href="#glyph-1-0" x="154.676583" y="69.670302"/>
</g>
<path fill="none" stroke-width="0.3985" stroke-linecap="butt" stroke-linejoin="miter" stroke="rgb(50%, 50%, 50%)" stroke-opacity="1" stroke-miterlimit="10" d="M 0.000565213 -63.498729 L 0.000565213 65.367727 " transform="matrix(0.995489, 0, 0, -0.995489, 80.999437, 73.174424)"/>
<path fill="none" stroke-width="0.3985" stroke-linecap="round" stroke-linejoin="round" stroke="rgb(50%, 50%, 50%)" stroke-opacity="1" stroke-miterlimit="10" d="M -2.073351 2.389121 C -1.692728 0.956879 -0.849079 0.278035 -0.00150567 -0.000565213 C -0.849079 -0.279166 -1.692728 -0.958009 -2.073351 -2.390251 " transform="matrix(0, -0.995489, -0.995489, 0, 80.999437, 7.904751)"/>
<g fill="rgb(0%, 0%, 0%)" fill-opacity="1">
<use xlink:href="#glyph-0-0" x="68.1636" y="9.132617"/>
</g>
<g fill="rgb(0%, 0%, 0%)" fill-opacity="1">
<use xlink:href="#glyph-1-1" x="73.36304" y="10.124124"/>
</g>
<path fill="none" stroke-width="1.19553" stroke-linecap="butt" stroke-linejoin="miter" stroke="rgb(0%, 0%, 0%)" stroke-opacity="1" stroke-miterlimit="10" d="M -45.356378 -45.354382 L -45.356378 45.35558 L 45.353584 45.35558 L 45.353584 -45.354382 Z M -45.356378 -45.354382 " transform="matrix(0.995489, 0, 0, -0.995489, 80.999437, 73.174424)"/>
<path fill="none" stroke-width="0.79701" stroke-linecap="butt" stroke-linejoin="miter" stroke="rgb(0%, 0%, 0%)" stroke-opacity="1" stroke-dasharray="2.98883 2.98883" stroke-miterlimit="10" d="M 45.353584 -0.00136338 C 45.353584 25.049136 25.051065 45.35558 0.000565213 45.35558 C -25.049934 45.35558 -45.356378 25.049136 -45.356378 -0.00136338 C -45.356378 -25.047939 -25.049934 -45.354382 0.000565213 -45.354382 C 25.051065 -45.354382 45.353584 -25.047939 45.353584 -0.00136338 Z M 45.353584 -0.00136338 " transform="matrix(0.995489, 0, 0, -0.995489, 80.999437, 73.174424)"/>
<path fill="none" stroke-width="0.79701" stroke-linecap="butt" stroke-linejoin="miter" stroke="rgb(0%, 0%, 0%)" stroke-opacity="1" stroke-dasharray="0.79701 1.99255" stroke-miterlimit="10" d="M 45.353584 -0.00136338 L 0.000565213 45.35558 L -45.356378 -0.00136338 L 0.000565213 -45.354382 Z M 45.353584 -0.00136338 " transform="matrix(0.995489, 0, 0, -0.995489, 80.999437, 73.174424)"/>
<path fill-rule="nonzero" fill="rgb(0%, 0%, 0%)" fill-opacity="1" d="M 127.277344 73.175781 C 127.277344 72.550781 126.773438 72.046875 126.148438 72.046875 C 125.527344 72.046875 125.019531 72.550781 125.019531 73.175781 C 125.019531 73.796875 125.527344 74.304688 126.148438 74.304688 C 126.773438 74.304688 127.277344 73.796875 127.277344 73.175781 Z M 127.277344 73.175781 "/>
<path fill-rule="nonzero" fill="rgb(0%, 0%, 0%)" fill-opacity="1" d="M 127.277344 28.023438 C 127.277344 27.402344 126.773438 26.894531 126.148438 26.894531 C 125.527344 26.894531 125.019531 27.402344 125.019531 28.023438 C 125.019531 28.648438 125.527344 29.152344 126.148438 29.152344 C 126.773438 29.152344 127.277344 28.648438 127.277344 28.023438 Z M 127.277344 28.023438 "/>
<g fill="rgb(0%, 0%, 0%)" fill-opacity="1">
<use xlink:href="#glyph-2-0" x="124.368917" y="85.949536"/>
</g>
<g fill="rgb(0%, 0%, 0%)" fill-opacity="1">
<use xlink:href="#glyph-1-0" x="129.215953" y="86.941043"/>
</g>
<g fill="rgb(0%, 0%, 0%)" fill-opacity="1">
<use xlink:href="#glyph-3-0" x="129.653969" y="22.289002"/>
<use xlink:href="#glyph-3-1" x="133.221672" y="22.289002"/>
</g>
<g fill="rgb(0%, 0%, 0%)" fill-opacity="1">
<use xlink:href="#glyph-0-1" x="137.80802" y="22.289002"/>
</g>
<g fill="rgb(0%, 0%, 0%)" fill-opacity="1">
<use xlink:href="#glyph-3-1" x="141.885544" y="22.289002"/>
<use xlink:href="#glyph-3-2" x="146.472591" y="22.289002"/>
</g>
<path fill="none" stroke-width="1.19553" stroke-linecap="butt" stroke-linejoin="miter" stroke="rgb(0%, 0%, 0%)" stroke-opacity="1" stroke-miterlimit="10" d="M 81.638354 24.947113 L 99.782701 24.947113 " transform="matrix(0.995489, 0, 0, -0.995489, 80.999437, 73.174424)"/>
<g fill="rgb(0%, 0%, 0%)" fill-opacity="1">
<use xlink:href="#glyph-0-2" x="188.349003" y="50.572839"/>
</g>
<g fill="rgb(0%, 0%, 0%)" fill-opacity="1">
<use xlink:href="#glyph-4-0" x="195.290549" y="51.564346"/>
</g>
<g fill="rgb(0%, 0%, 0%)" fill-opacity="1">
<use xlink:href="#glyph-3-3" x="203.059346" y="50.572839"/>
</g>
<g fill="rgb(0%, 0%, 0%)" fill-opacity="1">
<use xlink:href="#glyph-3-4" x="208.669308" y="50.572839"/>
<use xlink:href="#glyph-3-5" x="212.237012" y="50.572839"/>
<use xlink:href="#glyph-3-6" x="217.333731" y="50.572839"/>
</g>
<g fill="rgb(0%, 0%, 0%)" fill-opacity="1">
<use xlink:href="#glyph-3-7" x="224.467354" y="50.572839"/>
<use xlink:href="#glyph-3-8" x="228.085935" y="50.572839"/>
<use xlink:href="#glyph-3-9" x="232.927372" y="50.572839"/>
<use xlink:href="#glyph-3-10" x="238.024092" y="50.572839"/>
<use xlink:href="#glyph-3-11" x="242.61114" y="50.572839"/>
<use xlink:href="#glyph-3-6" x="246.199373" y="50.572839"/>
</g>
<path fill="none" stroke-width="0.79701" stroke-linecap="butt" stroke-linejoin="miter" stroke="rgb(0%, 0%, 0%)" stroke-opacity="1" stroke-dasharray="2.98883 2.98883" stroke-miterlimit="10" d="M 81.638354 6.802767 L 99.782701 6.802767 " transform="matrix(0.995489, 0, 0, -0.995489, 80.999437, 73.174424)"/>
<g fill="rgb(0%, 0%, 0%)" fill-opacity="1">
<use xlink:href="#glyph-0-2" x="188.349003" y="68.633003"/>
</g>
<g fill="rgb(0%, 0%, 0%)" fill-opacity="1">
<use xlink:href="#glyph-1-1" x="195.290549" y="69.625505"/>
</g>
<g fill="rgb(0%, 0%, 0%)" fill-opacity="1">
<use xlink:href="#glyph-3-3" x="199.422824" y="68.633003"/>
</g>
<g fill="rgb(0%, 0%, 0%)" fill-opacity="1">
<use xlink:href="#glyph-3-4" x="205.032786" y="68.633003"/>
<use xlink:href="#glyph-3-5" x="208.60049" y="68.633003"/>
<use xlink:href="#glyph-3-6" x="213.69721" y="68.633003"/>
</g>
<g fill="rgb(0%, 0%, 0%)" fill-opacity="1">
<use xlink:href="#glyph-3-12" x="220.830832" y="68.633003"/>
<use xlink:href="#glyph-3-13" x="225.927551" y="68.633003"/>
<use xlink:href="#glyph-3-7" x="228.475911" y="68.633003"/>
<use xlink:href="#glyph-3-14" x="232.094493" y="68.633003"/>
</g>
<path fill="none" stroke-width="0.79701" stroke-linecap="butt" stroke-linejoin="miter" stroke="rgb(0%, 0%, 0%)" stroke-opacity="1" stroke-dasharray="0.79701 1.99255" stroke-miterlimit="10" d="M 81.638354 -11.337656 L 99.782701 -11.337656 " transform="matrix(0.995489, 0, 0, -0.995489, 80.999437, 73.174424)"/>
<g fill="rgb(0%, 0%, 0%)" fill-opacity="1">
<use xlink:href="#glyph-0-2" x="188.349003" y="86.693166"/>
</g>
<g fill="rgb(0%, 0%, 0%)" fill-opacity="1">
<use xlink:href="#glyph-1-0" x="195.290549" y="87.684674"/>
</g>
<g fill="rgb(0%, 0%, 0%)" fill-opacity="1">
<use xlink:href="#glyph-3-3" x="199.422824" y="86.693166"/>
</g>
<g fill="rgb(0%, 0%, 0%)" fill-opacity="1">
<use xlink:href="#glyph-3-4" x="205.032786" y="86.693166"/>
<use xlink:href="#glyph-3-5" x="208.60049" y="86.693166"/>
<use xlink:href="#glyph-3-6" x="213.69721" y="86.693166"/>
</g>
<g fill="rgb(0%, 0%, 0%)" fill-opacity="1">
<use xlink:href="#glyph-3-12" x="220.830832" y="86.693166"/>
<use xlink:href="#glyph-3-13" x="225.927551" y="86.693166"/>
<use xlink:href="#glyph-3-10" x="228.475911" y="86.693166"/>
<use xlink:href="#glyph-3-15" x="233.062959" y="86.693166"/>
<use xlink:href="#glyph-3-16" x="240.708038" y="86.693166"/>
<use xlink:href="#glyph-3-17" x="245.295086" y="86.693166"/>
<use xlink:href="#glyph-3-12" x="250.391805" y="86.693166"/>
</g>
<g fill="rgb(0%, 0%, 0%)" fill-opacity="1">
<use xlink:href="#glyph-3-18" x="5.463713" y="153.004688"/>
<use xlink:href="#glyph-3-5" x="12.089449" y="153.004688"/>
<use xlink:href="#glyph-3-6" x="17.186168" y="153.004688"/>
</g>
<g fill="rgb(0%, 0%, 0%)" fill-opacity="1">
<use xlink:href="#glyph-3-14" x="24.328716" y="153.004688"/>
<use xlink:href="#glyph-3-19" x="28.406092" y="153.004688"/>
<use xlink:href="#glyph-3-16" x="30.954452" y="153.004688"/>
</g>
<g fill="rgb(0%, 0%, 0%)" fill-opacity="1">
<use xlink:href="#glyph-3-7" x="35.532573" y="153.004688"/>
<use xlink:href="#glyph-3-6" x="39.151155" y="153.004688"/>
<use xlink:href="#glyph-3-12" x="43.232101" y="153.004688"/>
</g>
<g fill="rgb(0%, 0%, 0%)" fill-opacity="1">
<use xlink:href="#glyph-3-9" x="51.390423" y="153.004688"/>
<use xlink:href="#glyph-3-17" x="56.487142" y="153.004688"/>
<use xlink:href="#glyph-3-13" x="61.583862" y="153.004688"/>
<use xlink:href="#glyph-3-4" x="64.132222" y="153.004688"/>
</g>
<g fill="rgb(0%, 0%, 0%)" fill-opacity="1">
<use xlink:href="#glyph-3-20" x="70.761528" y="153.004688"/>
<use xlink:href="#glyph-3-10" x="75.858247" y="153.004688"/>
<use xlink:href="#glyph-3-19" x="80.445295" y="153.004688"/>
<use xlink:href="#glyph-3-19" x="82.993655" y="153.004688"/>
<use xlink:href="#glyph-3-7" x="85.542014" y="153.004688"/>
</g>
<g fill="rgb(0%, 0%, 0%)" fill-opacity="1">
<use xlink:href="#glyph-3-16" x="92.213272" y="153.004688"/>
<use xlink:href="#glyph-3-21" x="96.80032" y="153.004688"/>
</g>
<g fill="rgb(0%, 0%, 0%)" fill-opacity="1">
<use xlink:href="#glyph-3-4" x="102.664672" y="153.004688"/>
<use xlink:href="#glyph-3-5" x="106.232375" y="153.004688"/>
<use xlink:href="#glyph-3-6" x="111.329095" y="153.004688"/>
</g>
<g fill="rgb(0%, 0%, 0%)" fill-opacity="1">
<use xlink:href="#glyph-3-4" x="118.462717" y="153.004688"/>
<use xlink:href="#glyph-3-5" x="122.030421" y="153.004688"/>
<use xlink:href="#glyph-3-11" x="127.12714" y="153.004688"/>
<use xlink:href="#glyph-3-6" x="130.715374" y="153.004688"/>
<use xlink:href="#glyph-3-6" x="134.79632" y="153.004688"/>
</g>
<g fill="rgb(0%, 0%, 0%)" fill-opacity="1">
<use xlink:href="#glyph-3-17" x="141.938868" y="153.004688"/>
<use xlink:href="#glyph-3-16" x="147.035588" y="153.004688"/>
<use xlink:href="#glyph-3-11" x="151.622635" y="153.004688"/>
<use xlink:href="#glyph-3-15" x="155.210869" y="153.004688"/>
<use xlink:href="#glyph-3-7" x="162.855948" y="153.004688"/>
</g>
<g fill="rgb(0%, 0%, 0%)" fill-opacity="1">
<use xlink:href="#glyph-3-16" x="169.527206" y="153.004688"/>
<use xlink:href="#glyph-3-17" x="174.114253" y="153.004688"/>
</g>
<g fill="rgb(0%, 0%, 0%)" fill-opacity="1">
<use xlink:href="#glyph-5-0" x="182.270547" y="153.004688"/>
</g>
<g fill="rgb(0%, 0%, 0%)" fill-opacity="1">
<use xlink:href="#glyph-1-1" x="188.717334" y="149.21287"/>
</g>
<g fill="rgb(0%, 0%, 0%)" fill-opacity="1">
<use xlink:href="#glyph-3-22" x="192.84961" y="153.004688"/>
</g>
<g fill="rgb(0%, 0%, 0%)" fill-opacity="1">
<use xlink:href="#glyph-3-23" x="199.47713" y="153.004688"/>
</g>
<g fill="rgb(0%, 0%, 0%)" fill-opacity="1">
<use xlink:href="#glyph-3-7" x="209.409039" y="153.004688"/>
<use xlink:href="#glyph-3-15" x="213.027621" y="153.004688"/>
<use xlink:href="#glyph-3-10" x="220.6727" y="153.004688"/>
<use xlink:href="#glyph-3-19" x="225.259748" y="153.004688"/>
<use xlink:href="#glyph-3-19" x="227.808107" y="153.004688"/>
<use xlink:href="#glyph-3-6" x="230.356467" y="153.004688"/>
<use xlink:href="#glyph-3-11" x="234.437413" y="153.004688"/>
</g>
<g fill="rgb(0%, 0%, 0%)" fill-opacity="1">
<use xlink:href="#glyph-3-20" x="241.087249" y="153.004688"/>
<use xlink:href="#glyph-3-10" x="246.183968" y="153.004688"/>
<use xlink:href="#glyph-3-19" x="250.771016" y="153.004688"/>
<use xlink:href="#glyph-3-19" x="253.319376" y="153.004688"/>
</g>
<g fill="rgb(0%, 0%, 0%)" fill-opacity="1">
<use xlink:href="#glyph-3-20" x="11.847785" y="163.913258"/>
</g>
<g fill="rgb(0%, 0%, 0%)" fill-opacity="1">
<use xlink:href="#glyph-3-6" x="17.203357" y="163.913258"/>
<use xlink:href="#glyph-3-19" x="21.284303" y="163.913258"/>
<use xlink:href="#glyph-3-16" x="23.832663" y="163.913258"/>
<use xlink:href="#glyph-3-17" x="28.419711" y="163.913258"/>
</g>
<g fill="rgb(0%, 0%, 0%)" fill-opacity="1">
<use xlink:href="#glyph-3-24" x="33.507504" y="163.913258"/>
<use xlink:href="#glyph-3-7" x="38.094552" y="163.913258"/>
</g>
<g fill="rgb(0%, 0%, 0%)" fill-opacity="1">
<use xlink:href="#glyph-3-4" x="44.774736" y="163.913258"/>
<use xlink:href="#glyph-3-16" x="48.342439" y="163.913258"/>
</g>
<g fill="rgb(0%, 0%, 0%)" fill-opacity="1">
<use xlink:href="#glyph-3-10" x="55.991089" y="163.913258"/>
</g>
<g fill="rgb(0%, 0%, 0%)" fill-opacity="1">
<use xlink:href="#glyph-3-19" x="63.630813" y="163.913258"/>
<use xlink:href="#glyph-3-10" x="66.179173" y="163.913258"/>
<use xlink:href="#glyph-3-11" x="70.76622" y="163.913258"/>
<use xlink:href="#glyph-3-24" x="74.354454" y="163.913258"/>
<use xlink:href="#glyph-3-6" x="78.941501" y="163.913258"/>
<use xlink:href="#glyph-3-11" x="83.022447" y="163.913258"/>
</g>
<g fill="rgb(0%, 0%, 0%)" fill-opacity="1">
<use xlink:href="#glyph-3-17" x="89.672283" y="163.913258"/>
<use xlink:href="#glyph-3-16" x="94.769003" y="163.913258"/>
<use xlink:href="#glyph-3-11" x="99.35605" y="163.913258"/>
<use xlink:href="#glyph-3-15" x="102.944284" y="163.913258"/>
<use xlink:href="#glyph-3-25" x="110.589363" y="163.913258"/>
</g>
<g fill="rgb(0%, 0%, 0%)" fill-opacity="1">
<use xlink:href="#glyph-0-2" x="117.21135" y="163.913258"/>
</g>
<g fill="rgb(0%, 0%, 0%)" fill-opacity="1">
<use xlink:href="#glyph-1-0" x="124.153891" y="164.905761"/>
</g>
<g fill="rgb(0%, 0%, 0%)" fill-opacity="1">
<use xlink:href="#glyph-6-0" x="130.834619" y="163.913258"/>
</g>
<g fill="rgb(0%, 0%, 0%)" fill-opacity="1">
<use xlink:href="#glyph-0-2" x="140.517741" y="163.913258"/>
</g>
<g fill="rgb(0%, 0%, 0%)" fill-opacity="1">
<use xlink:href="#glyph-1-1" x="147.459287" y="164.905761"/>
</g>
<g fill="rgb(0%, 0%, 0%)" fill-opacity="1">
<use xlink:href="#glyph-6-0" x="154.140015" y="163.913258"/>
</g>
<g fill="rgb(0%, 0%, 0%)" fill-opacity="1">
<use xlink:href="#glyph-0-2" x="163.823138" y="163.913258"/>
</g>
<g fill="rgb(0%, 0%, 0%)" fill-opacity="1">
<use xlink:href="#glyph-4-0" x="170.765679" y="164.905761"/>
</g>
<g fill="rgb(0%, 0%, 0%)" fill-opacity="1">
<use xlink:href="#glyph-3-7" x="181.592618" y="163.913258"/>
<use xlink:href="#glyph-3-10" x="185.2112" y="163.913258"/>
</g>
<g fill="rgb(0%, 0%, 0%)" fill-opacity="1">
<use xlink:href="#glyph-3-26" x="189.539395" y="163.913258"/>
<use xlink:href="#glyph-3-7" x="194.380832" y="163.913258"/>
</g>
<g fill="rgb(0%, 0%, 0%)" fill-opacity="1">
<use xlink:href="#glyph-3-6" x="201.061016" y="163.913258"/>
<use xlink:href="#glyph-3-27" x="205.141962" y="163.913258"/>
<use xlink:href="#glyph-3-10" x="209.9834" y="163.913258"/>
<use xlink:href="#glyph-3-14" x="214.570447" y="163.913258"/>
<use xlink:href="#glyph-3-4" x="218.647823" y="163.913258"/>
<use xlink:href="#glyph-3-19" x="222.215527" y="163.913258"/>
<use xlink:href="#glyph-3-26" x="224.763886" y="163.913258"/>
</g>
<g fill="rgb(0%, 0%, 0%)" fill-opacity="1">
<use xlink:href="#glyph-3-4" x="232.666926" y="163.913258"/>
<use xlink:href="#glyph-3-5" x="236.234629" y="163.913258"/>
<use xlink:href="#glyph-3-10" x="241.331349" y="163.913258"/>
<use xlink:href="#glyph-3-4" x="245.918397" y="163.913258"/>
</g>
<g fill="rgb(0%, 0%, 0%)" fill-opacity="1">
<use xlink:href="#glyph-6-1" x="36.378628" y="174.822824"/>
</g>
<g fill="rgb(0%, 0%, 0%)" fill-opacity="1">
<use xlink:href="#glyph-2-1" x="40.965842" y="174.822824"/>
</g>
<g fill="rgb(0%, 0%, 0%)" fill-opacity="1">
<use xlink:href="#glyph-6-1" x="46.540581" y="174.822824"/>
</g>
<g fill="rgb(0%, 0%, 0%)" fill-opacity="1">
<use xlink:href="#glyph-4-0" x="51.1268" y="175.815326"/>
</g>
<g fill="rgb(0%, 0%, 0%)" fill-opacity="1">
<use xlink:href="#glyph-6-2" x="61.444049" y="174.822824"/>
</g>
<g fill="rgb(0%, 0%, 0%)" fill-opacity="1">
<use xlink:href="#glyph-6-1" x="71.132279" y="174.822824"/>
</g>
<g fill="rgb(0%, 0%, 0%)" fill-opacity="1">
<use xlink:href="#glyph-2-1" x="75.714386" y="174.822824"/>
</g>
<g fill="rgb(0%, 0%, 0%)" fill-opacity="1">
<use xlink:href="#glyph-6-1" x="81.289125" y="174.822824"/>
</g>
<g fill="rgb(0%, 0%, 0%)" fill-opacity="1">
<use xlink:href="#glyph-1-1" x="85.876339" y="175.815326"/>
</g>
<g fill="rgb(0%, 0%, 0%)" fill-opacity="1">
<use xlink:href="#glyph-6-2" x="92.557066" y="174.822824"/>
</g>
<g fill="rgb(0%, 0%, 0%)" fill-opacity="1">
<use xlink:href="#glyph-6-1" x="102.23637" y="174.822824"/>
</g>
<g fill="rgb(0%, 0%, 0%)" fill-opacity="1">
<use xlink:href="#glyph-2-1" x="106.827403" y="174.822824"/>
</g>
<g fill="rgb(0%, 0%, 0%)" fill-opacity="1">
<use xlink:href="#glyph-6-1" x="112.402142" y="174.822824"/>
</g>
<g fill="rgb(0%, 0%, 0%)" fill-opacity="1">
<use xlink:href="#glyph-1-0" x="116.98836" y="175.815326"/>
</g>
<g fill="rgb(0%, 0%, 0%)" fill-opacity="1">
<use xlink:href="#glyph-3-3" x="121.120636" y="174.822824"/>
</g>
<g fill="rgb(0%, 0%, 0%)" fill-opacity="1">
<use xlink:href="#glyph-3-10" x="126.730598" y="174.822824"/>
<use xlink:href="#glyph-3-17" x="131.317645" y="174.822824"/>
<use xlink:href="#glyph-3-12" x="136.414365" y="174.822824"/>
</g>
<g fill="rgb(0%, 0%, 0%)" fill-opacity="1">
<use xlink:href="#glyph-3-10" x="144.563761" y="174.822824"/>
<use xlink:href="#glyph-3-19" x="149.150808" y="174.822824"/>
<use xlink:href="#glyph-3-19" x="151.699168" y="174.822824"/>
</g>
<g fill="rgb(0%, 0%, 0%)" fill-opacity="1">
<use xlink:href="#glyph-3-4" x="157.30913" y="174.822824"/>
<use xlink:href="#glyph-3-5" x="160.876834" y="174.822824"/>
<use xlink:href="#glyph-3-11" x="165.973553" y="174.822824"/>
<use xlink:href="#glyph-3-6" x="169.561787" y="174.822824"/>
<use xlink:href="#glyph-3-6" x="173.642733" y="174.822824"/>
</g>
<g fill="rgb(0%, 0%, 0%)" fill-opacity="1">
<use xlink:href="#glyph-3-10" x="180.776355" y="174.822824"/>
<use xlink:href="#glyph-3-24" x="185.363403" y="174.822824"/>
<use xlink:href="#glyph-3-11" x="189.95045" y="174.822824"/>
<use xlink:href="#glyph-3-6" x="193.538684" y="174.822824"/>
<use xlink:href="#glyph-3-6" x="197.61963" y="174.822824"/>
</g>
<g fill="rgb(0%, 0%, 0%)" fill-opacity="1">
<use xlink:href="#glyph-3-10" x="204.762178" y="174.822824"/>
<use xlink:href="#glyph-3-4" x="209.349225" y="174.822824"/>
</g>
<g fill="rgb(0%, 0%, 0%)" fill-opacity="1">
<use xlink:href="#glyph-2-0" x="215.971836" y="174.822824"/>
</g>
<g fill="rgb(0%, 0%, 0%)" fill-opacity="1">
<use xlink:href="#glyph-1-0" x="220.818872" y="175.815326"/>
</g>
</svg>
