<?xml version="1.0" encoding="UTF-8"?>
<svg xmlns="http://www.w3.org/2000/svg" xmlns:xlink="http://www.w3.org/1999/xlink" width="324.546" height="330.852" viewBox="0 0 216.364 220.568">
<defs>
<g>
<g id="glyph-0-0">
<path d="M 4.390625 -3.609375 C 4.0625 -3.546875 3.96875 -3.265625 3.96875 -3.125 C 3.96875 -2.953125 4.09375 -2.8125 4.3125 -2.8125 C 4.5625 -2.8125 4.8125 -3.015625 4.8125 -3.328125 C 4.8125 -3.75 4.359375 -3.953125 3.9375 -3.953125 C 3.40625 -3.953125 3.09375 -3.484375 2.984375 -3.28125 C 2.8125 -3.734375 2.421875 -3.953125 2 -3.953125 C 1.03125 -3.953125 0.515625 -2.8125 0.515625 -2.578125 C 0.515625 -2.5 0.578125 -2.46875 0.640625 -2.46875 C 0.71875 -2.46875 0.75 -2.515625 0.765625 -2.5625 C 1.046875 -3.453125 1.640625 -3.734375 1.96875 -3.734375 C 2.234375 -3.734375 2.46875 -3.5625 2.46875 -3.140625 C 2.46875 -2.8125 2.078125 -1.390625 1.96875 -0.953125 C 1.890625 -0.671875 1.625 -0.125 1.140625 -0.125 C 0.953125 -0.125 0.765625 -0.1875 0.671875 -0.234375 C 0.921875 -0.28125 1.09375 -0.484375 1.09375 -0.71875 C 1.09375 -0.953125 0.921875 -1.046875 0.765625 -1.046875 C 0.5 -1.046875 0.265625 -0.828125 0.265625 -0.515625 C 0.265625 -0.078125 0.75 0.09375 1.125 0.09375 C 1.640625 0.09375 1.953125 -0.328125 2.078125 -0.578125 C 2.3125 0.015625 2.828125 0.09375 3.078125 0.09375 C 4.046875 0.09375 4.546875 -1.0625 4.546875 -1.28125 C 4.546875 -1.328125 4.515625 -1.390625 4.4375 -1.390625 C 4.328125 -1.390625 4.328125 -1.34375 4.28125 -1.21875 C 4.078125 -0.578125 3.5625 -0.125 3.09375 -0.125 C 2.84375 -0.125 2.59375 -0.28125 2.59375 -0.71875 C 2.59375 -0.90625 2.71875 -1.40625 2.8125 -1.75 C 2.84375 -1.90625 3.078125 -2.875 3.09375 -2.9375 C 3.203125 -3.25 3.484375 -3.734375 3.9375 -3.734375 C 4.09375 -3.734375 4.265625 -3.703125 4.390625 -3.609375 Z M 4.390625 -3.609375 "/>
</g>
<g id="glyph-0-1">
<path d="M 4.484375 -3.4375 C 4.5 -3.484375 4.515625 -3.546875 4.515625 -3.59375 C 4.515625 -3.703125 4.4375 -3.859375 4.234375 -3.859375 C 4.125 -3.859375 3.953125 -3.78125 3.890625 -3.609375 C 3.875 -3.578125 3.796875 -3.203125 3.734375 -3.015625 L 3.28125 -1.21875 C 3.21875 -0.96875 3.21875 -0.953125 3.203125 -0.859375 C 3.1875 -0.828125 2.8125 -0.125 2.171875 -0.125 C 1.625 -0.125 1.625 -0.6875 1.625 -0.859375 C 1.625 -1.265625 1.734375 -1.703125 2.125 -2.703125 C 2.1875 -2.90625 2.25 -3.03125 2.25 -3.203125 C 2.25 -3.640625 1.90625 -3.953125 1.46875 -3.953125 C 0.609375 -3.953125 0.265625 -2.6875 0.265625 -2.578125 C 0.265625 -2.5 0.328125 -2.46875 0.390625 -2.46875 C 0.484375 -2.46875 0.484375 -2.515625 0.53125 -2.640625 C 0.71875 -3.296875 1.078125 -3.734375 1.453125 -3.734375 C 1.65625 -3.734375 1.65625 -3.5625 1.65625 -3.4375 C 1.65625 -3.28125 1.625 -3.125 1.546875 -2.90625 C 1.125 -1.796875 1.015625 -1.421875 1.015625 -0.984375 C 1.015625 0 1.8125 0.09375 2.140625 0.09375 C 2.578125 0.09375 2.890625 -0.140625 3.0625 -0.296875 C 2.9375 0.15625 2.84375 0.5625 2.5 1.015625 C 2.21875 1.375 1.875 1.609375 1.46875 1.609375 C 1.21875 1.609375 0.921875 1.515625 0.796875 1.265625 C 1.28125 1.265625 1.34375 0.875 1.34375 0.78125 C 1.34375 0.59375 1.203125 0.46875 1 0.46875 C 0.78125 0.46875 0.5 0.640625 0.5 1.046875 C 0.5 1.515625 0.90625 1.828125 1.46875 1.828125 C 2.390625 1.828125 3.359375 1.046875 3.625 0.015625 Z M 4.484375 -3.4375 "/>
</g>
<g id="glyph-0-2">
<path d="M 1.625 -0.140625 C 1.625 0.15625 1.625 0.890625 0.96875 1.515625 C 0.90625 1.578125 0.90625 1.578125 0.90625 1.625 C 0.90625 1.6875 0.96875 1.71875 1.03125 1.71875 C 1.125 1.71875 1.84375 1.03125 1.84375 -0.015625 C 1.84375 -0.578125 1.65625 -0.96875 1.265625 -0.96875 C 0.96875 -0.96875 0.78125 -0.734375 0.78125 -0.484375 C 0.78125 -0.234375 0.96875 0 1.265625 0 C 1.40625 0 1.53125 -0.046875 1.625 -0.140625 Z M 1.625 -0.140625 "/>
</g>
<g id="glyph-1-0">
<path d="M 3.046875 2.125 C 3.046875 2.078125 3.015625 2.0625 2.96875 2 C 1.8125 0.9375 1.46875 -0.671875 1.46875 -2.234375 C 1.46875 -3.625 1.734375 -5.296875 3 -6.5 C 3.03125 -6.53125 3.046875 -6.5625 3.046875 -6.609375 C 3.046875 -6.671875 3 -6.703125 2.9375 -6.703125 C 2.828125 -6.703125 2.03125 -6.0625 1.546875 -5.078125 C 1.125 -4.234375 0.90625 -3.3125 0.90625 -2.25 C 0.90625 -1.59375 0.984375 -0.578125 1.46875 0.46875 C 2 1.578125 2.828125 2.21875 2.9375 2.21875 C 3 2.21875 3.046875 2.1875 3.046875 2.125 Z M 3.046875 2.125 "/>
</g>
<g id="glyph-1-1">
<path d="M 2.71875 -5.71875 C 2.71875 -5.9375 2.703125 -5.953125 2.484375 -5.953125 C 1.9375 -5.375 1.109375 -5.375 0.828125 -5.375 L 0.828125 -5.109375 C 1 -5.109375 1.546875 -5.109375 2.03125 -5.328125 L 2.03125 -0.71875 C 2.03125 -0.390625 2 -0.28125 1.171875 -0.28125 L 0.890625 -0.28125 L 0.890625 0 C 1.203125 -0.03125 2 -0.03125 2.375 -0.03125 C 2.734375 -0.03125 3.546875 -0.03125 3.859375 0 L 3.859375 -0.28125 L 3.578125 -0.28125 C 2.75 -0.28125 2.71875 -0.390625 2.71875 -0.71875 Z M 2.71875 -5.71875 "/>
</g>
<g id="glyph-1-2">
<path d="M 2.65625 -2.25 C 2.65625 -2.96875 2.5625 -3.953125 2.09375 -4.953125 C 1.5625 -6.046875 0.734375 -6.703125 0.625 -6.703125 C 0.53125 -6.703125 0.515625 -6.625 0.515625 -6.609375 C 0.515625 -6.5625 0.53125 -6.53125 0.59375 -6.46875 C 1.125 -6 2.09375 -4.796875 2.09375 -2.25 C 2.09375 -0.96875 1.875 0.8125 0.578125 2.015625 C 0.546875 2.046875 0.515625 2.078125 0.515625 2.125 C 0.515625 2.15625 0.53125 2.21875 0.625 2.21875 C 0.734375 2.21875 1.53125 1.578125 2.015625 0.609375 C 2.453125 -0.25 2.65625 -1.171875 2.65625 -2.25 Z M 2.65625 -2.25 "/>
</g>
<g id="glyph-1-3">
<path d="M 4.375 -5.453125 C 4.453125 -5.546875 4.453125 -5.5625 4.453125 -5.75 L 2.234375 -5.75 C 1.109375 -5.75 1.078125 -5.875 1.046875 -6.046875 L 0.796875 -6.046875 L 0.515625 -4.171875 L 0.765625 -4.171875 C 0.796875 -4.375 0.859375 -4.875 0.984375 -4.984375 C 1.046875 -5.046875 1.75 -5.046875 1.875 -5.046875 L 3.75 -5.046875 L 2.890625 -3.875 C 1.734375 -2.265625 1.625 -0.8125 1.625 -0.296875 C 1.625 -0.203125 1.625 0.203125 2.03125 0.203125 C 2.453125 0.203125 2.453125 -0.203125 2.453125 -0.3125 L 2.453125 -0.75 C 2.453125 -2.0625 2.65625 -3.09375 3.125 -3.75 Z M 4.375 -5.453125 "/>
</g>
<g id="glyph-1-4">
<path d="M 2.71875 -3.140625 C 3.5625 -3.453125 3.953125 -4.109375 3.953125 -4.734375 C 3.953125 -5.421875 3.1875 -5.953125 2.265625 -5.953125 C 1.328125 -5.953125 0.640625 -5.421875 0.640625 -4.75 C 0.640625 -4.453125 0.828125 -4.28125 1.09375 -4.28125 C 1.34375 -4.28125 1.53125 -4.46875 1.53125 -4.734375 C 1.53125 -5.046875 1.328125 -5.171875 1.015625 -5.171875 C 1.25 -5.546875 1.796875 -5.734375 2.234375 -5.734375 C 2.96875 -5.734375 3.125 -5.140625 3.125 -4.71875 C 3.125 -4.453125 3.0625 -4.015625 2.84375 -3.6875 C 2.5625 -3.28125 2.25 -3.265625 2 -3.25 C 1.765625 -3.21875 1.75 -3.21875 1.6875 -3.21875 C 1.59375 -3.21875 1.53125 -3.203125 1.53125 -3.109375 C 1.53125 -3 1.59375 -3 1.75 -3 L 2.171875 -3 C 2.953125 -3 3.28125 -2.375 3.28125 -1.515625 C 3.28125 -0.375 2.6875 -0.046875 2.21875 -0.046875 C 2.0625 -0.046875 1.1875 -0.09375 0.78125 -0.765625 C 1.109375 -0.71875 1.359375 -0.9375 1.359375 -1.25 C 1.359375 -1.53125 1.140625 -1.71875 0.875 -1.71875 C 0.65625 -1.71875 0.390625 -1.59375 0.390625 -1.21875 C 0.390625 -0.421875 1.21875 0.203125 2.25 0.203125 C 3.375 0.203125 4.203125 -0.609375 4.203125 -1.515625 C 4.203125 -2.296875 3.578125 -2.953125 2.71875 -3.140625 Z M 2.71875 -3.140625 "/>
</g>
<g id="glyph-1-5">
<path d="M 0.921875 -3.078125 C 0.921875 -2.921875 0.921875 -2.828125 1.046875 -2.828125 C 1.125 -2.828125 1.15625 -2.859375 1.203125 -2.9375 C 1.46875 -3.3125 1.90625 -3.53125 2.375 -3.53125 C 3.328125 -3.53125 3.328125 -2.15625 3.328125 -1.828125 C 3.328125 -1.5625 3.328125 -1 3.078125 -0.59375 C 2.828125 -0.21875 2.453125 -0.046875 2.109375 -0.046875 C 1.578125 -0.046875 0.984375 -0.390625 0.765625 -1.046875 C 0.78125 -1.046875 0.828125 -1.03125 0.890625 -1.03125 C 1.078125 -1.03125 1.328125 -1.140625 1.328125 -1.46875 C 1.328125 -1.75 1.140625 -1.90625 0.890625 -1.90625 C 0.703125 -1.90625 0.453125 -1.796875 0.453125 -1.4375 C 0.453125 -0.625 1.140625 0.203125 2.125 0.203125 C 3.203125 0.203125 4.125 -0.671875 4.125 -1.78125 C 4.125 -2.875 3.359375 -3.75 2.390625 -3.75 C 1.953125 -3.75 1.515625 -3.609375 1.203125 -3.28125 L 1.203125 -5.046875 C 1.46875 -4.96875 1.75 -4.921875 2.03125 -4.921875 C 3.125 -4.921875 3.765625 -5.71875 3.765625 -5.84375 C 3.765625 -5.921875 3.71875 -5.953125 3.671875 -5.953125 C 3.65625 -5.953125 3.640625 -5.953125 3.5625 -5.90625 C 3.140625 -5.734375 2.71875 -5.671875 2.34375 -5.671875 C 1.96875 -5.671875 1.5625 -5.734375 1.15625 -5.90625 C 1.0625 -5.953125 1.046875 -5.953125 1.03125 -5.953125 C 0.921875 -5.953125 0.921875 -5.859375 0.921875 -5.71875 Z M 0.921875 -3.078125 "/>
</g>
<g id="glyph-1-6">
<path d="M 6.3125 -2.046875 C 6.4375 -2.046875 6.625 -2.046875 6.625 -2.234375 C 6.625 -2.4375 6.453125 -2.4375 6.3125 -2.4375 L 3.765625 -2.4375 L 3.765625 -4.984375 C 3.765625 -5.125 3.765625 -5.296875 3.5625 -5.296875 C 3.375 -5.296875 3.375 -5.109375 3.375 -4.984375 L 3.375 -2.4375 L 0.828125 -2.4375 C 0.703125 -2.4375 0.515625 -2.4375 0.515625 -2.25 C 0.515625 -2.046875 0.671875 -2.046875 0.828125 -2.046875 L 3.375 -2.046875 L 3.375 0.515625 C 3.375 0.65625 3.375 0.828125 3.578125 0.828125 C 3.765625 0.828125 3.765625 0.640625 3.765625 0.515625 L 3.765625 -2.046875 Z M 6.3125 -2.046875 "/>
</g>
<g id="glyph-1-7">
<path d="M 0.265625 -1.75 L 0.265625 -1.46875 L 2.703125 -1.46875 L 2.703125 -0.703125 C 2.703125 -0.375 2.671875 -0.28125 2 -0.28125 L 1.8125 -0.28125 L 1.8125 0 C 2.375 -0.03125 3 -0.03125 3.0625 -0.03125 C 3.09375 -0.03125 3.75 -0.03125 4.3125 0 L 4.3125 -0.28125 L 4.109375 -0.28125 C 3.4375 -0.28125 3.421875 -0.375 3.421875 -0.703125 L 3.421875 -1.46875 L 4.328125 -1.46875 L 4.328125 -1.75 L 3.421875 -1.75 L 3.421875 -5.8125 C 3.421875 -5.984375 3.421875 -6.046875 3.25 -6.046875 C 3.140625 -6.046875 3.125 -6.046875 3.046875 -5.921875 Z M 0.546875 -1.75 L 2.75 -5.0625 L 2.75 -1.75 Z M 0.546875 -1.75 "/>
</g>
<g id="glyph-1-8">
<path d="M 6.328125 -2.953125 C 6.453125 -2.953125 6.625 -2.953125 6.625 -3.140625 C 6.625 -3.34375 6.421875 -3.34375 6.296875 -3.34375 L 0.84375 -3.34375 C 0.703125 -3.34375 0.515625 -3.34375 0.515625 -3.140625 C 0.515625 -2.953125 0.6875 -2.953125 0.796875 -2.953125 Z M 6.296875 -1.140625 C 6.421875 -1.140625 6.625 -1.140625 6.625 -1.328125 C 6.625 -1.515625 6.453125 -1.515625 6.328125 -1.515625 L 0.796875 -1.515625 C 0.6875 -1.515625 0.515625 -1.515625 0.515625 -1.328125 C 0.515625 -1.140625 0.703125 -1.140625 0.84375 -1.140625 Z M 6.296875 -1.140625 "/>
</g>
<g id="glyph-1-9">
<path d="M 4.234375 -2.859375 C 4.234375 -3.453125 4.203125 -4.234375 3.890625 -4.890625 C 3.5 -5.734375 2.8125 -5.953125 2.296875 -5.953125 C 1.765625 -5.953125 1.078125 -5.734375 0.6875 -4.875 C 0.40625 -4.265625 0.359375 -3.546875 0.359375 -2.859375 C 0.359375 -2.28125 0.375 -1.40625 0.765625 -0.703125 C 1.1875 0.046875 1.875 0.203125 2.28125 0.203125 C 2.875 0.203125 3.53125 -0.046875 3.90625 -0.875 C 4.171875 -1.46875 4.234375 -2.140625 4.234375 -2.859375 Z M 2.296875 -0.03125 C 2.03125 -0.03125 1.390625 -0.15625 1.21875 -1.15625 C 1.125 -1.6875 1.125 -2.453125 1.125 -2.96875 C 1.125 -3.578125 1.125 -4.28125 1.234375 -4.765625 C 1.40625 -5.5625 1.984375 -5.734375 2.28125 -5.734375 C 2.625 -5.734375 3.1875 -5.546875 3.359375 -4.71875 C 3.453125 -4.234375 3.453125 -3.53125 3.453125 -2.96875 C 3.453125 -2.40625 3.453125 -1.65625 3.375 -1.140625 C 3.1875 -0.109375 2.515625 -0.03125 2.296875 -0.03125 Z M 2.296875 -0.03125 "/>
</g>
<g id="glyph-1-10">
<path d="M 1.75 -3.375 C 1.75 -3.640625 1.53125 -3.859375 1.265625 -3.859375 C 1 -3.859375 0.78125 -3.640625 0.78125 -3.375 C 0.78125 -3.109375 1 -2.890625 1.265625 -2.890625 C 1.53125 -2.890625 1.75 -3.109375 1.75 -3.375 Z M 1.75 -0.484375 C 1.75 -0.734375 1.53125 -0.96875 1.265625 -0.96875 C 1 -0.96875 0.78125 -0.734375 0.78125 -0.484375 C 0.78125 -0.21875 1 0 1.265625 0 C 1.53125 0 1.75 -0.21875 1.75 -0.484375 Z M 1.75 -0.484375 "/>
</g>
<g id="glyph-1-11">
<path d="M 3.25 -3.515625 C 3.0625 -3.484375 2.890625 -3.359375 2.890625 -3.09375 C 2.890625 -2.859375 3.0625 -2.6875 3.296875 -2.6875 C 3.53125 -2.6875 3.71875 -2.828125 3.71875 -3.109375 C 3.71875 -3.671875 3.09375 -4 2.3125 -4 C 1.15625 -4 0.296875 -3.046875 0.296875 -1.9375 C 0.296875 -0.78125 1.234375 0.09375 2.28125 0.09375 C 3.53125 0.09375 3.8125 -0.984375 3.8125 -1.0625 C 3.8125 -1.171875 3.71875 -1.171875 3.6875 -1.171875 C 3.59375 -1.171875 3.59375 -1.15625 3.546875 -1 C 3.328125 -0.390625 2.828125 -0.15625 2.375 -0.15625 C 1.8125 -0.15625 1.078125 -0.609375 1.078125 -1.9375 C 1.078125 -3.328125 1.78125 -3.75 2.328125 -3.75 C 2.4375 -3.75 2.921875 -3.734375 3.25 -3.515625 Z M 3.25 -3.515625 "/>
</g>
<g id="glyph-1-12">
<path d="M 3.578125 -2.046875 C 3.765625 -2.046875 3.8125 -2.046875 3.8125 -2.234375 C 3.8125 -3.15625 3.3125 -4 2.171875 -4 C 1.09375 -4 0.265625 -3.078125 0.265625 -1.96875 C 0.265625 -0.796875 1.203125 0.09375 2.28125 0.09375 C 3.375 0.09375 3.8125 -0.859375 3.8125 -1.0625 C 3.8125 -1.125 3.765625 -1.1875 3.6875 -1.1875 C 3.609375 -1.1875 3.578125 -1.125 3.5625 -1.078125 C 3.265625 -0.171875 2.46875 -0.15625 2.328125 -0.15625 C 1.90625 -0.15625 1.53125 -0.390625 1.328125 -0.703125 C 1.03125 -1.140625 1.03125 -1.671875 1.03125 -2.046875 Z M 1.03125 -2.265625 C 1.125 -3.640625 1.921875 -3.78125 2.171875 -3.78125 C 2.65625 -3.78125 3.203125 -3.40625 3.203125 -2.265625 Z M 1.03125 -2.265625 "/>
</g>
<g id="glyph-1-13">
<path d="M 1.65625 -2.3125 C 1.65625 -3.265625 2.328125 -3.734375 2.890625 -3.734375 C 3.421875 -3.734375 3.546875 -3.28125 3.546875 -2.75 L 3.546875 -0.6875 C 3.546875 -0.28125 3.4375 -0.28125 2.84375 -0.28125 L 2.84375 0 C 3.265625 -0.015625 3.4375 -0.03125 3.875 -0.03125 C 4.296875 -0.03125 4.421875 -0.015625 4.890625 0 L 4.890625 -0.28125 C 4.4375 -0.28125 4.203125 -0.28125 4.203125 -0.546875 L 4.203125 -2.265625 C 4.203125 -3.015625 4.203125 -3.265625 3.953125 -3.578125 C 3.75 -3.828125 3.40625 -3.953125 2.953125 -3.953125 C 2.125 -3.953125 1.75 -3.328125 1.625 -3.078125 L 1.609375 -3.078125 L 1.609375 -3.953125 L 0.3125 -3.859375 L 0.3125 -3.578125 C 0.921875 -3.578125 1 -3.515625 1 -3.078125 L 1 -0.6875 C 1 -0.28125 0.90625 -0.28125 0.3125 -0.28125 L 0.3125 0 C 0.734375 -0.015625 0.90625 -0.03125 1.328125 -0.03125 C 1.765625 -0.03125 1.875 -0.015625 2.34375 0 L 2.34375 -0.28125 C 1.765625 -0.28125 1.65625 -0.28125 1.65625 -0.6875 Z M 1.65625 -2.3125 "/>
</g>
<g id="glyph-1-14">
<path d="M 2.90625 -3.578125 L 2.90625 -3.859375 L 1.609375 -3.859375 L 1.609375 -5.5 L 1.359375 -5.5 C 1.34375 -4.75 1.03125 -3.828125 0.171875 -3.796875 L 0.171875 -3.578125 L 0.953125 -3.578125 L 0.953125 -1.109375 C 0.953125 -0.109375 1.671875 0.09375 2.140625 0.09375 C 2.75 0.09375 3.0625 -0.46875 3.0625 -1.109375 L 3.0625 -1.625 L 2.8125 -1.625 L 2.8125 -1.140625 C 2.8125 -0.46875 2.53125 -0.15625 2.203125 -0.15625 C 1.609375 -0.15625 1.609375 -0.9375 1.609375 -1.09375 L 1.609375 -3.578125 Z M 2.90625 -3.578125 "/>
</g>
<g id="glyph-1-15">
<path d="M 1.59375 -2.046875 C 1.59375 -2.40625 1.6875 -3.734375 2.703125 -3.734375 L 2.703125 -3.71875 C 2.6875 -3.703125 2.546875 -3.609375 2.546875 -3.390625 C 2.546875 -3.140625 2.734375 -3 2.9375 -3 C 3.125 -3 3.328125 -3.125 3.328125 -3.390625 C 3.328125 -3.6875 3.0625 -3.953125 2.65625 -3.953125 C 2.125 -3.953125 1.75 -3.578125 1.546875 -3.015625 L 1.53125 -3.015625 L 1.53125 -3.953125 L 0.265625 -3.859375 L 0.265625 -3.578125 C 0.875 -3.578125 0.953125 -3.515625 0.953125 -3.078125 L 0.953125 -0.6875 C 0.953125 -0.28125 0.859375 -0.28125 0.265625 -0.28125 L 0.265625 0 C 0.734375 -0.015625 0.859375 -0.03125 1.3125 -0.03125 C 1.671875 -0.03125 1.890625 -0.015625 2.453125 0 L 2.453125 -0.28125 L 2.265625 -0.28125 C 1.625 -0.28125 1.59375 -0.375 1.59375 -0.703125 Z M 1.59375 -2.046875 "/>
</g>
<g id="glyph-1-16">
<path d="M 1.625 -0.140625 C 1.625 0.15625 1.625 0.890625 0.953125 1.53125 C 0.90625 1.578125 0.90625 1.609375 0.90625 1.625 C 0.90625 1.65625 0.96875 1.71875 1.03125 1.71875 C 1.125 1.71875 1.84375 1.03125 1.84375 -0.015625 C 1.84375 -0.640625 1.625 -0.96875 1.265625 -0.96875 C 0.953125 -0.96875 0.78125 -0.71875 0.78125 -0.484375 C 0.78125 -0.234375 0.953125 0 1.265625 0 C 1.5 0 1.625 -0.140625 1.625 -0.140625 Z M 1.625 -0.140625 "/>
</g>
<g id="glyph-1-17">
<path d="M 3.0625 -0.640625 C 3.09375 -0.265625 3.359375 0.046875 3.75 0.046875 C 3.96875 0.046875 4.53125 -0.078125 4.53125 -0.796875 L 4.53125 -1.296875 L 4.28125 -1.296875 L 4.28125 -0.796875 C 4.28125 -0.703125 4.28125 -0.265625 3.953125 -0.265625 C 3.640625 -0.265625 3.640625 -0.6875 3.640625 -0.828125 L 3.640625 -2.390625 C 3.640625 -2.90625 3.640625 -3.203125 3.234375 -3.578125 C 2.90625 -3.875 2.46875 -4 2.03125 -4 C 1.28125 -4 0.65625 -3.625 0.65625 -3.0625 C 0.65625 -2.78125 0.84375 -2.625 1.078125 -2.625 C 1.3125 -2.625 1.484375 -2.8125 1.484375 -3.03125 C 1.484375 -3.421875 1.09375 -3.46875 1.078125 -3.46875 C 1.328125 -3.703125 1.75 -3.78125 2.015625 -3.78125 C 2.46875 -3.78125 2.96875 -3.4375 2.96875 -2.65625 L 2.96875 -2.359375 C 2.5 -2.34375 1.828125 -2.296875 1.21875 -2.015625 C 0.578125 -1.703125 0.390625 -1.234375 0.390625 -0.875 C 0.390625 -0.140625 1.25 0.09375 1.84375 0.09375 C 2.59375 0.09375 2.9375 -0.390625 3.0625 -0.640625 Z M 2.96875 -1.265625 C 2.96875 -0.390625 2.3125 -0.125 1.90625 -0.125 C 1.5 -0.125 1.09375 -0.421875 1.09375 -0.875 C 1.09375 -1.46875 1.609375 -2.09375 2.96875 -2.140625 Z M 2.96875 -1.265625 "/>
</g>
<g id="glyph-1-18">
<path d="M 2.71875 -2.015625 C 2.65625 -2.09375 2.65625 -2.09375 2.65625 -2.109375 C 2.65625 -2.125 3.359375 -2.96875 3.4375 -3.046875 C 3.703125 -3.359375 4.015625 -3.5625 4.5625 -3.578125 L 4.5625 -3.859375 C 4.296875 -3.828125 4.0625 -3.828125 3.796875 -3.828125 C 3.453125 -3.828125 3.296875 -3.828125 2.9375 -3.859375 L 2.9375 -3.578125 C 3.078125 -3.5625 3.1875 -3.484375 3.1875 -3.3125 C 3.1875 -3.15625 3.109375 -3.0625 3.0625 -3.015625 L 2.5 -2.3125 L 1.796875 -3.1875 C 1.734375 -3.265625 1.71875 -3.28125 1.71875 -3.359375 C 1.71875 -3.453125 1.8125 -3.5625 2.015625 -3.578125 L 2.015625 -3.859375 C 1.6875 -3.828125 1.453125 -3.828125 1.046875 -3.828125 C 1.03125 -3.828125 0.515625 -3.828125 0.171875 -3.859375 L 0.171875 -3.578125 C 0.78125 -3.578125 0.796875 -3.5625 1.21875 -3.03125 L 2.140625 -1.875 C 1.9375 -1.640625 1.46875 -1.046875 1.265625 -0.828125 C 0.828125 -0.296875 0.3125 -0.28125 0.125 -0.28125 L 0.125 0 C 0.390625 -0.03125 0.625 -0.03125 0.890625 -0.03125 C 1.171875 -0.03125 1.453125 -0.015625 1.75 0 L 1.75 -0.28125 C 1.515625 -0.296875 1.5 -0.453125 1.5 -0.546875 C 1.5 -0.578125 1.5 -0.703125 1.625 -0.859375 C 1.84375 -1.140625 2.078125 -1.40625 2.296875 -1.671875 L 3 -0.765625 C 3.171875 -0.578125 3.171875 -0.546875 3.171875 -0.5 C 3.171875 -0.40625 3.078125 -0.28125 2.875 -0.28125 L 2.875 0 C 3.25 -0.015625 3.453125 -0.03125 3.84375 -0.03125 C 3.859375 -0.03125 4.375 -0.03125 4.71875 0 L 4.71875 -0.28125 C 4.359375 -0.28125 4.09375 -0.28125 3.890625 -0.53125 Z M 2.71875 -2.015625 "/>
</g>
<g id="glyph-1-19">
<path d="M 3.078125 -3.765625 C 3.078125 -3.921875 3.078125 -4 2.96875 -4 C 2.921875 -4 2.90625 -4 2.78125 -3.890625 C 2.765625 -3.875 2.6875 -3.796875 2.640625 -3.75 C 2.359375 -3.953125 2.078125 -4 1.78125 -4 C 0.59375 -4 0.296875 -3.359375 0.296875 -2.890625 C 0.296875 -2.609375 0.421875 -2.375 0.640625 -2.1875 C 0.9375 -1.90625 1.28125 -1.84375 1.734375 -1.765625 C 2.1875 -1.671875 2.34375 -1.640625 2.53125 -1.5 C 2.625 -1.421875 2.84375 -1.25 2.84375 -0.90625 C 2.84375 -0.125 1.953125 -0.125 1.828125 -0.125 C 0.90625 -0.125 0.671875 -0.890625 0.578125 -1.375 C 0.546875 -1.453125 0.53125 -1.515625 0.421875 -1.515625 C 0.296875 -1.515625 0.296875 -1.4375 0.296875 -1.28125 L 0.296875 -0.140625 C 0.296875 0.015625 0.296875 0.09375 0.40625 0.09375 C 0.46875 0.09375 0.46875 0.09375 0.640625 -0.078125 C 0.671875 -0.140625 0.765625 -0.25 0.8125 -0.296875 C 1.1875 0.078125 1.59375 0.09375 1.828125 0.09375 C 2.921875 0.09375 3.3125 -0.546875 3.3125 -1.140625 C 3.3125 -1.546875 3.125 -1.78125 2.9375 -2 C 2.625 -2.28125 2.3125 -2.34375 1.640625 -2.46875 C 1.40625 -2.515625 0.765625 -2.640625 0.765625 -3.140625 C 0.765625 -3.4375 0.96875 -3.8125 1.78125 -3.8125 C 2.75 -3.8125 2.8125 -3.0625 2.828125 -2.84375 C 2.828125 -2.734375 2.828125 -2.6875 2.953125 -2.6875 C 3.078125 -2.6875 3.078125 -2.75 3.078125 -2.90625 Z M 3.078125 -3.765625 "/>
</g>
<g id="glyph-1-20">
<path d="M 1.640625 -6.203125 L 0.328125 -6.109375 L 0.328125 -5.828125 C 0.921875 -5.828125 1.015625 -5.765625 1.015625 -5.328125 L 1.015625 -0.6875 C 1.015625 -0.28125 0.90625 -0.28125 0.328125 -0.28125 L 0.328125 0 C 0.734375 -0.015625 0.90625 -0.03125 1.328125 -0.03125 C 1.75 -0.03125 1.890625 -0.015625 2.328125 0 L 2.328125 -0.28125 C 1.75 -0.28125 1.640625 -0.28125 1.640625 -0.6875 Z M 1.640625 -6.203125 "/>
</g>
<g id="glyph-1-21">
<path d="M 4.328125 -1.90625 C 4.328125 -3.078125 3.390625 -4 2.296875 -4 C 1.15625 -4 0.265625 -3.046875 0.265625 -1.90625 C 0.265625 -0.78125 1.1875 0.09375 2.28125 0.09375 C 3.421875 0.09375 4.328125 -0.796875 4.328125 -1.90625 Z M 2.296875 -0.15625 C 1.84375 -0.15625 1.46875 -0.375 1.265625 -0.71875 C 1.03125 -1.09375 1.03125 -1.578125 1.03125 -1.984375 C 1.03125 -2.3125 1.03125 -2.828125 1.25 -3.1875 C 1.515625 -3.640625 1.96875 -3.78125 2.28125 -3.78125 C 2.796875 -3.78125 3.15625 -3.5 3.34375 -3.1875 C 3.546875 -2.8125 3.5625 -2.359375 3.5625 -1.984375 C 3.5625 -1.65625 3.5625 -1.140625 3.328125 -0.734375 C 3.078125 -0.328125 2.671875 -0.15625 2.296875 -0.15625 Z M 2.296875 -0.15625 "/>
</g>
<g id="glyph-1-22">
<path d="M 1.125 -1.59375 C 1.34375 -1.453125 1.625 -1.328125 2.03125 -1.328125 C 2.875 -1.328125 3.515625 -1.9375 3.515625 -2.640625 C 3.515625 -3.078125 3.265625 -3.375 3.15625 -3.5 C 3.515625 -3.828125 3.9375 -3.828125 4.046875 -3.828125 C 4 -3.796875 3.921875 -3.75 3.921875 -3.59375 C 3.921875 -3.5 3.984375 -3.328125 4.1875 -3.328125 C 4.3125 -3.328125 4.453125 -3.421875 4.453125 -3.609375 C 4.453125 -3.765625 4.328125 -4.046875 3.984375 -4.046875 C 3.71875 -4.046875 3.3125 -3.953125 3 -3.625 C 2.765625 -3.828125 2.40625 -3.953125 2.03125 -3.953125 C 1.1875 -3.953125 0.546875 -3.34375 0.546875 -2.640625 C 0.546875 -2.1875 0.8125 -1.859375 0.953125 -1.71875 C 0.9375 -1.703125 0.6875 -1.390625 0.6875 -0.984375 C 0.6875 -0.671875 0.828125 -0.359375 1.078125 -0.203125 C 0.609375 -0.046875 0.265625 0.28125 0.265625 0.703125 C 0.265625 1.328125 1.140625 1.84375 2.28125 1.84375 C 3.390625 1.84375 4.328125 1.375 4.328125 0.671875 C 4.328125 0.3125 4.15625 -0.078125 3.828125 -0.296875 C 3.328125 -0.609375 2.8125 -0.609375 1.953125 -0.609375 C 1.78125 -0.609375 1.5 -0.609375 1.421875 -0.625 C 1.15625 -0.671875 0.984375 -0.921875 0.984375 -1.203125 C 0.984375 -1.34375 1.03125 -1.484375 1.125 -1.59375 Z M 2.03125 -1.5625 C 1.234375 -1.5625 1.234375 -2.4375 1.234375 -2.640625 C 1.234375 -2.875 1.25 -3.1875 1.40625 -3.390625 C 1.53125 -3.578125 1.78125 -3.703125 2.03125 -3.703125 C 2.828125 -3.703125 2.828125 -2.84375 2.828125 -2.640625 C 2.828125 -2.4375 2.828125 -1.5625 2.03125 -1.5625 Z M 2.4375 -0.046875 C 2.71875 -0.046875 3.828125 -0.03125 3.828125 0.6875 C 3.828125 1.203125 3.140625 1.59375 2.296875 1.59375 C 1.421875 1.59375 0.765625 1.1875 0.765625 0.6875 C 0.765625 0.546875 0.84375 -0.046875 1.625 -0.046875 Z M 2.4375 -0.046875 "/>
</g>
<g id="glyph-1-23">
<path d="M 1.640625 -6.203125 L 0.3125 -6.109375 L 0.3125 -5.828125 C 0.921875 -5.828125 1 -5.765625 1 -5.328125 L 1 -0.6875 C 1 -0.28125 0.90625 -0.28125 0.3125 -0.28125 L 0.3125 0 C 0.734375 -0.015625 0.90625 -0.03125 1.328125 -0.03125 C 1.765625 -0.03125 1.875 -0.015625 2.34375 0 L 2.34375 -0.28125 C 1.765625 -0.28125 1.65625 -0.28125 1.65625 -0.6875 L 1.65625 -2.3125 C 1.65625 -3.265625 2.328125 -3.734375 2.890625 -3.734375 C 3.421875 -3.734375 3.546875 -3.28125 3.546875 -2.75 L 3.546875 -0.6875 C 3.546875 -0.28125 3.4375 -0.28125 2.84375 -0.28125 L 2.84375 0 C 3.265625 -0.015625 3.4375 -0.03125 3.875 -0.03125 C 4.296875 -0.03125 4.421875 -0.015625 4.890625 0 L 4.890625 -0.28125 C 4.4375 -0.28125 4.203125 -0.28125 4.203125 -0.546875 L 4.203125 -2.265625 C 4.203125 -3.015625 4.203125 -3.265625 3.953125 -3.578125 C 3.75 -3.828125 3.40625 -3.953125 2.953125 -3.953125 C 2.359375 -3.953125 1.921875 -3.640625 1.640625 -3.140625 Z M 1.640625 -6.203125 "/>
</g>
<g id="glyph-1-24">
<path d="M 1.640625 -3.953125 L 0.359375 -3.859375 L 0.359375 -3.578125 C 0.921875 -3.578125 1.015625 -3.515625 1.015625 -3.078125 L 1.015625 -0.6875 C 1.015625 -0.28125 0.90625 -0.28125 0.328125 -0.28125 L 0.328125 0 C 0.71875 -0.015625 0.90625 -0.03125 1.3125 -0.03125 C 1.453125 -0.03125 1.828125 -0.03125 2.265625 0 L 2.265625 -0.28125 C 1.6875 -0.28125 1.640625 -0.328125 1.640625 -0.671875 Z M 1.671875 -5.5 C 1.671875 -5.78125 1.453125 -5.984375 1.1875 -5.984375 C 0.90625 -5.984375 0.703125 -5.765625 0.703125 -5.5 C 0.703125 -5.25 0.90625 -5.015625 1.1875 -5.015625 C 1.453125 -5.015625 1.671875 -5.234375 1.671875 -5.5 Z M 1.671875 -5.5 "/>
</g>
<g id="glyph-1-25">
<path d="M 1.609375 -3.171875 C 1.578125 -3.21875 1.5625 -3.28125 1.5625 -3.34375 C 1.5625 -3.578125 1.890625 -3.578125 2.0625 -3.578125 L 2.0625 -3.859375 C 1.671875 -3.828125 1.46875 -3.828125 1.078125 -3.828125 C 0.765625 -3.828125 0.5 -3.828125 0.171875 -3.859375 L 0.171875 -3.578125 C 0.59375 -3.578125 0.765625 -3.578125 0.90625 -3.25 L 2.203125 -0.078125 C 2.265625 0.078125 2.328125 0.09375 2.40625 0.09375 C 2.5 0.09375 2.5625 0.078125 2.625 -0.078125 L 3.84375 -3 C 4.03125 -3.453125 4.34375 -3.5625 4.65625 -3.578125 L 4.65625 -3.859375 C 4.390625 -3.828125 3.984375 -3.828125 3.96875 -3.828125 C 3.71875 -3.828125 3.4375 -3.828125 3.1875 -3.859375 L 3.1875 -3.578125 C 3.453125 -3.5625 3.609375 -3.421875 3.609375 -3.1875 C 3.609375 -3.09375 3.59375 -3.078125 3.5625 -2.984375 L 2.625 -0.734375 Z M 1.609375 -3.171875 "/>
</g>
<g id="glyph-1-26">
<path d="M 2.6875 -3.578125 L 2.6875 -3.859375 L 1.625 -3.859375 L 1.625 -4.859375 C 1.625 -5.671875 2.0625 -6.078125 2.4375 -6.078125 C 2.53125 -6.078125 2.625 -6.0625 2.703125 -6.03125 C 2.625 -5.984375 2.46875 -5.875 2.46875 -5.65625 C 2.46875 -5.421875 2.640625 -5.265625 2.875 -5.265625 C 3.109375 -5.265625 3.265625 -5.4375 3.265625 -5.671875 C 3.265625 -6 2.9375 -6.296875 2.4375 -6.296875 C 1.75 -6.296875 1.015625 -5.78125 1.015625 -4.875 L 1.015625 -3.859375 L 0.296875 -3.859375 L 0.296875 -3.578125 L 1.015625 -3.578125 L 1.015625 -0.6875 C 1.015625 -0.28125 0.90625 -0.28125 0.328125 -0.28125 L 0.328125 0 C 0.796875 -0.015625 0.90625 -0.03125 1.375 -0.03125 C 1.71875 -0.03125 1.9375 -0.015625 2.5 0 L 2.5 -0.28125 L 2.328125 -0.28125 C 1.671875 -0.28125 1.640625 -0.375 1.640625 -0.703125 L 1.640625 -3.578125 Z M 2.6875 -3.578125 "/>
</g>
<g id="glyph-2-0">
<path d="M 3.578125 7.59375 L 1.953125 4.125 C 1.890625 3.984375 1.84375 3.984375 1.8125 3.984375 C 1.765625 3.984375 1.75 4 1.671875 4.046875 L 0.78125 4.703125 C 0.703125 4.75 0.65625 4.796875 0.65625 4.859375 C 0.65625 4.890625 0.6875 4.953125 0.765625 4.953125 C 0.828125 4.953125 0.875 4.921875 1.078125 4.765625 C 1.15625 4.703125 1.265625 4.625 1.375 4.546875 L 3.171875 8.40625 C 3.25 8.5625 3.28125 8.5625 3.375 8.5625 C 3.5 8.5625 3.546875 8.53125 3.609375 8.390625 L 7.78125 -0.015625 C 7.796875 -0.0625 7.84375 -0.140625 7.84375 -0.1875 C 7.84375 -0.296875 7.75 -0.390625 7.65625 -0.390625 C 7.5625 -0.390625 7.5 -0.34375 7.421875 -0.1875 Z M 3.578125 7.59375 "/>
</g>
<g id="glyph-2-1">
<path d="M 6.03125 -2.046875 C 6.1875 -2.046875 6.359375 -2.046875 6.359375 -2.25 C 6.359375 -2.4375 6.1875 -2.4375 6.03125 -2.4375 L 1.09375 -2.4375 C 0.953125 -2.4375 0.765625 -2.4375 0.765625 -2.25 C 0.765625 -2.046875 0.9375 -2.046875 1.09375 -2.046875 Z M 6.03125 -2.046875 "/>
</g>
<g id="glyph-3-0">
<path d="M 4.890625 -4.015625 L 4.5 -4.015625 L 4.046875 -3.328125 C 3.6875 -3.765625 3.234375 -4.015625 2.640625 -4.015625 C 1.25 -4.015625 0.34375 -3.171875 0.34375 -1.984375 C 0.34375 -0.796875 1.203125 0.046875 2.5625 0.046875 C 3.03125 0.046875 3.5 -0.109375 3.859375 -0.4375 L 3.859375 1.296875 L 3.25 1.296875 L 3.25 1.734375 C 3.90625 1.703125 4.015625 1.703125 4.375 1.703125 C 4.734375 1.703125 4.828125 1.703125 5.5 1.734375 L 5.5 1.296875 L 4.890625 1.296875 Z M 3.90625 -1.328125 C 3.90625 -1.15625 3.90625 -1.140625 3.796875 -0.96875 C 3.484375 -0.484375 3.03125 -0.296875 2.65625 -0.296875 C 2.0625 -0.296875 1.53125 -0.84375 1.53125 -1.96875 C 1.53125 -2.265625 1.5625 -2.734375 1.828125 -3.125 C 2.15625 -3.625 2.640625 -3.640625 2.75 -3.640625 C 3.484375 -3.640625 3.90625 -2.921875 3.90625 -2.484375 Z M 3.90625 -1.328125 "/>
</g>
<g id="glyph-4-0">
<path d="M 2.140625 -3.78125 C 2.140625 -3.953125 2.109375 -3.953125 1.9375 -3.953125 C 1.546875 -3.578125 0.9375 -3.578125 0.71875 -3.578125 L 0.71875 -3.34375 C 0.875 -3.34375 1.265625 -3.34375 1.625 -3.515625 L 1.625 -0.5 C 1.625 -0.3125 1.625 -0.234375 1.015625 -0.234375 L 0.75 -0.234375 L 0.75 0 C 1.078125 -0.03125 1.546875 -0.03125 1.875 -0.03125 C 2.21875 -0.03125 2.671875 -0.03125 3 0 L 3 -0.234375 L 2.75 -0.234375 C 2.140625 -0.234375 2.140625 -0.3125 2.140625 -0.5 Z M 2.140625 -3.78125 "/>
</g>
<g id="glyph-4-1">
<path d="M 3.203125 -1.109375 L 2.984375 -1.109375 C 2.96875 -1.03125 2.90625 -0.640625 2.828125 -0.578125 C 2.78125 -0.53125 2.296875 -0.53125 2.21875 -0.53125 L 1.09375 -0.53125 L 1.859375 -1.15625 C 2.0625 -1.3125 2.59375 -1.703125 2.78125 -1.875 C 2.953125 -2.046875 3.203125 -2.359375 3.203125 -2.78125 C 3.203125 -3.53125 2.53125 -3.953125 1.734375 -3.953125 C 0.96875 -3.953125 0.421875 -3.453125 0.421875 -2.890625 C 0.421875 -2.59375 0.6875 -2.546875 0.75 -2.546875 C 0.90625 -2.546875 1.078125 -2.65625 1.078125 -2.875 C 1.078125 -3 1 -3.203125 0.734375 -3.203125 C 0.875 -3.5 1.234375 -3.734375 1.640625 -3.734375 C 2.265625 -3.734375 2.59375 -3.265625 2.59375 -2.78125 C 2.59375 -2.359375 2.328125 -1.921875 1.90625 -1.546875 L 0.5 -0.25 C 0.4375 -0.1875 0.421875 -0.1875 0.421875 0 L 3.015625 0 Z M 3.203125 -1.109375 "/>
</g>
<g id="glyph-4-2">
<path d="M 1.015625 -3.296875 C 1.203125 -3.25 1.421875 -3.234375 1.625 -3.234375 C 1.75 -3.234375 2.078125 -3.234375 2.453125 -3.4375 C 2.5625 -3.5 2.921875 -3.734375 2.921875 -3.859375 C 2.921875 -3.9375 2.875 -3.953125 2.84375 -3.953125 C 2.828125 -3.953125 2.828125 -3.953125 2.75 -3.9375 C 2.546875 -3.859375 2.234375 -3.765625 1.84375 -3.765625 C 1.5625 -3.765625 1.234375 -3.828125 0.96875 -3.921875 C 0.90625 -3.953125 0.890625 -3.953125 0.859375 -3.953125 C 0.78125 -3.953125 0.78125 -3.890625 0.78125 -3.796875 L 0.78125 -2.015625 C 0.78125 -1.90625 0.78125 -1.84375 0.890625 -1.84375 C 0.9375 -1.84375 0.953125 -1.859375 1 -1.90625 C 1.15625 -2.09375 1.40625 -2.296875 1.875 -2.296875 C 2.609375 -2.296875 2.609375 -1.40625 2.609375 -1.21875 C 2.609375 -0.984375 2.59375 -0.65625 2.390625 -0.40625 C 2.203125 -0.1875 1.9375 -0.09375 1.671875 -0.09375 C 1.265625 -0.09375 0.859375 -0.3125 0.71875 -0.65625 C 1 -0.671875 1.046875 -0.90625 1.046875 -0.96875 C 1.046875 -1.125 0.921875 -1.28125 0.734375 -1.28125 C 0.671875 -1.28125 0.421875 -1.25 0.421875 -0.953125 C 0.421875 -0.40625 0.953125 0.125 1.703125 0.125 C 2.515625 0.125 3.203125 -0.453125 3.203125 -1.203125 C 3.203125 -1.875 2.65625 -2.5 1.890625 -2.5 C 1.5 -2.5 1.203125 -2.375 1.015625 -2.203125 Z M 1.015625 -3.296875 "/>
</g>
</g>
</defs>
<path fill="none" stroke-width="0.3985" stroke-linecap="butt" stroke-linejoin="miter" stroke="rgb(50%, 50%, 50%)" stroke-opacity="1" stroke-miterlimit="10" d="M -59.245579 -0.0000397559 L 118.090577 -0.0000397559 " transform="matrix(0.997069, 0, 0, -0.997069, 78.32975, 126.339804)"/>
<path fill="none" stroke-width="0.3985" stroke-linecap="round" stroke-linejoin="round" stroke="rgb(50%, 50%, 50%)" stroke-opacity="1" stroke-miterlimit="10" d="M -2.071959 2.389777 C -1.691939 0.955887 -0.849626 0.278119 0.000521475 -0.0000397559 C -0.849626 -0.278199 -1.691939 -0.955966 -2.071959 -2.389857 " transform="matrix(0.997069, 0, 0, -0.997069, 196.272918, 126.339804)"/>
<g fill="rgb(0%, 0%, 0%)" fill-opacity="1">
<use xlink:href="#glyph-0-0" x="193.866132" y="133.698174"/>
</g>
<path fill="none" stroke-width="0.3985" stroke-linecap="butt" stroke-linejoin="miter" stroke="rgb(50%, 50%, 50%)" stroke-opacity="1" stroke-miterlimit="10" d="M -0.00163019 -59.243989 L -0.00163019 118.092168 " transform="matrix(0.997069, 0, 0, -0.997069, 78.32975, 126.339804)"/>
<path fill="none" stroke-width="0.3985" stroke-linecap="round" stroke-linejoin="round" stroke="rgb(50%, 50%, 50%)" stroke-opacity="1" stroke-miterlimit="10" d="M -2.070369 2.391447 C -1.694266 0.957557 -0.848036 0.279789 -0.00180582 0.00163019 C -0.848036 -0.280447 -1.694266 -0.958214 -2.070369 -2.392104 " transform="matrix(0, -0.997069, -0.997069, 0, 78.32975, 8.396637)"/>
<g fill="rgb(0%, 0%, 0%)" fill-opacity="1">
<use xlink:href="#glyph-0-1" x="69.974311" y="9.254974"/>
</g>
<path fill="none" stroke-width="0.3985" stroke-linecap="butt" stroke-linejoin="miter" stroke="rgb(54.998779%, 54.998779%, 54.998779%)" stroke-opacity="1" stroke-dasharray="2.98883 2.98883" stroke-miterlimit="10" d="M -35.907648 89.766962 L 89.76929 -35.909975 " transform="matrix(0.997069, 0, 0, -0.997069, 78.32975, 126.339804)"/>
<path fill="none" stroke-width="0.3985" stroke-linecap="butt" stroke-linejoin="miter" stroke="rgb(54.998779%, 54.998779%, 54.998779%)" stroke-opacity="1" stroke-dasharray="2.98883 2.98883" stroke-miterlimit="10" d="M 72.629211 72.630801 L -18.771486 -18.769896 " transform="matrix(0.997069, 0, 0, -0.997069, 78.32975, 126.339804)"/>
<path fill="none" stroke-width="1.19553" stroke-linecap="butt" stroke-linejoin="miter" stroke="rgb(0%, 0%, 0%)" stroke-opacity="1" stroke-miterlimit="10" d="M 77.310901 -23.451586 C 95.524439 -5.23413 87.735987 32.086188 59.912251 59.909924 C 32.088516 87.737577 -5.235721 95.526029 -23.449259 77.308573 C -41.666714 59.095036 -33.878262 21.770799 -6.054527 -6.052936 C 21.773126 -33.876672 59.093445 -41.665124 77.310901 -23.451586 Z M 77.310901 -23.451586 " transform="matrix(0.997069, 0, 0, -0.997069, 78.32975, 126.339804)"/>
<path fill="none" stroke-width="1.19553" stroke-linecap="butt" stroke-linejoin="miter" stroke="rgb(0%, 0%, 0%)" stroke-opacity="1" stroke-miterlimit="10" d="M 26.928862 26.930453 L 76.464671 -22.605356 " transform="matrix(0.997069, 0, 0, -0.997069, 78.32975, 126.339804)"/>
<path fill="none" stroke-width="1.19553" stroke-linecap="round" stroke-linejoin="round" stroke="rgb(0%, 0%, 0%)" stroke-opacity="1" stroke-miterlimit="10" d="M -3.027906 3.831678 C -2.47385 1.532344 -1.243845 0.446394 0.0000115542 0.000378233 C -1.241075 -0.448407 -2.47385 -1.531588 -3.027906 -3.830921 " transform="matrix(0.705028, 0.705028, 0.705028, -0.705028, 154.991913, 149.30104)"/>
<path fill="none" stroke-width="1.19553" stroke-linecap="butt" stroke-linejoin="miter" stroke="rgb(0%, 0%, 0%)" stroke-opacity="1" stroke-miterlimit="10" d="M 26.928862 26.930453 L 59.066021 59.067611 " transform="matrix(0.997069, 0, 0, -0.997069, 78.32975, 126.339804)"/>
<path fill="none" stroke-width="1.19553" stroke-linecap="round" stroke-linejoin="round" stroke="rgb(0%, 0%, 0%)" stroke-opacity="1" stroke-miterlimit="10" d="M -3.029626 3.829654 C -2.475569 1.53032 -1.242794 0.44714 0.00106252 0.00112462 C -1.242794 -0.444891 -2.475569 -1.533611 -3.026855 -3.830175 " transform="matrix(0.705028, -0.705028, -0.705028, -0.705028, 137.644575, 67.024979)"/>
<path fill-rule="nonzero" fill="rgb(0%, 0%, 0%)" fill-opacity="1" d="M 107.066406 99.488281 C 107.066406 98.445312 106.222656 97.601562 105.179688 97.601562 C 104.136719 97.601562 103.292969 98.445312 103.292969 99.488281 C 103.292969 100.53125 104.136719 101.375 105.179688 101.375 C 106.222656 101.375 107.066406 100.53125 107.066406 99.488281 Z M 107.066406 99.488281 "/>
<g fill="rgb(0%, 0%, 0%)" fill-opacity="1">
<use xlink:href="#glyph-1-0" x="79.103476" y="111.851393"/>
<use xlink:href="#glyph-1-1" x="82.676842" y="111.851393"/>
</g>
<g fill="rgb(0%, 0%, 0%)" fill-opacity="1">
<use xlink:href="#glyph-0-2" x="87.270469" y="111.851393"/>
</g>
<g fill="rgb(0%, 0%, 0%)" fill-opacity="1">
<use xlink:href="#glyph-1-1" x="91.354464" y="111.851393"/>
<use xlink:href="#glyph-1-2" x="95.948792" y="111.851393"/>
</g>
<g fill="rgb(0%, 0%, 0%)" fill-opacity="1">
<use xlink:href="#glyph-2-0" x="162.389657" y="150.341252"/>
</g>
<path fill="none" stroke-width="0.379" stroke-linecap="butt" stroke-linejoin="miter" stroke="rgb(0%, 0%, 0%)" stroke-opacity="1" stroke-miterlimit="10" d="M 0.000726234 0.000463618 L 4.60798 0.000463618 " transform="matrix(0.997069, 0, 0, -0.997069, 170.046151, 150.152806)"/>
<g fill="rgb(0%, 0%, 0%)" fill-opacity="1">
<use xlink:href="#glyph-1-3" x="170.046151" y="157.739505"/>
</g>
<g fill="rgb(0%, 0%, 0%)" fill-opacity="1">
<use xlink:href="#glyph-3-0" x="176.172144" y="157.739505"/>
</g>
<g fill="rgb(0%, 0%, 0%)" fill-opacity="1">
<use xlink:href="#glyph-4-0" x="181.754734" y="158.732586"/>
</g>
<g fill="rgb(0%, 0%, 0%)" fill-opacity="1">
<use xlink:href="#glyph-2-0" x="142.251852" y="55.965668"/>
</g>
<path fill="none" stroke-width="0.379" stroke-linecap="butt" stroke-linejoin="miter" stroke="rgb(0%, 0%, 0%)" stroke-opacity="1" stroke-miterlimit="10" d="M 0.00181578 -0.000121932 L 4.609069 -0.000121932 " transform="matrix(0.997069, 0, 0, -0.997069, 149.908346, 55.777222)"/>
<g fill="rgb(0%, 0%, 0%)" fill-opacity="1">
<use xlink:href="#glyph-1-4" x="149.908346" y="63.363921"/>
</g>
<g fill="rgb(0%, 0%, 0%)" fill-opacity="1">
<use xlink:href="#glyph-3-0" x="156.034338" y="63.363921"/>
</g>
<g fill="rgb(0%, 0%, 0%)" fill-opacity="1">
<use xlink:href="#glyph-4-1" x="161.617926" y="64.357002"/>
</g>
<g fill="rgb(0%, 0%, 0%)" fill-opacity="1">
<use xlink:href="#glyph-1-5" x="5.297428" y="201.315414"/>
</g>
<g fill="rgb(0%, 0%, 0%)" fill-opacity="1">
<use xlink:href="#glyph-0-0" x="9.891923" y="201.315414"/>
</g>
<g fill="rgb(0%, 0%, 0%)" fill-opacity="1">
<use xlink:href="#glyph-4-1" x="15.099615" y="197.517578"/>
</g>
<g fill="rgb(0%, 0%, 0%)" fill-opacity="1">
<use xlink:href="#glyph-1-6" x="21.280446" y="201.315414"/>
</g>
<g fill="rgb(0%, 0%, 0%)" fill-opacity="1">
<use xlink:href="#glyph-1-7" x="30.465526" y="201.315414"/>
</g>
<g fill="rgb(0%, 0%, 0%)" fill-opacity="1">
<use xlink:href="#glyph-0-0" x="35.062933" y="201.315414"/>
<use xlink:href="#glyph-0-1" x="40.271447" y="201.315414"/>
</g>
<g fill="rgb(0%, 0%, 0%)" fill-opacity="1">
<use xlink:href="#glyph-1-6" x="47.159375" y="201.315414"/>
</g>
<g fill="rgb(0%, 0%, 0%)" fill-opacity="1">
<use xlink:href="#glyph-1-5" x="56.344455" y="201.315414"/>
</g>
<g fill="rgb(0%, 0%, 0%)" fill-opacity="1">
<use xlink:href="#glyph-0-1" x="60.941862" y="201.315414"/>
</g>
<g fill="rgb(0%, 0%, 0%)" fill-opacity="1">
<use xlink:href="#glyph-4-1" x="65.787618" y="197.517578"/>
</g>
<g fill="rgb(0%, 0%, 0%)" fill-opacity="1">
<use xlink:href="#glyph-2-1" x="71.968449" y="201.315414"/>
</g>
<g fill="rgb(0%, 0%, 0%)" fill-opacity="1">
<use xlink:href="#glyph-1-1" x="81.156441" y="201.315414"/>
<use xlink:href="#glyph-1-7" x="85.750769" y="201.315414"/>
</g>
<g fill="rgb(0%, 0%, 0%)" fill-opacity="1">
<use xlink:href="#glyph-0-0" x="90.34543" y="201.315414"/>
</g>
<g fill="rgb(0%, 0%, 0%)" fill-opacity="1">
<use xlink:href="#glyph-2-1" x="97.59512" y="201.315414"/>
</g>
<g fill="rgb(0%, 0%, 0%)" fill-opacity="1">
<use xlink:href="#glyph-1-1" x="106.783112" y="201.315414"/>
<use xlink:href="#glyph-1-7" x="111.37744" y="201.315414"/>
</g>
<g fill="rgb(0%, 0%, 0%)" fill-opacity="1">
<use xlink:href="#glyph-0-1" x="115.972101" y="201.315414"/>
</g>
<g fill="rgb(0%, 0%, 0%)" fill-opacity="1">
<use xlink:href="#glyph-2-1" x="122.859855" y="201.315414"/>
</g>
<g fill="rgb(0%, 0%, 0%)" fill-opacity="1">
<use xlink:href="#glyph-1-3" x="132.047847" y="201.315414"/>
</g>
<g fill="rgb(0%, 0%, 0%)" fill-opacity="1">
<use xlink:href="#glyph-1-8" x="139.190109" y="201.315414"/>
</g>
<g fill="rgb(0%, 0%, 0%)" fill-opacity="1">
<use xlink:href="#glyph-1-9" x="148.893716" y="201.315414"/>
<use xlink:href="#glyph-1-10" x="153.488044" y="201.315414"/>
</g>
<g fill="rgb(0%, 0%, 0%)" fill-opacity="1">
<use xlink:href="#glyph-1-11" x="160.126083" y="201.315414"/>
<use xlink:href="#glyph-1-12" x="164.20993" y="201.315414"/>
<use xlink:href="#glyph-1-13" x="168.297354" y="201.315414"/>
</g>
<g fill="rgb(0%, 0%, 0%)" fill-opacity="1">
<use xlink:href="#glyph-1-14" x="173.142899" y="201.315414"/>
<use xlink:href="#glyph-1-12" x="176.716265" y="201.315414"/>
<use xlink:href="#glyph-1-15" x="180.803688" y="201.315414"/>
</g>
<g fill="rgb(0%, 0%, 0%)" fill-opacity="1">
<use xlink:href="#glyph-1-0" x="187.464078" y="201.315414"/>
<use xlink:href="#glyph-1-1" x="191.037444" y="201.315414"/>
</g>
<g fill="rgb(0%, 0%, 0%)" fill-opacity="1">
<use xlink:href="#glyph-0-2" x="195.62895" y="201.315414"/>
</g>
<g fill="rgb(0%, 0%, 0%)" fill-opacity="1">
<use xlink:href="#glyph-1-1" x="199.711949" y="201.315414"/>
<use xlink:href="#glyph-1-2" x="204.306277" y="201.315414"/>
<use xlink:href="#glyph-1-16" x="207.879643" y="201.315414"/>
</g>
<g fill="rgb(0%, 0%, 0%)" fill-opacity="1">
<use xlink:href="#glyph-1-17" x="36.644284" y="212.242295"/>
<use xlink:href="#glyph-1-18" x="41.238612" y="212.242295"/>
<use xlink:href="#glyph-1-12" x="46.087734" y="212.242295"/>
<use xlink:href="#glyph-1-19" x="50.175157" y="212.242295"/>
</g>
<g fill="rgb(0%, 0%, 0%)" fill-opacity="1">
<use xlink:href="#glyph-1-17" x="56.865943" y="212.242295"/>
<use xlink:href="#glyph-1-20" x="61.460271" y="212.242295"/>
<use xlink:href="#glyph-1-21" x="64.012676" y="212.242295"/>
<use xlink:href="#glyph-1-13" x="68.607004" y="212.242295"/>
</g>
<g fill="rgb(0%, 0%, 0%)" fill-opacity="1">
<use xlink:href="#glyph-1-22" x="73.702872" y="212.242295"/>
</g>
<g fill="rgb(0%, 0%, 0%)" fill-opacity="1">
<use xlink:href="#glyph-1-14" x="81.363662" y="212.242295"/>
<use xlink:href="#glyph-1-23" x="84.937028" y="212.242295"/>
<use xlink:href="#glyph-1-12" x="90.041837" y="212.242295"/>
</g>
<g fill="rgb(0%, 0%, 0%)" fill-opacity="1">
<use xlink:href="#glyph-1-12" x="97.195721" y="212.242295"/>
<use xlink:href="#glyph-1-24" x="101.283144" y="212.242295"/>
<use xlink:href="#glyph-1-22" x="103.835549" y="212.242295"/>
<use xlink:href="#glyph-1-12" x="108.429877" y="212.242295"/>
<use xlink:href="#glyph-1-13" x="112.5173" y="212.242295"/>
</g>
<g fill="rgb(0%, 0%, 0%)" fill-opacity="1">
<use xlink:href="#glyph-1-25" x="117.362845" y="212.242295"/>
</g>
<g fill="rgb(0%, 0%, 0%)" fill-opacity="1">
<use xlink:href="#glyph-1-12" x="121.952703" y="212.242295"/>
<use xlink:href="#glyph-1-11" x="126.040126" y="212.242295"/>
<use xlink:href="#glyph-1-14" x="130.123973" y="212.242295"/>
<use xlink:href="#glyph-1-21" x="133.69734" y="212.242295"/>
<use xlink:href="#glyph-1-15" x="138.291668" y="212.242295"/>
<use xlink:href="#glyph-1-19" x="141.885596" y="212.242295"/>
</g>
<g fill="rgb(0%, 0%, 0%)" fill-opacity="1">
<use xlink:href="#glyph-1-21" x="148.576382" y="212.242295"/>
<use xlink:href="#glyph-1-26" x="153.17071" y="212.242295"/>
</g>
<g fill="rgb(0%, 0%, 0%)" fill-opacity="1">
<use xlink:href="#glyph-1-0" x="159.04437" y="212.242295"/>
</g>
<g fill="rgb(0%, 0%, 0%)" fill-opacity="1">
<use xlink:href="#glyph-4-2" x="164.144499" y="209.124459"/>
</g>
<g fill="rgb(0%, 0%, 0%)" fill-opacity="1">
<use xlink:href="#glyph-4-1" x="170.337618" y="209.124459"/>
</g>
<g fill="rgb(0%, 0%, 0%)" fill-opacity="1">
<use xlink:href="#glyph-4-1" x="164.144499" y="214.731976"/>
</g>
<g fill="rgb(0%, 0%, 0%)" fill-opacity="1">
<use xlink:href="#glyph-4-2" x="170.337618" y="214.731976"/>
</g>
<g fill="rgb(0%, 0%, 0%)" fill-opacity="1">
<use xlink:href="#glyph-1-2" x="175.512084" y="212.242295"/>
</g>
</svg>
